G04 #@! TF.GenerationSoftware,KiCad,Pcbnew,(5.1.5)-3*
G04 #@! TF.CreationDate,2020-08-05T22:49:10+02:00*
G04 #@! TF.ProjectId,Controller,436f6e74-726f-46c6-9c65-722e6b696361,rev?*
G04 #@! TF.SameCoordinates,Original*
G04 #@! TF.FileFunction,Soldermask,Bot*
G04 #@! TF.FilePolarity,Negative*
%FSLAX46Y46*%
G04 Gerber Fmt 4.6, Leading zero omitted, Abs format (unit mm)*
G04 Created by KiCad (PCBNEW (5.1.5)-3) date 2020-08-05 22:49:10*
%MOMM*%
%LPD*%
G04 APERTURE LIST*
%ADD10C,0.100000*%
G04 APERTURE END LIST*
D10*
G36*
X154551000Y-128551000D02*
G01*
X151699000Y-128551000D01*
X151699000Y-127449000D01*
X154551000Y-127449000D01*
X154551000Y-128551000D01*
G37*
G36*
X98301000Y-128551000D02*
G01*
X95449000Y-128551000D01*
X95449000Y-127449000D01*
X98301000Y-127449000D01*
X98301000Y-128551000D01*
G37*
G36*
X104551000Y-128551000D02*
G01*
X101699000Y-128551000D01*
X101699000Y-127449000D01*
X104551000Y-127449000D01*
X104551000Y-128551000D01*
G37*
G36*
X148301000Y-128551000D02*
G01*
X145449000Y-128551000D01*
X145449000Y-127449000D01*
X148301000Y-127449000D01*
X148301000Y-128551000D01*
G37*
G36*
X120341548Y-125152439D02*
G01*
X120366855Y-125160116D01*
X120390188Y-125172587D01*
X120410633Y-125189367D01*
X120427413Y-125209812D01*
X120439884Y-125233145D01*
X120447561Y-125258452D01*
X120451000Y-125293368D01*
X120451000Y-126906632D01*
X120447561Y-126941548D01*
X120439884Y-126966855D01*
X120427413Y-126990188D01*
X120410633Y-127010633D01*
X120390188Y-127027413D01*
X120366855Y-127039884D01*
X120341548Y-127047561D01*
X120306632Y-127051000D01*
X118693368Y-127051000D01*
X118658452Y-127047561D01*
X118633145Y-127039884D01*
X118609812Y-127027413D01*
X118589367Y-127010633D01*
X118572587Y-126990188D01*
X118560116Y-126966855D01*
X118552439Y-126941548D01*
X118549000Y-126906632D01*
X118549000Y-125293368D01*
X118552439Y-125258452D01*
X118560116Y-125233145D01*
X118572587Y-125209812D01*
X118589367Y-125189367D01*
X118609812Y-125172587D01*
X118633145Y-125160116D01*
X118658452Y-125152439D01*
X118693368Y-125149000D01*
X120306632Y-125149000D01*
X120341548Y-125152439D01*
G37*
G36*
X124603722Y-125121505D02*
G01*
X124633977Y-125137677D01*
X124666805Y-125147635D01*
X124857395Y-125185546D01*
X124943931Y-125221391D01*
X125030467Y-125257235D01*
X125186227Y-125361310D01*
X125318690Y-125493773D01*
X125422765Y-125649533D01*
X125458609Y-125736068D01*
X125494454Y-125822605D01*
X125531000Y-126006333D01*
X125531000Y-126193667D01*
X125494454Y-126377395D01*
X125458609Y-126463931D01*
X125422765Y-126550467D01*
X125318690Y-126706227D01*
X125186227Y-126838690D01*
X125030467Y-126942765D01*
X124972308Y-126966855D01*
X124857395Y-127014454D01*
X124673667Y-127051000D01*
X124486333Y-127051000D01*
X124302605Y-127014454D01*
X124187692Y-126966855D01*
X124129533Y-126942765D01*
X123973773Y-126838690D01*
X123841310Y-126706227D01*
X123737235Y-126550467D01*
X123701391Y-126463931D01*
X123665546Y-126377395D01*
X123629000Y-126193667D01*
X123629000Y-126006333D01*
X123665546Y-125822605D01*
X123701391Y-125736068D01*
X123737235Y-125649533D01*
X123841310Y-125493773D01*
X123973773Y-125361310D01*
X124129533Y-125257235D01*
X124216069Y-125221391D01*
X124302605Y-125185546D01*
X124493195Y-125147635D01*
X124526024Y-125137677D01*
X124556279Y-125121505D01*
X124580000Y-125102037D01*
X124603722Y-125121505D01*
G37*
G36*
X122063722Y-125121505D02*
G01*
X122093977Y-125137677D01*
X122126805Y-125147635D01*
X122317395Y-125185546D01*
X122403931Y-125221391D01*
X122490467Y-125257235D01*
X122646227Y-125361310D01*
X122778690Y-125493773D01*
X122882765Y-125649533D01*
X122918609Y-125736068D01*
X122954454Y-125822605D01*
X122991000Y-126006333D01*
X122991000Y-126193667D01*
X122954454Y-126377395D01*
X122918609Y-126463931D01*
X122882765Y-126550467D01*
X122778690Y-126706227D01*
X122646227Y-126838690D01*
X122490467Y-126942765D01*
X122432308Y-126966855D01*
X122317395Y-127014454D01*
X122133667Y-127051000D01*
X121946333Y-127051000D01*
X121762605Y-127014454D01*
X121647692Y-126966855D01*
X121589533Y-126942765D01*
X121433773Y-126838690D01*
X121301310Y-126706227D01*
X121197235Y-126550467D01*
X121161391Y-126463931D01*
X121125546Y-126377395D01*
X121089000Y-126193667D01*
X121089000Y-126006333D01*
X121125546Y-125822605D01*
X121161391Y-125736068D01*
X121197235Y-125649533D01*
X121301310Y-125493773D01*
X121433773Y-125361310D01*
X121589533Y-125257235D01*
X121676069Y-125221391D01*
X121762605Y-125185546D01*
X121953195Y-125147635D01*
X121986024Y-125137677D01*
X122016279Y-125121505D01*
X122040000Y-125102037D01*
X122063722Y-125121505D01*
G37*
G36*
X98301000Y-126551000D02*
G01*
X95449000Y-126551000D01*
X95449000Y-125449000D01*
X98301000Y-125449000D01*
X98301000Y-126551000D01*
G37*
G36*
X104551000Y-126551000D02*
G01*
X101699000Y-126551000D01*
X101699000Y-125449000D01*
X104551000Y-125449000D01*
X104551000Y-126551000D01*
G37*
G36*
X148301000Y-126551000D02*
G01*
X145449000Y-126551000D01*
X145449000Y-125449000D01*
X148301000Y-125449000D01*
X148301000Y-126551000D01*
G37*
G36*
X154551000Y-126551000D02*
G01*
X151699000Y-126551000D01*
X151699000Y-125449000D01*
X154551000Y-125449000D01*
X154551000Y-126551000D01*
G37*
G36*
X122666000Y-124801000D02*
G01*
X122160946Y-124801000D01*
X122126805Y-124804363D01*
X122093977Y-124814321D01*
X122063722Y-124830493D01*
X122040000Y-124849961D01*
X122016278Y-124830492D01*
X121986023Y-124814321D01*
X121953194Y-124804362D01*
X121919054Y-124801000D01*
X121014000Y-124801000D01*
X121014000Y-123349000D01*
X122666000Y-123349000D01*
X122666000Y-124801000D01*
G37*
G36*
X133796000Y-124801000D02*
G01*
X124700946Y-124801000D01*
X124666805Y-124804363D01*
X124633977Y-124814321D01*
X124603722Y-124830493D01*
X124580000Y-124849961D01*
X124556278Y-124830492D01*
X124526023Y-124814321D01*
X124493194Y-124804362D01*
X124459054Y-124801000D01*
X123824000Y-124801000D01*
X123824000Y-123599000D01*
X132349001Y-123599000D01*
X132383142Y-123595637D01*
X132415970Y-123585679D01*
X132446225Y-123569507D01*
X132472744Y-123547744D01*
X132494507Y-123521225D01*
X132510679Y-123490970D01*
X132520637Y-123458142D01*
X132524000Y-123424001D01*
X132524000Y-122899000D01*
X133796000Y-122899000D01*
X133796000Y-124801000D01*
G37*
G36*
X98301000Y-124551000D02*
G01*
X95449000Y-124551000D01*
X95449000Y-123449000D01*
X98301000Y-123449000D01*
X98301000Y-124551000D01*
G37*
G36*
X148301000Y-124551000D02*
G01*
X145449000Y-124551000D01*
X145449000Y-123449000D01*
X148301000Y-123449000D01*
X148301000Y-124551000D01*
G37*
G36*
X104551000Y-124551000D02*
G01*
X101699000Y-124551000D01*
X101699000Y-123449000D01*
X104551000Y-123449000D01*
X104551000Y-124551000D01*
G37*
G36*
X154551000Y-124551000D02*
G01*
X151699000Y-124551000D01*
X151699000Y-123449000D01*
X154551000Y-123449000D01*
X154551000Y-124551000D01*
G37*
G36*
X148301000Y-122551000D02*
G01*
X145449000Y-122551000D01*
X145449000Y-121449000D01*
X148301000Y-121449000D01*
X148301000Y-122551000D01*
G37*
G36*
X104551000Y-122551000D02*
G01*
X101699000Y-122551000D01*
X101699000Y-121449000D01*
X104551000Y-121449000D01*
X104551000Y-122551000D01*
G37*
G36*
X98301000Y-122551000D02*
G01*
X95449000Y-122551000D01*
X95449000Y-121449000D01*
X98301000Y-121449000D01*
X98301000Y-122551000D01*
G37*
G36*
X154551000Y-122551000D02*
G01*
X151699000Y-122551000D01*
X151699000Y-121449000D01*
X154551000Y-121449000D01*
X154551000Y-122551000D01*
G37*
G36*
X110499664Y-120290341D02*
G01*
X110528912Y-120299214D01*
X110555865Y-120313621D01*
X110579490Y-120333010D01*
X110598879Y-120356635D01*
X110613286Y-120383588D01*
X110622159Y-120412836D01*
X110626000Y-120451842D01*
X110626000Y-121098158D01*
X110622159Y-121137164D01*
X110613286Y-121166412D01*
X110598879Y-121193365D01*
X110579490Y-121216990D01*
X110555865Y-121236379D01*
X110528912Y-121250786D01*
X110499664Y-121259659D01*
X110460658Y-121263500D01*
X109739342Y-121263500D01*
X109700336Y-121259659D01*
X109671088Y-121250786D01*
X109644135Y-121236379D01*
X109620510Y-121216990D01*
X109601121Y-121193365D01*
X109586714Y-121166412D01*
X109577841Y-121137164D01*
X109574000Y-121098158D01*
X109574000Y-120451842D01*
X109577841Y-120412836D01*
X109586714Y-120383588D01*
X109601121Y-120356635D01*
X109620510Y-120333010D01*
X109644135Y-120313621D01*
X109671088Y-120299214D01*
X109700336Y-120290341D01*
X109739342Y-120286500D01*
X110460658Y-120286500D01*
X110499664Y-120290341D01*
G37*
G36*
X112299664Y-120290341D02*
G01*
X112328912Y-120299214D01*
X112355865Y-120313621D01*
X112379490Y-120333010D01*
X112398879Y-120356635D01*
X112413286Y-120383588D01*
X112422159Y-120412836D01*
X112426000Y-120451842D01*
X112426000Y-121098158D01*
X112422159Y-121137164D01*
X112413286Y-121166412D01*
X112398879Y-121193365D01*
X112379490Y-121216990D01*
X112355865Y-121236379D01*
X112328912Y-121250786D01*
X112299664Y-121259659D01*
X112260658Y-121263500D01*
X111539342Y-121263500D01*
X111500336Y-121259659D01*
X111471088Y-121250786D01*
X111444135Y-121236379D01*
X111420510Y-121216990D01*
X111401121Y-121193365D01*
X111386714Y-121166412D01*
X111377841Y-121137164D01*
X111374000Y-121098158D01*
X111374000Y-120451842D01*
X111377841Y-120412836D01*
X111386714Y-120383588D01*
X111401121Y-120356635D01*
X111420510Y-120333010D01*
X111444135Y-120313621D01*
X111471088Y-120299214D01*
X111500336Y-120290341D01*
X111539342Y-120286500D01*
X112260658Y-120286500D01*
X112299664Y-120290341D01*
G37*
G36*
X110499664Y-118715341D02*
G01*
X110528912Y-118724214D01*
X110555865Y-118738621D01*
X110579490Y-118758010D01*
X110598879Y-118781635D01*
X110613286Y-118808588D01*
X110622159Y-118837836D01*
X110626000Y-118876842D01*
X110626000Y-119523158D01*
X110622159Y-119562164D01*
X110613286Y-119591412D01*
X110598879Y-119618365D01*
X110579490Y-119641990D01*
X110555865Y-119661379D01*
X110528912Y-119675786D01*
X110499664Y-119684659D01*
X110460658Y-119688500D01*
X109739342Y-119688500D01*
X109700336Y-119684659D01*
X109671088Y-119675786D01*
X109644135Y-119661379D01*
X109620510Y-119641990D01*
X109601121Y-119618365D01*
X109586714Y-119591412D01*
X109577841Y-119562164D01*
X109574000Y-119523158D01*
X109574000Y-118876842D01*
X109577841Y-118837836D01*
X109586714Y-118808588D01*
X109601121Y-118781635D01*
X109620510Y-118758010D01*
X109644135Y-118738621D01*
X109671088Y-118724214D01*
X109700336Y-118715341D01*
X109739342Y-118711500D01*
X110460658Y-118711500D01*
X110499664Y-118715341D01*
G37*
G36*
X112299664Y-118715341D02*
G01*
X112328912Y-118724214D01*
X112355865Y-118738621D01*
X112379490Y-118758010D01*
X112398879Y-118781635D01*
X112413286Y-118808588D01*
X112422159Y-118837836D01*
X112426000Y-118876842D01*
X112426000Y-119523158D01*
X112422159Y-119562164D01*
X112413286Y-119591412D01*
X112398879Y-119618365D01*
X112379490Y-119641990D01*
X112355865Y-119661379D01*
X112328912Y-119675786D01*
X112299664Y-119684659D01*
X112260658Y-119688500D01*
X111539342Y-119688500D01*
X111500336Y-119684659D01*
X111471088Y-119675786D01*
X111444135Y-119661379D01*
X111420510Y-119641990D01*
X111401121Y-119618365D01*
X111386714Y-119591412D01*
X111377841Y-119562164D01*
X111374000Y-119523158D01*
X111374000Y-118876842D01*
X111377841Y-118837836D01*
X111386714Y-118808588D01*
X111401121Y-118781635D01*
X111420510Y-118758010D01*
X111444135Y-118738621D01*
X111471088Y-118724214D01*
X111500336Y-118715341D01*
X111539342Y-118711500D01*
X112260658Y-118711500D01*
X112299664Y-118715341D01*
G37*
G36*
X91977619Y-118158420D02*
G01*
X92100329Y-118195644D01*
X92100332Y-118195645D01*
X92164179Y-118229772D01*
X92213425Y-118256094D01*
X92213427Y-118256095D01*
X92213426Y-118256095D01*
X92312553Y-118337447D01*
X92393905Y-118436574D01*
X92454355Y-118549668D01*
X92454356Y-118549671D01*
X92491580Y-118672381D01*
X92504150Y-118800000D01*
X92491580Y-118927618D01*
X92454355Y-119050332D01*
X92420228Y-119114179D01*
X92393906Y-119163425D01*
X92312553Y-119262553D01*
X92213425Y-119343906D01*
X92164179Y-119370228D01*
X92100332Y-119404355D01*
X92100329Y-119404356D01*
X91977619Y-119441580D01*
X91881978Y-119451000D01*
X91118022Y-119451000D01*
X91022381Y-119441580D01*
X90899671Y-119404356D01*
X90899668Y-119404355D01*
X90835821Y-119370228D01*
X90786575Y-119343906D01*
X90687447Y-119262553D01*
X90606094Y-119163425D01*
X90579772Y-119114179D01*
X90545645Y-119050332D01*
X90508420Y-118927618D01*
X90495850Y-118800000D01*
X90508420Y-118672381D01*
X90545644Y-118549671D01*
X90545645Y-118549668D01*
X90606095Y-118436574D01*
X90687447Y-118337447D01*
X90786574Y-118256095D01*
X90786573Y-118256095D01*
X90786575Y-118256094D01*
X90835821Y-118229772D01*
X90899668Y-118195645D01*
X90899671Y-118195644D01*
X91022381Y-118158420D01*
X91118022Y-118149000D01*
X91881978Y-118149000D01*
X91977619Y-118158420D01*
G37*
G36*
X100629828Y-117302718D02*
G01*
X100657872Y-117311226D01*
X100683718Y-117325041D01*
X100706370Y-117343630D01*
X100724959Y-117366282D01*
X100738774Y-117392128D01*
X100747282Y-117420172D01*
X100751000Y-117457927D01*
X100751000Y-118742073D01*
X100747282Y-118779828D01*
X100738774Y-118807872D01*
X100724959Y-118833718D01*
X100706370Y-118856370D01*
X100683718Y-118874959D01*
X100657872Y-118888774D01*
X100629828Y-118897282D01*
X100592073Y-118901000D01*
X97407927Y-118901000D01*
X97370172Y-118897282D01*
X97342128Y-118888774D01*
X97316282Y-118874959D01*
X97293630Y-118856370D01*
X97275041Y-118833718D01*
X97261226Y-118807872D01*
X97252718Y-118779828D01*
X97249000Y-118742073D01*
X97249000Y-117457927D01*
X97252718Y-117420172D01*
X97261226Y-117392128D01*
X97275041Y-117366282D01*
X97293630Y-117343630D01*
X97316282Y-117325041D01*
X97342128Y-117311226D01*
X97370172Y-117302718D01*
X97407927Y-117299000D01*
X100592073Y-117299000D01*
X100629828Y-117302718D01*
G37*
G36*
X122316000Y-118601000D02*
G01*
X121014000Y-118601000D01*
X121014000Y-117499000D01*
X122316000Y-117499000D01*
X122316000Y-118601000D01*
G37*
G36*
X94351390Y-117038911D02*
G01*
X94426351Y-117053821D01*
X94567574Y-117112317D01*
X94694671Y-117197241D01*
X94802759Y-117305329D01*
X94887683Y-117432426D01*
X94946179Y-117573649D01*
X94976000Y-117723571D01*
X94976000Y-117876429D01*
X94946179Y-118026351D01*
X94887683Y-118167574D01*
X94802759Y-118294671D01*
X94694671Y-118402759D01*
X94567574Y-118487683D01*
X94426351Y-118546179D01*
X94351390Y-118561089D01*
X94276431Y-118576000D01*
X94123569Y-118576000D01*
X94048610Y-118561089D01*
X93973649Y-118546179D01*
X93832426Y-118487683D01*
X93705329Y-118402759D01*
X93597241Y-118294671D01*
X93512317Y-118167574D01*
X93453821Y-118026351D01*
X93424000Y-117876429D01*
X93424000Y-117723571D01*
X93453821Y-117573649D01*
X93512317Y-117432426D01*
X93597241Y-117305329D01*
X93705329Y-117197241D01*
X93832426Y-117112317D01*
X93973649Y-117053821D01*
X94048610Y-117038911D01*
X94123569Y-117024000D01*
X94276431Y-117024000D01*
X94351390Y-117038911D01*
G37*
G36*
X106399512Y-115203443D02*
G01*
X106434618Y-115214092D01*
X106466978Y-115231388D01*
X106495337Y-115254663D01*
X106518612Y-115283022D01*
X106535908Y-115315382D01*
X106546557Y-115350488D01*
X106551000Y-115395594D01*
X106551000Y-116104406D01*
X106546557Y-116149512D01*
X106535908Y-116184618D01*
X106518612Y-116216978D01*
X106495337Y-116245337D01*
X106466978Y-116268612D01*
X106434618Y-116285908D01*
X106399512Y-116296557D01*
X106354406Y-116301000D01*
X103145594Y-116301000D01*
X103100488Y-116296557D01*
X103065382Y-116285908D01*
X103033022Y-116268612D01*
X103004663Y-116245337D01*
X102981388Y-116216978D01*
X102964092Y-116184618D01*
X102953443Y-116149512D01*
X102949000Y-116104406D01*
X102949000Y-115395594D01*
X102953443Y-115350488D01*
X102964092Y-115315382D01*
X102981388Y-115283022D01*
X103004663Y-115254663D01*
X103033022Y-115231388D01*
X103065382Y-115214092D01*
X103100488Y-115203443D01*
X103145594Y-115199000D01*
X106354406Y-115199000D01*
X106399512Y-115203443D01*
G37*
G36*
X159329828Y-114702718D02*
G01*
X159357872Y-114711226D01*
X159383718Y-114725041D01*
X159406370Y-114743630D01*
X159424959Y-114766282D01*
X159438774Y-114792128D01*
X159447282Y-114820172D01*
X159451000Y-114857927D01*
X159451000Y-116142073D01*
X159447282Y-116179828D01*
X159438774Y-116207872D01*
X159424959Y-116233718D01*
X159406370Y-116256370D01*
X159383718Y-116274959D01*
X159357872Y-116288774D01*
X159329828Y-116297282D01*
X159292073Y-116301000D01*
X156107927Y-116301000D01*
X156070172Y-116297282D01*
X156042128Y-116288774D01*
X156016282Y-116274959D01*
X155993630Y-116256370D01*
X155975041Y-116233718D01*
X155961226Y-116207872D01*
X155952718Y-116179828D01*
X155949000Y-116142073D01*
X155949000Y-114857927D01*
X155952718Y-114820172D01*
X155961226Y-114792128D01*
X155975041Y-114766282D01*
X155993630Y-114743630D01*
X156016282Y-114725041D01*
X156042128Y-114711226D01*
X156070172Y-114702718D01*
X156107927Y-114699000D01*
X159292073Y-114699000D01*
X159329828Y-114702718D01*
G37*
G36*
X122316000Y-114901000D02*
G01*
X121014000Y-114901000D01*
X121014000Y-113799000D01*
X122316000Y-113799000D01*
X122316000Y-114901000D01*
G37*
G36*
X119999664Y-113815341D02*
G01*
X120028912Y-113824214D01*
X120055865Y-113838621D01*
X120079490Y-113858010D01*
X120098879Y-113881635D01*
X120113286Y-113908588D01*
X120122159Y-113937836D01*
X120126000Y-113976842D01*
X120126000Y-114623158D01*
X120122159Y-114662164D01*
X120113286Y-114691412D01*
X120098879Y-114718365D01*
X120079490Y-114741990D01*
X120055865Y-114761379D01*
X120028912Y-114775786D01*
X119999664Y-114784659D01*
X119960658Y-114788500D01*
X119239342Y-114788500D01*
X119200336Y-114784659D01*
X119171088Y-114775786D01*
X119144135Y-114761379D01*
X119120510Y-114741990D01*
X119101121Y-114718365D01*
X119086714Y-114691412D01*
X119077841Y-114662164D01*
X119074000Y-114623158D01*
X119074000Y-113976842D01*
X119077841Y-113937836D01*
X119086714Y-113908588D01*
X119101121Y-113881635D01*
X119120510Y-113858010D01*
X119144135Y-113838621D01*
X119171088Y-113824214D01*
X119200336Y-113815341D01*
X119239342Y-113811500D01*
X119960658Y-113811500D01*
X119999664Y-113815341D01*
G37*
G36*
X106399512Y-113203443D02*
G01*
X106434618Y-113214092D01*
X106466978Y-113231388D01*
X106495337Y-113254663D01*
X106518612Y-113283022D01*
X106535908Y-113315382D01*
X106546557Y-113350488D01*
X106551000Y-113395594D01*
X106551000Y-114104406D01*
X106546557Y-114149512D01*
X106535908Y-114184618D01*
X106518612Y-114216978D01*
X106495337Y-114245337D01*
X106466978Y-114268612D01*
X106434618Y-114285908D01*
X106399512Y-114296557D01*
X106354406Y-114301000D01*
X103145594Y-114301000D01*
X103100488Y-114296557D01*
X103065382Y-114285908D01*
X103033022Y-114268612D01*
X103004663Y-114245337D01*
X102981388Y-114216978D01*
X102964092Y-114184618D01*
X102953443Y-114149512D01*
X102949000Y-114104406D01*
X102949000Y-113395594D01*
X102953443Y-113350488D01*
X102964092Y-113315382D01*
X102981388Y-113283022D01*
X103004663Y-113254663D01*
X103033022Y-113231388D01*
X103065382Y-113214092D01*
X103100488Y-113203443D01*
X103145594Y-113199000D01*
X106354406Y-113199000D01*
X106399512Y-113203443D01*
G37*
G36*
X132136000Y-114101000D02*
G01*
X130134000Y-114101000D01*
X130134000Y-112649000D01*
X132136000Y-112649000D01*
X132136000Y-114101000D01*
G37*
G36*
X126166000Y-114101000D02*
G01*
X124164000Y-114101000D01*
X124164000Y-112649000D01*
X126166000Y-112649000D01*
X126166000Y-114101000D01*
G37*
G36*
X153599512Y-112603443D02*
G01*
X153634618Y-112614092D01*
X153666978Y-112631388D01*
X153695337Y-112654663D01*
X153718612Y-112683022D01*
X153735908Y-112715382D01*
X153746557Y-112750488D01*
X153751000Y-112795594D01*
X153751000Y-113504406D01*
X153746557Y-113549512D01*
X153735908Y-113584618D01*
X153718612Y-113616978D01*
X153695337Y-113645337D01*
X153666978Y-113668612D01*
X153634618Y-113685908D01*
X153599512Y-113696557D01*
X153554406Y-113701000D01*
X150345594Y-113701000D01*
X150300488Y-113696557D01*
X150265382Y-113685908D01*
X150233022Y-113668612D01*
X150204663Y-113645337D01*
X150181388Y-113616978D01*
X150164092Y-113584618D01*
X150153443Y-113549512D01*
X150149000Y-113504406D01*
X150149000Y-112795594D01*
X150153443Y-112750488D01*
X150164092Y-112715382D01*
X150181388Y-112683022D01*
X150204663Y-112654663D01*
X150233022Y-112631388D01*
X150265382Y-112614092D01*
X150300488Y-112603443D01*
X150345594Y-112599000D01*
X153554406Y-112599000D01*
X153599512Y-112603443D01*
G37*
G36*
X94351390Y-112038910D02*
G01*
X94426351Y-112053821D01*
X94567574Y-112112317D01*
X94694671Y-112197241D01*
X94802759Y-112305329D01*
X94887683Y-112432426D01*
X94946179Y-112573649D01*
X94955393Y-112619971D01*
X94975577Y-112721440D01*
X94976000Y-112723571D01*
X94976000Y-112876429D01*
X94946179Y-113026351D01*
X94887683Y-113167574D01*
X94802759Y-113294671D01*
X94694671Y-113402759D01*
X94567574Y-113487683D01*
X94426351Y-113546179D01*
X94351390Y-113561090D01*
X94276431Y-113576000D01*
X94123569Y-113576000D01*
X94048610Y-113561090D01*
X93973649Y-113546179D01*
X93832426Y-113487683D01*
X93705329Y-113402759D01*
X93597241Y-113294671D01*
X93512317Y-113167574D01*
X93453821Y-113026351D01*
X93424000Y-112876429D01*
X93424000Y-112723571D01*
X93424424Y-112721440D01*
X93444607Y-112619971D01*
X93453821Y-112573649D01*
X93512317Y-112432426D01*
X93597241Y-112305329D01*
X93705329Y-112197241D01*
X93832426Y-112112317D01*
X93973649Y-112053821D01*
X94048610Y-112038910D01*
X94123569Y-112024000D01*
X94276431Y-112024000D01*
X94351390Y-112038910D01*
G37*
G36*
X149304539Y-112465822D02*
G01*
X149338481Y-112476118D01*
X149369754Y-112492834D01*
X149397168Y-112515332D01*
X149419666Y-112542746D01*
X149436382Y-112574019D01*
X149446678Y-112607961D01*
X149451000Y-112651844D01*
X149451000Y-113348156D01*
X149446678Y-113392039D01*
X149436382Y-113425981D01*
X149419666Y-113457254D01*
X149397168Y-113484668D01*
X149369754Y-113507166D01*
X149338481Y-113523882D01*
X149304539Y-113534178D01*
X149260656Y-113538500D01*
X148139344Y-113538500D01*
X148095461Y-113534178D01*
X148061519Y-113523882D01*
X148030246Y-113507166D01*
X148002832Y-113484668D01*
X147980334Y-113457254D01*
X147963618Y-113425981D01*
X147953322Y-113392039D01*
X147949000Y-113348156D01*
X147949000Y-112651844D01*
X147953322Y-112607961D01*
X147963618Y-112574019D01*
X147980334Y-112542746D01*
X148002832Y-112515332D01*
X148030246Y-112492834D01*
X148061519Y-112476118D01*
X148095461Y-112465822D01*
X148139344Y-112461500D01*
X149260656Y-112461500D01*
X149304539Y-112465822D01*
G37*
G36*
X119999664Y-112240341D02*
G01*
X120028912Y-112249214D01*
X120055865Y-112263621D01*
X120079490Y-112283010D01*
X120098879Y-112306635D01*
X120113286Y-112333588D01*
X120122159Y-112362836D01*
X120126000Y-112401842D01*
X120126000Y-113048158D01*
X120122159Y-113087164D01*
X120113286Y-113116412D01*
X120098879Y-113143365D01*
X120079490Y-113166990D01*
X120055865Y-113186379D01*
X120028912Y-113200786D01*
X119999664Y-113209659D01*
X119960658Y-113213500D01*
X119239342Y-113213500D01*
X119200336Y-113209659D01*
X119171088Y-113200786D01*
X119144135Y-113186379D01*
X119120510Y-113166990D01*
X119101121Y-113143365D01*
X119086714Y-113116412D01*
X119077841Y-113087164D01*
X119074000Y-113048158D01*
X119074000Y-112401842D01*
X119077841Y-112362836D01*
X119086714Y-112333588D01*
X119101121Y-112306635D01*
X119120510Y-112283010D01*
X119144135Y-112263621D01*
X119171088Y-112249214D01*
X119200336Y-112240341D01*
X119239342Y-112236500D01*
X119960658Y-112236500D01*
X119999664Y-112240341D01*
G37*
G36*
X91977619Y-111158420D02*
G01*
X92100329Y-111195644D01*
X92100332Y-111195645D01*
X92164179Y-111229772D01*
X92213425Y-111256094D01*
X92312553Y-111337447D01*
X92393906Y-111436575D01*
X92414177Y-111474500D01*
X92454355Y-111549668D01*
X92454356Y-111549671D01*
X92491580Y-111672381D01*
X92504150Y-111800000D01*
X92491580Y-111927618D01*
X92454355Y-112050332D01*
X92425452Y-112104406D01*
X92393906Y-112163425D01*
X92312553Y-112262553D01*
X92213425Y-112343906D01*
X92178009Y-112362836D01*
X92100332Y-112404355D01*
X92100329Y-112404356D01*
X91977619Y-112441580D01*
X91881978Y-112451000D01*
X91118022Y-112451000D01*
X91022381Y-112441580D01*
X90899671Y-112404356D01*
X90899668Y-112404355D01*
X90821991Y-112362836D01*
X90786575Y-112343906D01*
X90687447Y-112262553D01*
X90606094Y-112163425D01*
X90574548Y-112104406D01*
X90545645Y-112050332D01*
X90508420Y-111927618D01*
X90495850Y-111800000D01*
X90508420Y-111672381D01*
X90545644Y-111549671D01*
X90545645Y-111549668D01*
X90585823Y-111474500D01*
X90606094Y-111436575D01*
X90687447Y-111337447D01*
X90786575Y-111256094D01*
X90835821Y-111229772D01*
X90899668Y-111195645D01*
X90899671Y-111195644D01*
X91022381Y-111158420D01*
X91118022Y-111149000D01*
X91881978Y-111149000D01*
X91977619Y-111158420D01*
G37*
G36*
X106399512Y-111203443D02*
G01*
X106434618Y-111214092D01*
X106466978Y-111231388D01*
X106495337Y-111254663D01*
X106518612Y-111283022D01*
X106535908Y-111315382D01*
X106546557Y-111350488D01*
X106551000Y-111395594D01*
X106551000Y-112104406D01*
X106546557Y-112149512D01*
X106535908Y-112184618D01*
X106518612Y-112216978D01*
X106495337Y-112245337D01*
X106466978Y-112268612D01*
X106434618Y-112285908D01*
X106399512Y-112296557D01*
X106354406Y-112301000D01*
X103145594Y-112301000D01*
X103100488Y-112296557D01*
X103065382Y-112285908D01*
X103033022Y-112268612D01*
X103004663Y-112245337D01*
X102981388Y-112216978D01*
X102964092Y-112184618D01*
X102953443Y-112149512D01*
X102949000Y-112104406D01*
X102949000Y-111395594D01*
X102953443Y-111350488D01*
X102964092Y-111315382D01*
X102981388Y-111283022D01*
X103004663Y-111254663D01*
X103033022Y-111231388D01*
X103065382Y-111214092D01*
X103100488Y-111203443D01*
X103145594Y-111199000D01*
X106354406Y-111199000D01*
X106399512Y-111203443D01*
G37*
G36*
X153599512Y-110603443D02*
G01*
X153634618Y-110614092D01*
X153666978Y-110631388D01*
X153695337Y-110654663D01*
X153718612Y-110683022D01*
X153735908Y-110715382D01*
X153746557Y-110750488D01*
X153751000Y-110795594D01*
X153751000Y-111504406D01*
X153746557Y-111549512D01*
X153735908Y-111584618D01*
X153718612Y-111616978D01*
X153695337Y-111645337D01*
X153666978Y-111668612D01*
X153634618Y-111685908D01*
X153599512Y-111696557D01*
X153554406Y-111701000D01*
X150345594Y-111701000D01*
X150300488Y-111696557D01*
X150265382Y-111685908D01*
X150233022Y-111668612D01*
X150204663Y-111645337D01*
X150181388Y-111616978D01*
X150164092Y-111584618D01*
X150153443Y-111549512D01*
X150149000Y-111504406D01*
X150149000Y-110795594D01*
X150153443Y-110750488D01*
X150164092Y-110715382D01*
X150181388Y-110683022D01*
X150204663Y-110654663D01*
X150233022Y-110631388D01*
X150265382Y-110614092D01*
X150300488Y-110603443D01*
X150345594Y-110599000D01*
X153554406Y-110599000D01*
X153599512Y-110603443D01*
G37*
G36*
X149304539Y-110590822D02*
G01*
X149338481Y-110601118D01*
X149369754Y-110617834D01*
X149397168Y-110640332D01*
X149419666Y-110667746D01*
X149436382Y-110699019D01*
X149446678Y-110732961D01*
X149451000Y-110776844D01*
X149451000Y-111473156D01*
X149446678Y-111517039D01*
X149436382Y-111550981D01*
X149419666Y-111582254D01*
X149397168Y-111609668D01*
X149369754Y-111632166D01*
X149338481Y-111648882D01*
X149304539Y-111659178D01*
X149260656Y-111663500D01*
X148139344Y-111663500D01*
X148095461Y-111659178D01*
X148061519Y-111648882D01*
X148030246Y-111632166D01*
X148002832Y-111609668D01*
X147980334Y-111582254D01*
X147963618Y-111550981D01*
X147953322Y-111517039D01*
X147949000Y-111473156D01*
X147949000Y-110776844D01*
X147953322Y-110732961D01*
X147963618Y-110699019D01*
X147980334Y-110667746D01*
X148002832Y-110640332D01*
X148030246Y-110617834D01*
X148061519Y-110601118D01*
X148095461Y-110590822D01*
X148139344Y-110586500D01*
X149260656Y-110586500D01*
X149304539Y-110590822D01*
G37*
G36*
X124199664Y-109990341D02*
G01*
X124228912Y-109999214D01*
X124255865Y-110013621D01*
X124279490Y-110033010D01*
X124298879Y-110056635D01*
X124313286Y-110083588D01*
X124322159Y-110112836D01*
X124326000Y-110151842D01*
X124326000Y-110798158D01*
X124322159Y-110837164D01*
X124313286Y-110866412D01*
X124298879Y-110893365D01*
X124279490Y-110916990D01*
X124255865Y-110936379D01*
X124228912Y-110950786D01*
X124199664Y-110959659D01*
X124160658Y-110963500D01*
X123439342Y-110963500D01*
X123400336Y-110959659D01*
X123371088Y-110950786D01*
X123344135Y-110936379D01*
X123320510Y-110916990D01*
X123301121Y-110893365D01*
X123286714Y-110866412D01*
X123277841Y-110837164D01*
X123274000Y-110798158D01*
X123274000Y-110151842D01*
X123277841Y-110112836D01*
X123286714Y-110083588D01*
X123301121Y-110056635D01*
X123320510Y-110033010D01*
X123344135Y-110013621D01*
X123371088Y-109999214D01*
X123400336Y-109990341D01*
X123439342Y-109986500D01*
X124160658Y-109986500D01*
X124199664Y-109990341D01*
G37*
G36*
X130199664Y-109990341D02*
G01*
X130228912Y-109999214D01*
X130255865Y-110013621D01*
X130279490Y-110033010D01*
X130298879Y-110056635D01*
X130313286Y-110083588D01*
X130322159Y-110112836D01*
X130326000Y-110151842D01*
X130326000Y-110798158D01*
X130322159Y-110837164D01*
X130313286Y-110866412D01*
X130298879Y-110893365D01*
X130279490Y-110916990D01*
X130255865Y-110936379D01*
X130228912Y-110950786D01*
X130199664Y-110959659D01*
X130160658Y-110963500D01*
X129439342Y-110963500D01*
X129400336Y-110959659D01*
X129371088Y-110950786D01*
X129344135Y-110936379D01*
X129320510Y-110916990D01*
X129301121Y-110893365D01*
X129286714Y-110866412D01*
X129277841Y-110837164D01*
X129274000Y-110798158D01*
X129274000Y-110151842D01*
X129277841Y-110112836D01*
X129286714Y-110083588D01*
X129301121Y-110056635D01*
X129320510Y-110033010D01*
X129344135Y-110013621D01*
X129371088Y-109999214D01*
X129400336Y-109990341D01*
X129439342Y-109986500D01*
X130160658Y-109986500D01*
X130199664Y-109990341D01*
G37*
G36*
X126199664Y-109990341D02*
G01*
X126228912Y-109999214D01*
X126255865Y-110013621D01*
X126279490Y-110033010D01*
X126298879Y-110056635D01*
X126313286Y-110083588D01*
X126322159Y-110112836D01*
X126326000Y-110151842D01*
X126326000Y-110798158D01*
X126322159Y-110837164D01*
X126313286Y-110866412D01*
X126298879Y-110893365D01*
X126279490Y-110916990D01*
X126255865Y-110936379D01*
X126228912Y-110950786D01*
X126199664Y-110959659D01*
X126160658Y-110963500D01*
X125439342Y-110963500D01*
X125400336Y-110959659D01*
X125371088Y-110950786D01*
X125344135Y-110936379D01*
X125320510Y-110916990D01*
X125301121Y-110893365D01*
X125286714Y-110866412D01*
X125277841Y-110837164D01*
X125274000Y-110798158D01*
X125274000Y-110151842D01*
X125277841Y-110112836D01*
X125286714Y-110083588D01*
X125301121Y-110056635D01*
X125320510Y-110033010D01*
X125344135Y-110013621D01*
X125371088Y-109999214D01*
X125400336Y-109990341D01*
X125439342Y-109986500D01*
X126160658Y-109986500D01*
X126199664Y-109990341D01*
G37*
G36*
X128199664Y-109990341D02*
G01*
X128228912Y-109999214D01*
X128255865Y-110013621D01*
X128279490Y-110033010D01*
X128298879Y-110056635D01*
X128313286Y-110083588D01*
X128322159Y-110112836D01*
X128326000Y-110151842D01*
X128326000Y-110798158D01*
X128322159Y-110837164D01*
X128313286Y-110866412D01*
X128298879Y-110893365D01*
X128279490Y-110916990D01*
X128255865Y-110936379D01*
X128228912Y-110950786D01*
X128199664Y-110959659D01*
X128160658Y-110963500D01*
X127439342Y-110963500D01*
X127400336Y-110959659D01*
X127371088Y-110950786D01*
X127344135Y-110936379D01*
X127320510Y-110916990D01*
X127301121Y-110893365D01*
X127286714Y-110866412D01*
X127277841Y-110837164D01*
X127274000Y-110798158D01*
X127274000Y-110151842D01*
X127277841Y-110112836D01*
X127286714Y-110083588D01*
X127301121Y-110056635D01*
X127320510Y-110033010D01*
X127344135Y-110013621D01*
X127371088Y-109999214D01*
X127400336Y-109990341D01*
X127439342Y-109986500D01*
X128160658Y-109986500D01*
X128199664Y-109990341D01*
G37*
G36*
X106399512Y-109203443D02*
G01*
X106434618Y-109214092D01*
X106466978Y-109231388D01*
X106495337Y-109254663D01*
X106518612Y-109283022D01*
X106535908Y-109315382D01*
X106546557Y-109350488D01*
X106551000Y-109395594D01*
X106551000Y-110104406D01*
X106546557Y-110149512D01*
X106535908Y-110184618D01*
X106518612Y-110216978D01*
X106495337Y-110245337D01*
X106466978Y-110268612D01*
X106434618Y-110285908D01*
X106399512Y-110296557D01*
X106354406Y-110301000D01*
X103145594Y-110301000D01*
X103100488Y-110296557D01*
X103065382Y-110285908D01*
X103033022Y-110268612D01*
X103004663Y-110245337D01*
X102981388Y-110216978D01*
X102964092Y-110184618D01*
X102953443Y-110149512D01*
X102949000Y-110104406D01*
X102949000Y-109395594D01*
X102953443Y-109350488D01*
X102964092Y-109315382D01*
X102981388Y-109283022D01*
X103004663Y-109254663D01*
X103033022Y-109231388D01*
X103065382Y-109214092D01*
X103100488Y-109203443D01*
X103145594Y-109199000D01*
X106354406Y-109199000D01*
X106399512Y-109203443D01*
G37*
G36*
X153599512Y-108603443D02*
G01*
X153634618Y-108614092D01*
X153666978Y-108631388D01*
X153695337Y-108654663D01*
X153718612Y-108683022D01*
X153735908Y-108715382D01*
X153746557Y-108750488D01*
X153751000Y-108795594D01*
X153751000Y-109504406D01*
X153746557Y-109549512D01*
X153735908Y-109584618D01*
X153718612Y-109616978D01*
X153695337Y-109645337D01*
X153666978Y-109668612D01*
X153634618Y-109685908D01*
X153599512Y-109696557D01*
X153554406Y-109701000D01*
X150345594Y-109701000D01*
X150300488Y-109696557D01*
X150265382Y-109685908D01*
X150233022Y-109668612D01*
X150204663Y-109645337D01*
X150181388Y-109616978D01*
X150164092Y-109584618D01*
X150153443Y-109549512D01*
X150149000Y-109504406D01*
X150149000Y-108795594D01*
X150153443Y-108750488D01*
X150164092Y-108715382D01*
X150181388Y-108683022D01*
X150204663Y-108654663D01*
X150233022Y-108631388D01*
X150265382Y-108614092D01*
X150300488Y-108603443D01*
X150345594Y-108599000D01*
X153554406Y-108599000D01*
X153599512Y-108603443D01*
G37*
G36*
X122162164Y-108377841D02*
G01*
X122191412Y-108386714D01*
X122218365Y-108401121D01*
X122241990Y-108420510D01*
X122261379Y-108444135D01*
X122275786Y-108471088D01*
X122284659Y-108500336D01*
X122288500Y-108539342D01*
X122288500Y-109260658D01*
X122284659Y-109299664D01*
X122275786Y-109328912D01*
X122261379Y-109355865D01*
X122241990Y-109379490D01*
X122218365Y-109398879D01*
X122191412Y-109413286D01*
X122162164Y-109422159D01*
X122123158Y-109426000D01*
X121476842Y-109426000D01*
X121437836Y-109422159D01*
X121408588Y-109413286D01*
X121381635Y-109398879D01*
X121358010Y-109379490D01*
X121338621Y-109355865D01*
X121324214Y-109328912D01*
X121315341Y-109299664D01*
X121311500Y-109260658D01*
X121311500Y-108539342D01*
X121315341Y-108500336D01*
X121324214Y-108471088D01*
X121338621Y-108444135D01*
X121358010Y-108420510D01*
X121381635Y-108401121D01*
X121408588Y-108386714D01*
X121437836Y-108377841D01*
X121476842Y-108374000D01*
X122123158Y-108374000D01*
X122162164Y-108377841D01*
G37*
G36*
X120587164Y-108377841D02*
G01*
X120616412Y-108386714D01*
X120643365Y-108401121D01*
X120666990Y-108420510D01*
X120686379Y-108444135D01*
X120700786Y-108471088D01*
X120709659Y-108500336D01*
X120713500Y-108539342D01*
X120713500Y-109260658D01*
X120709659Y-109299664D01*
X120700786Y-109328912D01*
X120686379Y-109355865D01*
X120666990Y-109379490D01*
X120643365Y-109398879D01*
X120616412Y-109413286D01*
X120587164Y-109422159D01*
X120548158Y-109426000D01*
X119901842Y-109426000D01*
X119862836Y-109422159D01*
X119833588Y-109413286D01*
X119806635Y-109398879D01*
X119783010Y-109379490D01*
X119763621Y-109355865D01*
X119749214Y-109328912D01*
X119740341Y-109299664D01*
X119736500Y-109260658D01*
X119736500Y-108539342D01*
X119740341Y-108500336D01*
X119749214Y-108471088D01*
X119763621Y-108444135D01*
X119783010Y-108420510D01*
X119806635Y-108401121D01*
X119833588Y-108386714D01*
X119862836Y-108377841D01*
X119901842Y-108374000D01*
X120548158Y-108374000D01*
X120587164Y-108377841D01*
G37*
G36*
X124199664Y-108415341D02*
G01*
X124228912Y-108424214D01*
X124255865Y-108438621D01*
X124279490Y-108458010D01*
X124298879Y-108481635D01*
X124313286Y-108508588D01*
X124322159Y-108537836D01*
X124326000Y-108576842D01*
X124326000Y-109223158D01*
X124322159Y-109262164D01*
X124313286Y-109291412D01*
X124298879Y-109318365D01*
X124279490Y-109341990D01*
X124255865Y-109361379D01*
X124228912Y-109375786D01*
X124199664Y-109384659D01*
X124160658Y-109388500D01*
X123439342Y-109388500D01*
X123400336Y-109384659D01*
X123371088Y-109375786D01*
X123344135Y-109361379D01*
X123320510Y-109341990D01*
X123301121Y-109318365D01*
X123286714Y-109291412D01*
X123277841Y-109262164D01*
X123274000Y-109223158D01*
X123274000Y-108576842D01*
X123277841Y-108537836D01*
X123286714Y-108508588D01*
X123301121Y-108481635D01*
X123320510Y-108458010D01*
X123344135Y-108438621D01*
X123371088Y-108424214D01*
X123400336Y-108415341D01*
X123439342Y-108411500D01*
X124160658Y-108411500D01*
X124199664Y-108415341D01*
G37*
G36*
X126199664Y-108415341D02*
G01*
X126228912Y-108424214D01*
X126255865Y-108438621D01*
X126279490Y-108458010D01*
X126298879Y-108481635D01*
X126313286Y-108508588D01*
X126322159Y-108537836D01*
X126326000Y-108576842D01*
X126326000Y-109223158D01*
X126322159Y-109262164D01*
X126313286Y-109291412D01*
X126298879Y-109318365D01*
X126279490Y-109341990D01*
X126255865Y-109361379D01*
X126228912Y-109375786D01*
X126199664Y-109384659D01*
X126160658Y-109388500D01*
X125439342Y-109388500D01*
X125400336Y-109384659D01*
X125371088Y-109375786D01*
X125344135Y-109361379D01*
X125320510Y-109341990D01*
X125301121Y-109318365D01*
X125286714Y-109291412D01*
X125277841Y-109262164D01*
X125274000Y-109223158D01*
X125274000Y-108576842D01*
X125277841Y-108537836D01*
X125286714Y-108508588D01*
X125301121Y-108481635D01*
X125320510Y-108458010D01*
X125344135Y-108438621D01*
X125371088Y-108424214D01*
X125400336Y-108415341D01*
X125439342Y-108411500D01*
X126160658Y-108411500D01*
X126199664Y-108415341D01*
G37*
G36*
X128199664Y-108415341D02*
G01*
X128228912Y-108424214D01*
X128255865Y-108438621D01*
X128279490Y-108458010D01*
X128298879Y-108481635D01*
X128313286Y-108508588D01*
X128322159Y-108537836D01*
X128326000Y-108576842D01*
X128326000Y-109223158D01*
X128322159Y-109262164D01*
X128313286Y-109291412D01*
X128298879Y-109318365D01*
X128279490Y-109341990D01*
X128255865Y-109361379D01*
X128228912Y-109375786D01*
X128199664Y-109384659D01*
X128160658Y-109388500D01*
X127439342Y-109388500D01*
X127400336Y-109384659D01*
X127371088Y-109375786D01*
X127344135Y-109361379D01*
X127320510Y-109341990D01*
X127301121Y-109318365D01*
X127286714Y-109291412D01*
X127277841Y-109262164D01*
X127274000Y-109223158D01*
X127274000Y-108576842D01*
X127277841Y-108537836D01*
X127286714Y-108508588D01*
X127301121Y-108481635D01*
X127320510Y-108458010D01*
X127344135Y-108438621D01*
X127371088Y-108424214D01*
X127400336Y-108415341D01*
X127439342Y-108411500D01*
X128160658Y-108411500D01*
X128199664Y-108415341D01*
G37*
G36*
X130199664Y-108415341D02*
G01*
X130228912Y-108424214D01*
X130255865Y-108438621D01*
X130279490Y-108458010D01*
X130298879Y-108481635D01*
X130313286Y-108508588D01*
X130322159Y-108537836D01*
X130326000Y-108576842D01*
X130326000Y-109223158D01*
X130322159Y-109262164D01*
X130313286Y-109291412D01*
X130298879Y-109318365D01*
X130279490Y-109341990D01*
X130255865Y-109361379D01*
X130228912Y-109375786D01*
X130199664Y-109384659D01*
X130160658Y-109388500D01*
X129439342Y-109388500D01*
X129400336Y-109384659D01*
X129371088Y-109375786D01*
X129344135Y-109361379D01*
X129320510Y-109341990D01*
X129301121Y-109318365D01*
X129286714Y-109291412D01*
X129277841Y-109262164D01*
X129274000Y-109223158D01*
X129274000Y-108576842D01*
X129277841Y-108537836D01*
X129286714Y-108508588D01*
X129301121Y-108481635D01*
X129320510Y-108458010D01*
X129344135Y-108438621D01*
X129371088Y-108424214D01*
X129400336Y-108415341D01*
X129439342Y-108411500D01*
X130160658Y-108411500D01*
X130199664Y-108415341D01*
G37*
G36*
X96951000Y-109051000D02*
G01*
X93649000Y-109051000D01*
X93649000Y-106949000D01*
X96951000Y-106949000D01*
X96951000Y-109051000D01*
G37*
G36*
X106399512Y-107203443D02*
G01*
X106434618Y-107214092D01*
X106466978Y-107231388D01*
X106495337Y-107254663D01*
X106518612Y-107283022D01*
X106535908Y-107315382D01*
X106546557Y-107350488D01*
X106551000Y-107395594D01*
X106551000Y-108104406D01*
X106546557Y-108149512D01*
X106535908Y-108184618D01*
X106518612Y-108216978D01*
X106495337Y-108245337D01*
X106466978Y-108268612D01*
X106434618Y-108285908D01*
X106399512Y-108296557D01*
X106354406Y-108301000D01*
X103145594Y-108301000D01*
X103100488Y-108296557D01*
X103065382Y-108285908D01*
X103033022Y-108268612D01*
X103004663Y-108245337D01*
X102981388Y-108216978D01*
X102964092Y-108184618D01*
X102953443Y-108149512D01*
X102949000Y-108104406D01*
X102949000Y-107395594D01*
X102953443Y-107350488D01*
X102964092Y-107315382D01*
X102981388Y-107283022D01*
X103004663Y-107254663D01*
X103033022Y-107231388D01*
X103065382Y-107214092D01*
X103100488Y-107203443D01*
X103145594Y-107199000D01*
X106354406Y-107199000D01*
X106399512Y-107203443D01*
G37*
G36*
X159329828Y-106002718D02*
G01*
X159357872Y-106011226D01*
X159383718Y-106025041D01*
X159406370Y-106043630D01*
X159424959Y-106066282D01*
X159438774Y-106092128D01*
X159447282Y-106120172D01*
X159451000Y-106157927D01*
X159451000Y-107442073D01*
X159447282Y-107479828D01*
X159438774Y-107507872D01*
X159424959Y-107533718D01*
X159406370Y-107556370D01*
X159383718Y-107574959D01*
X159357872Y-107588774D01*
X159329828Y-107597282D01*
X159292073Y-107601000D01*
X156107927Y-107601000D01*
X156070172Y-107597282D01*
X156042128Y-107588774D01*
X156016282Y-107574959D01*
X155993630Y-107556370D01*
X155975041Y-107533718D01*
X155961226Y-107507872D01*
X155952718Y-107479828D01*
X155949000Y-107442073D01*
X155949000Y-106157927D01*
X155952718Y-106120172D01*
X155961226Y-106092128D01*
X155975041Y-106066282D01*
X155993630Y-106043630D01*
X156016282Y-106025041D01*
X156042128Y-106011226D01*
X156070172Y-106002718D01*
X156107927Y-105999000D01*
X159292073Y-105999000D01*
X159329828Y-106002718D01*
G37*
G36*
X118133618Y-103502628D02*
G01*
X118160781Y-103510868D01*
X118185809Y-103524246D01*
X118207749Y-103542251D01*
X118225754Y-103564191D01*
X118239132Y-103589219D01*
X118247372Y-103616382D01*
X118251000Y-103653220D01*
X118251000Y-106446780D01*
X118247372Y-106483618D01*
X118239132Y-106510781D01*
X118225754Y-106535809D01*
X118207749Y-106557749D01*
X118185809Y-106575754D01*
X118160781Y-106589132D01*
X118133618Y-106597372D01*
X118096780Y-106601000D01*
X116703220Y-106601000D01*
X116666382Y-106597372D01*
X116639219Y-106589132D01*
X116614191Y-106575754D01*
X116592251Y-106557749D01*
X116574246Y-106535809D01*
X116560868Y-106510781D01*
X116552628Y-106483618D01*
X116549000Y-106446780D01*
X116549000Y-103653220D01*
X116552628Y-103616382D01*
X116560868Y-103589219D01*
X116574246Y-103564191D01*
X116592251Y-103542251D01*
X116614191Y-103524246D01*
X116639219Y-103510868D01*
X116666382Y-103502628D01*
X116703220Y-103499000D01*
X118096780Y-103499000D01*
X118133618Y-103502628D01*
G37*
G36*
X132933618Y-103502628D02*
G01*
X132960781Y-103510868D01*
X132985809Y-103524246D01*
X133007749Y-103542251D01*
X133025754Y-103564191D01*
X133039132Y-103589219D01*
X133047372Y-103616382D01*
X133051000Y-103653220D01*
X133051000Y-106446780D01*
X133047372Y-106483618D01*
X133039132Y-106510781D01*
X133025754Y-106535809D01*
X133007749Y-106557749D01*
X132985809Y-106575754D01*
X132960781Y-106589132D01*
X132933618Y-106597372D01*
X132896780Y-106601000D01*
X131503220Y-106601000D01*
X131466382Y-106597372D01*
X131439219Y-106589132D01*
X131414191Y-106575754D01*
X131392251Y-106557749D01*
X131374246Y-106535809D01*
X131360868Y-106510781D01*
X131352628Y-106483618D01*
X131349000Y-106446780D01*
X131349000Y-103653220D01*
X131352628Y-103616382D01*
X131360868Y-103589219D01*
X131374246Y-103564191D01*
X131392251Y-103542251D01*
X131414191Y-103524246D01*
X131439219Y-103510868D01*
X131466382Y-103502628D01*
X131503220Y-103499000D01*
X132896780Y-103499000D01*
X132933618Y-103502628D01*
G37*
G36*
X100629828Y-104602718D02*
G01*
X100657872Y-104611226D01*
X100683718Y-104625041D01*
X100706370Y-104643630D01*
X100724959Y-104666282D01*
X100738774Y-104692128D01*
X100747282Y-104720172D01*
X100751000Y-104757927D01*
X100751000Y-106042073D01*
X100747282Y-106079828D01*
X100738774Y-106107872D01*
X100724959Y-106133718D01*
X100706370Y-106156370D01*
X100683718Y-106174959D01*
X100657872Y-106188774D01*
X100629828Y-106197282D01*
X100592073Y-106201000D01*
X97407927Y-106201000D01*
X97370172Y-106197282D01*
X97342128Y-106188774D01*
X97316282Y-106174959D01*
X97293630Y-106156370D01*
X97275041Y-106133718D01*
X97261226Y-106107872D01*
X97252718Y-106079828D01*
X97249000Y-106042073D01*
X97249000Y-104757927D01*
X97252718Y-104720172D01*
X97261226Y-104692128D01*
X97275041Y-104666282D01*
X97293630Y-104643630D01*
X97316282Y-104625041D01*
X97342128Y-104611226D01*
X97370172Y-104602718D01*
X97407927Y-104599000D01*
X100592073Y-104599000D01*
X100629828Y-104602718D01*
G37*
G36*
X130199512Y-100003443D02*
G01*
X130234618Y-100014092D01*
X130266978Y-100031388D01*
X130295337Y-100054663D01*
X130318612Y-100083022D01*
X130335908Y-100115382D01*
X130346557Y-100150488D01*
X130351000Y-100195594D01*
X130351000Y-105404406D01*
X130346557Y-105449512D01*
X130335908Y-105484618D01*
X130318612Y-105516978D01*
X130295337Y-105545337D01*
X130266978Y-105568612D01*
X130234618Y-105585908D01*
X130199512Y-105596557D01*
X130154406Y-105601000D01*
X129445594Y-105601000D01*
X129400488Y-105596557D01*
X129365382Y-105585908D01*
X129333022Y-105568612D01*
X129304663Y-105545337D01*
X129281388Y-105516978D01*
X129264092Y-105484618D01*
X129253443Y-105449512D01*
X129249000Y-105404406D01*
X129249000Y-100195594D01*
X129253443Y-100150488D01*
X129264092Y-100115382D01*
X129281388Y-100083022D01*
X129304663Y-100054663D01*
X129333022Y-100031388D01*
X129365382Y-100014092D01*
X129400488Y-100003443D01*
X129445594Y-99999000D01*
X130154406Y-99999000D01*
X130199512Y-100003443D01*
G37*
G36*
X128199512Y-100003443D02*
G01*
X128234618Y-100014092D01*
X128266978Y-100031388D01*
X128295337Y-100054663D01*
X128318612Y-100083022D01*
X128335908Y-100115382D01*
X128346557Y-100150488D01*
X128351000Y-100195594D01*
X128351000Y-105404406D01*
X128346557Y-105449512D01*
X128335908Y-105484618D01*
X128318612Y-105516978D01*
X128295337Y-105545337D01*
X128266978Y-105568612D01*
X128234618Y-105585908D01*
X128199512Y-105596557D01*
X128154406Y-105601000D01*
X127445594Y-105601000D01*
X127400488Y-105596557D01*
X127365382Y-105585908D01*
X127333022Y-105568612D01*
X127304663Y-105545337D01*
X127281388Y-105516978D01*
X127264092Y-105484618D01*
X127253443Y-105449512D01*
X127249000Y-105404406D01*
X127249000Y-100195594D01*
X127253443Y-100150488D01*
X127264092Y-100115382D01*
X127281388Y-100083022D01*
X127304663Y-100054663D01*
X127333022Y-100031388D01*
X127365382Y-100014092D01*
X127400488Y-100003443D01*
X127445594Y-99999000D01*
X128154406Y-99999000D01*
X128199512Y-100003443D01*
G37*
G36*
X122199512Y-100003443D02*
G01*
X122234618Y-100014092D01*
X122266978Y-100031388D01*
X122295337Y-100054663D01*
X122318612Y-100083022D01*
X122335908Y-100115382D01*
X122346557Y-100150488D01*
X122351000Y-100195594D01*
X122351000Y-105404406D01*
X122346557Y-105449512D01*
X122335908Y-105484618D01*
X122318612Y-105516978D01*
X122295337Y-105545337D01*
X122266978Y-105568612D01*
X122234618Y-105585908D01*
X122199512Y-105596557D01*
X122154406Y-105601000D01*
X121445594Y-105601000D01*
X121400488Y-105596557D01*
X121365382Y-105585908D01*
X121333022Y-105568612D01*
X121304663Y-105545337D01*
X121281388Y-105516978D01*
X121264092Y-105484618D01*
X121253443Y-105449512D01*
X121249000Y-105404406D01*
X121249000Y-100195594D01*
X121253443Y-100150488D01*
X121264092Y-100115382D01*
X121281388Y-100083022D01*
X121304663Y-100054663D01*
X121333022Y-100031388D01*
X121365382Y-100014092D01*
X121400488Y-100003443D01*
X121445594Y-99999000D01*
X122154406Y-99999000D01*
X122199512Y-100003443D01*
G37*
G36*
X120199512Y-100003443D02*
G01*
X120234618Y-100014092D01*
X120266978Y-100031388D01*
X120295337Y-100054663D01*
X120318612Y-100083022D01*
X120335908Y-100115382D01*
X120346557Y-100150488D01*
X120351000Y-100195594D01*
X120351000Y-105404406D01*
X120346557Y-105449512D01*
X120335908Y-105484618D01*
X120318612Y-105516978D01*
X120295337Y-105545337D01*
X120266978Y-105568612D01*
X120234618Y-105585908D01*
X120199512Y-105596557D01*
X120154406Y-105601000D01*
X119445594Y-105601000D01*
X119400488Y-105596557D01*
X119365382Y-105585908D01*
X119333022Y-105568612D01*
X119304663Y-105545337D01*
X119281388Y-105516978D01*
X119264092Y-105484618D01*
X119253443Y-105449512D01*
X119249000Y-105404406D01*
X119249000Y-100195594D01*
X119253443Y-100150488D01*
X119264092Y-100115382D01*
X119281388Y-100083022D01*
X119304663Y-100054663D01*
X119333022Y-100031388D01*
X119365382Y-100014092D01*
X119400488Y-100003443D01*
X119445594Y-99999000D01*
X120154406Y-99999000D01*
X120199512Y-100003443D01*
G37*
G36*
X124199512Y-100003443D02*
G01*
X124234618Y-100014092D01*
X124266978Y-100031388D01*
X124295337Y-100054663D01*
X124318612Y-100083022D01*
X124335908Y-100115382D01*
X124346557Y-100150488D01*
X124351000Y-100195594D01*
X124351000Y-105404406D01*
X124346557Y-105449512D01*
X124335908Y-105484618D01*
X124318612Y-105516978D01*
X124295337Y-105545337D01*
X124266978Y-105568612D01*
X124234618Y-105585908D01*
X124199512Y-105596557D01*
X124154406Y-105601000D01*
X123445594Y-105601000D01*
X123400488Y-105596557D01*
X123365382Y-105585908D01*
X123333022Y-105568612D01*
X123304663Y-105545337D01*
X123281388Y-105516978D01*
X123264092Y-105484618D01*
X123253443Y-105449512D01*
X123249000Y-105404406D01*
X123249000Y-100195594D01*
X123253443Y-100150488D01*
X123264092Y-100115382D01*
X123281388Y-100083022D01*
X123304663Y-100054663D01*
X123333022Y-100031388D01*
X123365382Y-100014092D01*
X123400488Y-100003443D01*
X123445594Y-99999000D01*
X124154406Y-99999000D01*
X124199512Y-100003443D01*
G37*
G36*
X126199512Y-100003443D02*
G01*
X126234618Y-100014092D01*
X126266978Y-100031388D01*
X126295337Y-100054663D01*
X126318612Y-100083022D01*
X126335908Y-100115382D01*
X126346557Y-100150488D01*
X126351000Y-100195594D01*
X126351000Y-105404406D01*
X126346557Y-105449512D01*
X126335908Y-105484618D01*
X126318612Y-105516978D01*
X126295337Y-105545337D01*
X126266978Y-105568612D01*
X126234618Y-105585908D01*
X126199512Y-105596557D01*
X126154406Y-105601000D01*
X125445594Y-105601000D01*
X125400488Y-105596557D01*
X125365382Y-105585908D01*
X125333022Y-105568612D01*
X125304663Y-105545337D01*
X125281388Y-105516978D01*
X125264092Y-105484618D01*
X125253443Y-105449512D01*
X125249000Y-105404406D01*
X125249000Y-100195594D01*
X125253443Y-100150488D01*
X125264092Y-100115382D01*
X125281388Y-100083022D01*
X125304663Y-100054663D01*
X125333022Y-100031388D01*
X125365382Y-100014092D01*
X125400488Y-100003443D01*
X125445594Y-99999000D01*
X126154406Y-99999000D01*
X126199512Y-100003443D01*
G37*
G36*
X92106564Y-103389389D02*
G01*
X92297833Y-103468615D01*
X92297835Y-103468616D01*
X92373604Y-103519243D01*
X92469975Y-103583636D01*
X92616364Y-103730025D01*
X92639691Y-103764937D01*
X92707034Y-103865722D01*
X92731385Y-103902167D01*
X92810611Y-104093436D01*
X92851000Y-104296484D01*
X92851000Y-104503516D01*
X92810611Y-104706564D01*
X92738047Y-104881750D01*
X92731384Y-104897835D01*
X92695860Y-104951000D01*
X92616364Y-105069975D01*
X92469975Y-105216364D01*
X92383904Y-105273875D01*
X92297835Y-105331384D01*
X92297834Y-105331385D01*
X92297833Y-105331385D01*
X92106564Y-105410611D01*
X91903516Y-105451000D01*
X91696484Y-105451000D01*
X91493436Y-105410611D01*
X91302167Y-105331385D01*
X91302166Y-105331385D01*
X91302165Y-105331384D01*
X91216096Y-105273875D01*
X91130025Y-105216364D01*
X90983636Y-105069975D01*
X90904140Y-104951000D01*
X90868616Y-104897835D01*
X90861953Y-104881750D01*
X90789389Y-104706564D01*
X90749000Y-104503516D01*
X90749000Y-104296484D01*
X90789389Y-104093436D01*
X90868615Y-103902167D01*
X90892967Y-103865722D01*
X90960309Y-103764937D01*
X90983636Y-103730025D01*
X91130025Y-103583636D01*
X91226396Y-103519243D01*
X91302165Y-103468616D01*
X91302167Y-103468615D01*
X91493436Y-103389389D01*
X91696484Y-103349000D01*
X91903516Y-103349000D01*
X92106564Y-103389389D01*
G37*
G36*
X94606564Y-103389389D02*
G01*
X94797833Y-103468615D01*
X94797835Y-103468616D01*
X94873604Y-103519243D01*
X94969975Y-103583636D01*
X95116364Y-103730025D01*
X95139691Y-103764937D01*
X95207034Y-103865722D01*
X95231385Y-103902167D01*
X95310611Y-104093436D01*
X95351000Y-104296484D01*
X95351000Y-104503516D01*
X95310611Y-104706564D01*
X95238047Y-104881750D01*
X95231384Y-104897835D01*
X95195860Y-104951000D01*
X95116364Y-105069975D01*
X94969975Y-105216364D01*
X94883904Y-105273875D01*
X94797835Y-105331384D01*
X94797834Y-105331385D01*
X94797833Y-105331385D01*
X94606564Y-105410611D01*
X94403516Y-105451000D01*
X94196484Y-105451000D01*
X93993436Y-105410611D01*
X93802167Y-105331385D01*
X93802166Y-105331385D01*
X93802165Y-105331384D01*
X93716096Y-105273875D01*
X93630025Y-105216364D01*
X93483636Y-105069975D01*
X93404140Y-104951000D01*
X93368616Y-104897835D01*
X93361953Y-104881750D01*
X93289389Y-104706564D01*
X93249000Y-104503516D01*
X93249000Y-104296484D01*
X93289389Y-104093436D01*
X93368615Y-103902167D01*
X93392967Y-103865722D01*
X93460309Y-103764937D01*
X93483636Y-103730025D01*
X93630025Y-103583636D01*
X93726396Y-103519243D01*
X93802165Y-103468616D01*
X93802167Y-103468615D01*
X93993436Y-103389389D01*
X94196484Y-103349000D01*
X94403516Y-103349000D01*
X94606564Y-103389389D01*
G37*
G36*
X153329539Y-103653322D02*
G01*
X153363481Y-103663618D01*
X153394754Y-103680334D01*
X153422168Y-103702832D01*
X153444666Y-103730246D01*
X153461382Y-103761519D01*
X153471678Y-103795461D01*
X153476000Y-103839344D01*
X153476000Y-104960656D01*
X153471678Y-105004539D01*
X153461382Y-105038481D01*
X153444666Y-105069754D01*
X153422168Y-105097168D01*
X153394754Y-105119666D01*
X153363481Y-105136382D01*
X153329539Y-105146678D01*
X153285656Y-105151000D01*
X152589344Y-105151000D01*
X152545461Y-105146678D01*
X152511519Y-105136382D01*
X152480246Y-105119666D01*
X152452832Y-105097168D01*
X152430334Y-105069754D01*
X152413618Y-105038481D01*
X152403322Y-105004539D01*
X152399000Y-104960656D01*
X152399000Y-103839344D01*
X152403322Y-103795461D01*
X152413618Y-103761519D01*
X152430334Y-103730246D01*
X152452832Y-103702832D01*
X152480246Y-103680334D01*
X152511519Y-103663618D01*
X152545461Y-103653322D01*
X152589344Y-103649000D01*
X153285656Y-103649000D01*
X153329539Y-103653322D01*
G37*
G36*
X151601000Y-105018448D02*
G01*
X151592525Y-105028775D01*
X151583695Y-105043506D01*
X151569664Y-105069756D01*
X151547168Y-105097168D01*
X151519754Y-105119666D01*
X151488481Y-105136382D01*
X151454539Y-105146678D01*
X151410656Y-105151000D01*
X150714344Y-105151000D01*
X150670461Y-105146678D01*
X150636519Y-105136382D01*
X150605246Y-105119666D01*
X150577832Y-105097168D01*
X150555334Y-105069754D01*
X150538618Y-105038481D01*
X150528322Y-105004539D01*
X150524000Y-104960656D01*
X150524000Y-103839344D01*
X150528322Y-103795461D01*
X150538618Y-103761519D01*
X150555334Y-103730246D01*
X150559278Y-103725440D01*
X150578337Y-103696916D01*
X150591465Y-103665221D01*
X150593871Y-103649000D01*
X151601000Y-103649000D01*
X151601000Y-105018448D01*
G37*
G36*
X154901000Y-104951000D02*
G01*
X153899000Y-104951000D01*
X153899000Y-103649000D01*
X154901000Y-103649000D01*
X154901000Y-104951000D01*
G37*
G36*
X147481577Y-101412446D02*
G01*
X147481580Y-101412447D01*
X147481579Y-101412447D01*
X147782042Y-101536903D01*
X147782043Y-101536904D01*
X148052449Y-101717583D01*
X148282417Y-101947551D01*
X148326757Y-102013911D01*
X148463097Y-102217958D01*
X148559359Y-102450355D01*
X148587554Y-102518423D01*
X148651000Y-102837389D01*
X148651000Y-103162611D01*
X148587554Y-103481577D01*
X148587553Y-103481579D01*
X148463097Y-103782042D01*
X148440933Y-103815212D01*
X148282417Y-104052449D01*
X148052449Y-104282417D01*
X147872178Y-104402870D01*
X147782042Y-104463097D01*
X147549645Y-104559359D01*
X147481577Y-104587554D01*
X147162611Y-104651000D01*
X146837389Y-104651000D01*
X146518423Y-104587554D01*
X146450355Y-104559359D01*
X146217958Y-104463097D01*
X146127822Y-104402870D01*
X145947551Y-104282417D01*
X145717583Y-104052449D01*
X145559067Y-103815212D01*
X145536903Y-103782042D01*
X145412447Y-103481579D01*
X145412446Y-103481577D01*
X145349000Y-103162611D01*
X145349000Y-102837389D01*
X145412446Y-102518423D01*
X145440641Y-102450355D01*
X145536903Y-102217958D01*
X145673243Y-102013911D01*
X145717583Y-101947551D01*
X145947551Y-101717583D01*
X146217957Y-101536904D01*
X146217958Y-101536903D01*
X146518421Y-101412447D01*
X146518420Y-101412447D01*
X146518423Y-101412446D01*
X146837389Y-101349000D01*
X147162611Y-101349000D01*
X147481577Y-101412446D01*
G37*
G36*
X110481577Y-101412446D02*
G01*
X110481580Y-101412447D01*
X110481579Y-101412447D01*
X110782042Y-101536903D01*
X110782043Y-101536904D01*
X111052449Y-101717583D01*
X111282417Y-101947551D01*
X111326757Y-102013911D01*
X111463097Y-102217958D01*
X111559359Y-102450355D01*
X111587554Y-102518423D01*
X111651000Y-102837389D01*
X111651000Y-103162611D01*
X111587554Y-103481577D01*
X111587553Y-103481579D01*
X111463097Y-103782042D01*
X111440933Y-103815212D01*
X111282417Y-104052449D01*
X111052449Y-104282417D01*
X110872178Y-104402870D01*
X110782042Y-104463097D01*
X110549645Y-104559359D01*
X110481577Y-104587554D01*
X110162611Y-104651000D01*
X109837389Y-104651000D01*
X109518423Y-104587554D01*
X109450355Y-104559359D01*
X109217958Y-104463097D01*
X109127822Y-104402870D01*
X108947551Y-104282417D01*
X108717583Y-104052449D01*
X108559067Y-103815212D01*
X108536903Y-103782042D01*
X108412447Y-103481579D01*
X108412446Y-103481577D01*
X108349000Y-103162611D01*
X108349000Y-102837389D01*
X108412446Y-102518423D01*
X108440641Y-102450355D01*
X108536903Y-102217958D01*
X108673243Y-102013911D01*
X108717583Y-101947551D01*
X108947551Y-101717583D01*
X109217957Y-101536904D01*
X109217958Y-101536903D01*
X109518421Y-101412447D01*
X109518420Y-101412447D01*
X109518423Y-101412446D01*
X109837389Y-101349000D01*
X110162611Y-101349000D01*
X110481577Y-101412446D01*
G37*
G36*
X100629828Y-101802718D02*
G01*
X100657872Y-101811226D01*
X100683718Y-101825041D01*
X100706370Y-101843630D01*
X100724959Y-101866282D01*
X100738774Y-101892128D01*
X100747282Y-101920172D01*
X100751000Y-101957927D01*
X100751000Y-103242073D01*
X100747282Y-103279828D01*
X100738774Y-103307872D01*
X100724959Y-103333718D01*
X100706370Y-103356370D01*
X100683718Y-103374959D01*
X100657872Y-103388774D01*
X100629828Y-103397282D01*
X100592073Y-103401000D01*
X97407927Y-103401000D01*
X97370172Y-103397282D01*
X97342128Y-103388774D01*
X97316282Y-103374959D01*
X97293630Y-103356370D01*
X97275041Y-103333718D01*
X97261226Y-103307872D01*
X97252718Y-103279828D01*
X97249000Y-103242073D01*
X97249000Y-101957927D01*
X97252718Y-101920172D01*
X97261226Y-101892128D01*
X97275041Y-101866282D01*
X97293630Y-101843630D01*
X97316282Y-101825041D01*
X97342128Y-101811226D01*
X97370172Y-101802718D01*
X97407927Y-101799000D01*
X100592073Y-101799000D01*
X100629828Y-101802718D01*
G37*
G36*
X92106564Y-100889389D02*
G01*
X92297833Y-100968615D01*
X92297835Y-100968616D01*
X92383904Y-101026125D01*
X92469975Y-101083636D01*
X92616364Y-101230025D01*
X92731385Y-101402167D01*
X92810611Y-101593436D01*
X92851000Y-101796484D01*
X92851000Y-102003516D01*
X92810611Y-102206564D01*
X92731385Y-102397833D01*
X92616364Y-102569975D01*
X92469975Y-102716364D01*
X92383904Y-102773875D01*
X92297835Y-102831384D01*
X92297834Y-102831385D01*
X92297833Y-102831385D01*
X92106564Y-102910611D01*
X91903516Y-102951000D01*
X91696484Y-102951000D01*
X91493436Y-102910611D01*
X91302167Y-102831385D01*
X91302166Y-102831385D01*
X91302165Y-102831384D01*
X91216096Y-102773875D01*
X91130025Y-102716364D01*
X90983636Y-102569975D01*
X90868615Y-102397833D01*
X90789389Y-102206564D01*
X90749000Y-102003516D01*
X90749000Y-101796484D01*
X90789389Y-101593436D01*
X90868615Y-101402167D01*
X90983636Y-101230025D01*
X91130025Y-101083636D01*
X91216096Y-101026125D01*
X91302165Y-100968616D01*
X91302167Y-100968615D01*
X91493436Y-100889389D01*
X91696484Y-100849000D01*
X91903516Y-100849000D01*
X92106564Y-100889389D01*
G37*
G36*
X106399512Y-99703443D02*
G01*
X106434618Y-99714092D01*
X106466978Y-99731388D01*
X106495337Y-99754663D01*
X106518612Y-99783022D01*
X106535908Y-99815382D01*
X106546557Y-99850488D01*
X106551000Y-99895594D01*
X106551000Y-100604406D01*
X106546557Y-100649512D01*
X106535908Y-100684618D01*
X106518612Y-100716978D01*
X106495337Y-100745337D01*
X106466978Y-100768612D01*
X106434618Y-100785908D01*
X106399512Y-100796557D01*
X106354406Y-100801000D01*
X103145594Y-100801000D01*
X103100488Y-100796557D01*
X103065382Y-100785908D01*
X103033022Y-100768612D01*
X103004663Y-100745337D01*
X102981388Y-100716978D01*
X102964092Y-100684618D01*
X102953443Y-100649512D01*
X102949000Y-100604406D01*
X102949000Y-99895594D01*
X102953443Y-99850488D01*
X102964092Y-99815382D01*
X102981388Y-99783022D01*
X103004663Y-99754663D01*
X103033022Y-99731388D01*
X103065382Y-99714092D01*
X103100488Y-99703443D01*
X103145594Y-99699000D01*
X106354406Y-99699000D01*
X106399512Y-99703443D01*
G37*
G36*
X94606564Y-98389389D02*
G01*
X94797833Y-98468615D01*
X94797835Y-98468616D01*
X94882968Y-98525500D01*
X94969975Y-98583636D01*
X95116364Y-98730025D01*
X95231385Y-98902167D01*
X95310611Y-99093436D01*
X95351000Y-99296484D01*
X95351000Y-99503516D01*
X95310611Y-99706564D01*
X95232312Y-99895594D01*
X95231384Y-99897835D01*
X95180158Y-99974500D01*
X95116364Y-100069975D01*
X94969975Y-100216364D01*
X94963406Y-100220753D01*
X94797835Y-100331384D01*
X94797834Y-100331385D01*
X94797833Y-100331385D01*
X94606564Y-100410611D01*
X94403516Y-100451000D01*
X94196484Y-100451000D01*
X93993436Y-100410611D01*
X93802167Y-100331385D01*
X93802166Y-100331385D01*
X93802165Y-100331384D01*
X93636594Y-100220753D01*
X93630025Y-100216364D01*
X93483636Y-100069975D01*
X93419842Y-99974500D01*
X93368616Y-99897835D01*
X93367688Y-99895594D01*
X93289389Y-99706564D01*
X93249000Y-99503516D01*
X93249000Y-99296484D01*
X93289389Y-99093436D01*
X93368615Y-98902167D01*
X93483636Y-98730025D01*
X93630025Y-98583636D01*
X93717032Y-98525500D01*
X93802165Y-98468616D01*
X93802167Y-98468615D01*
X93993436Y-98389389D01*
X94196484Y-98349000D01*
X94403516Y-98349000D01*
X94606564Y-98389389D01*
G37*
G36*
X92851000Y-100451000D02*
G01*
X90749000Y-100451000D01*
X90749000Y-98349000D01*
X92851000Y-98349000D01*
X92851000Y-100451000D01*
G37*
G36*
X106399512Y-97703443D02*
G01*
X106434618Y-97714092D01*
X106466978Y-97731388D01*
X106495337Y-97754663D01*
X106518612Y-97783022D01*
X106535908Y-97815382D01*
X106546557Y-97850488D01*
X106551000Y-97895594D01*
X106551000Y-98604406D01*
X106546557Y-98649512D01*
X106535908Y-98684618D01*
X106518612Y-98716978D01*
X106495337Y-98745337D01*
X106466978Y-98768612D01*
X106434618Y-98785908D01*
X106399512Y-98796557D01*
X106354406Y-98801000D01*
X103145594Y-98801000D01*
X103100488Y-98796557D01*
X103065382Y-98785908D01*
X103033022Y-98768612D01*
X103004663Y-98745337D01*
X102981388Y-98716978D01*
X102964092Y-98684618D01*
X102953443Y-98649512D01*
X102949000Y-98604406D01*
X102949000Y-97895594D01*
X102953443Y-97850488D01*
X102964092Y-97815382D01*
X102981388Y-97783022D01*
X103004663Y-97754663D01*
X103033022Y-97731388D01*
X103065382Y-97714092D01*
X103100488Y-97703443D01*
X103145594Y-97699000D01*
X106354406Y-97699000D01*
X106399512Y-97703443D01*
G37*
G36*
X96951000Y-96851000D02*
G01*
X93649000Y-96851000D01*
X93649000Y-94749000D01*
X96951000Y-94749000D01*
X96951000Y-96851000D01*
G37*
G36*
X106399512Y-95703443D02*
G01*
X106434618Y-95714092D01*
X106466978Y-95731388D01*
X106495337Y-95754663D01*
X106518612Y-95783022D01*
X106535908Y-95815382D01*
X106546557Y-95850488D01*
X106551000Y-95895594D01*
X106551000Y-96604406D01*
X106546557Y-96649512D01*
X106535908Y-96684618D01*
X106518612Y-96716978D01*
X106495337Y-96745337D01*
X106466978Y-96768612D01*
X106434618Y-96785908D01*
X106399512Y-96796557D01*
X106354406Y-96801000D01*
X103145594Y-96801000D01*
X103100488Y-96796557D01*
X103065382Y-96785908D01*
X103033022Y-96768612D01*
X103004663Y-96745337D01*
X102981388Y-96716978D01*
X102964092Y-96684618D01*
X102953443Y-96649512D01*
X102949000Y-96604406D01*
X102949000Y-95895594D01*
X102953443Y-95850488D01*
X102964092Y-95815382D01*
X102981388Y-95783022D01*
X103004663Y-95754663D01*
X103033022Y-95731388D01*
X103065382Y-95714092D01*
X103100488Y-95703443D01*
X103145594Y-95699000D01*
X106354406Y-95699000D01*
X106399512Y-95703443D01*
G37*
G36*
X106399512Y-93703443D02*
G01*
X106434618Y-93714092D01*
X106466978Y-93731388D01*
X106495337Y-93754663D01*
X106518612Y-93783022D01*
X106535908Y-93815382D01*
X106546557Y-93850488D01*
X106551000Y-93895594D01*
X106551000Y-94604406D01*
X106546557Y-94649512D01*
X106535908Y-94684618D01*
X106518612Y-94716978D01*
X106495337Y-94745337D01*
X106466978Y-94768612D01*
X106434618Y-94785908D01*
X106399512Y-94796557D01*
X106354406Y-94801000D01*
X103145594Y-94801000D01*
X103100488Y-94796557D01*
X103065382Y-94785908D01*
X103033022Y-94768612D01*
X103004663Y-94745337D01*
X102981388Y-94716978D01*
X102964092Y-94684618D01*
X102953443Y-94649512D01*
X102949000Y-94604406D01*
X102949000Y-93895594D01*
X102953443Y-93850488D01*
X102964092Y-93815382D01*
X102981388Y-93783022D01*
X103004663Y-93754663D01*
X103033022Y-93731388D01*
X103065382Y-93714092D01*
X103100488Y-93703443D01*
X103145594Y-93699000D01*
X106354406Y-93699000D01*
X106399512Y-93703443D01*
G37*
G36*
X100629828Y-91102718D02*
G01*
X100657872Y-91111226D01*
X100683718Y-91125041D01*
X100706370Y-91143630D01*
X100724959Y-91166282D01*
X100738774Y-91192128D01*
X100747282Y-91220172D01*
X100751000Y-91257927D01*
X100751000Y-92542073D01*
X100747282Y-92579828D01*
X100738774Y-92607872D01*
X100724959Y-92633718D01*
X100706370Y-92656370D01*
X100683718Y-92674959D01*
X100657872Y-92688774D01*
X100629828Y-92697282D01*
X100592073Y-92701000D01*
X97407927Y-92701000D01*
X97370172Y-92697282D01*
X97342128Y-92688774D01*
X97316282Y-92674959D01*
X97293630Y-92656370D01*
X97275041Y-92633718D01*
X97261226Y-92607872D01*
X97252718Y-92579828D01*
X97249000Y-92542073D01*
X97249000Y-91257927D01*
X97252718Y-91220172D01*
X97261226Y-91192128D01*
X97275041Y-91166282D01*
X97293630Y-91143630D01*
X97316282Y-91125041D01*
X97342128Y-91111226D01*
X97370172Y-91102718D01*
X97407927Y-91099000D01*
X100592073Y-91099000D01*
X100629828Y-91102718D01*
G37*
M02*
