G04 #@! TF.GenerationSoftware,KiCad,Pcbnew,(5.1.5)-3*
G04 #@! TF.CreationDate,2020-08-05T22:49:10+02:00*
G04 #@! TF.ProjectId,Controller,436f6e74-726f-46c6-9c65-722e6b696361,rev?*
G04 #@! TF.SameCoordinates,Original*
G04 #@! TF.FileFunction,Legend,Top*
G04 #@! TF.FilePolarity,Positive*
%FSLAX46Y46*%
G04 Gerber Fmt 4.6, Leading zero omitted, Abs format (unit mm)*
G04 Created by KiCad (PCBNEW (5.1.5)-3) date 2020-08-05 22:49:10*
%MOMM*%
%LPD*%
G04 APERTURE LIST*
%ADD10C,0.120000*%
%ADD11C,0.150000*%
%ADD12C,0.110000*%
G04 APERTURE END LIST*
D10*
X139600000Y-90500000D02*
X139600000Y-96800000D01*
X111600000Y-90500000D02*
X111600000Y-96800000D01*
X140790000Y-126197936D02*
X140790000Y-127402064D01*
X142610000Y-126197936D02*
X142610000Y-127402064D01*
X102310000Y-123496078D02*
X102310000Y-122978922D01*
X100890000Y-123496078D02*
X100890000Y-122978922D01*
X101296078Y-126590000D02*
X100778922Y-126590000D01*
X101296078Y-128010000D02*
X100778922Y-128010000D01*
X116480000Y-115845000D02*
X116480000Y-116625000D01*
X116480000Y-116625000D02*
X117480000Y-116625000D01*
X134720000Y-115845000D02*
X134720000Y-116625000D01*
X134720000Y-116625000D02*
X133720000Y-116625000D01*
X116480000Y-90880000D02*
X134720000Y-90880000D01*
X134720000Y-90880000D02*
X134720000Y-97300000D01*
X116480000Y-90880000D02*
X116480000Y-97300000D01*
X116480000Y-97300000D02*
X116100000Y-97300000D01*
X111499721Y-97390000D02*
X111825279Y-97390000D01*
X111499721Y-98410000D02*
X111825279Y-98410000D01*
X131310000Y-119050279D02*
X131310000Y-118724721D01*
X130290000Y-119050279D02*
X130290000Y-118724721D01*
X159310000Y-112390000D02*
X159310000Y-105710000D01*
X153090000Y-105010000D02*
X153090000Y-106290000D01*
X151490000Y-105010000D02*
X153090000Y-105010000D01*
X151490000Y-103990000D02*
X151490000Y-105010000D01*
X155740000Y-103990000D02*
X151490000Y-103990000D01*
X153090000Y-111810000D02*
X150200000Y-111810000D01*
X153090000Y-113090000D02*
X153090000Y-111810000D01*
X151490000Y-113090000D02*
X153090000Y-113090000D01*
X151490000Y-114110000D02*
X151490000Y-113090000D01*
X155740000Y-114110000D02*
X151490000Y-114110000D01*
X122000000Y-128400000D02*
X122000000Y-127200000D01*
X122460000Y-128100000D02*
X122000000Y-128400000D01*
X125120000Y-124740000D02*
X122040000Y-124740000D01*
X121500000Y-128100000D02*
X122000000Y-128400000D01*
X100600000Y-126200000D02*
X102600000Y-126200000D01*
X102600000Y-126200000D02*
X102600000Y-122300000D01*
X100600000Y-126200000D02*
X100600000Y-122300000D01*
X131790000Y-119050279D02*
X131790000Y-118724721D01*
X132810000Y-119050279D02*
X132810000Y-118724721D01*
X128790000Y-124475279D02*
X128790000Y-124149721D01*
X129810000Y-124475279D02*
X129810000Y-124149721D01*
X128078922Y-119090000D02*
X128596078Y-119090000D01*
X128078922Y-120510000D02*
X128596078Y-120510000D01*
X128810000Y-127303922D02*
X128810000Y-127821078D01*
X127390000Y-127303922D02*
X127390000Y-127821078D01*
X93800000Y-101900000D02*
X94800000Y-101900000D01*
X94300000Y-101400000D02*
X94300000Y-102400000D01*
X97800000Y-106100000D02*
X97800000Y-108400000D01*
X95300000Y-100700000D02*
X95300000Y-103300000D01*
X97800000Y-95400000D02*
X97800000Y-97800000D01*
X92100000Y-97800000D02*
X91800000Y-98100000D01*
X91500000Y-97800000D02*
X92100000Y-97800000D01*
X91800000Y-98100000D02*
X91500000Y-97800000D01*
X90300000Y-95400000D02*
X90300000Y-108400000D01*
X93300000Y-95400000D02*
X90300000Y-95400000D01*
X93300000Y-108400000D02*
X90300000Y-108400000D01*
X97800000Y-108400000D02*
X97300000Y-108400000D01*
X97300000Y-95400000D02*
X97800000Y-95400000D01*
X137410000Y-104549721D02*
X137410000Y-104875279D01*
X136390000Y-104549721D02*
X136390000Y-104875279D01*
X142910000Y-102349721D02*
X142910000Y-102675279D01*
X141890000Y-102349721D02*
X141890000Y-102675279D01*
X141210000Y-102337221D02*
X141210000Y-102662779D01*
X140190000Y-102337221D02*
X140190000Y-102662779D01*
X139410000Y-102349721D02*
X139410000Y-102675279D01*
X138390000Y-102349721D02*
X138390000Y-102675279D01*
X149490000Y-116050279D02*
X149490000Y-115724721D01*
X150510000Y-116050279D02*
X150510000Y-115724721D01*
X148290000Y-108275279D02*
X148290000Y-107949721D01*
X149310000Y-108275279D02*
X149310000Y-107949721D01*
X148375279Y-96310000D02*
X148049721Y-96310000D01*
X148375279Y-95290000D02*
X148049721Y-95290000D01*
X148350279Y-98310000D02*
X148024721Y-98310000D01*
X148350279Y-97290000D02*
X148024721Y-97290000D01*
X149490000Y-114475279D02*
X149490000Y-114149721D01*
X150510000Y-114475279D02*
X150510000Y-114149721D01*
D11*
X143350000Y-104750000D02*
X143350000Y-100350000D01*
X137825000Y-106325000D02*
X137825000Y-100350000D01*
D10*
X137410000Y-98924721D02*
X137410000Y-99250279D01*
X136390000Y-98924721D02*
X136390000Y-99250279D01*
X125810000Y-120140000D02*
X125810000Y-118990000D01*
X125810000Y-118990000D02*
X124760000Y-118990000D01*
X124760000Y-118990000D02*
X124760000Y-118000000D01*
X117590000Y-120140000D02*
X117590000Y-118990000D01*
X117590000Y-118990000D02*
X118640000Y-118990000D01*
X124640000Y-122110000D02*
X118760000Y-122110000D01*
X141960000Y-115380000D02*
X140500000Y-115380000D01*
X141960000Y-112220000D02*
X139800000Y-112220000D01*
X141960000Y-112220000D02*
X141960000Y-113150000D01*
X141960000Y-115380000D02*
X141960000Y-114450000D01*
X146860000Y-111680000D02*
X146860000Y-110750000D01*
X146860000Y-108520000D02*
X146860000Y-109450000D01*
X146860000Y-108520000D02*
X144700000Y-108520000D01*
X146860000Y-111680000D02*
X145400000Y-111680000D01*
X141660000Y-111780000D02*
X141660000Y-110850000D01*
X141660000Y-108620000D02*
X141660000Y-109550000D01*
X141660000Y-108620000D02*
X139500000Y-108620000D01*
X141660000Y-111780000D02*
X140200000Y-111780000D01*
X141660000Y-119080000D02*
X141660000Y-118150000D01*
X141660000Y-115920000D02*
X141660000Y-116850000D01*
X141660000Y-115920000D02*
X139500000Y-115920000D01*
X141660000Y-119080000D02*
X140200000Y-119080000D01*
X134290000Y-122900000D02*
X134290000Y-124700000D01*
X137510000Y-124700000D02*
X137510000Y-122250000D01*
X112360000Y-119410000D02*
X112360000Y-118150000D01*
X112360000Y-112590000D02*
X112360000Y-113850000D01*
X108600000Y-119410000D02*
X112360000Y-119410000D01*
X106350000Y-112590000D02*
X112360000Y-112590000D01*
X104770000Y-129230000D02*
X104770000Y-129200000D01*
X104770000Y-122770000D02*
X104770000Y-122800000D01*
X111230000Y-122770000D02*
X111230000Y-122800000D01*
X111230000Y-129200000D02*
X111230000Y-129230000D01*
X104770000Y-127300000D02*
X104770000Y-124700000D01*
X111230000Y-129230000D02*
X104770000Y-129230000D01*
X111230000Y-127300000D02*
X111230000Y-124700000D01*
X111230000Y-122770000D02*
X104770000Y-122770000D01*
X118770000Y-129230000D02*
X118770000Y-129200000D01*
X118770000Y-122770000D02*
X118770000Y-122800000D01*
X125230000Y-122770000D02*
X125230000Y-122800000D01*
X125230000Y-129200000D02*
X125230000Y-129230000D01*
X118770000Y-127300000D02*
X118770000Y-124700000D01*
X125230000Y-129230000D02*
X118770000Y-129230000D01*
X125230000Y-127300000D02*
X125230000Y-124700000D01*
X125230000Y-122770000D02*
X118770000Y-122770000D01*
X144390000Y-115302064D02*
X144390000Y-114097936D01*
X146210000Y-115302064D02*
X146210000Y-114097936D01*
X146302064Y-119210000D02*
X145097936Y-119210000D01*
X146302064Y-117390000D02*
X145097936Y-117390000D01*
X146302064Y-121710000D02*
X145097936Y-121710000D01*
X146302064Y-119890000D02*
X145097936Y-119890000D01*
X146302064Y-124210000D02*
X145097936Y-124210000D01*
X146302064Y-122390000D02*
X145097936Y-122390000D01*
X136124721Y-127890000D02*
X136450279Y-127890000D01*
X136124721Y-128910000D02*
X136450279Y-128910000D01*
X133375279Y-127310000D02*
X133049721Y-127310000D01*
X133375279Y-126290000D02*
X133049721Y-126290000D01*
X133710000Y-123749721D02*
X133710000Y-124075279D01*
X132690000Y-123749721D02*
X132690000Y-124075279D01*
X105949721Y-106790000D02*
X106275279Y-106790000D01*
X105949721Y-107810000D02*
X106275279Y-107810000D01*
X105349721Y-109090000D02*
X105675279Y-109090000D01*
X105349721Y-110110000D02*
X105675279Y-110110000D01*
X102549721Y-106790000D02*
X102875279Y-106790000D01*
X102549721Y-107810000D02*
X102875279Y-107810000D01*
X101899721Y-109090000D02*
X102225279Y-109090000D01*
X101899721Y-110110000D02*
X102225279Y-110110000D01*
X101849721Y-105190000D02*
X102175279Y-105190000D01*
X101849721Y-106210000D02*
X102175279Y-106210000D01*
X101899721Y-110690000D02*
X102225279Y-110690000D01*
X101899721Y-111710000D02*
X102225279Y-111710000D01*
X146475279Y-128810000D02*
X146149721Y-128810000D01*
X146475279Y-127790000D02*
X146149721Y-127790000D01*
X147724721Y-127790000D02*
X148050279Y-127790000D01*
X147724721Y-128810000D02*
X148050279Y-128810000D01*
X100849721Y-93790000D02*
X101175279Y-93790000D01*
X100849721Y-94810000D02*
X101175279Y-94810000D01*
X100849721Y-96190000D02*
X101175279Y-96190000D01*
X100849721Y-97210000D02*
X101175279Y-97210000D01*
X100849721Y-100190000D02*
X101175279Y-100190000D01*
X100849721Y-101210000D02*
X101175279Y-101210000D01*
X102499721Y-114390000D02*
X102825279Y-114390000D01*
X102499721Y-115410000D02*
X102825279Y-115410000D01*
X100849721Y-92190000D02*
X101175279Y-92190000D01*
X100849721Y-93210000D02*
X101175279Y-93210000D01*
X100849721Y-97790000D02*
X101175279Y-97790000D01*
X100849721Y-98810000D02*
X101175279Y-98810000D01*
X100849721Y-101790000D02*
X101175279Y-101790000D01*
X100849721Y-102810000D02*
X101175279Y-102810000D01*
X102499721Y-112790000D02*
X102825279Y-112790000D01*
X102499721Y-113810000D02*
X102825279Y-113810000D01*
X102524721Y-117690000D02*
X102850279Y-117690000D01*
X102524721Y-118710000D02*
X102850279Y-118710000D01*
X144010000Y-109824721D02*
X144010000Y-110150279D01*
X142990000Y-109824721D02*
X142990000Y-110150279D01*
X138810000Y-109924721D02*
X138810000Y-110250279D01*
X137790000Y-109924721D02*
X137790000Y-110250279D01*
X139010000Y-113624721D02*
X139010000Y-113950279D01*
X137990000Y-113624721D02*
X137990000Y-113950279D01*
X137775279Y-116610000D02*
X137449721Y-116610000D01*
X137775279Y-115590000D02*
X137449721Y-115590000D01*
X116510000Y-122849721D02*
X116510000Y-123175279D01*
X115490000Y-122849721D02*
X115490000Y-123175279D01*
X115475279Y-126010000D02*
X115149721Y-126010000D01*
X115475279Y-124990000D02*
X115149721Y-124990000D01*
X97090000Y-118375279D02*
X97090000Y-118049721D01*
X98110000Y-118375279D02*
X98110000Y-118049721D01*
X133400000Y-117400000D02*
X137400000Y-117400000D01*
X133400000Y-121600000D02*
X137400000Y-121600000D01*
X159310000Y-127590000D02*
X159310000Y-116910000D01*
X153090000Y-116210000D02*
X153090000Y-117490000D01*
X151490000Y-116210000D02*
X153090000Y-116210000D01*
X151490000Y-115190000D02*
X151490000Y-116210000D01*
X155740000Y-115190000D02*
X151490000Y-115190000D01*
X153090000Y-127010000D02*
X150200000Y-127010000D01*
X153090000Y-128290000D02*
X153090000Y-127010000D01*
X151490000Y-128290000D02*
X153090000Y-128290000D01*
X151490000Y-129310000D02*
X151490000Y-128290000D01*
X155740000Y-129310000D02*
X151490000Y-129310000D01*
X159310000Y-101140000D02*
X159310000Y-92460000D01*
X153090000Y-91760000D02*
X153090000Y-93040000D01*
X151490000Y-91760000D02*
X153090000Y-91760000D01*
X151490000Y-90740000D02*
X151490000Y-91760000D01*
X155740000Y-90740000D02*
X151490000Y-90740000D01*
X153090000Y-100560000D02*
X150200000Y-100560000D01*
X153090000Y-101840000D02*
X153090000Y-100560000D01*
X151490000Y-101840000D02*
X153090000Y-101840000D01*
X151490000Y-102860000D02*
X151490000Y-101840000D01*
X155740000Y-102860000D02*
X151490000Y-102860000D01*
X90790000Y-122210000D02*
X90790000Y-126890000D01*
X97010000Y-127590000D02*
X97010000Y-126310000D01*
X98610000Y-127590000D02*
X97010000Y-127590000D01*
X98610000Y-128610000D02*
X98610000Y-127590000D01*
X94360000Y-128610000D02*
X98610000Y-128610000D01*
X97010000Y-122790000D02*
X99900000Y-122790000D01*
X97010000Y-121510000D02*
X97010000Y-122790000D01*
X98610000Y-121510000D02*
X97010000Y-121510000D01*
X98610000Y-120490000D02*
X98610000Y-121510000D01*
X94360000Y-120490000D02*
X98610000Y-120490000D01*
X94500000Y-111400000D02*
X94500000Y-111850000D01*
X92650000Y-111400000D02*
X94500000Y-111400000D01*
X90100000Y-119200000D02*
X90350000Y-119200000D01*
X90100000Y-111400000D02*
X90350000Y-111400000D01*
X92650000Y-119200000D02*
X94500000Y-119200000D01*
X94500000Y-119200000D02*
X94500000Y-118750000D01*
X95050000Y-113600000D02*
X95050000Y-114050000D01*
X95050000Y-113600000D02*
X94600000Y-113600000D01*
X138400000Y-124200000D02*
X140400000Y-124200000D01*
X140400000Y-124200000D02*
X140400000Y-120300000D01*
X138400000Y-124200000D02*
X138400000Y-120300000D01*
X127065000Y-122612500D02*
X127065000Y-124897500D01*
X127065000Y-124897500D02*
X128535000Y-124897500D01*
X128535000Y-124897500D02*
X128535000Y-122612500D01*
X113165000Y-122187500D02*
X113165000Y-124472500D01*
X113165000Y-124472500D02*
X114635000Y-124472500D01*
X114635000Y-124472500D02*
X114635000Y-122187500D01*
X98335000Y-115712500D02*
X98335000Y-113427500D01*
X98335000Y-113427500D02*
X96865000Y-113427500D01*
X96865000Y-113427500D02*
X96865000Y-115712500D01*
X140310000Y-126197936D02*
X140310000Y-127402064D01*
X138490000Y-126197936D02*
X138490000Y-127402064D01*
X105249721Y-105190000D02*
X105575279Y-105190000D01*
X105249721Y-106210000D02*
X105575279Y-106210000D01*
X105349721Y-110690000D02*
X105675279Y-110690000D01*
X105349721Y-111710000D02*
X105675279Y-111710000D01*
X136475279Y-127310000D02*
X136149721Y-127310000D01*
X136475279Y-126290000D02*
X136149721Y-126290000D01*
X132110000Y-122797936D02*
X132110000Y-124002064D01*
X130290000Y-122797936D02*
X130290000Y-124002064D01*
X102990000Y-93650279D02*
X102990000Y-93324721D01*
X104010000Y-93650279D02*
X104010000Y-93324721D01*
X103949721Y-96190000D02*
X104275279Y-96190000D01*
X103949721Y-97210000D02*
X104275279Y-97210000D01*
X103910000Y-101349721D02*
X103910000Y-101675279D01*
X102890000Y-101349721D02*
X102890000Y-101675279D01*
X105510000Y-115449721D02*
X105510000Y-115775279D01*
X104490000Y-115449721D02*
X104490000Y-115775279D01*
X105610000Y-118749721D02*
X105610000Y-119075279D01*
X104590000Y-118749721D02*
X104590000Y-119075279D01*
X115410000Y-101824721D02*
X115410000Y-102150279D01*
X114390000Y-101824721D02*
X114390000Y-102150279D01*
X114390000Y-98975279D02*
X114390000Y-98649721D01*
X115410000Y-98975279D02*
X115410000Y-98649721D01*
X113152064Y-111960000D02*
X111947936Y-111960000D01*
X113152064Y-110140000D02*
X111947936Y-110140000D01*
X107997936Y-120090000D02*
X109202064Y-120090000D01*
X107997936Y-121910000D02*
X109202064Y-121910000D01*
D12*
X143650000Y-128850000D02*
X143683333Y-128883333D01*
X143716666Y-128983333D01*
X143716666Y-129050000D01*
X143683333Y-129150000D01*
X143616666Y-129216666D01*
X143550000Y-129250000D01*
X143416666Y-129283333D01*
X143316666Y-129283333D01*
X143183333Y-129250000D01*
X143116666Y-129216666D01*
X143050000Y-129150000D01*
X143016666Y-129050000D01*
X143016666Y-128983333D01*
X143050000Y-128883333D01*
X143083333Y-128850000D01*
X143083333Y-128583333D02*
X143050000Y-128550000D01*
X143016666Y-128483333D01*
X143016666Y-128316666D01*
X143050000Y-128250000D01*
X143083333Y-128216666D01*
X143150000Y-128183333D01*
X143216666Y-128183333D01*
X143316666Y-128216666D01*
X143716666Y-128616666D01*
X143716666Y-128183333D01*
X143083333Y-127916666D02*
X143050000Y-127883333D01*
X143016666Y-127816666D01*
X143016666Y-127650000D01*
X143050000Y-127583333D01*
X143083333Y-127550000D01*
X143150000Y-127516666D01*
X143216666Y-127516666D01*
X143316666Y-127550000D01*
X143716666Y-127950000D01*
X143716666Y-127516666D01*
X103150000Y-125416666D02*
X102916666Y-125083333D01*
X102750000Y-125416666D02*
X102750000Y-124716666D01*
X103016666Y-124716666D01*
X103083333Y-124750000D01*
X103116666Y-124783333D01*
X103150000Y-124850000D01*
X103150000Y-124950000D01*
X103116666Y-125016666D01*
X103083333Y-125050000D01*
X103016666Y-125083333D01*
X102750000Y-125083333D01*
X103783333Y-124716666D02*
X103450000Y-124716666D01*
X103416666Y-125050000D01*
X103450000Y-125016666D01*
X103516666Y-124983333D01*
X103683333Y-124983333D01*
X103750000Y-125016666D01*
X103783333Y-125050000D01*
X103816666Y-125116666D01*
X103816666Y-125283333D01*
X103783333Y-125350000D01*
X103750000Y-125383333D01*
X103683333Y-125416666D01*
X103516666Y-125416666D01*
X103450000Y-125383333D01*
X103416666Y-125350000D01*
X104483333Y-125416666D02*
X104083333Y-125416666D01*
X104283333Y-125416666D02*
X104283333Y-124716666D01*
X104216666Y-124816666D01*
X104150000Y-124883333D01*
X104083333Y-124916666D01*
X100587500Y-129200000D02*
X100554166Y-129233333D01*
X100454166Y-129266666D01*
X100387500Y-129266666D01*
X100287500Y-129233333D01*
X100220833Y-129166666D01*
X100187500Y-129100000D01*
X100154166Y-128966666D01*
X100154166Y-128866666D01*
X100187500Y-128733333D01*
X100220833Y-128666666D01*
X100287500Y-128600000D01*
X100387500Y-128566666D01*
X100454166Y-128566666D01*
X100554166Y-128600000D01*
X100587500Y-128633333D01*
X100854166Y-128633333D02*
X100887500Y-128600000D01*
X100954166Y-128566666D01*
X101120833Y-128566666D01*
X101187500Y-128600000D01*
X101220833Y-128633333D01*
X101254166Y-128700000D01*
X101254166Y-128766666D01*
X101220833Y-128866666D01*
X100820833Y-129266666D01*
X101254166Y-129266666D01*
X101920833Y-129266666D02*
X101520833Y-129266666D01*
X101720833Y-129266666D02*
X101720833Y-128566666D01*
X101654166Y-128666666D01*
X101587500Y-128733333D01*
X101520833Y-128766666D01*
X115216666Y-94533333D02*
X115783333Y-94533333D01*
X115850000Y-94500000D01*
X115883333Y-94466666D01*
X115916666Y-94400000D01*
X115916666Y-94266666D01*
X115883333Y-94200000D01*
X115850000Y-94166666D01*
X115783333Y-94133333D01*
X115216666Y-94133333D01*
X115216666Y-93866666D02*
X115216666Y-93433333D01*
X115483333Y-93666666D01*
X115483333Y-93566666D01*
X115516666Y-93500000D01*
X115550000Y-93466666D01*
X115616666Y-93433333D01*
X115783333Y-93433333D01*
X115850000Y-93466666D01*
X115883333Y-93500000D01*
X115916666Y-93566666D01*
X115916666Y-93766666D01*
X115883333Y-93833333D01*
X115850000Y-93866666D01*
X109258333Y-97783333D02*
X109591666Y-97550000D01*
X109258333Y-97383333D02*
X109958333Y-97383333D01*
X109958333Y-97650000D01*
X109925000Y-97716666D01*
X109891666Y-97750000D01*
X109825000Y-97783333D01*
X109725000Y-97783333D01*
X109658333Y-97750000D01*
X109625000Y-97716666D01*
X109591666Y-97650000D01*
X109591666Y-97383333D01*
X109958333Y-98016666D02*
X109958333Y-98450000D01*
X109691666Y-98216666D01*
X109691666Y-98316666D01*
X109658333Y-98383333D01*
X109625000Y-98416666D01*
X109558333Y-98450000D01*
X109391666Y-98450000D01*
X109325000Y-98416666D01*
X109291666Y-98383333D01*
X109258333Y-98316666D01*
X109258333Y-98116666D01*
X109291666Y-98050000D01*
X109325000Y-98016666D01*
X130450000Y-121116666D02*
X130216666Y-120783333D01*
X130050000Y-121116666D02*
X130050000Y-120416666D01*
X130316666Y-120416666D01*
X130383333Y-120450000D01*
X130416666Y-120483333D01*
X130450000Y-120550000D01*
X130450000Y-120650000D01*
X130416666Y-120716666D01*
X130383333Y-120750000D01*
X130316666Y-120783333D01*
X130050000Y-120783333D01*
X131083333Y-120416666D02*
X130750000Y-120416666D01*
X130716666Y-120750000D01*
X130750000Y-120716666D01*
X130816666Y-120683333D01*
X130983333Y-120683333D01*
X131050000Y-120716666D01*
X131083333Y-120750000D01*
X131116666Y-120816666D01*
X131116666Y-120983333D01*
X131083333Y-121050000D01*
X131050000Y-121083333D01*
X130983333Y-121116666D01*
X130816666Y-121116666D01*
X130750000Y-121083333D01*
X130716666Y-121050000D01*
X131550000Y-120416666D02*
X131616666Y-120416666D01*
X131683333Y-120450000D01*
X131716666Y-120483333D01*
X131750000Y-120550000D01*
X131783333Y-120683333D01*
X131783333Y-120850000D01*
X131750000Y-120983333D01*
X131716666Y-121050000D01*
X131683333Y-121083333D01*
X131616666Y-121116666D01*
X131550000Y-121116666D01*
X131483333Y-121083333D01*
X131450000Y-121050000D01*
X131416666Y-120983333D01*
X131383333Y-120850000D01*
X131383333Y-120683333D01*
X131416666Y-120550000D01*
X131450000Y-120483333D01*
X131483333Y-120450000D01*
X131550000Y-120416666D01*
X150166666Y-104816666D02*
X150166666Y-105316666D01*
X150133333Y-105416666D01*
X150066666Y-105483333D01*
X149966666Y-105516666D01*
X149900000Y-105516666D01*
X150800000Y-105050000D02*
X150800000Y-105516666D01*
X150633333Y-104783333D02*
X150466666Y-105283333D01*
X150900000Y-105283333D01*
X116946666Y-125616666D02*
X116946666Y-126183333D01*
X116980000Y-126250000D01*
X117013333Y-126283333D01*
X117080000Y-126316666D01*
X117213333Y-126316666D01*
X117280000Y-126283333D01*
X117313333Y-126250000D01*
X117346666Y-126183333D01*
X117346666Y-125616666D01*
X118013333Y-125616666D02*
X117680000Y-125616666D01*
X117646666Y-125950000D01*
X117680000Y-125916666D01*
X117746666Y-125883333D01*
X117913333Y-125883333D01*
X117980000Y-125916666D01*
X118013333Y-125950000D01*
X118046666Y-126016666D01*
X118046666Y-126183333D01*
X118013333Y-126250000D01*
X117980000Y-126283333D01*
X117913333Y-126316666D01*
X117746666Y-126316666D01*
X117680000Y-126283333D01*
X117646666Y-126250000D01*
X99083333Y-122416666D02*
X99083333Y-121716666D01*
X99250000Y-121716666D01*
X99350000Y-121750000D01*
X99416666Y-121816666D01*
X99450000Y-121883333D01*
X99483333Y-122016666D01*
X99483333Y-122116666D01*
X99450000Y-122250000D01*
X99416666Y-122316666D01*
X99350000Y-122383333D01*
X99250000Y-122416666D01*
X99083333Y-122416666D01*
X99716666Y-121716666D02*
X100150000Y-121716666D01*
X99916666Y-121983333D01*
X100016666Y-121983333D01*
X100083333Y-122016666D01*
X100116666Y-122050000D01*
X100150000Y-122116666D01*
X100150000Y-122283333D01*
X100116666Y-122350000D01*
X100083333Y-122383333D01*
X100016666Y-122416666D01*
X99816666Y-122416666D01*
X99750000Y-122383333D01*
X99716666Y-122350000D01*
X132400000Y-117316666D02*
X132166666Y-116983333D01*
X132000000Y-117316666D02*
X132000000Y-116616666D01*
X132266666Y-116616666D01*
X132333333Y-116650000D01*
X132366666Y-116683333D01*
X132400000Y-116750000D01*
X132400000Y-116850000D01*
X132366666Y-116916666D01*
X132333333Y-116950000D01*
X132266666Y-116983333D01*
X132000000Y-116983333D01*
X133000000Y-116850000D02*
X133000000Y-117316666D01*
X132833333Y-116583333D02*
X132666666Y-117083333D01*
X133100000Y-117083333D01*
X133400000Y-117316666D02*
X133533333Y-117316666D01*
X133600000Y-117283333D01*
X133633333Y-117250000D01*
X133700000Y-117150000D01*
X133733333Y-117016666D01*
X133733333Y-116750000D01*
X133700000Y-116683333D01*
X133666666Y-116650000D01*
X133600000Y-116616666D01*
X133466666Y-116616666D01*
X133400000Y-116650000D01*
X133366666Y-116683333D01*
X133333333Y-116750000D01*
X133333333Y-116916666D01*
X133366666Y-116983333D01*
X133400000Y-117016666D01*
X133466666Y-117050000D01*
X133600000Y-117050000D01*
X133666666Y-117016666D01*
X133700000Y-116983333D01*
X133733333Y-116916666D01*
X128850000Y-122641666D02*
X128616666Y-122308333D01*
X128450000Y-122641666D02*
X128450000Y-121941666D01*
X128716666Y-121941666D01*
X128783333Y-121975000D01*
X128816666Y-122008333D01*
X128850000Y-122075000D01*
X128850000Y-122175000D01*
X128816666Y-122241666D01*
X128783333Y-122275000D01*
X128716666Y-122308333D01*
X128450000Y-122308333D01*
X129450000Y-122175000D02*
X129450000Y-122641666D01*
X129283333Y-121908333D02*
X129116666Y-122408333D01*
X129550000Y-122408333D01*
X129750000Y-121941666D02*
X130216666Y-121941666D01*
X129916666Y-122641666D01*
X127150000Y-118650000D02*
X127116666Y-118683333D01*
X127016666Y-118716666D01*
X126950000Y-118716666D01*
X126850000Y-118683333D01*
X126783333Y-118616666D01*
X126750000Y-118550000D01*
X126716666Y-118416666D01*
X126716666Y-118316666D01*
X126750000Y-118183333D01*
X126783333Y-118116666D01*
X126850000Y-118050000D01*
X126950000Y-118016666D01*
X127016666Y-118016666D01*
X127116666Y-118050000D01*
X127150000Y-118083333D01*
X127416666Y-118083333D02*
X127450000Y-118050000D01*
X127516666Y-118016666D01*
X127683333Y-118016666D01*
X127750000Y-118050000D01*
X127783333Y-118083333D01*
X127816666Y-118150000D01*
X127816666Y-118216666D01*
X127783333Y-118316666D01*
X127383333Y-118716666D01*
X127816666Y-118716666D01*
X128250000Y-118016666D02*
X128316666Y-118016666D01*
X128383333Y-118050000D01*
X128416666Y-118083333D01*
X128450000Y-118150000D01*
X128483333Y-118283333D01*
X128483333Y-118450000D01*
X128450000Y-118583333D01*
X128416666Y-118650000D01*
X128383333Y-118683333D01*
X128316666Y-118716666D01*
X128250000Y-118716666D01*
X128183333Y-118683333D01*
X128150000Y-118650000D01*
X128116666Y-118583333D01*
X128083333Y-118450000D01*
X128083333Y-118283333D01*
X128116666Y-118150000D01*
X128150000Y-118083333D01*
X128183333Y-118050000D01*
X128250000Y-118016666D01*
X129750000Y-127250000D02*
X129783333Y-127283333D01*
X129816666Y-127383333D01*
X129816666Y-127450000D01*
X129783333Y-127550000D01*
X129716666Y-127616666D01*
X129650000Y-127650000D01*
X129516666Y-127683333D01*
X129416666Y-127683333D01*
X129283333Y-127650000D01*
X129216666Y-127616666D01*
X129150000Y-127550000D01*
X129116666Y-127450000D01*
X129116666Y-127383333D01*
X129150000Y-127283333D01*
X129183333Y-127250000D01*
X129816666Y-126583333D02*
X129816666Y-126983333D01*
X129816666Y-126783333D02*
X129116666Y-126783333D01*
X129216666Y-126850000D01*
X129283333Y-126916666D01*
X129316666Y-126983333D01*
X129816666Y-126250000D02*
X129816666Y-126116666D01*
X129783333Y-126050000D01*
X129750000Y-126016666D01*
X129650000Y-125950000D01*
X129516666Y-125916666D01*
X129250000Y-125916666D01*
X129183333Y-125950000D01*
X129150000Y-125983333D01*
X129116666Y-126050000D01*
X129116666Y-126183333D01*
X129150000Y-126250000D01*
X129183333Y-126283333D01*
X129250000Y-126316666D01*
X129416666Y-126316666D01*
X129483333Y-126283333D01*
X129516666Y-126250000D01*
X129550000Y-126183333D01*
X129550000Y-126050000D01*
X129516666Y-125983333D01*
X129483333Y-125950000D01*
X129416666Y-125916666D01*
X94966666Y-94383333D02*
X95066666Y-94416666D01*
X95233333Y-94416666D01*
X95300000Y-94383333D01*
X95333333Y-94350000D01*
X95366666Y-94283333D01*
X95366666Y-94216666D01*
X95333333Y-94150000D01*
X95300000Y-94116666D01*
X95233333Y-94083333D01*
X95100000Y-94050000D01*
X95033333Y-94016666D01*
X95000000Y-93983333D01*
X94966666Y-93916666D01*
X94966666Y-93850000D01*
X95000000Y-93783333D01*
X95033333Y-93750000D01*
X95100000Y-93716666D01*
X95266666Y-93716666D01*
X95366666Y-93750000D01*
X95600000Y-93716666D02*
X95766666Y-94416666D01*
X95900000Y-93916666D01*
X96033333Y-94416666D01*
X96200000Y-93716666D01*
X96400000Y-93716666D02*
X96833333Y-93716666D01*
X96600000Y-93983333D01*
X96700000Y-93983333D01*
X96766666Y-94016666D01*
X96800000Y-94050000D01*
X96833333Y-94116666D01*
X96833333Y-94283333D01*
X96800000Y-94350000D01*
X96766666Y-94383333D01*
X96700000Y-94416666D01*
X96500000Y-94416666D01*
X96433333Y-94383333D01*
X96400000Y-94350000D01*
X136250000Y-106975000D02*
X136216666Y-107008333D01*
X136116666Y-107041666D01*
X136050000Y-107041666D01*
X135950000Y-107008333D01*
X135883333Y-106941666D01*
X135850000Y-106875000D01*
X135816666Y-106741666D01*
X135816666Y-106641666D01*
X135850000Y-106508333D01*
X135883333Y-106441666D01*
X135950000Y-106375000D01*
X136050000Y-106341666D01*
X136116666Y-106341666D01*
X136216666Y-106375000D01*
X136250000Y-106408333D01*
X136916666Y-107041666D02*
X136516666Y-107041666D01*
X136716666Y-107041666D02*
X136716666Y-106341666D01*
X136650000Y-106441666D01*
X136583333Y-106508333D01*
X136516666Y-106541666D01*
X137550000Y-106341666D02*
X137216666Y-106341666D01*
X137183333Y-106675000D01*
X137216666Y-106641666D01*
X137283333Y-106608333D01*
X137450000Y-106608333D01*
X137516666Y-106641666D01*
X137550000Y-106675000D01*
X137583333Y-106741666D01*
X137583333Y-106908333D01*
X137550000Y-106975000D01*
X137516666Y-107008333D01*
X137450000Y-107041666D01*
X137283333Y-107041666D01*
X137216666Y-107008333D01*
X137183333Y-106975000D01*
X142816666Y-97750000D02*
X142483333Y-97983333D01*
X142816666Y-98150000D02*
X142116666Y-98150000D01*
X142116666Y-97883333D01*
X142150000Y-97816666D01*
X142183333Y-97783333D01*
X142250000Y-97750000D01*
X142350000Y-97750000D01*
X142416666Y-97783333D01*
X142450000Y-97816666D01*
X142483333Y-97883333D01*
X142483333Y-98150000D01*
X142350000Y-97150000D02*
X142816666Y-97150000D01*
X142083333Y-97316666D02*
X142583333Y-97483333D01*
X142583333Y-97050000D01*
X142183333Y-96816666D02*
X142150000Y-96783333D01*
X142116666Y-96716666D01*
X142116666Y-96550000D01*
X142150000Y-96483333D01*
X142183333Y-96450000D01*
X142250000Y-96416666D01*
X142316666Y-96416666D01*
X142416666Y-96450000D01*
X142816666Y-96850000D01*
X142816666Y-96416666D01*
X141016666Y-97750000D02*
X140683333Y-97983333D01*
X141016666Y-98150000D02*
X140316666Y-98150000D01*
X140316666Y-97883333D01*
X140350000Y-97816666D01*
X140383333Y-97783333D01*
X140450000Y-97750000D01*
X140550000Y-97750000D01*
X140616666Y-97783333D01*
X140650000Y-97816666D01*
X140683333Y-97883333D01*
X140683333Y-98150000D01*
X140550000Y-97150000D02*
X141016666Y-97150000D01*
X140283333Y-97316666D02*
X140783333Y-97483333D01*
X140783333Y-97050000D01*
X141016666Y-96416666D02*
X141016666Y-96816666D01*
X141016666Y-96616666D02*
X140316666Y-96616666D01*
X140416666Y-96683333D01*
X140483333Y-96750000D01*
X140516666Y-96816666D01*
X139216666Y-97850000D02*
X138883333Y-98083333D01*
X139216666Y-98250000D02*
X138516666Y-98250000D01*
X138516666Y-97983333D01*
X138550000Y-97916666D01*
X138583333Y-97883333D01*
X138650000Y-97850000D01*
X138750000Y-97850000D01*
X138816666Y-97883333D01*
X138850000Y-97916666D01*
X138883333Y-97983333D01*
X138883333Y-98250000D01*
X138750000Y-97250000D02*
X139216666Y-97250000D01*
X138483333Y-97416666D02*
X138983333Y-97583333D01*
X138983333Y-97150000D01*
X138516666Y-96750000D02*
X138516666Y-96683333D01*
X138550000Y-96616666D01*
X138583333Y-96583333D01*
X138650000Y-96550000D01*
X138783333Y-96516666D01*
X138950000Y-96516666D01*
X139083333Y-96550000D01*
X139150000Y-96583333D01*
X139183333Y-96616666D01*
X139216666Y-96683333D01*
X139216666Y-96750000D01*
X139183333Y-96816666D01*
X139150000Y-96850000D01*
X139083333Y-96883333D01*
X138950000Y-96916666D01*
X138783333Y-96916666D01*
X138650000Y-96883333D01*
X138583333Y-96850000D01*
X138550000Y-96816666D01*
X138516666Y-96750000D01*
X148886666Y-116337500D02*
X148553333Y-116570833D01*
X148886666Y-116737500D02*
X148186666Y-116737500D01*
X148186666Y-116470833D01*
X148220000Y-116404166D01*
X148253333Y-116370833D01*
X148320000Y-116337500D01*
X148420000Y-116337500D01*
X148486666Y-116370833D01*
X148520000Y-116404166D01*
X148553333Y-116470833D01*
X148553333Y-116737500D01*
X148186666Y-116104166D02*
X148186666Y-115670833D01*
X148453333Y-115904166D01*
X148453333Y-115804166D01*
X148486666Y-115737500D01*
X148520000Y-115704166D01*
X148586666Y-115670833D01*
X148753333Y-115670833D01*
X148820000Y-115704166D01*
X148853333Y-115737500D01*
X148886666Y-115804166D01*
X148886666Y-116004166D01*
X148853333Y-116070833D01*
X148820000Y-116104166D01*
X148886666Y-115337500D02*
X148886666Y-115204166D01*
X148853333Y-115137500D01*
X148820000Y-115104166D01*
X148720000Y-115037500D01*
X148586666Y-115004166D01*
X148320000Y-115004166D01*
X148253333Y-115037500D01*
X148220000Y-115070833D01*
X148186666Y-115137500D01*
X148186666Y-115270833D01*
X148220000Y-115337500D01*
X148253333Y-115370833D01*
X148320000Y-115404166D01*
X148486666Y-115404166D01*
X148553333Y-115370833D01*
X148586666Y-115337500D01*
X148620000Y-115270833D01*
X148620000Y-115137500D01*
X148586666Y-115070833D01*
X148553333Y-115037500D01*
X148486666Y-115004166D01*
X147816666Y-107750000D02*
X147483333Y-107983333D01*
X147816666Y-108150000D02*
X147116666Y-108150000D01*
X147116666Y-107883333D01*
X147150000Y-107816666D01*
X147183333Y-107783333D01*
X147250000Y-107750000D01*
X147350000Y-107750000D01*
X147416666Y-107783333D01*
X147450000Y-107816666D01*
X147483333Y-107883333D01*
X147483333Y-108150000D01*
X147816666Y-107083333D02*
X147816666Y-107483333D01*
X147816666Y-107283333D02*
X147116666Y-107283333D01*
X147216666Y-107350000D01*
X147283333Y-107416666D01*
X147316666Y-107483333D01*
X147116666Y-106850000D02*
X147116666Y-106383333D01*
X147816666Y-106683333D01*
X145783333Y-96016666D02*
X145550000Y-95683333D01*
X145383333Y-96016666D02*
X145383333Y-95316666D01*
X145650000Y-95316666D01*
X145716666Y-95350000D01*
X145750000Y-95383333D01*
X145783333Y-95450000D01*
X145783333Y-95550000D01*
X145750000Y-95616666D01*
X145716666Y-95650000D01*
X145650000Y-95683333D01*
X145383333Y-95683333D01*
X146016666Y-95316666D02*
X146483333Y-95316666D01*
X146183333Y-96016666D01*
X145783333Y-98116666D02*
X145550000Y-97783333D01*
X145383333Y-98116666D02*
X145383333Y-97416666D01*
X145650000Y-97416666D01*
X145716666Y-97450000D01*
X145750000Y-97483333D01*
X145783333Y-97550000D01*
X145783333Y-97650000D01*
X145750000Y-97716666D01*
X145716666Y-97750000D01*
X145650000Y-97783333D01*
X145383333Y-97783333D01*
X146416666Y-97416666D02*
X146083333Y-97416666D01*
X146050000Y-97750000D01*
X146083333Y-97716666D01*
X146150000Y-97683333D01*
X146316666Y-97683333D01*
X146383333Y-97716666D01*
X146416666Y-97750000D01*
X146450000Y-97816666D01*
X146450000Y-97983333D01*
X146416666Y-98050000D01*
X146383333Y-98083333D01*
X146316666Y-98116666D01*
X146150000Y-98116666D01*
X146083333Y-98083333D01*
X146050000Y-98050000D01*
X148886666Y-113616666D02*
X148553333Y-113850000D01*
X148886666Y-114016666D02*
X148186666Y-114016666D01*
X148186666Y-113750000D01*
X148220000Y-113683333D01*
X148253333Y-113650000D01*
X148320000Y-113616666D01*
X148420000Y-113616666D01*
X148486666Y-113650000D01*
X148520000Y-113683333D01*
X148553333Y-113750000D01*
X148553333Y-114016666D01*
X148886666Y-112950000D02*
X148886666Y-113350000D01*
X148886666Y-113150000D02*
X148186666Y-113150000D01*
X148286666Y-113216666D01*
X148353333Y-113283333D01*
X148386666Y-113350000D01*
X138366666Y-106716666D02*
X138366666Y-107283333D01*
X138400000Y-107350000D01*
X138433333Y-107383333D01*
X138500000Y-107416666D01*
X138633333Y-107416666D01*
X138700000Y-107383333D01*
X138733333Y-107350000D01*
X138766666Y-107283333D01*
X138766666Y-106716666D01*
X139066666Y-106783333D02*
X139100000Y-106750000D01*
X139166666Y-106716666D01*
X139333333Y-106716666D01*
X139400000Y-106750000D01*
X139433333Y-106783333D01*
X139466666Y-106850000D01*
X139466666Y-106916666D01*
X139433333Y-107016666D01*
X139033333Y-107416666D01*
X139466666Y-107416666D01*
X137150000Y-96937500D02*
X137183333Y-96970833D01*
X137216666Y-97070833D01*
X137216666Y-97137500D01*
X137183333Y-97237500D01*
X137116666Y-97304166D01*
X137050000Y-97337500D01*
X136916666Y-97370833D01*
X136816666Y-97370833D01*
X136683333Y-97337500D01*
X136616666Y-97304166D01*
X136550000Y-97237500D01*
X136516666Y-97137500D01*
X136516666Y-97070833D01*
X136550000Y-96970833D01*
X136583333Y-96937500D01*
X137216666Y-96270833D02*
X137216666Y-96670833D01*
X137216666Y-96470833D02*
X136516666Y-96470833D01*
X136616666Y-96537500D01*
X136683333Y-96604166D01*
X136716666Y-96670833D01*
X136516666Y-95670833D02*
X136516666Y-95804166D01*
X136550000Y-95870833D01*
X136583333Y-95904166D01*
X136683333Y-95970833D01*
X136816666Y-96004166D01*
X137083333Y-96004166D01*
X137150000Y-95970833D01*
X137183333Y-95937500D01*
X137216666Y-95870833D01*
X137216666Y-95737500D01*
X137183333Y-95670833D01*
X137150000Y-95637500D01*
X137083333Y-95604166D01*
X136916666Y-95604166D01*
X136850000Y-95637500D01*
X136816666Y-95670833D01*
X136783333Y-95737500D01*
X136783333Y-95870833D01*
X136816666Y-95937500D01*
X136850000Y-95970833D01*
X136916666Y-96004166D01*
X125466666Y-117816666D02*
X125466666Y-118316666D01*
X125433333Y-118416666D01*
X125366666Y-118483333D01*
X125266666Y-118516666D01*
X125200000Y-118516666D01*
X125733333Y-117816666D02*
X126200000Y-117816666D01*
X125900000Y-118516666D01*
X142733333Y-112883333D02*
X142666666Y-112850000D01*
X142600000Y-112783333D01*
X142500000Y-112683333D01*
X142433333Y-112650000D01*
X142366666Y-112650000D01*
X142400000Y-112816666D02*
X142333333Y-112783333D01*
X142266666Y-112716666D01*
X142233333Y-112583333D01*
X142233333Y-112350000D01*
X142266666Y-112216666D01*
X142333333Y-112150000D01*
X142400000Y-112116666D01*
X142533333Y-112116666D01*
X142600000Y-112150000D01*
X142666666Y-112216666D01*
X142700000Y-112350000D01*
X142700000Y-112583333D01*
X142666666Y-112716666D01*
X142600000Y-112783333D01*
X142533333Y-112816666D01*
X142400000Y-112816666D01*
X142966666Y-112183333D02*
X143000000Y-112150000D01*
X143066666Y-112116666D01*
X143233333Y-112116666D01*
X143300000Y-112150000D01*
X143333333Y-112183333D01*
X143366666Y-112250000D01*
X143366666Y-112316666D01*
X143333333Y-112416666D01*
X142933333Y-112816666D01*
X143366666Y-112816666D01*
X145733333Y-108283333D02*
X145666666Y-108250000D01*
X145600000Y-108183333D01*
X145500000Y-108083333D01*
X145433333Y-108050000D01*
X145366666Y-108050000D01*
X145400000Y-108216666D02*
X145333333Y-108183333D01*
X145266666Y-108116666D01*
X145233333Y-107983333D01*
X145233333Y-107750000D01*
X145266666Y-107616666D01*
X145333333Y-107550000D01*
X145400000Y-107516666D01*
X145533333Y-107516666D01*
X145600000Y-107550000D01*
X145666666Y-107616666D01*
X145700000Y-107750000D01*
X145700000Y-107983333D01*
X145666666Y-108116666D01*
X145600000Y-108183333D01*
X145533333Y-108216666D01*
X145400000Y-108216666D01*
X146300000Y-107750000D02*
X146300000Y-108216666D01*
X146133333Y-107483333D02*
X145966666Y-107983333D01*
X146400000Y-107983333D01*
X141133333Y-108283333D02*
X141066666Y-108250000D01*
X141000000Y-108183333D01*
X140900000Y-108083333D01*
X140833333Y-108050000D01*
X140766666Y-108050000D01*
X140800000Y-108216666D02*
X140733333Y-108183333D01*
X140666666Y-108116666D01*
X140633333Y-107983333D01*
X140633333Y-107750000D01*
X140666666Y-107616666D01*
X140733333Y-107550000D01*
X140800000Y-107516666D01*
X140933333Y-107516666D01*
X141000000Y-107550000D01*
X141066666Y-107616666D01*
X141100000Y-107750000D01*
X141100000Y-107983333D01*
X141066666Y-108116666D01*
X141000000Y-108183333D01*
X140933333Y-108216666D01*
X140800000Y-108216666D01*
X141333333Y-107516666D02*
X141766666Y-107516666D01*
X141533333Y-107783333D01*
X141633333Y-107783333D01*
X141700000Y-107816666D01*
X141733333Y-107850000D01*
X141766666Y-107916666D01*
X141766666Y-108083333D01*
X141733333Y-108150000D01*
X141700000Y-108183333D01*
X141633333Y-108216666D01*
X141433333Y-108216666D01*
X141366666Y-108183333D01*
X141333333Y-108150000D01*
X142633333Y-116683333D02*
X142566666Y-116650000D01*
X142500000Y-116583333D01*
X142400000Y-116483333D01*
X142333333Y-116450000D01*
X142266666Y-116450000D01*
X142300000Y-116616666D02*
X142233333Y-116583333D01*
X142166666Y-116516666D01*
X142133333Y-116383333D01*
X142133333Y-116150000D01*
X142166666Y-116016666D01*
X142233333Y-115950000D01*
X142300000Y-115916666D01*
X142433333Y-115916666D01*
X142500000Y-115950000D01*
X142566666Y-116016666D01*
X142600000Y-116150000D01*
X142600000Y-116383333D01*
X142566666Y-116516666D01*
X142500000Y-116583333D01*
X142433333Y-116616666D01*
X142300000Y-116616666D01*
X143266666Y-116616666D02*
X142866666Y-116616666D01*
X143066666Y-116616666D02*
X143066666Y-115916666D01*
X143000000Y-116016666D01*
X142933333Y-116083333D01*
X142866666Y-116116666D01*
X137516666Y-126033333D02*
X138083333Y-126033333D01*
X138150000Y-126000000D01*
X138183333Y-125966666D01*
X138216666Y-125900000D01*
X138216666Y-125766666D01*
X138183333Y-125700000D01*
X138150000Y-125666666D01*
X138083333Y-125633333D01*
X137516666Y-125633333D01*
X137750000Y-125000000D02*
X138216666Y-125000000D01*
X137483333Y-125166666D02*
X137983333Y-125333333D01*
X137983333Y-124900000D01*
X113566666Y-112616666D02*
X113566666Y-113183333D01*
X113600000Y-113250000D01*
X113633333Y-113283333D01*
X113700000Y-113316666D01*
X113833333Y-113316666D01*
X113900000Y-113283333D01*
X113933333Y-113250000D01*
X113966666Y-113183333D01*
X113966666Y-112616666D01*
X114666666Y-113316666D02*
X114266666Y-113316666D01*
X114466666Y-113316666D02*
X114466666Y-112616666D01*
X114400000Y-112716666D01*
X114333333Y-112783333D01*
X114266666Y-112816666D01*
X102766666Y-126383333D02*
X102866666Y-126416666D01*
X103033333Y-126416666D01*
X103100000Y-126383333D01*
X103133333Y-126350000D01*
X103166666Y-126283333D01*
X103166666Y-126216666D01*
X103133333Y-126150000D01*
X103100000Y-126116666D01*
X103033333Y-126083333D01*
X102900000Y-126050000D01*
X102833333Y-126016666D01*
X102800000Y-125983333D01*
X102766666Y-125916666D01*
X102766666Y-125850000D01*
X102800000Y-125783333D01*
X102833333Y-125750000D01*
X102900000Y-125716666D01*
X103066666Y-125716666D01*
X103166666Y-125750000D01*
X103400000Y-125716666D02*
X103566666Y-126416666D01*
X103700000Y-125916666D01*
X103833333Y-126416666D01*
X104000000Y-125716666D01*
X104233333Y-125783333D02*
X104266666Y-125750000D01*
X104333333Y-125716666D01*
X104500000Y-125716666D01*
X104566666Y-125750000D01*
X104600000Y-125783333D01*
X104633333Y-125850000D01*
X104633333Y-125916666D01*
X104600000Y-126016666D01*
X104200000Y-126416666D01*
X104633333Y-126416666D01*
X114966666Y-129083333D02*
X115066666Y-129116666D01*
X115233333Y-129116666D01*
X115300000Y-129083333D01*
X115333333Y-129050000D01*
X115366666Y-128983333D01*
X115366666Y-128916666D01*
X115333333Y-128850000D01*
X115300000Y-128816666D01*
X115233333Y-128783333D01*
X115100000Y-128750000D01*
X115033333Y-128716666D01*
X115000000Y-128683333D01*
X114966666Y-128616666D01*
X114966666Y-128550000D01*
X115000000Y-128483333D01*
X115033333Y-128450000D01*
X115100000Y-128416666D01*
X115266666Y-128416666D01*
X115366666Y-128450000D01*
X115600000Y-128416666D02*
X115766666Y-129116666D01*
X115900000Y-128616666D01*
X116033333Y-129116666D01*
X116200000Y-128416666D01*
X116833333Y-129116666D02*
X116433333Y-129116666D01*
X116633333Y-129116666D02*
X116633333Y-128416666D01*
X116566666Y-128516666D01*
X116500000Y-128583333D01*
X116433333Y-128616666D01*
X147416666Y-116450000D02*
X147083333Y-116683333D01*
X147416666Y-116850000D02*
X146716666Y-116850000D01*
X146716666Y-116583333D01*
X146750000Y-116516666D01*
X146783333Y-116483333D01*
X146850000Y-116450000D01*
X146950000Y-116450000D01*
X147016666Y-116483333D01*
X147050000Y-116516666D01*
X147083333Y-116583333D01*
X147083333Y-116850000D01*
X146716666Y-116216666D02*
X146716666Y-115783333D01*
X146983333Y-116016666D01*
X146983333Y-115916666D01*
X147016666Y-115850000D01*
X147050000Y-115816666D01*
X147116666Y-115783333D01*
X147283333Y-115783333D01*
X147350000Y-115816666D01*
X147383333Y-115850000D01*
X147416666Y-115916666D01*
X147416666Y-116116666D01*
X147383333Y-116183333D01*
X147350000Y-116216666D01*
X146716666Y-115183333D02*
X146716666Y-115316666D01*
X146750000Y-115383333D01*
X146783333Y-115416666D01*
X146883333Y-115483333D01*
X147016666Y-115516666D01*
X147283333Y-115516666D01*
X147350000Y-115483333D01*
X147383333Y-115450000D01*
X147416666Y-115383333D01*
X147416666Y-115250000D01*
X147383333Y-115183333D01*
X147350000Y-115150000D01*
X147283333Y-115116666D01*
X147116666Y-115116666D01*
X147050000Y-115150000D01*
X147016666Y-115183333D01*
X146983333Y-115250000D01*
X146983333Y-115383333D01*
X147016666Y-115450000D01*
X147050000Y-115483333D01*
X147116666Y-115516666D01*
X149016666Y-118750000D02*
X148683333Y-118983333D01*
X149016666Y-119150000D02*
X148316666Y-119150000D01*
X148316666Y-118883333D01*
X148350000Y-118816666D01*
X148383333Y-118783333D01*
X148450000Y-118750000D01*
X148550000Y-118750000D01*
X148616666Y-118783333D01*
X148650000Y-118816666D01*
X148683333Y-118883333D01*
X148683333Y-119150000D01*
X148316666Y-118516666D02*
X148316666Y-118083333D01*
X148583333Y-118316666D01*
X148583333Y-118216666D01*
X148616666Y-118150000D01*
X148650000Y-118116666D01*
X148716666Y-118083333D01*
X148883333Y-118083333D01*
X148950000Y-118116666D01*
X148983333Y-118150000D01*
X149016666Y-118216666D01*
X149016666Y-118416666D01*
X148983333Y-118483333D01*
X148950000Y-118516666D01*
X148316666Y-117450000D02*
X148316666Y-117783333D01*
X148650000Y-117816666D01*
X148616666Y-117783333D01*
X148583333Y-117716666D01*
X148583333Y-117550000D01*
X148616666Y-117483333D01*
X148650000Y-117450000D01*
X148716666Y-117416666D01*
X148883333Y-117416666D01*
X148950000Y-117450000D01*
X148983333Y-117483333D01*
X149016666Y-117550000D01*
X149016666Y-117716666D01*
X148983333Y-117783333D01*
X148950000Y-117816666D01*
X149016666Y-121250000D02*
X148683333Y-121483333D01*
X149016666Y-121650000D02*
X148316666Y-121650000D01*
X148316666Y-121383333D01*
X148350000Y-121316666D01*
X148383333Y-121283333D01*
X148450000Y-121250000D01*
X148550000Y-121250000D01*
X148616666Y-121283333D01*
X148650000Y-121316666D01*
X148683333Y-121383333D01*
X148683333Y-121650000D01*
X148316666Y-121016666D02*
X148316666Y-120583333D01*
X148583333Y-120816666D01*
X148583333Y-120716666D01*
X148616666Y-120650000D01*
X148650000Y-120616666D01*
X148716666Y-120583333D01*
X148883333Y-120583333D01*
X148950000Y-120616666D01*
X148983333Y-120650000D01*
X149016666Y-120716666D01*
X149016666Y-120916666D01*
X148983333Y-120983333D01*
X148950000Y-121016666D01*
X148550000Y-119983333D02*
X149016666Y-119983333D01*
X148283333Y-120150000D02*
X148783333Y-120316666D01*
X148783333Y-119883333D01*
X145250000Y-125436666D02*
X145016666Y-125103333D01*
X144850000Y-125436666D02*
X144850000Y-124736666D01*
X145116666Y-124736666D01*
X145183333Y-124770000D01*
X145216666Y-124803333D01*
X145250000Y-124870000D01*
X145250000Y-124970000D01*
X145216666Y-125036666D01*
X145183333Y-125070000D01*
X145116666Y-125103333D01*
X144850000Y-125103333D01*
X145483333Y-124736666D02*
X145916666Y-124736666D01*
X145683333Y-125003333D01*
X145783333Y-125003333D01*
X145850000Y-125036666D01*
X145883333Y-125070000D01*
X145916666Y-125136666D01*
X145916666Y-125303333D01*
X145883333Y-125370000D01*
X145850000Y-125403333D01*
X145783333Y-125436666D01*
X145583333Y-125436666D01*
X145516666Y-125403333D01*
X145483333Y-125370000D01*
X146150000Y-124736666D02*
X146583333Y-124736666D01*
X146350000Y-125003333D01*
X146450000Y-125003333D01*
X146516666Y-125036666D01*
X146550000Y-125070000D01*
X146583333Y-125136666D01*
X146583333Y-125303333D01*
X146550000Y-125370000D01*
X146516666Y-125403333D01*
X146450000Y-125436666D01*
X146250000Y-125436666D01*
X146183333Y-125403333D01*
X146150000Y-125370000D01*
X133250000Y-129416666D02*
X133016666Y-129083333D01*
X132850000Y-129416666D02*
X132850000Y-128716666D01*
X133116666Y-128716666D01*
X133183333Y-128750000D01*
X133216666Y-128783333D01*
X133250000Y-128850000D01*
X133250000Y-128950000D01*
X133216666Y-129016666D01*
X133183333Y-129050000D01*
X133116666Y-129083333D01*
X132850000Y-129083333D01*
X133483333Y-128716666D02*
X133916666Y-128716666D01*
X133683333Y-128983333D01*
X133783333Y-128983333D01*
X133850000Y-129016666D01*
X133883333Y-129050000D01*
X133916666Y-129116666D01*
X133916666Y-129283333D01*
X133883333Y-129350000D01*
X133850000Y-129383333D01*
X133783333Y-129416666D01*
X133583333Y-129416666D01*
X133516666Y-129383333D01*
X133483333Y-129350000D01*
X134183333Y-128783333D02*
X134216666Y-128750000D01*
X134283333Y-128716666D01*
X134450000Y-128716666D01*
X134516666Y-128750000D01*
X134550000Y-128783333D01*
X134583333Y-128850000D01*
X134583333Y-128916666D01*
X134550000Y-129016666D01*
X134150000Y-129416666D01*
X134583333Y-129416666D01*
X131150000Y-128416666D02*
X130916666Y-128083333D01*
X130750000Y-128416666D02*
X130750000Y-127716666D01*
X131016666Y-127716666D01*
X131083333Y-127750000D01*
X131116666Y-127783333D01*
X131150000Y-127850000D01*
X131150000Y-127950000D01*
X131116666Y-128016666D01*
X131083333Y-128050000D01*
X131016666Y-128083333D01*
X130750000Y-128083333D01*
X131383333Y-127716666D02*
X131816666Y-127716666D01*
X131583333Y-127983333D01*
X131683333Y-127983333D01*
X131750000Y-128016666D01*
X131783333Y-128050000D01*
X131816666Y-128116666D01*
X131816666Y-128283333D01*
X131783333Y-128350000D01*
X131750000Y-128383333D01*
X131683333Y-128416666D01*
X131483333Y-128416666D01*
X131416666Y-128383333D01*
X131383333Y-128350000D01*
X132483333Y-128416666D02*
X132083333Y-128416666D01*
X132283333Y-128416666D02*
X132283333Y-127716666D01*
X132216666Y-127816666D01*
X132150000Y-127883333D01*
X132083333Y-127916666D01*
X130450000Y-126416666D02*
X130216666Y-126083333D01*
X130050000Y-126416666D02*
X130050000Y-125716666D01*
X130316666Y-125716666D01*
X130383333Y-125750000D01*
X130416666Y-125783333D01*
X130450000Y-125850000D01*
X130450000Y-125950000D01*
X130416666Y-126016666D01*
X130383333Y-126050000D01*
X130316666Y-126083333D01*
X130050000Y-126083333D01*
X130683333Y-125716666D02*
X131116666Y-125716666D01*
X130883333Y-125983333D01*
X130983333Y-125983333D01*
X131050000Y-126016666D01*
X131083333Y-126050000D01*
X131116666Y-126116666D01*
X131116666Y-126283333D01*
X131083333Y-126350000D01*
X131050000Y-126383333D01*
X130983333Y-126416666D01*
X130783333Y-126416666D01*
X130716666Y-126383333D01*
X130683333Y-126350000D01*
X131550000Y-125716666D02*
X131616666Y-125716666D01*
X131683333Y-125750000D01*
X131716666Y-125783333D01*
X131750000Y-125850000D01*
X131783333Y-125983333D01*
X131783333Y-126150000D01*
X131750000Y-126283333D01*
X131716666Y-126350000D01*
X131683333Y-126383333D01*
X131616666Y-126416666D01*
X131550000Y-126416666D01*
X131483333Y-126383333D01*
X131450000Y-126350000D01*
X131416666Y-126283333D01*
X131383333Y-126150000D01*
X131383333Y-125983333D01*
X131416666Y-125850000D01*
X131450000Y-125783333D01*
X131483333Y-125750000D01*
X131550000Y-125716666D01*
X108150000Y-107716666D02*
X107916666Y-107383333D01*
X107750000Y-107716666D02*
X107750000Y-107016666D01*
X108016666Y-107016666D01*
X108083333Y-107050000D01*
X108116666Y-107083333D01*
X108150000Y-107150000D01*
X108150000Y-107250000D01*
X108116666Y-107316666D01*
X108083333Y-107350000D01*
X108016666Y-107383333D01*
X107750000Y-107383333D01*
X108416666Y-107083333D02*
X108450000Y-107050000D01*
X108516666Y-107016666D01*
X108683333Y-107016666D01*
X108750000Y-107050000D01*
X108783333Y-107083333D01*
X108816666Y-107150000D01*
X108816666Y-107216666D01*
X108783333Y-107316666D01*
X108383333Y-107716666D01*
X108816666Y-107716666D01*
X109150000Y-107716666D02*
X109283333Y-107716666D01*
X109350000Y-107683333D01*
X109383333Y-107650000D01*
X109450000Y-107550000D01*
X109483333Y-107416666D01*
X109483333Y-107150000D01*
X109450000Y-107083333D01*
X109416666Y-107050000D01*
X109350000Y-107016666D01*
X109216666Y-107016666D01*
X109150000Y-107050000D01*
X109116666Y-107083333D01*
X109083333Y-107150000D01*
X109083333Y-107316666D01*
X109116666Y-107383333D01*
X109150000Y-107416666D01*
X109216666Y-107450000D01*
X109350000Y-107450000D01*
X109416666Y-107416666D01*
X109450000Y-107383333D01*
X109483333Y-107316666D01*
X107550000Y-109916666D02*
X107316666Y-109583333D01*
X107150000Y-109916666D02*
X107150000Y-109216666D01*
X107416666Y-109216666D01*
X107483333Y-109250000D01*
X107516666Y-109283333D01*
X107550000Y-109350000D01*
X107550000Y-109450000D01*
X107516666Y-109516666D01*
X107483333Y-109550000D01*
X107416666Y-109583333D01*
X107150000Y-109583333D01*
X107816666Y-109283333D02*
X107850000Y-109250000D01*
X107916666Y-109216666D01*
X108083333Y-109216666D01*
X108150000Y-109250000D01*
X108183333Y-109283333D01*
X108216666Y-109350000D01*
X108216666Y-109416666D01*
X108183333Y-109516666D01*
X107783333Y-109916666D01*
X108216666Y-109916666D01*
X108616666Y-109516666D02*
X108550000Y-109483333D01*
X108516666Y-109450000D01*
X108483333Y-109383333D01*
X108483333Y-109350000D01*
X108516666Y-109283333D01*
X108550000Y-109250000D01*
X108616666Y-109216666D01*
X108750000Y-109216666D01*
X108816666Y-109250000D01*
X108850000Y-109283333D01*
X108883333Y-109350000D01*
X108883333Y-109383333D01*
X108850000Y-109450000D01*
X108816666Y-109483333D01*
X108750000Y-109516666D01*
X108616666Y-109516666D01*
X108550000Y-109550000D01*
X108516666Y-109583333D01*
X108483333Y-109650000D01*
X108483333Y-109783333D01*
X108516666Y-109850000D01*
X108550000Y-109883333D01*
X108616666Y-109916666D01*
X108750000Y-109916666D01*
X108816666Y-109883333D01*
X108850000Y-109850000D01*
X108883333Y-109783333D01*
X108883333Y-109650000D01*
X108850000Y-109583333D01*
X108816666Y-109550000D01*
X108750000Y-109516666D01*
X99750000Y-107616666D02*
X99516666Y-107283333D01*
X99350000Y-107616666D02*
X99350000Y-106916666D01*
X99616666Y-106916666D01*
X99683333Y-106950000D01*
X99716666Y-106983333D01*
X99750000Y-107050000D01*
X99750000Y-107150000D01*
X99716666Y-107216666D01*
X99683333Y-107250000D01*
X99616666Y-107283333D01*
X99350000Y-107283333D01*
X100016666Y-106983333D02*
X100050000Y-106950000D01*
X100116666Y-106916666D01*
X100283333Y-106916666D01*
X100350000Y-106950000D01*
X100383333Y-106983333D01*
X100416666Y-107050000D01*
X100416666Y-107116666D01*
X100383333Y-107216666D01*
X99983333Y-107616666D01*
X100416666Y-107616666D01*
X100650000Y-106916666D02*
X101116666Y-106916666D01*
X100816666Y-107616666D01*
X99050000Y-109916666D02*
X98816666Y-109583333D01*
X98650000Y-109916666D02*
X98650000Y-109216666D01*
X98916666Y-109216666D01*
X98983333Y-109250000D01*
X99016666Y-109283333D01*
X99050000Y-109350000D01*
X99050000Y-109450000D01*
X99016666Y-109516666D01*
X98983333Y-109550000D01*
X98916666Y-109583333D01*
X98650000Y-109583333D01*
X99316666Y-109283333D02*
X99350000Y-109250000D01*
X99416666Y-109216666D01*
X99583333Y-109216666D01*
X99650000Y-109250000D01*
X99683333Y-109283333D01*
X99716666Y-109350000D01*
X99716666Y-109416666D01*
X99683333Y-109516666D01*
X99283333Y-109916666D01*
X99716666Y-109916666D01*
X100316666Y-109216666D02*
X100183333Y-109216666D01*
X100116666Y-109250000D01*
X100083333Y-109283333D01*
X100016666Y-109383333D01*
X99983333Y-109516666D01*
X99983333Y-109783333D01*
X100016666Y-109850000D01*
X100050000Y-109883333D01*
X100116666Y-109916666D01*
X100250000Y-109916666D01*
X100316666Y-109883333D01*
X100350000Y-109850000D01*
X100383333Y-109783333D01*
X100383333Y-109616666D01*
X100350000Y-109550000D01*
X100316666Y-109516666D01*
X100250000Y-109483333D01*
X100116666Y-109483333D01*
X100050000Y-109516666D01*
X100016666Y-109550000D01*
X99983333Y-109616666D01*
X99150000Y-106016666D02*
X98916666Y-105683333D01*
X98750000Y-106016666D02*
X98750000Y-105316666D01*
X99016666Y-105316666D01*
X99083333Y-105350000D01*
X99116666Y-105383333D01*
X99150000Y-105450000D01*
X99150000Y-105550000D01*
X99116666Y-105616666D01*
X99083333Y-105650000D01*
X99016666Y-105683333D01*
X98750000Y-105683333D01*
X99416666Y-105383333D02*
X99450000Y-105350000D01*
X99516666Y-105316666D01*
X99683333Y-105316666D01*
X99750000Y-105350000D01*
X99783333Y-105383333D01*
X99816666Y-105450000D01*
X99816666Y-105516666D01*
X99783333Y-105616666D01*
X99383333Y-106016666D01*
X99816666Y-106016666D01*
X100450000Y-105316666D02*
X100116666Y-105316666D01*
X100083333Y-105650000D01*
X100116666Y-105616666D01*
X100183333Y-105583333D01*
X100350000Y-105583333D01*
X100416666Y-105616666D01*
X100450000Y-105650000D01*
X100483333Y-105716666D01*
X100483333Y-105883333D01*
X100450000Y-105950000D01*
X100416666Y-105983333D01*
X100350000Y-106016666D01*
X100183333Y-106016666D01*
X100116666Y-105983333D01*
X100083333Y-105950000D01*
X99050000Y-111516666D02*
X98816666Y-111183333D01*
X98650000Y-111516666D02*
X98650000Y-110816666D01*
X98916666Y-110816666D01*
X98983333Y-110850000D01*
X99016666Y-110883333D01*
X99050000Y-110950000D01*
X99050000Y-111050000D01*
X99016666Y-111116666D01*
X98983333Y-111150000D01*
X98916666Y-111183333D01*
X98650000Y-111183333D01*
X99316666Y-110883333D02*
X99350000Y-110850000D01*
X99416666Y-110816666D01*
X99583333Y-110816666D01*
X99650000Y-110850000D01*
X99683333Y-110883333D01*
X99716666Y-110950000D01*
X99716666Y-111016666D01*
X99683333Y-111116666D01*
X99283333Y-111516666D01*
X99716666Y-111516666D01*
X100316666Y-111050000D02*
X100316666Y-111516666D01*
X100150000Y-110783333D02*
X99983333Y-111283333D01*
X100416666Y-111283333D01*
X145250000Y-127316666D02*
X145016666Y-126983333D01*
X144850000Y-127316666D02*
X144850000Y-126616666D01*
X145116666Y-126616666D01*
X145183333Y-126650000D01*
X145216666Y-126683333D01*
X145250000Y-126750000D01*
X145250000Y-126850000D01*
X145216666Y-126916666D01*
X145183333Y-126950000D01*
X145116666Y-126983333D01*
X144850000Y-126983333D01*
X145516666Y-126683333D02*
X145550000Y-126650000D01*
X145616666Y-126616666D01*
X145783333Y-126616666D01*
X145850000Y-126650000D01*
X145883333Y-126683333D01*
X145916666Y-126750000D01*
X145916666Y-126816666D01*
X145883333Y-126916666D01*
X145483333Y-127316666D01*
X145916666Y-127316666D01*
X146150000Y-126616666D02*
X146583333Y-126616666D01*
X146350000Y-126883333D01*
X146450000Y-126883333D01*
X146516666Y-126916666D01*
X146550000Y-126950000D01*
X146583333Y-127016666D01*
X146583333Y-127183333D01*
X146550000Y-127250000D01*
X146516666Y-127283333D01*
X146450000Y-127316666D01*
X146250000Y-127316666D01*
X146183333Y-127283333D01*
X146150000Y-127250000D01*
X147950000Y-127316666D02*
X147716666Y-126983333D01*
X147550000Y-127316666D02*
X147550000Y-126616666D01*
X147816666Y-126616666D01*
X147883333Y-126650000D01*
X147916666Y-126683333D01*
X147950000Y-126750000D01*
X147950000Y-126850000D01*
X147916666Y-126916666D01*
X147883333Y-126950000D01*
X147816666Y-126983333D01*
X147550000Y-126983333D01*
X148216666Y-126683333D02*
X148250000Y-126650000D01*
X148316666Y-126616666D01*
X148483333Y-126616666D01*
X148550000Y-126650000D01*
X148583333Y-126683333D01*
X148616666Y-126750000D01*
X148616666Y-126816666D01*
X148583333Y-126916666D01*
X148183333Y-127316666D01*
X148616666Y-127316666D01*
X148883333Y-126683333D02*
X148916666Y-126650000D01*
X148983333Y-126616666D01*
X149150000Y-126616666D01*
X149216666Y-126650000D01*
X149250000Y-126683333D01*
X149283333Y-126750000D01*
X149283333Y-126816666D01*
X149250000Y-126916666D01*
X148850000Y-127316666D01*
X149283333Y-127316666D01*
X98050000Y-94616666D02*
X97816666Y-94283333D01*
X97650000Y-94616666D02*
X97650000Y-93916666D01*
X97916666Y-93916666D01*
X97983333Y-93950000D01*
X98016666Y-93983333D01*
X98050000Y-94050000D01*
X98050000Y-94150000D01*
X98016666Y-94216666D01*
X97983333Y-94250000D01*
X97916666Y-94283333D01*
X97650000Y-94283333D01*
X98316666Y-93983333D02*
X98350000Y-93950000D01*
X98416666Y-93916666D01*
X98583333Y-93916666D01*
X98650000Y-93950000D01*
X98683333Y-93983333D01*
X98716666Y-94050000D01*
X98716666Y-94116666D01*
X98683333Y-94216666D01*
X98283333Y-94616666D01*
X98716666Y-94616666D01*
X99383333Y-94616666D02*
X98983333Y-94616666D01*
X99183333Y-94616666D02*
X99183333Y-93916666D01*
X99116666Y-94016666D01*
X99050000Y-94083333D01*
X98983333Y-94116666D01*
X98050000Y-97016666D02*
X97816666Y-96683333D01*
X97650000Y-97016666D02*
X97650000Y-96316666D01*
X97916666Y-96316666D01*
X97983333Y-96350000D01*
X98016666Y-96383333D01*
X98050000Y-96450000D01*
X98050000Y-96550000D01*
X98016666Y-96616666D01*
X97983333Y-96650000D01*
X97916666Y-96683333D01*
X97650000Y-96683333D01*
X98316666Y-96383333D02*
X98350000Y-96350000D01*
X98416666Y-96316666D01*
X98583333Y-96316666D01*
X98650000Y-96350000D01*
X98683333Y-96383333D01*
X98716666Y-96450000D01*
X98716666Y-96516666D01*
X98683333Y-96616666D01*
X98283333Y-97016666D01*
X98716666Y-97016666D01*
X99150000Y-96316666D02*
X99216666Y-96316666D01*
X99283333Y-96350000D01*
X99316666Y-96383333D01*
X99350000Y-96450000D01*
X99383333Y-96583333D01*
X99383333Y-96750000D01*
X99350000Y-96883333D01*
X99316666Y-96950000D01*
X99283333Y-96983333D01*
X99216666Y-97016666D01*
X99150000Y-97016666D01*
X99083333Y-96983333D01*
X99050000Y-96950000D01*
X99016666Y-96883333D01*
X98983333Y-96750000D01*
X98983333Y-96583333D01*
X99016666Y-96450000D01*
X99050000Y-96383333D01*
X99083333Y-96350000D01*
X99150000Y-96316666D01*
X98050000Y-101016666D02*
X97816666Y-100683333D01*
X97650000Y-101016666D02*
X97650000Y-100316666D01*
X97916666Y-100316666D01*
X97983333Y-100350000D01*
X98016666Y-100383333D01*
X98050000Y-100450000D01*
X98050000Y-100550000D01*
X98016666Y-100616666D01*
X97983333Y-100650000D01*
X97916666Y-100683333D01*
X97650000Y-100683333D01*
X98716666Y-101016666D02*
X98316666Y-101016666D01*
X98516666Y-101016666D02*
X98516666Y-100316666D01*
X98450000Y-100416666D01*
X98383333Y-100483333D01*
X98316666Y-100516666D01*
X99050000Y-101016666D02*
X99183333Y-101016666D01*
X99250000Y-100983333D01*
X99283333Y-100950000D01*
X99350000Y-100850000D01*
X99383333Y-100716666D01*
X99383333Y-100450000D01*
X99350000Y-100383333D01*
X99316666Y-100350000D01*
X99250000Y-100316666D01*
X99116666Y-100316666D01*
X99050000Y-100350000D01*
X99016666Y-100383333D01*
X98983333Y-100450000D01*
X98983333Y-100616666D01*
X99016666Y-100683333D01*
X99050000Y-100716666D01*
X99116666Y-100750000D01*
X99250000Y-100750000D01*
X99316666Y-100716666D01*
X99350000Y-100683333D01*
X99383333Y-100616666D01*
X99650000Y-115216666D02*
X99416666Y-114883333D01*
X99250000Y-115216666D02*
X99250000Y-114516666D01*
X99516666Y-114516666D01*
X99583333Y-114550000D01*
X99616666Y-114583333D01*
X99650000Y-114650000D01*
X99650000Y-114750000D01*
X99616666Y-114816666D01*
X99583333Y-114850000D01*
X99516666Y-114883333D01*
X99250000Y-114883333D01*
X100316666Y-115216666D02*
X99916666Y-115216666D01*
X100116666Y-115216666D02*
X100116666Y-114516666D01*
X100050000Y-114616666D01*
X99983333Y-114683333D01*
X99916666Y-114716666D01*
X100716666Y-114816666D02*
X100650000Y-114783333D01*
X100616666Y-114750000D01*
X100583333Y-114683333D01*
X100583333Y-114650000D01*
X100616666Y-114583333D01*
X100650000Y-114550000D01*
X100716666Y-114516666D01*
X100850000Y-114516666D01*
X100916666Y-114550000D01*
X100950000Y-114583333D01*
X100983333Y-114650000D01*
X100983333Y-114683333D01*
X100950000Y-114750000D01*
X100916666Y-114783333D01*
X100850000Y-114816666D01*
X100716666Y-114816666D01*
X100650000Y-114850000D01*
X100616666Y-114883333D01*
X100583333Y-114950000D01*
X100583333Y-115083333D01*
X100616666Y-115150000D01*
X100650000Y-115183333D01*
X100716666Y-115216666D01*
X100850000Y-115216666D01*
X100916666Y-115183333D01*
X100950000Y-115150000D01*
X100983333Y-115083333D01*
X100983333Y-114950000D01*
X100950000Y-114883333D01*
X100916666Y-114850000D01*
X100850000Y-114816666D01*
X98050000Y-93016666D02*
X97816666Y-92683333D01*
X97650000Y-93016666D02*
X97650000Y-92316666D01*
X97916666Y-92316666D01*
X97983333Y-92350000D01*
X98016666Y-92383333D01*
X98050000Y-92450000D01*
X98050000Y-92550000D01*
X98016666Y-92616666D01*
X97983333Y-92650000D01*
X97916666Y-92683333D01*
X97650000Y-92683333D01*
X98716666Y-93016666D02*
X98316666Y-93016666D01*
X98516666Y-93016666D02*
X98516666Y-92316666D01*
X98450000Y-92416666D01*
X98383333Y-92483333D01*
X98316666Y-92516666D01*
X99316666Y-92316666D02*
X99183333Y-92316666D01*
X99116666Y-92350000D01*
X99083333Y-92383333D01*
X99016666Y-92483333D01*
X98983333Y-92616666D01*
X98983333Y-92883333D01*
X99016666Y-92950000D01*
X99050000Y-92983333D01*
X99116666Y-93016666D01*
X99250000Y-93016666D01*
X99316666Y-92983333D01*
X99350000Y-92950000D01*
X99383333Y-92883333D01*
X99383333Y-92716666D01*
X99350000Y-92650000D01*
X99316666Y-92616666D01*
X99250000Y-92583333D01*
X99116666Y-92583333D01*
X99050000Y-92616666D01*
X99016666Y-92650000D01*
X98983333Y-92716666D01*
X98050000Y-98616666D02*
X97816666Y-98283333D01*
X97650000Y-98616666D02*
X97650000Y-97916666D01*
X97916666Y-97916666D01*
X97983333Y-97950000D01*
X98016666Y-97983333D01*
X98050000Y-98050000D01*
X98050000Y-98150000D01*
X98016666Y-98216666D01*
X97983333Y-98250000D01*
X97916666Y-98283333D01*
X97650000Y-98283333D01*
X98716666Y-98616666D02*
X98316666Y-98616666D01*
X98516666Y-98616666D02*
X98516666Y-97916666D01*
X98450000Y-98016666D01*
X98383333Y-98083333D01*
X98316666Y-98116666D01*
X99350000Y-97916666D02*
X99016666Y-97916666D01*
X98983333Y-98250000D01*
X99016666Y-98216666D01*
X99083333Y-98183333D01*
X99250000Y-98183333D01*
X99316666Y-98216666D01*
X99350000Y-98250000D01*
X99383333Y-98316666D01*
X99383333Y-98483333D01*
X99350000Y-98550000D01*
X99316666Y-98583333D01*
X99250000Y-98616666D01*
X99083333Y-98616666D01*
X99016666Y-98583333D01*
X98983333Y-98550000D01*
X98050000Y-102616666D02*
X97816666Y-102283333D01*
X97650000Y-102616666D02*
X97650000Y-101916666D01*
X97916666Y-101916666D01*
X97983333Y-101950000D01*
X98016666Y-101983333D01*
X98050000Y-102050000D01*
X98050000Y-102150000D01*
X98016666Y-102216666D01*
X97983333Y-102250000D01*
X97916666Y-102283333D01*
X97650000Y-102283333D01*
X98716666Y-102616666D02*
X98316666Y-102616666D01*
X98516666Y-102616666D02*
X98516666Y-101916666D01*
X98450000Y-102016666D01*
X98383333Y-102083333D01*
X98316666Y-102116666D01*
X99316666Y-102150000D02*
X99316666Y-102616666D01*
X99150000Y-101883333D02*
X98983333Y-102383333D01*
X99416666Y-102383333D01*
X99650000Y-113616666D02*
X99416666Y-113283333D01*
X99250000Y-113616666D02*
X99250000Y-112916666D01*
X99516666Y-112916666D01*
X99583333Y-112950000D01*
X99616666Y-112983333D01*
X99650000Y-113050000D01*
X99650000Y-113150000D01*
X99616666Y-113216666D01*
X99583333Y-113250000D01*
X99516666Y-113283333D01*
X99250000Y-113283333D01*
X100316666Y-113616666D02*
X99916666Y-113616666D01*
X100116666Y-113616666D02*
X100116666Y-112916666D01*
X100050000Y-113016666D01*
X99983333Y-113083333D01*
X99916666Y-113116666D01*
X100550000Y-112916666D02*
X100983333Y-112916666D01*
X100750000Y-113183333D01*
X100850000Y-113183333D01*
X100916666Y-113216666D01*
X100950000Y-113250000D01*
X100983333Y-113316666D01*
X100983333Y-113483333D01*
X100950000Y-113550000D01*
X100916666Y-113583333D01*
X100850000Y-113616666D01*
X100650000Y-113616666D01*
X100583333Y-113583333D01*
X100550000Y-113550000D01*
X99650000Y-118516666D02*
X99416666Y-118183333D01*
X99250000Y-118516666D02*
X99250000Y-117816666D01*
X99516666Y-117816666D01*
X99583333Y-117850000D01*
X99616666Y-117883333D01*
X99650000Y-117950000D01*
X99650000Y-118050000D01*
X99616666Y-118116666D01*
X99583333Y-118150000D01*
X99516666Y-118183333D01*
X99250000Y-118183333D01*
X100316666Y-118516666D02*
X99916666Y-118516666D01*
X100116666Y-118516666D02*
X100116666Y-117816666D01*
X100050000Y-117916666D01*
X99983333Y-117983333D01*
X99916666Y-118016666D01*
X100583333Y-117883333D02*
X100616666Y-117850000D01*
X100683333Y-117816666D01*
X100850000Y-117816666D01*
X100916666Y-117850000D01*
X100950000Y-117883333D01*
X100983333Y-117950000D01*
X100983333Y-118016666D01*
X100950000Y-118116666D01*
X100550000Y-118516666D01*
X100983333Y-118516666D01*
X143150000Y-108216666D02*
X142916666Y-107883333D01*
X142750000Y-108216666D02*
X142750000Y-107516666D01*
X143016666Y-107516666D01*
X143083333Y-107550000D01*
X143116666Y-107583333D01*
X143150000Y-107650000D01*
X143150000Y-107750000D01*
X143116666Y-107816666D01*
X143083333Y-107850000D01*
X143016666Y-107883333D01*
X142750000Y-107883333D01*
X143816666Y-108216666D02*
X143416666Y-108216666D01*
X143616666Y-108216666D02*
X143616666Y-107516666D01*
X143550000Y-107616666D01*
X143483333Y-107683333D01*
X143416666Y-107716666D01*
X144483333Y-108216666D02*
X144083333Y-108216666D01*
X144283333Y-108216666D02*
X144283333Y-107516666D01*
X144216666Y-107616666D01*
X144150000Y-107683333D01*
X144083333Y-107716666D01*
X137416666Y-111050000D02*
X137083333Y-111283333D01*
X137416666Y-111450000D02*
X136716666Y-111450000D01*
X136716666Y-111183333D01*
X136750000Y-111116666D01*
X136783333Y-111083333D01*
X136850000Y-111050000D01*
X136950000Y-111050000D01*
X137016666Y-111083333D01*
X137050000Y-111116666D01*
X137083333Y-111183333D01*
X137083333Y-111450000D01*
X137416666Y-110383333D02*
X137416666Y-110783333D01*
X137416666Y-110583333D02*
X136716666Y-110583333D01*
X136816666Y-110650000D01*
X136883333Y-110716666D01*
X136916666Y-110783333D01*
X136716666Y-109950000D02*
X136716666Y-109883333D01*
X136750000Y-109816666D01*
X136783333Y-109783333D01*
X136850000Y-109750000D01*
X136983333Y-109716666D01*
X137150000Y-109716666D01*
X137283333Y-109750000D01*
X137350000Y-109783333D01*
X137383333Y-109816666D01*
X137416666Y-109883333D01*
X137416666Y-109950000D01*
X137383333Y-110016666D01*
X137350000Y-110050000D01*
X137283333Y-110083333D01*
X137150000Y-110116666D01*
X136983333Y-110116666D01*
X136850000Y-110083333D01*
X136783333Y-110050000D01*
X136750000Y-110016666D01*
X136716666Y-109950000D01*
X137516666Y-113016666D02*
X137183333Y-113250000D01*
X137516666Y-113416666D02*
X136816666Y-113416666D01*
X136816666Y-113150000D01*
X136850000Y-113083333D01*
X136883333Y-113050000D01*
X136950000Y-113016666D01*
X137050000Y-113016666D01*
X137116666Y-113050000D01*
X137150000Y-113083333D01*
X137183333Y-113150000D01*
X137183333Y-113416666D01*
X137516666Y-112683333D02*
X137516666Y-112550000D01*
X137483333Y-112483333D01*
X137450000Y-112450000D01*
X137350000Y-112383333D01*
X137216666Y-112350000D01*
X136950000Y-112350000D01*
X136883333Y-112383333D01*
X136850000Y-112416666D01*
X136816666Y-112483333D01*
X136816666Y-112616666D01*
X136850000Y-112683333D01*
X136883333Y-112716666D01*
X136950000Y-112750000D01*
X137116666Y-112750000D01*
X137183333Y-112716666D01*
X137216666Y-112683333D01*
X137250000Y-112616666D01*
X137250000Y-112483333D01*
X137216666Y-112416666D01*
X137183333Y-112383333D01*
X137116666Y-112350000D01*
X138716666Y-118016666D02*
X138383333Y-118250000D01*
X138716666Y-118416666D02*
X138016666Y-118416666D01*
X138016666Y-118150000D01*
X138050000Y-118083333D01*
X138083333Y-118050000D01*
X138150000Y-118016666D01*
X138250000Y-118016666D01*
X138316666Y-118050000D01*
X138350000Y-118083333D01*
X138383333Y-118150000D01*
X138383333Y-118416666D01*
X138316666Y-117616666D02*
X138283333Y-117683333D01*
X138250000Y-117716666D01*
X138183333Y-117750000D01*
X138150000Y-117750000D01*
X138083333Y-117716666D01*
X138050000Y-117683333D01*
X138016666Y-117616666D01*
X138016666Y-117483333D01*
X138050000Y-117416666D01*
X138083333Y-117383333D01*
X138150000Y-117350000D01*
X138183333Y-117350000D01*
X138250000Y-117383333D01*
X138283333Y-117416666D01*
X138316666Y-117483333D01*
X138316666Y-117616666D01*
X138350000Y-117683333D01*
X138383333Y-117716666D01*
X138450000Y-117750000D01*
X138583333Y-117750000D01*
X138650000Y-117716666D01*
X138683333Y-117683333D01*
X138716666Y-117616666D01*
X138716666Y-117483333D01*
X138683333Y-117416666D01*
X138650000Y-117383333D01*
X138583333Y-117350000D01*
X138450000Y-117350000D01*
X138383333Y-117383333D01*
X138350000Y-117416666D01*
X138316666Y-117483333D01*
X115783333Y-121316666D02*
X115550000Y-120983333D01*
X115383333Y-121316666D02*
X115383333Y-120616666D01*
X115650000Y-120616666D01*
X115716666Y-120650000D01*
X115750000Y-120683333D01*
X115783333Y-120750000D01*
X115783333Y-120850000D01*
X115750000Y-120916666D01*
X115716666Y-120950000D01*
X115650000Y-120983333D01*
X115383333Y-120983333D01*
X116383333Y-120616666D02*
X116250000Y-120616666D01*
X116183333Y-120650000D01*
X116150000Y-120683333D01*
X116083333Y-120783333D01*
X116050000Y-120916666D01*
X116050000Y-121183333D01*
X116083333Y-121250000D01*
X116116666Y-121283333D01*
X116183333Y-121316666D01*
X116316666Y-121316666D01*
X116383333Y-121283333D01*
X116416666Y-121250000D01*
X116450000Y-121183333D01*
X116450000Y-121016666D01*
X116416666Y-120950000D01*
X116383333Y-120916666D01*
X116316666Y-120883333D01*
X116183333Y-120883333D01*
X116116666Y-120916666D01*
X116083333Y-120950000D01*
X116050000Y-121016666D01*
X112983333Y-125516666D02*
X112750000Y-125183333D01*
X112583333Y-125516666D02*
X112583333Y-124816666D01*
X112850000Y-124816666D01*
X112916666Y-124850000D01*
X112950000Y-124883333D01*
X112983333Y-124950000D01*
X112983333Y-125050000D01*
X112950000Y-125116666D01*
X112916666Y-125150000D01*
X112850000Y-125183333D01*
X112583333Y-125183333D01*
X113583333Y-125050000D02*
X113583333Y-125516666D01*
X113416666Y-124783333D02*
X113250000Y-125283333D01*
X113683333Y-125283333D01*
X96716666Y-117416666D02*
X96383333Y-117650000D01*
X96716666Y-117816666D02*
X96016666Y-117816666D01*
X96016666Y-117550000D01*
X96050000Y-117483333D01*
X96083333Y-117450000D01*
X96150000Y-117416666D01*
X96250000Y-117416666D01*
X96316666Y-117450000D01*
X96350000Y-117483333D01*
X96383333Y-117550000D01*
X96383333Y-117816666D01*
X96083333Y-117150000D02*
X96050000Y-117116666D01*
X96016666Y-117050000D01*
X96016666Y-116883333D01*
X96050000Y-116816666D01*
X96083333Y-116783333D01*
X96150000Y-116750000D01*
X96216666Y-116750000D01*
X96316666Y-116783333D01*
X96716666Y-117183333D01*
X96716666Y-116750000D01*
X135283333Y-116816666D02*
X134950000Y-116816666D01*
X134950000Y-116116666D01*
X135883333Y-116816666D02*
X135483333Y-116816666D01*
X135683333Y-116816666D02*
X135683333Y-116116666D01*
X135616666Y-116216666D01*
X135550000Y-116283333D01*
X135483333Y-116316666D01*
X150266666Y-128516666D02*
X150266666Y-129016666D01*
X150233333Y-129116666D01*
X150166666Y-129183333D01*
X150066666Y-129216666D01*
X150000000Y-129216666D01*
X150933333Y-128516666D02*
X150600000Y-128516666D01*
X150566666Y-128850000D01*
X150600000Y-128816666D01*
X150666666Y-128783333D01*
X150833333Y-128783333D01*
X150900000Y-128816666D01*
X150933333Y-128850000D01*
X150966666Y-128916666D01*
X150966666Y-129083333D01*
X150933333Y-129150000D01*
X150900000Y-129183333D01*
X150833333Y-129216666D01*
X150666666Y-129216666D01*
X150600000Y-129183333D01*
X150566666Y-129150000D01*
X149866666Y-91816666D02*
X149866666Y-92316666D01*
X149833333Y-92416666D01*
X149766666Y-92483333D01*
X149666666Y-92516666D01*
X149600000Y-92516666D01*
X150133333Y-91816666D02*
X150566666Y-91816666D01*
X150333333Y-92083333D01*
X150433333Y-92083333D01*
X150500000Y-92116666D01*
X150533333Y-92150000D01*
X150566666Y-92216666D01*
X150566666Y-92383333D01*
X150533333Y-92450000D01*
X150500000Y-92483333D01*
X150433333Y-92516666D01*
X150233333Y-92516666D01*
X150166666Y-92483333D01*
X150133333Y-92450000D01*
X99466666Y-120416666D02*
X99466666Y-120916666D01*
X99433333Y-121016666D01*
X99366666Y-121083333D01*
X99266666Y-121116666D01*
X99200000Y-121116666D01*
X99766666Y-120483333D02*
X99800000Y-120450000D01*
X99866666Y-120416666D01*
X100033333Y-120416666D01*
X100100000Y-120450000D01*
X100133333Y-120483333D01*
X100166666Y-120550000D01*
X100166666Y-120616666D01*
X100133333Y-120716666D01*
X99733333Y-121116666D01*
X100166666Y-121116666D01*
X94066666Y-110116666D02*
X94066666Y-110616666D01*
X94033333Y-110716666D01*
X93966666Y-110783333D01*
X93866666Y-110816666D01*
X93800000Y-110816666D01*
X94766666Y-110816666D02*
X94366666Y-110816666D01*
X94566666Y-110816666D02*
X94566666Y-110116666D01*
X94500000Y-110216666D01*
X94433333Y-110283333D01*
X94366666Y-110316666D01*
X141416666Y-124216666D02*
X140716666Y-124216666D01*
X140716666Y-124050000D01*
X140750000Y-123950000D01*
X140816666Y-123883333D01*
X140883333Y-123850000D01*
X141016666Y-123816666D01*
X141116666Y-123816666D01*
X141250000Y-123850000D01*
X141316666Y-123883333D01*
X141383333Y-123950000D01*
X141416666Y-124050000D01*
X141416666Y-124216666D01*
X140716666Y-123216666D02*
X140716666Y-123350000D01*
X140750000Y-123416666D01*
X140783333Y-123450000D01*
X140883333Y-123516666D01*
X141016666Y-123550000D01*
X141283333Y-123550000D01*
X141350000Y-123516666D01*
X141383333Y-123483333D01*
X141416666Y-123416666D01*
X141416666Y-123283333D01*
X141383333Y-123216666D01*
X141350000Y-123183333D01*
X141283333Y-123150000D01*
X141116666Y-123150000D01*
X141050000Y-123183333D01*
X141016666Y-123216666D01*
X140983333Y-123283333D01*
X140983333Y-123416666D01*
X141016666Y-123483333D01*
X141050000Y-123516666D01*
X141116666Y-123550000D01*
X126883333Y-121741666D02*
X126883333Y-121041666D01*
X127050000Y-121041666D01*
X127150000Y-121075000D01*
X127216666Y-121141666D01*
X127250000Y-121208333D01*
X127283333Y-121341666D01*
X127283333Y-121441666D01*
X127250000Y-121575000D01*
X127216666Y-121641666D01*
X127150000Y-121708333D01*
X127050000Y-121741666D01*
X126883333Y-121741666D01*
X127883333Y-121275000D02*
X127883333Y-121741666D01*
X127716666Y-121008333D02*
X127550000Y-121508333D01*
X127983333Y-121508333D01*
X113383333Y-121316666D02*
X113383333Y-120616666D01*
X113550000Y-120616666D01*
X113650000Y-120650000D01*
X113716666Y-120716666D01*
X113750000Y-120783333D01*
X113783333Y-120916666D01*
X113783333Y-121016666D01*
X113750000Y-121150000D01*
X113716666Y-121216666D01*
X113650000Y-121283333D01*
X113550000Y-121316666D01*
X113383333Y-121316666D01*
X114050000Y-120683333D02*
X114083333Y-120650000D01*
X114150000Y-120616666D01*
X114316666Y-120616666D01*
X114383333Y-120650000D01*
X114416666Y-120683333D01*
X114450000Y-120750000D01*
X114450000Y-120816666D01*
X114416666Y-120916666D01*
X114016666Y-121316666D01*
X114450000Y-121316666D01*
X97916666Y-113216666D02*
X97216666Y-113216666D01*
X97216666Y-113050000D01*
X97250000Y-112950000D01*
X97316666Y-112883333D01*
X97383333Y-112850000D01*
X97516666Y-112816666D01*
X97616666Y-112816666D01*
X97750000Y-112850000D01*
X97816666Y-112883333D01*
X97883333Y-112950000D01*
X97916666Y-113050000D01*
X97916666Y-113216666D01*
X97916666Y-112150000D02*
X97916666Y-112550000D01*
X97916666Y-112350000D02*
X97216666Y-112350000D01*
X97316666Y-112416666D01*
X97383333Y-112483333D01*
X97416666Y-112550000D01*
X142050000Y-124350000D02*
X142016666Y-124383333D01*
X141916666Y-124416666D01*
X141850000Y-124416666D01*
X141750000Y-124383333D01*
X141683333Y-124316666D01*
X141650000Y-124250000D01*
X141616666Y-124116666D01*
X141616666Y-124016666D01*
X141650000Y-123883333D01*
X141683333Y-123816666D01*
X141750000Y-123750000D01*
X141850000Y-123716666D01*
X141916666Y-123716666D01*
X142016666Y-123750000D01*
X142050000Y-123783333D01*
X142716666Y-124416666D02*
X142316666Y-124416666D01*
X142516666Y-124416666D02*
X142516666Y-123716666D01*
X142450000Y-123816666D01*
X142383333Y-123883333D01*
X142316666Y-123916666D01*
X143316666Y-123950000D02*
X143316666Y-124416666D01*
X143150000Y-123683333D02*
X142983333Y-124183333D01*
X143416666Y-124183333D01*
X107550000Y-105950000D02*
X107516666Y-105983333D01*
X107416666Y-106016666D01*
X107350000Y-106016666D01*
X107250000Y-105983333D01*
X107183333Y-105916666D01*
X107150000Y-105850000D01*
X107116666Y-105716666D01*
X107116666Y-105616666D01*
X107150000Y-105483333D01*
X107183333Y-105416666D01*
X107250000Y-105350000D01*
X107350000Y-105316666D01*
X107416666Y-105316666D01*
X107516666Y-105350000D01*
X107550000Y-105383333D01*
X108216666Y-106016666D02*
X107816666Y-106016666D01*
X108016666Y-106016666D02*
X108016666Y-105316666D01*
X107950000Y-105416666D01*
X107883333Y-105483333D01*
X107816666Y-105516666D01*
X108450000Y-105316666D02*
X108883333Y-105316666D01*
X108650000Y-105583333D01*
X108750000Y-105583333D01*
X108816666Y-105616666D01*
X108850000Y-105650000D01*
X108883333Y-105716666D01*
X108883333Y-105883333D01*
X108850000Y-105950000D01*
X108816666Y-105983333D01*
X108750000Y-106016666D01*
X108550000Y-106016666D01*
X108483333Y-105983333D01*
X108450000Y-105950000D01*
X107650000Y-111450000D02*
X107616666Y-111483333D01*
X107516666Y-111516666D01*
X107450000Y-111516666D01*
X107350000Y-111483333D01*
X107283333Y-111416666D01*
X107250000Y-111350000D01*
X107216666Y-111216666D01*
X107216666Y-111116666D01*
X107250000Y-110983333D01*
X107283333Y-110916666D01*
X107350000Y-110850000D01*
X107450000Y-110816666D01*
X107516666Y-110816666D01*
X107616666Y-110850000D01*
X107650000Y-110883333D01*
X108316666Y-111516666D02*
X107916666Y-111516666D01*
X108116666Y-111516666D02*
X108116666Y-110816666D01*
X108050000Y-110916666D01*
X107983333Y-110983333D01*
X107916666Y-111016666D01*
X108583333Y-110883333D02*
X108616666Y-110850000D01*
X108683333Y-110816666D01*
X108850000Y-110816666D01*
X108916666Y-110850000D01*
X108950000Y-110883333D01*
X108983333Y-110950000D01*
X108983333Y-111016666D01*
X108950000Y-111116666D01*
X108550000Y-111516666D01*
X108983333Y-111516666D01*
X133250000Y-128450000D02*
X133216666Y-128483333D01*
X133116666Y-128516666D01*
X133050000Y-128516666D01*
X132950000Y-128483333D01*
X132883333Y-128416666D01*
X132850000Y-128350000D01*
X132816666Y-128216666D01*
X132816666Y-128116666D01*
X132850000Y-127983333D01*
X132883333Y-127916666D01*
X132950000Y-127850000D01*
X133050000Y-127816666D01*
X133116666Y-127816666D01*
X133216666Y-127850000D01*
X133250000Y-127883333D01*
X133916666Y-128516666D02*
X133516666Y-128516666D01*
X133716666Y-128516666D02*
X133716666Y-127816666D01*
X133650000Y-127916666D01*
X133583333Y-127983333D01*
X133516666Y-128016666D01*
X134583333Y-128516666D02*
X134183333Y-128516666D01*
X134383333Y-128516666D02*
X134383333Y-127816666D01*
X134316666Y-127916666D01*
X134250000Y-127983333D01*
X134183333Y-128016666D01*
X128650000Y-121650000D02*
X128616666Y-121683333D01*
X128516666Y-121716666D01*
X128450000Y-121716666D01*
X128350000Y-121683333D01*
X128283333Y-121616666D01*
X128250000Y-121550000D01*
X128216666Y-121416666D01*
X128216666Y-121316666D01*
X128250000Y-121183333D01*
X128283333Y-121116666D01*
X128350000Y-121050000D01*
X128450000Y-121016666D01*
X128516666Y-121016666D01*
X128616666Y-121050000D01*
X128650000Y-121083333D01*
X129316666Y-121716666D02*
X128916666Y-121716666D01*
X129116666Y-121716666D02*
X129116666Y-121016666D01*
X129050000Y-121116666D01*
X128983333Y-121183333D01*
X128916666Y-121216666D01*
X129750000Y-121016666D02*
X129816666Y-121016666D01*
X129883333Y-121050000D01*
X129916666Y-121083333D01*
X129950000Y-121150000D01*
X129983333Y-121283333D01*
X129983333Y-121450000D01*
X129950000Y-121583333D01*
X129916666Y-121650000D01*
X129883333Y-121683333D01*
X129816666Y-121716666D01*
X129750000Y-121716666D01*
X129683333Y-121683333D01*
X129650000Y-121650000D01*
X129616666Y-121583333D01*
X129583333Y-121450000D01*
X129583333Y-121283333D01*
X129616666Y-121150000D01*
X129650000Y-121083333D01*
X129683333Y-121050000D01*
X129750000Y-121016666D01*
X103383333Y-91750000D02*
X103350000Y-91783333D01*
X103250000Y-91816666D01*
X103183333Y-91816666D01*
X103083333Y-91783333D01*
X103016666Y-91716666D01*
X102983333Y-91650000D01*
X102950000Y-91516666D01*
X102950000Y-91416666D01*
X102983333Y-91283333D01*
X103016666Y-91216666D01*
X103083333Y-91150000D01*
X103183333Y-91116666D01*
X103250000Y-91116666D01*
X103350000Y-91150000D01*
X103383333Y-91183333D01*
X103716666Y-91816666D02*
X103850000Y-91816666D01*
X103916666Y-91783333D01*
X103950000Y-91750000D01*
X104016666Y-91650000D01*
X104050000Y-91516666D01*
X104050000Y-91250000D01*
X104016666Y-91183333D01*
X103983333Y-91150000D01*
X103916666Y-91116666D01*
X103783333Y-91116666D01*
X103716666Y-91150000D01*
X103683333Y-91183333D01*
X103650000Y-91250000D01*
X103650000Y-91416666D01*
X103683333Y-91483333D01*
X103716666Y-91516666D01*
X103783333Y-91550000D01*
X103916666Y-91550000D01*
X103983333Y-91516666D01*
X104016666Y-91483333D01*
X104050000Y-91416666D01*
X106183333Y-96950000D02*
X106150000Y-96983333D01*
X106050000Y-97016666D01*
X105983333Y-97016666D01*
X105883333Y-96983333D01*
X105816666Y-96916666D01*
X105783333Y-96850000D01*
X105750000Y-96716666D01*
X105750000Y-96616666D01*
X105783333Y-96483333D01*
X105816666Y-96416666D01*
X105883333Y-96350000D01*
X105983333Y-96316666D01*
X106050000Y-96316666D01*
X106150000Y-96350000D01*
X106183333Y-96383333D01*
X106583333Y-96616666D02*
X106516666Y-96583333D01*
X106483333Y-96550000D01*
X106450000Y-96483333D01*
X106450000Y-96450000D01*
X106483333Y-96383333D01*
X106516666Y-96350000D01*
X106583333Y-96316666D01*
X106716666Y-96316666D01*
X106783333Y-96350000D01*
X106816666Y-96383333D01*
X106850000Y-96450000D01*
X106850000Y-96483333D01*
X106816666Y-96550000D01*
X106783333Y-96583333D01*
X106716666Y-96616666D01*
X106583333Y-96616666D01*
X106516666Y-96650000D01*
X106483333Y-96683333D01*
X106450000Y-96750000D01*
X106450000Y-96883333D01*
X106483333Y-96950000D01*
X106516666Y-96983333D01*
X106583333Y-97016666D01*
X106716666Y-97016666D01*
X106783333Y-96983333D01*
X106816666Y-96950000D01*
X106850000Y-96883333D01*
X106850000Y-96750000D01*
X106816666Y-96683333D01*
X106783333Y-96650000D01*
X106716666Y-96616666D01*
X103283333Y-99750000D02*
X103250000Y-99783333D01*
X103150000Y-99816666D01*
X103083333Y-99816666D01*
X102983333Y-99783333D01*
X102916666Y-99716666D01*
X102883333Y-99650000D01*
X102850000Y-99516666D01*
X102850000Y-99416666D01*
X102883333Y-99283333D01*
X102916666Y-99216666D01*
X102983333Y-99150000D01*
X103083333Y-99116666D01*
X103150000Y-99116666D01*
X103250000Y-99150000D01*
X103283333Y-99183333D01*
X103516666Y-99116666D02*
X103983333Y-99116666D01*
X103683333Y-99816666D01*
X104883333Y-113850000D02*
X104850000Y-113883333D01*
X104750000Y-113916666D01*
X104683333Y-113916666D01*
X104583333Y-113883333D01*
X104516666Y-113816666D01*
X104483333Y-113750000D01*
X104450000Y-113616666D01*
X104450000Y-113516666D01*
X104483333Y-113383333D01*
X104516666Y-113316666D01*
X104583333Y-113250000D01*
X104683333Y-113216666D01*
X104750000Y-113216666D01*
X104850000Y-113250000D01*
X104883333Y-113283333D01*
X105483333Y-113216666D02*
X105350000Y-113216666D01*
X105283333Y-113250000D01*
X105250000Y-113283333D01*
X105183333Y-113383333D01*
X105150000Y-113516666D01*
X105150000Y-113783333D01*
X105183333Y-113850000D01*
X105216666Y-113883333D01*
X105283333Y-113916666D01*
X105416666Y-113916666D01*
X105483333Y-113883333D01*
X105516666Y-113850000D01*
X105550000Y-113783333D01*
X105550000Y-113616666D01*
X105516666Y-113550000D01*
X105483333Y-113516666D01*
X105416666Y-113483333D01*
X105283333Y-113483333D01*
X105216666Y-113516666D01*
X105183333Y-113550000D01*
X105150000Y-113616666D01*
X104883333Y-121250000D02*
X104850000Y-121283333D01*
X104750000Y-121316666D01*
X104683333Y-121316666D01*
X104583333Y-121283333D01*
X104516666Y-121216666D01*
X104483333Y-121150000D01*
X104450000Y-121016666D01*
X104450000Y-120916666D01*
X104483333Y-120783333D01*
X104516666Y-120716666D01*
X104583333Y-120650000D01*
X104683333Y-120616666D01*
X104750000Y-120616666D01*
X104850000Y-120650000D01*
X104883333Y-120683333D01*
X105516666Y-120616666D02*
X105183333Y-120616666D01*
X105150000Y-120950000D01*
X105183333Y-120916666D01*
X105250000Y-120883333D01*
X105416666Y-120883333D01*
X105483333Y-120916666D01*
X105516666Y-120950000D01*
X105550000Y-121016666D01*
X105550000Y-121183333D01*
X105516666Y-121250000D01*
X105483333Y-121283333D01*
X105416666Y-121316666D01*
X105250000Y-121316666D01*
X105183333Y-121283333D01*
X105150000Y-121250000D01*
X114783333Y-104350000D02*
X114750000Y-104383333D01*
X114650000Y-104416666D01*
X114583333Y-104416666D01*
X114483333Y-104383333D01*
X114416666Y-104316666D01*
X114383333Y-104250000D01*
X114350000Y-104116666D01*
X114350000Y-104016666D01*
X114383333Y-103883333D01*
X114416666Y-103816666D01*
X114483333Y-103750000D01*
X114583333Y-103716666D01*
X114650000Y-103716666D01*
X114750000Y-103750000D01*
X114783333Y-103783333D01*
X115383333Y-103950000D02*
X115383333Y-104416666D01*
X115216666Y-103683333D02*
X115050000Y-104183333D01*
X115483333Y-104183333D01*
X114783333Y-97050000D02*
X114750000Y-97083333D01*
X114650000Y-97116666D01*
X114583333Y-97116666D01*
X114483333Y-97083333D01*
X114416666Y-97016666D01*
X114383333Y-96950000D01*
X114350000Y-96816666D01*
X114350000Y-96716666D01*
X114383333Y-96583333D01*
X114416666Y-96516666D01*
X114483333Y-96450000D01*
X114583333Y-96416666D01*
X114650000Y-96416666D01*
X114750000Y-96450000D01*
X114783333Y-96483333D01*
X115016666Y-96416666D02*
X115450000Y-96416666D01*
X115216666Y-96683333D01*
X115316666Y-96683333D01*
X115383333Y-96716666D01*
X115416666Y-96750000D01*
X115450000Y-96816666D01*
X115450000Y-96983333D01*
X115416666Y-97050000D01*
X115383333Y-97083333D01*
X115316666Y-97116666D01*
X115116666Y-97116666D01*
X115050000Y-97083333D01*
X115016666Y-97050000D01*
X110933333Y-109600000D02*
X110900000Y-109633333D01*
X110800000Y-109666666D01*
X110733333Y-109666666D01*
X110633333Y-109633333D01*
X110566666Y-109566666D01*
X110533333Y-109500000D01*
X110500000Y-109366666D01*
X110500000Y-109266666D01*
X110533333Y-109133333D01*
X110566666Y-109066666D01*
X110633333Y-109000000D01*
X110733333Y-108966666D01*
X110800000Y-108966666D01*
X110900000Y-109000000D01*
X110933333Y-109033333D01*
X111200000Y-109033333D02*
X111233333Y-109000000D01*
X111300000Y-108966666D01*
X111466666Y-108966666D01*
X111533333Y-109000000D01*
X111566666Y-109033333D01*
X111600000Y-109100000D01*
X111600000Y-109166666D01*
X111566666Y-109266666D01*
X111166666Y-109666666D01*
X111600000Y-109666666D01*
X111483333Y-121250000D02*
X111450000Y-121283333D01*
X111350000Y-121316666D01*
X111283333Y-121316666D01*
X111183333Y-121283333D01*
X111116666Y-121216666D01*
X111083333Y-121150000D01*
X111050000Y-121016666D01*
X111050000Y-120916666D01*
X111083333Y-120783333D01*
X111116666Y-120716666D01*
X111183333Y-120650000D01*
X111283333Y-120616666D01*
X111350000Y-120616666D01*
X111450000Y-120650000D01*
X111483333Y-120683333D01*
X112150000Y-121316666D02*
X111750000Y-121316666D01*
X111950000Y-121316666D02*
X111950000Y-120616666D01*
X111883333Y-120716666D01*
X111816666Y-120783333D01*
X111750000Y-120816666D01*
M02*
