G04 #@! TF.GenerationSoftware,KiCad,Pcbnew,(5.1.5)-3*
G04 #@! TF.CreationDate,2020-08-05T22:49:10+02:00*
G04 #@! TF.ProjectId,Controller,436f6e74-726f-46c6-9c65-722e6b696361,rev?*
G04 #@! TF.SameCoordinates,Original*
G04 #@! TF.FileFunction,Copper,L4,Bot*
G04 #@! TF.FilePolarity,Positive*
%FSLAX46Y46*%
G04 Gerber Fmt 4.6, Leading zero omitted, Abs format (unit mm)*
G04 Created by KiCad (PCBNEW (5.1.5)-3) date 2020-08-05 22:49:10*
%MOMM*%
%LPD*%
G04 APERTURE LIST*
%ADD10C,0.100000*%
%ADD11R,0.900000X1.200000*%
%ADD12R,2.750000X1.000000*%
%ADD13C,1.800000*%
%ADD14R,0.850000X1.100000*%
%ADD15R,0.750000X1.100000*%
%ADD16R,1.170000X1.800000*%
%ADD17R,1.550000X1.350000*%
%ADD18R,1.200000X1.000000*%
%ADD19R,1.900000X1.350000*%
%ADD20C,2.000000*%
%ADD21R,3.200000X2.000000*%
%ADD22R,2.000000X2.000000*%
%ADD23C,1.450000*%
%ADD24O,1.900000X1.200000*%
%ADD25C,0.600000*%
%ADD26C,0.500000*%
%ADD27C,1.000000*%
%ADD28C,0.250000*%
G04 APERTURE END LIST*
G04 #@! TA.AperFunction,SMDPad,CuDef*
D10*
G36*
X153205142Y-103701174D02*
G01*
X153228803Y-103704684D01*
X153252007Y-103710496D01*
X153274529Y-103718554D01*
X153296153Y-103728782D01*
X153316670Y-103741079D01*
X153335883Y-103755329D01*
X153353607Y-103771393D01*
X153369671Y-103789117D01*
X153383921Y-103808330D01*
X153396218Y-103828847D01*
X153406446Y-103850471D01*
X153414504Y-103872993D01*
X153420316Y-103896197D01*
X153423826Y-103919858D01*
X153425000Y-103943750D01*
X153425000Y-104856250D01*
X153423826Y-104880142D01*
X153420316Y-104903803D01*
X153414504Y-104927007D01*
X153406446Y-104949529D01*
X153396218Y-104971153D01*
X153383921Y-104991670D01*
X153369671Y-105010883D01*
X153353607Y-105028607D01*
X153335883Y-105044671D01*
X153316670Y-105058921D01*
X153296153Y-105071218D01*
X153274529Y-105081446D01*
X153252007Y-105089504D01*
X153228803Y-105095316D01*
X153205142Y-105098826D01*
X153181250Y-105100000D01*
X152693750Y-105100000D01*
X152669858Y-105098826D01*
X152646197Y-105095316D01*
X152622993Y-105089504D01*
X152600471Y-105081446D01*
X152578847Y-105071218D01*
X152558330Y-105058921D01*
X152539117Y-105044671D01*
X152521393Y-105028607D01*
X152505329Y-105010883D01*
X152491079Y-104991670D01*
X152478782Y-104971153D01*
X152468554Y-104949529D01*
X152460496Y-104927007D01*
X152454684Y-104903803D01*
X152451174Y-104880142D01*
X152450000Y-104856250D01*
X152450000Y-103943750D01*
X152451174Y-103919858D01*
X152454684Y-103896197D01*
X152460496Y-103872993D01*
X152468554Y-103850471D01*
X152478782Y-103828847D01*
X152491079Y-103808330D01*
X152505329Y-103789117D01*
X152521393Y-103771393D01*
X152539117Y-103755329D01*
X152558330Y-103741079D01*
X152578847Y-103728782D01*
X152600471Y-103718554D01*
X152622993Y-103710496D01*
X152646197Y-103704684D01*
X152669858Y-103701174D01*
X152693750Y-103700000D01*
X153181250Y-103700000D01*
X153205142Y-103701174D01*
G37*
G04 #@! TD.AperFunction*
G04 #@! TA.AperFunction,SMDPad,CuDef*
G36*
X151330142Y-103701174D02*
G01*
X151353803Y-103704684D01*
X151377007Y-103710496D01*
X151399529Y-103718554D01*
X151421153Y-103728782D01*
X151441670Y-103741079D01*
X151460883Y-103755329D01*
X151478607Y-103771393D01*
X151494671Y-103789117D01*
X151508921Y-103808330D01*
X151521218Y-103828847D01*
X151531446Y-103850471D01*
X151539504Y-103872993D01*
X151545316Y-103896197D01*
X151548826Y-103919858D01*
X151550000Y-103943750D01*
X151550000Y-104856250D01*
X151548826Y-104880142D01*
X151545316Y-104903803D01*
X151539504Y-104927007D01*
X151531446Y-104949529D01*
X151521218Y-104971153D01*
X151508921Y-104991670D01*
X151494671Y-105010883D01*
X151478607Y-105028607D01*
X151460883Y-105044671D01*
X151441670Y-105058921D01*
X151421153Y-105071218D01*
X151399529Y-105081446D01*
X151377007Y-105089504D01*
X151353803Y-105095316D01*
X151330142Y-105098826D01*
X151306250Y-105100000D01*
X150818750Y-105100000D01*
X150794858Y-105098826D01*
X150771197Y-105095316D01*
X150747993Y-105089504D01*
X150725471Y-105081446D01*
X150703847Y-105071218D01*
X150683330Y-105058921D01*
X150664117Y-105044671D01*
X150646393Y-105028607D01*
X150630329Y-105010883D01*
X150616079Y-104991670D01*
X150603782Y-104971153D01*
X150593554Y-104949529D01*
X150585496Y-104927007D01*
X150579684Y-104903803D01*
X150576174Y-104880142D01*
X150575000Y-104856250D01*
X150575000Y-103943750D01*
X150576174Y-103919858D01*
X150579684Y-103896197D01*
X150585496Y-103872993D01*
X150593554Y-103850471D01*
X150603782Y-103828847D01*
X150616079Y-103808330D01*
X150630329Y-103789117D01*
X150646393Y-103771393D01*
X150664117Y-103755329D01*
X150683330Y-103741079D01*
X150703847Y-103728782D01*
X150725471Y-103718554D01*
X150747993Y-103710496D01*
X150771197Y-103704684D01*
X150794858Y-103701174D01*
X150818750Y-103700000D01*
X151306250Y-103700000D01*
X151330142Y-103701174D01*
G37*
G04 #@! TD.AperFunction*
D11*
X151100000Y-104300000D03*
X154400000Y-104300000D03*
D12*
X146875000Y-122000000D03*
X153125000Y-122000000D03*
X146875000Y-124000000D03*
X153125000Y-124000000D03*
X146875000Y-126000000D03*
X153125000Y-126000000D03*
X146875000Y-128000000D03*
X153125000Y-128000000D03*
G04 #@! TA.AperFunction,ComponentPad*
D10*
G36*
X120175947Y-125201196D02*
G01*
X120200060Y-125204773D01*
X120223707Y-125210696D01*
X120246659Y-125218908D01*
X120268695Y-125229331D01*
X120289604Y-125241863D01*
X120309183Y-125256384D01*
X120327245Y-125272755D01*
X120343616Y-125290817D01*
X120358137Y-125310396D01*
X120370669Y-125331305D01*
X120381092Y-125353341D01*
X120389304Y-125376293D01*
X120395227Y-125399940D01*
X120398804Y-125424053D01*
X120400000Y-125448400D01*
X120400000Y-126751600D01*
X120398804Y-126775947D01*
X120395227Y-126800060D01*
X120389304Y-126823707D01*
X120381092Y-126846659D01*
X120370669Y-126868695D01*
X120358137Y-126889604D01*
X120343616Y-126909183D01*
X120327245Y-126927245D01*
X120309183Y-126943616D01*
X120289604Y-126958137D01*
X120268695Y-126970669D01*
X120246659Y-126981092D01*
X120223707Y-126989304D01*
X120200060Y-126995227D01*
X120175947Y-126998804D01*
X120151600Y-127000000D01*
X118848400Y-127000000D01*
X118824053Y-126998804D01*
X118799940Y-126995227D01*
X118776293Y-126989304D01*
X118753341Y-126981092D01*
X118731305Y-126970669D01*
X118710396Y-126958137D01*
X118690817Y-126943616D01*
X118672755Y-126927245D01*
X118656384Y-126909183D01*
X118641863Y-126889604D01*
X118629331Y-126868695D01*
X118618908Y-126846659D01*
X118610696Y-126823707D01*
X118604773Y-126800060D01*
X118601196Y-126775947D01*
X118600000Y-126751600D01*
X118600000Y-125448400D01*
X118601196Y-125424053D01*
X118604773Y-125399940D01*
X118610696Y-125376293D01*
X118618908Y-125353341D01*
X118629331Y-125331305D01*
X118641863Y-125310396D01*
X118656384Y-125290817D01*
X118672755Y-125272755D01*
X118690817Y-125256384D01*
X118710396Y-125241863D01*
X118731305Y-125229331D01*
X118753341Y-125218908D01*
X118776293Y-125210696D01*
X118799940Y-125204773D01*
X118824053Y-125201196D01*
X118848400Y-125200000D01*
X120151600Y-125200000D01*
X120175947Y-125201196D01*
G37*
G04 #@! TD.AperFunction*
D13*
X122040000Y-126100000D03*
X124580000Y-126100000D03*
G04 #@! TA.AperFunction,SMDPad,CuDef*
D10*
G36*
X120074504Y-100051204D02*
G01*
X120098773Y-100054804D01*
X120122571Y-100060765D01*
X120145671Y-100069030D01*
X120167849Y-100079520D01*
X120188893Y-100092133D01*
X120208598Y-100106747D01*
X120226777Y-100123223D01*
X120243253Y-100141402D01*
X120257867Y-100161107D01*
X120270480Y-100182151D01*
X120280970Y-100204329D01*
X120289235Y-100227429D01*
X120295196Y-100251227D01*
X120298796Y-100275496D01*
X120300000Y-100300000D01*
X120300000Y-105300000D01*
X120298796Y-105324504D01*
X120295196Y-105348773D01*
X120289235Y-105372571D01*
X120280970Y-105395671D01*
X120270480Y-105417849D01*
X120257867Y-105438893D01*
X120243253Y-105458598D01*
X120226777Y-105476777D01*
X120208598Y-105493253D01*
X120188893Y-105507867D01*
X120167849Y-105520480D01*
X120145671Y-105530970D01*
X120122571Y-105539235D01*
X120098773Y-105545196D01*
X120074504Y-105548796D01*
X120050000Y-105550000D01*
X119550000Y-105550000D01*
X119525496Y-105548796D01*
X119501227Y-105545196D01*
X119477429Y-105539235D01*
X119454329Y-105530970D01*
X119432151Y-105520480D01*
X119411107Y-105507867D01*
X119391402Y-105493253D01*
X119373223Y-105476777D01*
X119356747Y-105458598D01*
X119342133Y-105438893D01*
X119329520Y-105417849D01*
X119319030Y-105395671D01*
X119310765Y-105372571D01*
X119304804Y-105348773D01*
X119301204Y-105324504D01*
X119300000Y-105300000D01*
X119300000Y-100300000D01*
X119301204Y-100275496D01*
X119304804Y-100251227D01*
X119310765Y-100227429D01*
X119319030Y-100204329D01*
X119329520Y-100182151D01*
X119342133Y-100161107D01*
X119356747Y-100141402D01*
X119373223Y-100123223D01*
X119391402Y-100106747D01*
X119411107Y-100092133D01*
X119432151Y-100079520D01*
X119454329Y-100069030D01*
X119477429Y-100060765D01*
X119501227Y-100054804D01*
X119525496Y-100051204D01*
X119550000Y-100050000D01*
X120050000Y-100050000D01*
X120074504Y-100051204D01*
G37*
G04 #@! TD.AperFunction*
G04 #@! TA.AperFunction,SMDPad,CuDef*
G36*
X122074504Y-100051204D02*
G01*
X122098773Y-100054804D01*
X122122571Y-100060765D01*
X122145671Y-100069030D01*
X122167849Y-100079520D01*
X122188893Y-100092133D01*
X122208598Y-100106747D01*
X122226777Y-100123223D01*
X122243253Y-100141402D01*
X122257867Y-100161107D01*
X122270480Y-100182151D01*
X122280970Y-100204329D01*
X122289235Y-100227429D01*
X122295196Y-100251227D01*
X122298796Y-100275496D01*
X122300000Y-100300000D01*
X122300000Y-105300000D01*
X122298796Y-105324504D01*
X122295196Y-105348773D01*
X122289235Y-105372571D01*
X122280970Y-105395671D01*
X122270480Y-105417849D01*
X122257867Y-105438893D01*
X122243253Y-105458598D01*
X122226777Y-105476777D01*
X122208598Y-105493253D01*
X122188893Y-105507867D01*
X122167849Y-105520480D01*
X122145671Y-105530970D01*
X122122571Y-105539235D01*
X122098773Y-105545196D01*
X122074504Y-105548796D01*
X122050000Y-105550000D01*
X121550000Y-105550000D01*
X121525496Y-105548796D01*
X121501227Y-105545196D01*
X121477429Y-105539235D01*
X121454329Y-105530970D01*
X121432151Y-105520480D01*
X121411107Y-105507867D01*
X121391402Y-105493253D01*
X121373223Y-105476777D01*
X121356747Y-105458598D01*
X121342133Y-105438893D01*
X121329520Y-105417849D01*
X121319030Y-105395671D01*
X121310765Y-105372571D01*
X121304804Y-105348773D01*
X121301204Y-105324504D01*
X121300000Y-105300000D01*
X121300000Y-100300000D01*
X121301204Y-100275496D01*
X121304804Y-100251227D01*
X121310765Y-100227429D01*
X121319030Y-100204329D01*
X121329520Y-100182151D01*
X121342133Y-100161107D01*
X121356747Y-100141402D01*
X121373223Y-100123223D01*
X121391402Y-100106747D01*
X121411107Y-100092133D01*
X121432151Y-100079520D01*
X121454329Y-100069030D01*
X121477429Y-100060765D01*
X121501227Y-100054804D01*
X121525496Y-100051204D01*
X121550000Y-100050000D01*
X122050000Y-100050000D01*
X122074504Y-100051204D01*
G37*
G04 #@! TD.AperFunction*
G04 #@! TA.AperFunction,SMDPad,CuDef*
G36*
X124074504Y-100051204D02*
G01*
X124098773Y-100054804D01*
X124122571Y-100060765D01*
X124145671Y-100069030D01*
X124167849Y-100079520D01*
X124188893Y-100092133D01*
X124208598Y-100106747D01*
X124226777Y-100123223D01*
X124243253Y-100141402D01*
X124257867Y-100161107D01*
X124270480Y-100182151D01*
X124280970Y-100204329D01*
X124289235Y-100227429D01*
X124295196Y-100251227D01*
X124298796Y-100275496D01*
X124300000Y-100300000D01*
X124300000Y-105300000D01*
X124298796Y-105324504D01*
X124295196Y-105348773D01*
X124289235Y-105372571D01*
X124280970Y-105395671D01*
X124270480Y-105417849D01*
X124257867Y-105438893D01*
X124243253Y-105458598D01*
X124226777Y-105476777D01*
X124208598Y-105493253D01*
X124188893Y-105507867D01*
X124167849Y-105520480D01*
X124145671Y-105530970D01*
X124122571Y-105539235D01*
X124098773Y-105545196D01*
X124074504Y-105548796D01*
X124050000Y-105550000D01*
X123550000Y-105550000D01*
X123525496Y-105548796D01*
X123501227Y-105545196D01*
X123477429Y-105539235D01*
X123454329Y-105530970D01*
X123432151Y-105520480D01*
X123411107Y-105507867D01*
X123391402Y-105493253D01*
X123373223Y-105476777D01*
X123356747Y-105458598D01*
X123342133Y-105438893D01*
X123329520Y-105417849D01*
X123319030Y-105395671D01*
X123310765Y-105372571D01*
X123304804Y-105348773D01*
X123301204Y-105324504D01*
X123300000Y-105300000D01*
X123300000Y-100300000D01*
X123301204Y-100275496D01*
X123304804Y-100251227D01*
X123310765Y-100227429D01*
X123319030Y-100204329D01*
X123329520Y-100182151D01*
X123342133Y-100161107D01*
X123356747Y-100141402D01*
X123373223Y-100123223D01*
X123391402Y-100106747D01*
X123411107Y-100092133D01*
X123432151Y-100079520D01*
X123454329Y-100069030D01*
X123477429Y-100060765D01*
X123501227Y-100054804D01*
X123525496Y-100051204D01*
X123550000Y-100050000D01*
X124050000Y-100050000D01*
X124074504Y-100051204D01*
G37*
G04 #@! TD.AperFunction*
G04 #@! TA.AperFunction,SMDPad,CuDef*
G36*
X126074504Y-100051204D02*
G01*
X126098773Y-100054804D01*
X126122571Y-100060765D01*
X126145671Y-100069030D01*
X126167849Y-100079520D01*
X126188893Y-100092133D01*
X126208598Y-100106747D01*
X126226777Y-100123223D01*
X126243253Y-100141402D01*
X126257867Y-100161107D01*
X126270480Y-100182151D01*
X126280970Y-100204329D01*
X126289235Y-100227429D01*
X126295196Y-100251227D01*
X126298796Y-100275496D01*
X126300000Y-100300000D01*
X126300000Y-105300000D01*
X126298796Y-105324504D01*
X126295196Y-105348773D01*
X126289235Y-105372571D01*
X126280970Y-105395671D01*
X126270480Y-105417849D01*
X126257867Y-105438893D01*
X126243253Y-105458598D01*
X126226777Y-105476777D01*
X126208598Y-105493253D01*
X126188893Y-105507867D01*
X126167849Y-105520480D01*
X126145671Y-105530970D01*
X126122571Y-105539235D01*
X126098773Y-105545196D01*
X126074504Y-105548796D01*
X126050000Y-105550000D01*
X125550000Y-105550000D01*
X125525496Y-105548796D01*
X125501227Y-105545196D01*
X125477429Y-105539235D01*
X125454329Y-105530970D01*
X125432151Y-105520480D01*
X125411107Y-105507867D01*
X125391402Y-105493253D01*
X125373223Y-105476777D01*
X125356747Y-105458598D01*
X125342133Y-105438893D01*
X125329520Y-105417849D01*
X125319030Y-105395671D01*
X125310765Y-105372571D01*
X125304804Y-105348773D01*
X125301204Y-105324504D01*
X125300000Y-105300000D01*
X125300000Y-100300000D01*
X125301204Y-100275496D01*
X125304804Y-100251227D01*
X125310765Y-100227429D01*
X125319030Y-100204329D01*
X125329520Y-100182151D01*
X125342133Y-100161107D01*
X125356747Y-100141402D01*
X125373223Y-100123223D01*
X125391402Y-100106747D01*
X125411107Y-100092133D01*
X125432151Y-100079520D01*
X125454329Y-100069030D01*
X125477429Y-100060765D01*
X125501227Y-100054804D01*
X125525496Y-100051204D01*
X125550000Y-100050000D01*
X126050000Y-100050000D01*
X126074504Y-100051204D01*
G37*
G04 #@! TD.AperFunction*
G04 #@! TA.AperFunction,SMDPad,CuDef*
G36*
X128074504Y-100051204D02*
G01*
X128098773Y-100054804D01*
X128122571Y-100060765D01*
X128145671Y-100069030D01*
X128167849Y-100079520D01*
X128188893Y-100092133D01*
X128208598Y-100106747D01*
X128226777Y-100123223D01*
X128243253Y-100141402D01*
X128257867Y-100161107D01*
X128270480Y-100182151D01*
X128280970Y-100204329D01*
X128289235Y-100227429D01*
X128295196Y-100251227D01*
X128298796Y-100275496D01*
X128300000Y-100300000D01*
X128300000Y-105300000D01*
X128298796Y-105324504D01*
X128295196Y-105348773D01*
X128289235Y-105372571D01*
X128280970Y-105395671D01*
X128270480Y-105417849D01*
X128257867Y-105438893D01*
X128243253Y-105458598D01*
X128226777Y-105476777D01*
X128208598Y-105493253D01*
X128188893Y-105507867D01*
X128167849Y-105520480D01*
X128145671Y-105530970D01*
X128122571Y-105539235D01*
X128098773Y-105545196D01*
X128074504Y-105548796D01*
X128050000Y-105550000D01*
X127550000Y-105550000D01*
X127525496Y-105548796D01*
X127501227Y-105545196D01*
X127477429Y-105539235D01*
X127454329Y-105530970D01*
X127432151Y-105520480D01*
X127411107Y-105507867D01*
X127391402Y-105493253D01*
X127373223Y-105476777D01*
X127356747Y-105458598D01*
X127342133Y-105438893D01*
X127329520Y-105417849D01*
X127319030Y-105395671D01*
X127310765Y-105372571D01*
X127304804Y-105348773D01*
X127301204Y-105324504D01*
X127300000Y-105300000D01*
X127300000Y-100300000D01*
X127301204Y-100275496D01*
X127304804Y-100251227D01*
X127310765Y-100227429D01*
X127319030Y-100204329D01*
X127329520Y-100182151D01*
X127342133Y-100161107D01*
X127356747Y-100141402D01*
X127373223Y-100123223D01*
X127391402Y-100106747D01*
X127411107Y-100092133D01*
X127432151Y-100079520D01*
X127454329Y-100069030D01*
X127477429Y-100060765D01*
X127501227Y-100054804D01*
X127525496Y-100051204D01*
X127550000Y-100050000D01*
X128050000Y-100050000D01*
X128074504Y-100051204D01*
G37*
G04 #@! TD.AperFunction*
G04 #@! TA.AperFunction,SMDPad,CuDef*
G36*
X130074504Y-100051204D02*
G01*
X130098773Y-100054804D01*
X130122571Y-100060765D01*
X130145671Y-100069030D01*
X130167849Y-100079520D01*
X130188893Y-100092133D01*
X130208598Y-100106747D01*
X130226777Y-100123223D01*
X130243253Y-100141402D01*
X130257867Y-100161107D01*
X130270480Y-100182151D01*
X130280970Y-100204329D01*
X130289235Y-100227429D01*
X130295196Y-100251227D01*
X130298796Y-100275496D01*
X130300000Y-100300000D01*
X130300000Y-105300000D01*
X130298796Y-105324504D01*
X130295196Y-105348773D01*
X130289235Y-105372571D01*
X130280970Y-105395671D01*
X130270480Y-105417849D01*
X130257867Y-105438893D01*
X130243253Y-105458598D01*
X130226777Y-105476777D01*
X130208598Y-105493253D01*
X130188893Y-105507867D01*
X130167849Y-105520480D01*
X130145671Y-105530970D01*
X130122571Y-105539235D01*
X130098773Y-105545196D01*
X130074504Y-105548796D01*
X130050000Y-105550000D01*
X129550000Y-105550000D01*
X129525496Y-105548796D01*
X129501227Y-105545196D01*
X129477429Y-105539235D01*
X129454329Y-105530970D01*
X129432151Y-105520480D01*
X129411107Y-105507867D01*
X129391402Y-105493253D01*
X129373223Y-105476777D01*
X129356747Y-105458598D01*
X129342133Y-105438893D01*
X129329520Y-105417849D01*
X129319030Y-105395671D01*
X129310765Y-105372571D01*
X129304804Y-105348773D01*
X129301204Y-105324504D01*
X129300000Y-105300000D01*
X129300000Y-100300000D01*
X129301204Y-100275496D01*
X129304804Y-100251227D01*
X129310765Y-100227429D01*
X129319030Y-100204329D01*
X129329520Y-100182151D01*
X129342133Y-100161107D01*
X129356747Y-100141402D01*
X129373223Y-100123223D01*
X129391402Y-100106747D01*
X129411107Y-100092133D01*
X129432151Y-100079520D01*
X129454329Y-100069030D01*
X129477429Y-100060765D01*
X129501227Y-100054804D01*
X129525496Y-100051204D01*
X129550000Y-100050000D01*
X130050000Y-100050000D01*
X130074504Y-100051204D01*
G37*
G04 #@! TD.AperFunction*
G04 #@! TA.AperFunction,SMDPad,CuDef*
G36*
X117974504Y-103551204D02*
G01*
X117998773Y-103554804D01*
X118022571Y-103560765D01*
X118045671Y-103569030D01*
X118067849Y-103579520D01*
X118088893Y-103592133D01*
X118108598Y-103606747D01*
X118126777Y-103623223D01*
X118143253Y-103641402D01*
X118157867Y-103661107D01*
X118170480Y-103682151D01*
X118180970Y-103704329D01*
X118189235Y-103727429D01*
X118195196Y-103751227D01*
X118198796Y-103775496D01*
X118200000Y-103800000D01*
X118200000Y-106300000D01*
X118198796Y-106324504D01*
X118195196Y-106348773D01*
X118189235Y-106372571D01*
X118180970Y-106395671D01*
X118170480Y-106417849D01*
X118157867Y-106438893D01*
X118143253Y-106458598D01*
X118126777Y-106476777D01*
X118108598Y-106493253D01*
X118088893Y-106507867D01*
X118067849Y-106520480D01*
X118045671Y-106530970D01*
X118022571Y-106539235D01*
X117998773Y-106545196D01*
X117974504Y-106548796D01*
X117950000Y-106550000D01*
X116850000Y-106550000D01*
X116825496Y-106548796D01*
X116801227Y-106545196D01*
X116777429Y-106539235D01*
X116754329Y-106530970D01*
X116732151Y-106520480D01*
X116711107Y-106507867D01*
X116691402Y-106493253D01*
X116673223Y-106476777D01*
X116656747Y-106458598D01*
X116642133Y-106438893D01*
X116629520Y-106417849D01*
X116619030Y-106395671D01*
X116610765Y-106372571D01*
X116604804Y-106348773D01*
X116601204Y-106324504D01*
X116600000Y-106300000D01*
X116600000Y-103800000D01*
X116601204Y-103775496D01*
X116604804Y-103751227D01*
X116610765Y-103727429D01*
X116619030Y-103704329D01*
X116629520Y-103682151D01*
X116642133Y-103661107D01*
X116656747Y-103641402D01*
X116673223Y-103623223D01*
X116691402Y-103606747D01*
X116711107Y-103592133D01*
X116732151Y-103579520D01*
X116754329Y-103569030D01*
X116777429Y-103560765D01*
X116801227Y-103554804D01*
X116825496Y-103551204D01*
X116850000Y-103550000D01*
X117950000Y-103550000D01*
X117974504Y-103551204D01*
G37*
G04 #@! TD.AperFunction*
G04 #@! TA.AperFunction,SMDPad,CuDef*
G36*
X132774504Y-103551204D02*
G01*
X132798773Y-103554804D01*
X132822571Y-103560765D01*
X132845671Y-103569030D01*
X132867849Y-103579520D01*
X132888893Y-103592133D01*
X132908598Y-103606747D01*
X132926777Y-103623223D01*
X132943253Y-103641402D01*
X132957867Y-103661107D01*
X132970480Y-103682151D01*
X132980970Y-103704329D01*
X132989235Y-103727429D01*
X132995196Y-103751227D01*
X132998796Y-103775496D01*
X133000000Y-103800000D01*
X133000000Y-106300000D01*
X132998796Y-106324504D01*
X132995196Y-106348773D01*
X132989235Y-106372571D01*
X132980970Y-106395671D01*
X132970480Y-106417849D01*
X132957867Y-106438893D01*
X132943253Y-106458598D01*
X132926777Y-106476777D01*
X132908598Y-106493253D01*
X132888893Y-106507867D01*
X132867849Y-106520480D01*
X132845671Y-106530970D01*
X132822571Y-106539235D01*
X132798773Y-106545196D01*
X132774504Y-106548796D01*
X132750000Y-106550000D01*
X131650000Y-106550000D01*
X131625496Y-106548796D01*
X131601227Y-106545196D01*
X131577429Y-106539235D01*
X131554329Y-106530970D01*
X131532151Y-106520480D01*
X131511107Y-106507867D01*
X131491402Y-106493253D01*
X131473223Y-106476777D01*
X131456747Y-106458598D01*
X131442133Y-106438893D01*
X131429520Y-106417849D01*
X131419030Y-106395671D01*
X131410765Y-106372571D01*
X131404804Y-106348773D01*
X131401204Y-106324504D01*
X131400000Y-106300000D01*
X131400000Y-103800000D01*
X131401204Y-103775496D01*
X131404804Y-103751227D01*
X131410765Y-103727429D01*
X131419030Y-103704329D01*
X131429520Y-103682151D01*
X131442133Y-103661107D01*
X131456747Y-103641402D01*
X131473223Y-103623223D01*
X131491402Y-103606747D01*
X131511107Y-103592133D01*
X131532151Y-103579520D01*
X131554329Y-103569030D01*
X131577429Y-103560765D01*
X131601227Y-103554804D01*
X131625496Y-103551204D01*
X131650000Y-103550000D01*
X132750000Y-103550000D01*
X132774504Y-103551204D01*
G37*
G04 #@! TD.AperFunction*
G04 #@! TA.AperFunction,SMDPad,CuDef*
G36*
X119877691Y-113863553D02*
G01*
X119898926Y-113866703D01*
X119919750Y-113871919D01*
X119939962Y-113879151D01*
X119959368Y-113888330D01*
X119977781Y-113899366D01*
X119995024Y-113912154D01*
X120010930Y-113926570D01*
X120025346Y-113942476D01*
X120038134Y-113959719D01*
X120049170Y-113978132D01*
X120058349Y-113997538D01*
X120065581Y-114017750D01*
X120070797Y-114038574D01*
X120073947Y-114059809D01*
X120075000Y-114081250D01*
X120075000Y-114518750D01*
X120073947Y-114540191D01*
X120070797Y-114561426D01*
X120065581Y-114582250D01*
X120058349Y-114602462D01*
X120049170Y-114621868D01*
X120038134Y-114640281D01*
X120025346Y-114657524D01*
X120010930Y-114673430D01*
X119995024Y-114687846D01*
X119977781Y-114700634D01*
X119959368Y-114711670D01*
X119939962Y-114720849D01*
X119919750Y-114728081D01*
X119898926Y-114733297D01*
X119877691Y-114736447D01*
X119856250Y-114737500D01*
X119343750Y-114737500D01*
X119322309Y-114736447D01*
X119301074Y-114733297D01*
X119280250Y-114728081D01*
X119260038Y-114720849D01*
X119240632Y-114711670D01*
X119222219Y-114700634D01*
X119204976Y-114687846D01*
X119189070Y-114673430D01*
X119174654Y-114657524D01*
X119161866Y-114640281D01*
X119150830Y-114621868D01*
X119141651Y-114602462D01*
X119134419Y-114582250D01*
X119129203Y-114561426D01*
X119126053Y-114540191D01*
X119125000Y-114518750D01*
X119125000Y-114081250D01*
X119126053Y-114059809D01*
X119129203Y-114038574D01*
X119134419Y-114017750D01*
X119141651Y-113997538D01*
X119150830Y-113978132D01*
X119161866Y-113959719D01*
X119174654Y-113942476D01*
X119189070Y-113926570D01*
X119204976Y-113912154D01*
X119222219Y-113899366D01*
X119240632Y-113888330D01*
X119260038Y-113879151D01*
X119280250Y-113871919D01*
X119301074Y-113866703D01*
X119322309Y-113863553D01*
X119343750Y-113862500D01*
X119856250Y-113862500D01*
X119877691Y-113863553D01*
G37*
G04 #@! TD.AperFunction*
G04 #@! TA.AperFunction,SMDPad,CuDef*
G36*
X119877691Y-112288553D02*
G01*
X119898926Y-112291703D01*
X119919750Y-112296919D01*
X119939962Y-112304151D01*
X119959368Y-112313330D01*
X119977781Y-112324366D01*
X119995024Y-112337154D01*
X120010930Y-112351570D01*
X120025346Y-112367476D01*
X120038134Y-112384719D01*
X120049170Y-112403132D01*
X120058349Y-112422538D01*
X120065581Y-112442750D01*
X120070797Y-112463574D01*
X120073947Y-112484809D01*
X120075000Y-112506250D01*
X120075000Y-112943750D01*
X120073947Y-112965191D01*
X120070797Y-112986426D01*
X120065581Y-113007250D01*
X120058349Y-113027462D01*
X120049170Y-113046868D01*
X120038134Y-113065281D01*
X120025346Y-113082524D01*
X120010930Y-113098430D01*
X119995024Y-113112846D01*
X119977781Y-113125634D01*
X119959368Y-113136670D01*
X119939962Y-113145849D01*
X119919750Y-113153081D01*
X119898926Y-113158297D01*
X119877691Y-113161447D01*
X119856250Y-113162500D01*
X119343750Y-113162500D01*
X119322309Y-113161447D01*
X119301074Y-113158297D01*
X119280250Y-113153081D01*
X119260038Y-113145849D01*
X119240632Y-113136670D01*
X119222219Y-113125634D01*
X119204976Y-113112846D01*
X119189070Y-113098430D01*
X119174654Y-113082524D01*
X119161866Y-113065281D01*
X119150830Y-113046868D01*
X119141651Y-113027462D01*
X119134419Y-113007250D01*
X119129203Y-112986426D01*
X119126053Y-112965191D01*
X119125000Y-112943750D01*
X119125000Y-112506250D01*
X119126053Y-112484809D01*
X119129203Y-112463574D01*
X119134419Y-112442750D01*
X119141651Y-112422538D01*
X119150830Y-112403132D01*
X119161866Y-112384719D01*
X119174654Y-112367476D01*
X119189070Y-112351570D01*
X119204976Y-112337154D01*
X119222219Y-112324366D01*
X119240632Y-112313330D01*
X119260038Y-112304151D01*
X119280250Y-112296919D01*
X119301074Y-112291703D01*
X119322309Y-112288553D01*
X119343750Y-112287500D01*
X119856250Y-112287500D01*
X119877691Y-112288553D01*
G37*
G04 #@! TD.AperFunction*
D14*
X124300000Y-124200000D03*
D15*
X131950000Y-124200000D03*
D14*
X125400000Y-124200000D03*
X126500000Y-124200000D03*
X127600000Y-124200000D03*
X128700000Y-124200000D03*
X129800000Y-124200000D03*
X130900000Y-124200000D03*
D16*
X133160000Y-123850000D03*
D17*
X121840000Y-124075000D03*
D18*
X121665000Y-114350000D03*
X121665000Y-118050000D03*
D19*
X125165000Y-113375000D03*
X131135000Y-113375000D03*
G04 #@! TA.AperFunction,SMDPad,CuDef*
D10*
G36*
X100474504Y-91151204D02*
G01*
X100498773Y-91154804D01*
X100522571Y-91160765D01*
X100545671Y-91169030D01*
X100567849Y-91179520D01*
X100588893Y-91192133D01*
X100608598Y-91206747D01*
X100626777Y-91223223D01*
X100643253Y-91241402D01*
X100657867Y-91261107D01*
X100670480Y-91282151D01*
X100680970Y-91304329D01*
X100689235Y-91327429D01*
X100695196Y-91351227D01*
X100698796Y-91375496D01*
X100700000Y-91400000D01*
X100700000Y-92400000D01*
X100698796Y-92424504D01*
X100695196Y-92448773D01*
X100689235Y-92472571D01*
X100680970Y-92495671D01*
X100670480Y-92517849D01*
X100657867Y-92538893D01*
X100643253Y-92558598D01*
X100626777Y-92576777D01*
X100608598Y-92593253D01*
X100588893Y-92607867D01*
X100567849Y-92620480D01*
X100545671Y-92630970D01*
X100522571Y-92639235D01*
X100498773Y-92645196D01*
X100474504Y-92648796D01*
X100450000Y-92650000D01*
X97550000Y-92650000D01*
X97525496Y-92648796D01*
X97501227Y-92645196D01*
X97477429Y-92639235D01*
X97454329Y-92630970D01*
X97432151Y-92620480D01*
X97411107Y-92607867D01*
X97391402Y-92593253D01*
X97373223Y-92576777D01*
X97356747Y-92558598D01*
X97342133Y-92538893D01*
X97329520Y-92517849D01*
X97319030Y-92495671D01*
X97310765Y-92472571D01*
X97304804Y-92448773D01*
X97301204Y-92424504D01*
X97300000Y-92400000D01*
X97300000Y-91400000D01*
X97301204Y-91375496D01*
X97304804Y-91351227D01*
X97310765Y-91327429D01*
X97319030Y-91304329D01*
X97329520Y-91282151D01*
X97342133Y-91261107D01*
X97356747Y-91241402D01*
X97373223Y-91223223D01*
X97391402Y-91206747D01*
X97411107Y-91192133D01*
X97432151Y-91179520D01*
X97454329Y-91169030D01*
X97477429Y-91160765D01*
X97501227Y-91154804D01*
X97525496Y-91151204D01*
X97550000Y-91150000D01*
X100450000Y-91150000D01*
X100474504Y-91151204D01*
G37*
G04 #@! TD.AperFunction*
G04 #@! TA.AperFunction,SMDPad,CuDef*
G36*
X100474504Y-101851204D02*
G01*
X100498773Y-101854804D01*
X100522571Y-101860765D01*
X100545671Y-101869030D01*
X100567849Y-101879520D01*
X100588893Y-101892133D01*
X100608598Y-101906747D01*
X100626777Y-101923223D01*
X100643253Y-101941402D01*
X100657867Y-101961107D01*
X100670480Y-101982151D01*
X100680970Y-102004329D01*
X100689235Y-102027429D01*
X100695196Y-102051227D01*
X100698796Y-102075496D01*
X100700000Y-102100000D01*
X100700000Y-103100000D01*
X100698796Y-103124504D01*
X100695196Y-103148773D01*
X100689235Y-103172571D01*
X100680970Y-103195671D01*
X100670480Y-103217849D01*
X100657867Y-103238893D01*
X100643253Y-103258598D01*
X100626777Y-103276777D01*
X100608598Y-103293253D01*
X100588893Y-103307867D01*
X100567849Y-103320480D01*
X100545671Y-103330970D01*
X100522571Y-103339235D01*
X100498773Y-103345196D01*
X100474504Y-103348796D01*
X100450000Y-103350000D01*
X97550000Y-103350000D01*
X97525496Y-103348796D01*
X97501227Y-103345196D01*
X97477429Y-103339235D01*
X97454329Y-103330970D01*
X97432151Y-103320480D01*
X97411107Y-103307867D01*
X97391402Y-103293253D01*
X97373223Y-103276777D01*
X97356747Y-103258598D01*
X97342133Y-103238893D01*
X97329520Y-103217849D01*
X97319030Y-103195671D01*
X97310765Y-103172571D01*
X97304804Y-103148773D01*
X97301204Y-103124504D01*
X97300000Y-103100000D01*
X97300000Y-102100000D01*
X97301204Y-102075496D01*
X97304804Y-102051227D01*
X97310765Y-102027429D01*
X97319030Y-102004329D01*
X97329520Y-101982151D01*
X97342133Y-101961107D01*
X97356747Y-101941402D01*
X97373223Y-101923223D01*
X97391402Y-101906747D01*
X97411107Y-101892133D01*
X97432151Y-101879520D01*
X97454329Y-101869030D01*
X97477429Y-101860765D01*
X97501227Y-101854804D01*
X97525496Y-101851204D01*
X97550000Y-101850000D01*
X100450000Y-101850000D01*
X100474504Y-101851204D01*
G37*
G04 #@! TD.AperFunction*
G04 #@! TA.AperFunction,SMDPad,CuDef*
G36*
X106274504Y-93751204D02*
G01*
X106298773Y-93754804D01*
X106322571Y-93760765D01*
X106345671Y-93769030D01*
X106367849Y-93779520D01*
X106388893Y-93792133D01*
X106408598Y-93806747D01*
X106426777Y-93823223D01*
X106443253Y-93841402D01*
X106457867Y-93861107D01*
X106470480Y-93882151D01*
X106480970Y-93904329D01*
X106489235Y-93927429D01*
X106495196Y-93951227D01*
X106498796Y-93975496D01*
X106500000Y-94000000D01*
X106500000Y-94500000D01*
X106498796Y-94524504D01*
X106495196Y-94548773D01*
X106489235Y-94572571D01*
X106480970Y-94595671D01*
X106470480Y-94617849D01*
X106457867Y-94638893D01*
X106443253Y-94658598D01*
X106426777Y-94676777D01*
X106408598Y-94693253D01*
X106388893Y-94707867D01*
X106367849Y-94720480D01*
X106345671Y-94730970D01*
X106322571Y-94739235D01*
X106298773Y-94745196D01*
X106274504Y-94748796D01*
X106250000Y-94750000D01*
X103250000Y-94750000D01*
X103225496Y-94748796D01*
X103201227Y-94745196D01*
X103177429Y-94739235D01*
X103154329Y-94730970D01*
X103132151Y-94720480D01*
X103111107Y-94707867D01*
X103091402Y-94693253D01*
X103073223Y-94676777D01*
X103056747Y-94658598D01*
X103042133Y-94638893D01*
X103029520Y-94617849D01*
X103019030Y-94595671D01*
X103010765Y-94572571D01*
X103004804Y-94548773D01*
X103001204Y-94524504D01*
X103000000Y-94500000D01*
X103000000Y-94000000D01*
X103001204Y-93975496D01*
X103004804Y-93951227D01*
X103010765Y-93927429D01*
X103019030Y-93904329D01*
X103029520Y-93882151D01*
X103042133Y-93861107D01*
X103056747Y-93841402D01*
X103073223Y-93823223D01*
X103091402Y-93806747D01*
X103111107Y-93792133D01*
X103132151Y-93779520D01*
X103154329Y-93769030D01*
X103177429Y-93760765D01*
X103201227Y-93754804D01*
X103225496Y-93751204D01*
X103250000Y-93750000D01*
X106250000Y-93750000D01*
X106274504Y-93751204D01*
G37*
G04 #@! TD.AperFunction*
G04 #@! TA.AperFunction,SMDPad,CuDef*
G36*
X106274504Y-95751204D02*
G01*
X106298773Y-95754804D01*
X106322571Y-95760765D01*
X106345671Y-95769030D01*
X106367849Y-95779520D01*
X106388893Y-95792133D01*
X106408598Y-95806747D01*
X106426777Y-95823223D01*
X106443253Y-95841402D01*
X106457867Y-95861107D01*
X106470480Y-95882151D01*
X106480970Y-95904329D01*
X106489235Y-95927429D01*
X106495196Y-95951227D01*
X106498796Y-95975496D01*
X106500000Y-96000000D01*
X106500000Y-96500000D01*
X106498796Y-96524504D01*
X106495196Y-96548773D01*
X106489235Y-96572571D01*
X106480970Y-96595671D01*
X106470480Y-96617849D01*
X106457867Y-96638893D01*
X106443253Y-96658598D01*
X106426777Y-96676777D01*
X106408598Y-96693253D01*
X106388893Y-96707867D01*
X106367849Y-96720480D01*
X106345671Y-96730970D01*
X106322571Y-96739235D01*
X106298773Y-96745196D01*
X106274504Y-96748796D01*
X106250000Y-96750000D01*
X103250000Y-96750000D01*
X103225496Y-96748796D01*
X103201227Y-96745196D01*
X103177429Y-96739235D01*
X103154329Y-96730970D01*
X103132151Y-96720480D01*
X103111107Y-96707867D01*
X103091402Y-96693253D01*
X103073223Y-96676777D01*
X103056747Y-96658598D01*
X103042133Y-96638893D01*
X103029520Y-96617849D01*
X103019030Y-96595671D01*
X103010765Y-96572571D01*
X103004804Y-96548773D01*
X103001204Y-96524504D01*
X103000000Y-96500000D01*
X103000000Y-96000000D01*
X103001204Y-95975496D01*
X103004804Y-95951227D01*
X103010765Y-95927429D01*
X103019030Y-95904329D01*
X103029520Y-95882151D01*
X103042133Y-95861107D01*
X103056747Y-95841402D01*
X103073223Y-95823223D01*
X103091402Y-95806747D01*
X103111107Y-95792133D01*
X103132151Y-95779520D01*
X103154329Y-95769030D01*
X103177429Y-95760765D01*
X103201227Y-95754804D01*
X103225496Y-95751204D01*
X103250000Y-95750000D01*
X106250000Y-95750000D01*
X106274504Y-95751204D01*
G37*
G04 #@! TD.AperFunction*
G04 #@! TA.AperFunction,SMDPad,CuDef*
G36*
X106274504Y-97751204D02*
G01*
X106298773Y-97754804D01*
X106322571Y-97760765D01*
X106345671Y-97769030D01*
X106367849Y-97779520D01*
X106388893Y-97792133D01*
X106408598Y-97806747D01*
X106426777Y-97823223D01*
X106443253Y-97841402D01*
X106457867Y-97861107D01*
X106470480Y-97882151D01*
X106480970Y-97904329D01*
X106489235Y-97927429D01*
X106495196Y-97951227D01*
X106498796Y-97975496D01*
X106500000Y-98000000D01*
X106500000Y-98500000D01*
X106498796Y-98524504D01*
X106495196Y-98548773D01*
X106489235Y-98572571D01*
X106480970Y-98595671D01*
X106470480Y-98617849D01*
X106457867Y-98638893D01*
X106443253Y-98658598D01*
X106426777Y-98676777D01*
X106408598Y-98693253D01*
X106388893Y-98707867D01*
X106367849Y-98720480D01*
X106345671Y-98730970D01*
X106322571Y-98739235D01*
X106298773Y-98745196D01*
X106274504Y-98748796D01*
X106250000Y-98750000D01*
X103250000Y-98750000D01*
X103225496Y-98748796D01*
X103201227Y-98745196D01*
X103177429Y-98739235D01*
X103154329Y-98730970D01*
X103132151Y-98720480D01*
X103111107Y-98707867D01*
X103091402Y-98693253D01*
X103073223Y-98676777D01*
X103056747Y-98658598D01*
X103042133Y-98638893D01*
X103029520Y-98617849D01*
X103019030Y-98595671D01*
X103010765Y-98572571D01*
X103004804Y-98548773D01*
X103001204Y-98524504D01*
X103000000Y-98500000D01*
X103000000Y-98000000D01*
X103001204Y-97975496D01*
X103004804Y-97951227D01*
X103010765Y-97927429D01*
X103019030Y-97904329D01*
X103029520Y-97882151D01*
X103042133Y-97861107D01*
X103056747Y-97841402D01*
X103073223Y-97823223D01*
X103091402Y-97806747D01*
X103111107Y-97792133D01*
X103132151Y-97779520D01*
X103154329Y-97769030D01*
X103177429Y-97760765D01*
X103201227Y-97754804D01*
X103225496Y-97751204D01*
X103250000Y-97750000D01*
X106250000Y-97750000D01*
X106274504Y-97751204D01*
G37*
G04 #@! TD.AperFunction*
G04 #@! TA.AperFunction,SMDPad,CuDef*
G36*
X106274504Y-99751204D02*
G01*
X106298773Y-99754804D01*
X106322571Y-99760765D01*
X106345671Y-99769030D01*
X106367849Y-99779520D01*
X106388893Y-99792133D01*
X106408598Y-99806747D01*
X106426777Y-99823223D01*
X106443253Y-99841402D01*
X106457867Y-99861107D01*
X106470480Y-99882151D01*
X106480970Y-99904329D01*
X106489235Y-99927429D01*
X106495196Y-99951227D01*
X106498796Y-99975496D01*
X106500000Y-100000000D01*
X106500000Y-100500000D01*
X106498796Y-100524504D01*
X106495196Y-100548773D01*
X106489235Y-100572571D01*
X106480970Y-100595671D01*
X106470480Y-100617849D01*
X106457867Y-100638893D01*
X106443253Y-100658598D01*
X106426777Y-100676777D01*
X106408598Y-100693253D01*
X106388893Y-100707867D01*
X106367849Y-100720480D01*
X106345671Y-100730970D01*
X106322571Y-100739235D01*
X106298773Y-100745196D01*
X106274504Y-100748796D01*
X106250000Y-100750000D01*
X103250000Y-100750000D01*
X103225496Y-100748796D01*
X103201227Y-100745196D01*
X103177429Y-100739235D01*
X103154329Y-100730970D01*
X103132151Y-100720480D01*
X103111107Y-100707867D01*
X103091402Y-100693253D01*
X103073223Y-100676777D01*
X103056747Y-100658598D01*
X103042133Y-100638893D01*
X103029520Y-100617849D01*
X103019030Y-100595671D01*
X103010765Y-100572571D01*
X103004804Y-100548773D01*
X103001204Y-100524504D01*
X103000000Y-100500000D01*
X103000000Y-100000000D01*
X103001204Y-99975496D01*
X103004804Y-99951227D01*
X103010765Y-99927429D01*
X103019030Y-99904329D01*
X103029520Y-99882151D01*
X103042133Y-99861107D01*
X103056747Y-99841402D01*
X103073223Y-99823223D01*
X103091402Y-99806747D01*
X103111107Y-99792133D01*
X103132151Y-99779520D01*
X103154329Y-99769030D01*
X103177429Y-99760765D01*
X103201227Y-99754804D01*
X103225496Y-99751204D01*
X103250000Y-99750000D01*
X106250000Y-99750000D01*
X106274504Y-99751204D01*
G37*
G04 #@! TD.AperFunction*
G04 #@! TA.AperFunction,SMDPad,CuDef*
G36*
X120465191Y-108426053D02*
G01*
X120486426Y-108429203D01*
X120507250Y-108434419D01*
X120527462Y-108441651D01*
X120546868Y-108450830D01*
X120565281Y-108461866D01*
X120582524Y-108474654D01*
X120598430Y-108489070D01*
X120612846Y-108504976D01*
X120625634Y-108522219D01*
X120636670Y-108540632D01*
X120645849Y-108560038D01*
X120653081Y-108580250D01*
X120658297Y-108601074D01*
X120661447Y-108622309D01*
X120662500Y-108643750D01*
X120662500Y-109156250D01*
X120661447Y-109177691D01*
X120658297Y-109198926D01*
X120653081Y-109219750D01*
X120645849Y-109239962D01*
X120636670Y-109259368D01*
X120625634Y-109277781D01*
X120612846Y-109295024D01*
X120598430Y-109310930D01*
X120582524Y-109325346D01*
X120565281Y-109338134D01*
X120546868Y-109349170D01*
X120527462Y-109358349D01*
X120507250Y-109365581D01*
X120486426Y-109370797D01*
X120465191Y-109373947D01*
X120443750Y-109375000D01*
X120006250Y-109375000D01*
X119984809Y-109373947D01*
X119963574Y-109370797D01*
X119942750Y-109365581D01*
X119922538Y-109358349D01*
X119903132Y-109349170D01*
X119884719Y-109338134D01*
X119867476Y-109325346D01*
X119851570Y-109310930D01*
X119837154Y-109295024D01*
X119824366Y-109277781D01*
X119813330Y-109259368D01*
X119804151Y-109239962D01*
X119796919Y-109219750D01*
X119791703Y-109198926D01*
X119788553Y-109177691D01*
X119787500Y-109156250D01*
X119787500Y-108643750D01*
X119788553Y-108622309D01*
X119791703Y-108601074D01*
X119796919Y-108580250D01*
X119804151Y-108560038D01*
X119813330Y-108540632D01*
X119824366Y-108522219D01*
X119837154Y-108504976D01*
X119851570Y-108489070D01*
X119867476Y-108474654D01*
X119884719Y-108461866D01*
X119903132Y-108450830D01*
X119922538Y-108441651D01*
X119942750Y-108434419D01*
X119963574Y-108429203D01*
X119984809Y-108426053D01*
X120006250Y-108425000D01*
X120443750Y-108425000D01*
X120465191Y-108426053D01*
G37*
G04 #@! TD.AperFunction*
G04 #@! TA.AperFunction,SMDPad,CuDef*
G36*
X122040191Y-108426053D02*
G01*
X122061426Y-108429203D01*
X122082250Y-108434419D01*
X122102462Y-108441651D01*
X122121868Y-108450830D01*
X122140281Y-108461866D01*
X122157524Y-108474654D01*
X122173430Y-108489070D01*
X122187846Y-108504976D01*
X122200634Y-108522219D01*
X122211670Y-108540632D01*
X122220849Y-108560038D01*
X122228081Y-108580250D01*
X122233297Y-108601074D01*
X122236447Y-108622309D01*
X122237500Y-108643750D01*
X122237500Y-109156250D01*
X122236447Y-109177691D01*
X122233297Y-109198926D01*
X122228081Y-109219750D01*
X122220849Y-109239962D01*
X122211670Y-109259368D01*
X122200634Y-109277781D01*
X122187846Y-109295024D01*
X122173430Y-109310930D01*
X122157524Y-109325346D01*
X122140281Y-109338134D01*
X122121868Y-109349170D01*
X122102462Y-109358349D01*
X122082250Y-109365581D01*
X122061426Y-109370797D01*
X122040191Y-109373947D01*
X122018750Y-109375000D01*
X121581250Y-109375000D01*
X121559809Y-109373947D01*
X121538574Y-109370797D01*
X121517750Y-109365581D01*
X121497538Y-109358349D01*
X121478132Y-109349170D01*
X121459719Y-109338134D01*
X121442476Y-109325346D01*
X121426570Y-109310930D01*
X121412154Y-109295024D01*
X121399366Y-109277781D01*
X121388330Y-109259368D01*
X121379151Y-109239962D01*
X121371919Y-109219750D01*
X121366703Y-109198926D01*
X121363553Y-109177691D01*
X121362500Y-109156250D01*
X121362500Y-108643750D01*
X121363553Y-108622309D01*
X121366703Y-108601074D01*
X121371919Y-108580250D01*
X121379151Y-108560038D01*
X121388330Y-108540632D01*
X121399366Y-108522219D01*
X121412154Y-108504976D01*
X121426570Y-108489070D01*
X121442476Y-108474654D01*
X121459719Y-108461866D01*
X121478132Y-108450830D01*
X121497538Y-108441651D01*
X121517750Y-108434419D01*
X121538574Y-108429203D01*
X121559809Y-108426053D01*
X121581250Y-108425000D01*
X122018750Y-108425000D01*
X122040191Y-108426053D01*
G37*
G04 #@! TD.AperFunction*
G04 #@! TA.AperFunction,SMDPad,CuDef*
G36*
X149180142Y-110638674D02*
G01*
X149203803Y-110642184D01*
X149227007Y-110647996D01*
X149249529Y-110656054D01*
X149271153Y-110666282D01*
X149291670Y-110678579D01*
X149310883Y-110692829D01*
X149328607Y-110708893D01*
X149344671Y-110726617D01*
X149358921Y-110745830D01*
X149371218Y-110766347D01*
X149381446Y-110787971D01*
X149389504Y-110810493D01*
X149395316Y-110833697D01*
X149398826Y-110857358D01*
X149400000Y-110881250D01*
X149400000Y-111368750D01*
X149398826Y-111392642D01*
X149395316Y-111416303D01*
X149389504Y-111439507D01*
X149381446Y-111462029D01*
X149371218Y-111483653D01*
X149358921Y-111504170D01*
X149344671Y-111523383D01*
X149328607Y-111541107D01*
X149310883Y-111557171D01*
X149291670Y-111571421D01*
X149271153Y-111583718D01*
X149249529Y-111593946D01*
X149227007Y-111602004D01*
X149203803Y-111607816D01*
X149180142Y-111611326D01*
X149156250Y-111612500D01*
X148243750Y-111612500D01*
X148219858Y-111611326D01*
X148196197Y-111607816D01*
X148172993Y-111602004D01*
X148150471Y-111593946D01*
X148128847Y-111583718D01*
X148108330Y-111571421D01*
X148089117Y-111557171D01*
X148071393Y-111541107D01*
X148055329Y-111523383D01*
X148041079Y-111504170D01*
X148028782Y-111483653D01*
X148018554Y-111462029D01*
X148010496Y-111439507D01*
X148004684Y-111416303D01*
X148001174Y-111392642D01*
X148000000Y-111368750D01*
X148000000Y-110881250D01*
X148001174Y-110857358D01*
X148004684Y-110833697D01*
X148010496Y-110810493D01*
X148018554Y-110787971D01*
X148028782Y-110766347D01*
X148041079Y-110745830D01*
X148055329Y-110726617D01*
X148071393Y-110708893D01*
X148089117Y-110692829D01*
X148108330Y-110678579D01*
X148128847Y-110666282D01*
X148150471Y-110656054D01*
X148172993Y-110647996D01*
X148196197Y-110642184D01*
X148219858Y-110638674D01*
X148243750Y-110637500D01*
X149156250Y-110637500D01*
X149180142Y-110638674D01*
G37*
G04 #@! TD.AperFunction*
G04 #@! TA.AperFunction,SMDPad,CuDef*
G36*
X149180142Y-112513674D02*
G01*
X149203803Y-112517184D01*
X149227007Y-112522996D01*
X149249529Y-112531054D01*
X149271153Y-112541282D01*
X149291670Y-112553579D01*
X149310883Y-112567829D01*
X149328607Y-112583893D01*
X149344671Y-112601617D01*
X149358921Y-112620830D01*
X149371218Y-112641347D01*
X149381446Y-112662971D01*
X149389504Y-112685493D01*
X149395316Y-112708697D01*
X149398826Y-112732358D01*
X149400000Y-112756250D01*
X149400000Y-113243750D01*
X149398826Y-113267642D01*
X149395316Y-113291303D01*
X149389504Y-113314507D01*
X149381446Y-113337029D01*
X149371218Y-113358653D01*
X149358921Y-113379170D01*
X149344671Y-113398383D01*
X149328607Y-113416107D01*
X149310883Y-113432171D01*
X149291670Y-113446421D01*
X149271153Y-113458718D01*
X149249529Y-113468946D01*
X149227007Y-113477004D01*
X149203803Y-113482816D01*
X149180142Y-113486326D01*
X149156250Y-113487500D01*
X148243750Y-113487500D01*
X148219858Y-113486326D01*
X148196197Y-113482816D01*
X148172993Y-113477004D01*
X148150471Y-113468946D01*
X148128847Y-113458718D01*
X148108330Y-113446421D01*
X148089117Y-113432171D01*
X148071393Y-113416107D01*
X148055329Y-113398383D01*
X148041079Y-113379170D01*
X148028782Y-113358653D01*
X148018554Y-113337029D01*
X148010496Y-113314507D01*
X148004684Y-113291303D01*
X148001174Y-113267642D01*
X148000000Y-113243750D01*
X148000000Y-112756250D01*
X148001174Y-112732358D01*
X148004684Y-112708697D01*
X148010496Y-112685493D01*
X148018554Y-112662971D01*
X148028782Y-112641347D01*
X148041079Y-112620830D01*
X148055329Y-112601617D01*
X148071393Y-112583893D01*
X148089117Y-112567829D01*
X148108330Y-112553579D01*
X148128847Y-112541282D01*
X148150471Y-112531054D01*
X148172993Y-112522996D01*
X148196197Y-112517184D01*
X148219858Y-112513674D01*
X148243750Y-112512500D01*
X149156250Y-112512500D01*
X149180142Y-112513674D01*
G37*
G04 #@! TD.AperFunction*
G04 #@! TA.AperFunction,SMDPad,CuDef*
G36*
X153474504Y-108651204D02*
G01*
X153498773Y-108654804D01*
X153522571Y-108660765D01*
X153545671Y-108669030D01*
X153567849Y-108679520D01*
X153588893Y-108692133D01*
X153608598Y-108706747D01*
X153626777Y-108723223D01*
X153643253Y-108741402D01*
X153657867Y-108761107D01*
X153670480Y-108782151D01*
X153680970Y-108804329D01*
X153689235Y-108827429D01*
X153695196Y-108851227D01*
X153698796Y-108875496D01*
X153700000Y-108900000D01*
X153700000Y-109400000D01*
X153698796Y-109424504D01*
X153695196Y-109448773D01*
X153689235Y-109472571D01*
X153680970Y-109495671D01*
X153670480Y-109517849D01*
X153657867Y-109538893D01*
X153643253Y-109558598D01*
X153626777Y-109576777D01*
X153608598Y-109593253D01*
X153588893Y-109607867D01*
X153567849Y-109620480D01*
X153545671Y-109630970D01*
X153522571Y-109639235D01*
X153498773Y-109645196D01*
X153474504Y-109648796D01*
X153450000Y-109650000D01*
X150450000Y-109650000D01*
X150425496Y-109648796D01*
X150401227Y-109645196D01*
X150377429Y-109639235D01*
X150354329Y-109630970D01*
X150332151Y-109620480D01*
X150311107Y-109607867D01*
X150291402Y-109593253D01*
X150273223Y-109576777D01*
X150256747Y-109558598D01*
X150242133Y-109538893D01*
X150229520Y-109517849D01*
X150219030Y-109495671D01*
X150210765Y-109472571D01*
X150204804Y-109448773D01*
X150201204Y-109424504D01*
X150200000Y-109400000D01*
X150200000Y-108900000D01*
X150201204Y-108875496D01*
X150204804Y-108851227D01*
X150210765Y-108827429D01*
X150219030Y-108804329D01*
X150229520Y-108782151D01*
X150242133Y-108761107D01*
X150256747Y-108741402D01*
X150273223Y-108723223D01*
X150291402Y-108706747D01*
X150311107Y-108692133D01*
X150332151Y-108679520D01*
X150354329Y-108669030D01*
X150377429Y-108660765D01*
X150401227Y-108654804D01*
X150425496Y-108651204D01*
X150450000Y-108650000D01*
X153450000Y-108650000D01*
X153474504Y-108651204D01*
G37*
G04 #@! TD.AperFunction*
G04 #@! TA.AperFunction,SMDPad,CuDef*
G36*
X153474504Y-110651204D02*
G01*
X153498773Y-110654804D01*
X153522571Y-110660765D01*
X153545671Y-110669030D01*
X153567849Y-110679520D01*
X153588893Y-110692133D01*
X153608598Y-110706747D01*
X153626777Y-110723223D01*
X153643253Y-110741402D01*
X153657867Y-110761107D01*
X153670480Y-110782151D01*
X153680970Y-110804329D01*
X153689235Y-110827429D01*
X153695196Y-110851227D01*
X153698796Y-110875496D01*
X153700000Y-110900000D01*
X153700000Y-111400000D01*
X153698796Y-111424504D01*
X153695196Y-111448773D01*
X153689235Y-111472571D01*
X153680970Y-111495671D01*
X153670480Y-111517849D01*
X153657867Y-111538893D01*
X153643253Y-111558598D01*
X153626777Y-111576777D01*
X153608598Y-111593253D01*
X153588893Y-111607867D01*
X153567849Y-111620480D01*
X153545671Y-111630970D01*
X153522571Y-111639235D01*
X153498773Y-111645196D01*
X153474504Y-111648796D01*
X153450000Y-111650000D01*
X150450000Y-111650000D01*
X150425496Y-111648796D01*
X150401227Y-111645196D01*
X150377429Y-111639235D01*
X150354329Y-111630970D01*
X150332151Y-111620480D01*
X150311107Y-111607867D01*
X150291402Y-111593253D01*
X150273223Y-111576777D01*
X150256747Y-111558598D01*
X150242133Y-111538893D01*
X150229520Y-111517849D01*
X150219030Y-111495671D01*
X150210765Y-111472571D01*
X150204804Y-111448773D01*
X150201204Y-111424504D01*
X150200000Y-111400000D01*
X150200000Y-110900000D01*
X150201204Y-110875496D01*
X150204804Y-110851227D01*
X150210765Y-110827429D01*
X150219030Y-110804329D01*
X150229520Y-110782151D01*
X150242133Y-110761107D01*
X150256747Y-110741402D01*
X150273223Y-110723223D01*
X150291402Y-110706747D01*
X150311107Y-110692133D01*
X150332151Y-110679520D01*
X150354329Y-110669030D01*
X150377429Y-110660765D01*
X150401227Y-110654804D01*
X150425496Y-110651204D01*
X150450000Y-110650000D01*
X153450000Y-110650000D01*
X153474504Y-110651204D01*
G37*
G04 #@! TD.AperFunction*
G04 #@! TA.AperFunction,SMDPad,CuDef*
G36*
X153474504Y-112651204D02*
G01*
X153498773Y-112654804D01*
X153522571Y-112660765D01*
X153545671Y-112669030D01*
X153567849Y-112679520D01*
X153588893Y-112692133D01*
X153608598Y-112706747D01*
X153626777Y-112723223D01*
X153643253Y-112741402D01*
X153657867Y-112761107D01*
X153670480Y-112782151D01*
X153680970Y-112804329D01*
X153689235Y-112827429D01*
X153695196Y-112851227D01*
X153698796Y-112875496D01*
X153700000Y-112900000D01*
X153700000Y-113400000D01*
X153698796Y-113424504D01*
X153695196Y-113448773D01*
X153689235Y-113472571D01*
X153680970Y-113495671D01*
X153670480Y-113517849D01*
X153657867Y-113538893D01*
X153643253Y-113558598D01*
X153626777Y-113576777D01*
X153608598Y-113593253D01*
X153588893Y-113607867D01*
X153567849Y-113620480D01*
X153545671Y-113630970D01*
X153522571Y-113639235D01*
X153498773Y-113645196D01*
X153474504Y-113648796D01*
X153450000Y-113650000D01*
X150450000Y-113650000D01*
X150425496Y-113648796D01*
X150401227Y-113645196D01*
X150377429Y-113639235D01*
X150354329Y-113630970D01*
X150332151Y-113620480D01*
X150311107Y-113607867D01*
X150291402Y-113593253D01*
X150273223Y-113576777D01*
X150256747Y-113558598D01*
X150242133Y-113538893D01*
X150229520Y-113517849D01*
X150219030Y-113495671D01*
X150210765Y-113472571D01*
X150204804Y-113448773D01*
X150201204Y-113424504D01*
X150200000Y-113400000D01*
X150200000Y-112900000D01*
X150201204Y-112875496D01*
X150204804Y-112851227D01*
X150210765Y-112827429D01*
X150219030Y-112804329D01*
X150229520Y-112782151D01*
X150242133Y-112761107D01*
X150256747Y-112741402D01*
X150273223Y-112723223D01*
X150291402Y-112706747D01*
X150311107Y-112692133D01*
X150332151Y-112679520D01*
X150354329Y-112669030D01*
X150377429Y-112660765D01*
X150401227Y-112654804D01*
X150425496Y-112651204D01*
X150450000Y-112650000D01*
X153450000Y-112650000D01*
X153474504Y-112651204D01*
G37*
G04 #@! TD.AperFunction*
G04 #@! TA.AperFunction,SMDPad,CuDef*
G36*
X159174504Y-106051204D02*
G01*
X159198773Y-106054804D01*
X159222571Y-106060765D01*
X159245671Y-106069030D01*
X159267849Y-106079520D01*
X159288893Y-106092133D01*
X159308598Y-106106747D01*
X159326777Y-106123223D01*
X159343253Y-106141402D01*
X159357867Y-106161107D01*
X159370480Y-106182151D01*
X159380970Y-106204329D01*
X159389235Y-106227429D01*
X159395196Y-106251227D01*
X159398796Y-106275496D01*
X159400000Y-106300000D01*
X159400000Y-107300000D01*
X159398796Y-107324504D01*
X159395196Y-107348773D01*
X159389235Y-107372571D01*
X159380970Y-107395671D01*
X159370480Y-107417849D01*
X159357867Y-107438893D01*
X159343253Y-107458598D01*
X159326777Y-107476777D01*
X159308598Y-107493253D01*
X159288893Y-107507867D01*
X159267849Y-107520480D01*
X159245671Y-107530970D01*
X159222571Y-107539235D01*
X159198773Y-107545196D01*
X159174504Y-107548796D01*
X159150000Y-107550000D01*
X156250000Y-107550000D01*
X156225496Y-107548796D01*
X156201227Y-107545196D01*
X156177429Y-107539235D01*
X156154329Y-107530970D01*
X156132151Y-107520480D01*
X156111107Y-107507867D01*
X156091402Y-107493253D01*
X156073223Y-107476777D01*
X156056747Y-107458598D01*
X156042133Y-107438893D01*
X156029520Y-107417849D01*
X156019030Y-107395671D01*
X156010765Y-107372571D01*
X156004804Y-107348773D01*
X156001204Y-107324504D01*
X156000000Y-107300000D01*
X156000000Y-106300000D01*
X156001204Y-106275496D01*
X156004804Y-106251227D01*
X156010765Y-106227429D01*
X156019030Y-106204329D01*
X156029520Y-106182151D01*
X156042133Y-106161107D01*
X156056747Y-106141402D01*
X156073223Y-106123223D01*
X156091402Y-106106747D01*
X156111107Y-106092133D01*
X156132151Y-106079520D01*
X156154329Y-106069030D01*
X156177429Y-106060765D01*
X156201227Y-106054804D01*
X156225496Y-106051204D01*
X156250000Y-106050000D01*
X159150000Y-106050000D01*
X159174504Y-106051204D01*
G37*
G04 #@! TD.AperFunction*
G04 #@! TA.AperFunction,SMDPad,CuDef*
G36*
X159174504Y-114751204D02*
G01*
X159198773Y-114754804D01*
X159222571Y-114760765D01*
X159245671Y-114769030D01*
X159267849Y-114779520D01*
X159288893Y-114792133D01*
X159308598Y-114806747D01*
X159326777Y-114823223D01*
X159343253Y-114841402D01*
X159357867Y-114861107D01*
X159370480Y-114882151D01*
X159380970Y-114904329D01*
X159389235Y-114927429D01*
X159395196Y-114951227D01*
X159398796Y-114975496D01*
X159400000Y-115000000D01*
X159400000Y-116000000D01*
X159398796Y-116024504D01*
X159395196Y-116048773D01*
X159389235Y-116072571D01*
X159380970Y-116095671D01*
X159370480Y-116117849D01*
X159357867Y-116138893D01*
X159343253Y-116158598D01*
X159326777Y-116176777D01*
X159308598Y-116193253D01*
X159288893Y-116207867D01*
X159267849Y-116220480D01*
X159245671Y-116230970D01*
X159222571Y-116239235D01*
X159198773Y-116245196D01*
X159174504Y-116248796D01*
X159150000Y-116250000D01*
X156250000Y-116250000D01*
X156225496Y-116248796D01*
X156201227Y-116245196D01*
X156177429Y-116239235D01*
X156154329Y-116230970D01*
X156132151Y-116220480D01*
X156111107Y-116207867D01*
X156091402Y-116193253D01*
X156073223Y-116176777D01*
X156056747Y-116158598D01*
X156042133Y-116138893D01*
X156029520Y-116117849D01*
X156019030Y-116095671D01*
X156010765Y-116072571D01*
X156004804Y-116048773D01*
X156001204Y-116024504D01*
X156000000Y-116000000D01*
X156000000Y-115000000D01*
X156001204Y-114975496D01*
X156004804Y-114951227D01*
X156010765Y-114927429D01*
X156019030Y-114904329D01*
X156029520Y-114882151D01*
X156042133Y-114861107D01*
X156056747Y-114841402D01*
X156073223Y-114823223D01*
X156091402Y-114806747D01*
X156111107Y-114792133D01*
X156132151Y-114779520D01*
X156154329Y-114769030D01*
X156177429Y-114760765D01*
X156201227Y-114754804D01*
X156225496Y-114751204D01*
X156250000Y-114750000D01*
X159150000Y-114750000D01*
X159174504Y-114751204D01*
G37*
G04 #@! TD.AperFunction*
G04 #@! TA.AperFunction,SMDPad,CuDef*
G36*
X130077691Y-110038553D02*
G01*
X130098926Y-110041703D01*
X130119750Y-110046919D01*
X130139962Y-110054151D01*
X130159368Y-110063330D01*
X130177781Y-110074366D01*
X130195024Y-110087154D01*
X130210930Y-110101570D01*
X130225346Y-110117476D01*
X130238134Y-110134719D01*
X130249170Y-110153132D01*
X130258349Y-110172538D01*
X130265581Y-110192750D01*
X130270797Y-110213574D01*
X130273947Y-110234809D01*
X130275000Y-110256250D01*
X130275000Y-110693750D01*
X130273947Y-110715191D01*
X130270797Y-110736426D01*
X130265581Y-110757250D01*
X130258349Y-110777462D01*
X130249170Y-110796868D01*
X130238134Y-110815281D01*
X130225346Y-110832524D01*
X130210930Y-110848430D01*
X130195024Y-110862846D01*
X130177781Y-110875634D01*
X130159368Y-110886670D01*
X130139962Y-110895849D01*
X130119750Y-110903081D01*
X130098926Y-110908297D01*
X130077691Y-110911447D01*
X130056250Y-110912500D01*
X129543750Y-110912500D01*
X129522309Y-110911447D01*
X129501074Y-110908297D01*
X129480250Y-110903081D01*
X129460038Y-110895849D01*
X129440632Y-110886670D01*
X129422219Y-110875634D01*
X129404976Y-110862846D01*
X129389070Y-110848430D01*
X129374654Y-110832524D01*
X129361866Y-110815281D01*
X129350830Y-110796868D01*
X129341651Y-110777462D01*
X129334419Y-110757250D01*
X129329203Y-110736426D01*
X129326053Y-110715191D01*
X129325000Y-110693750D01*
X129325000Y-110256250D01*
X129326053Y-110234809D01*
X129329203Y-110213574D01*
X129334419Y-110192750D01*
X129341651Y-110172538D01*
X129350830Y-110153132D01*
X129361866Y-110134719D01*
X129374654Y-110117476D01*
X129389070Y-110101570D01*
X129404976Y-110087154D01*
X129422219Y-110074366D01*
X129440632Y-110063330D01*
X129460038Y-110054151D01*
X129480250Y-110046919D01*
X129501074Y-110041703D01*
X129522309Y-110038553D01*
X129543750Y-110037500D01*
X130056250Y-110037500D01*
X130077691Y-110038553D01*
G37*
G04 #@! TD.AperFunction*
G04 #@! TA.AperFunction,SMDPad,CuDef*
G36*
X130077691Y-108463553D02*
G01*
X130098926Y-108466703D01*
X130119750Y-108471919D01*
X130139962Y-108479151D01*
X130159368Y-108488330D01*
X130177781Y-108499366D01*
X130195024Y-108512154D01*
X130210930Y-108526570D01*
X130225346Y-108542476D01*
X130238134Y-108559719D01*
X130249170Y-108578132D01*
X130258349Y-108597538D01*
X130265581Y-108617750D01*
X130270797Y-108638574D01*
X130273947Y-108659809D01*
X130275000Y-108681250D01*
X130275000Y-109118750D01*
X130273947Y-109140191D01*
X130270797Y-109161426D01*
X130265581Y-109182250D01*
X130258349Y-109202462D01*
X130249170Y-109221868D01*
X130238134Y-109240281D01*
X130225346Y-109257524D01*
X130210930Y-109273430D01*
X130195024Y-109287846D01*
X130177781Y-109300634D01*
X130159368Y-109311670D01*
X130139962Y-109320849D01*
X130119750Y-109328081D01*
X130098926Y-109333297D01*
X130077691Y-109336447D01*
X130056250Y-109337500D01*
X129543750Y-109337500D01*
X129522309Y-109336447D01*
X129501074Y-109333297D01*
X129480250Y-109328081D01*
X129460038Y-109320849D01*
X129440632Y-109311670D01*
X129422219Y-109300634D01*
X129404976Y-109287846D01*
X129389070Y-109273430D01*
X129374654Y-109257524D01*
X129361866Y-109240281D01*
X129350830Y-109221868D01*
X129341651Y-109202462D01*
X129334419Y-109182250D01*
X129329203Y-109161426D01*
X129326053Y-109140191D01*
X129325000Y-109118750D01*
X129325000Y-108681250D01*
X129326053Y-108659809D01*
X129329203Y-108638574D01*
X129334419Y-108617750D01*
X129341651Y-108597538D01*
X129350830Y-108578132D01*
X129361866Y-108559719D01*
X129374654Y-108542476D01*
X129389070Y-108526570D01*
X129404976Y-108512154D01*
X129422219Y-108499366D01*
X129440632Y-108488330D01*
X129460038Y-108479151D01*
X129480250Y-108471919D01*
X129501074Y-108466703D01*
X129522309Y-108463553D01*
X129543750Y-108462500D01*
X130056250Y-108462500D01*
X130077691Y-108463553D01*
G37*
G04 #@! TD.AperFunction*
G04 #@! TA.AperFunction,SMDPad,CuDef*
G36*
X128077691Y-110038553D02*
G01*
X128098926Y-110041703D01*
X128119750Y-110046919D01*
X128139962Y-110054151D01*
X128159368Y-110063330D01*
X128177781Y-110074366D01*
X128195024Y-110087154D01*
X128210930Y-110101570D01*
X128225346Y-110117476D01*
X128238134Y-110134719D01*
X128249170Y-110153132D01*
X128258349Y-110172538D01*
X128265581Y-110192750D01*
X128270797Y-110213574D01*
X128273947Y-110234809D01*
X128275000Y-110256250D01*
X128275000Y-110693750D01*
X128273947Y-110715191D01*
X128270797Y-110736426D01*
X128265581Y-110757250D01*
X128258349Y-110777462D01*
X128249170Y-110796868D01*
X128238134Y-110815281D01*
X128225346Y-110832524D01*
X128210930Y-110848430D01*
X128195024Y-110862846D01*
X128177781Y-110875634D01*
X128159368Y-110886670D01*
X128139962Y-110895849D01*
X128119750Y-110903081D01*
X128098926Y-110908297D01*
X128077691Y-110911447D01*
X128056250Y-110912500D01*
X127543750Y-110912500D01*
X127522309Y-110911447D01*
X127501074Y-110908297D01*
X127480250Y-110903081D01*
X127460038Y-110895849D01*
X127440632Y-110886670D01*
X127422219Y-110875634D01*
X127404976Y-110862846D01*
X127389070Y-110848430D01*
X127374654Y-110832524D01*
X127361866Y-110815281D01*
X127350830Y-110796868D01*
X127341651Y-110777462D01*
X127334419Y-110757250D01*
X127329203Y-110736426D01*
X127326053Y-110715191D01*
X127325000Y-110693750D01*
X127325000Y-110256250D01*
X127326053Y-110234809D01*
X127329203Y-110213574D01*
X127334419Y-110192750D01*
X127341651Y-110172538D01*
X127350830Y-110153132D01*
X127361866Y-110134719D01*
X127374654Y-110117476D01*
X127389070Y-110101570D01*
X127404976Y-110087154D01*
X127422219Y-110074366D01*
X127440632Y-110063330D01*
X127460038Y-110054151D01*
X127480250Y-110046919D01*
X127501074Y-110041703D01*
X127522309Y-110038553D01*
X127543750Y-110037500D01*
X128056250Y-110037500D01*
X128077691Y-110038553D01*
G37*
G04 #@! TD.AperFunction*
G04 #@! TA.AperFunction,SMDPad,CuDef*
G36*
X128077691Y-108463553D02*
G01*
X128098926Y-108466703D01*
X128119750Y-108471919D01*
X128139962Y-108479151D01*
X128159368Y-108488330D01*
X128177781Y-108499366D01*
X128195024Y-108512154D01*
X128210930Y-108526570D01*
X128225346Y-108542476D01*
X128238134Y-108559719D01*
X128249170Y-108578132D01*
X128258349Y-108597538D01*
X128265581Y-108617750D01*
X128270797Y-108638574D01*
X128273947Y-108659809D01*
X128275000Y-108681250D01*
X128275000Y-109118750D01*
X128273947Y-109140191D01*
X128270797Y-109161426D01*
X128265581Y-109182250D01*
X128258349Y-109202462D01*
X128249170Y-109221868D01*
X128238134Y-109240281D01*
X128225346Y-109257524D01*
X128210930Y-109273430D01*
X128195024Y-109287846D01*
X128177781Y-109300634D01*
X128159368Y-109311670D01*
X128139962Y-109320849D01*
X128119750Y-109328081D01*
X128098926Y-109333297D01*
X128077691Y-109336447D01*
X128056250Y-109337500D01*
X127543750Y-109337500D01*
X127522309Y-109336447D01*
X127501074Y-109333297D01*
X127480250Y-109328081D01*
X127460038Y-109320849D01*
X127440632Y-109311670D01*
X127422219Y-109300634D01*
X127404976Y-109287846D01*
X127389070Y-109273430D01*
X127374654Y-109257524D01*
X127361866Y-109240281D01*
X127350830Y-109221868D01*
X127341651Y-109202462D01*
X127334419Y-109182250D01*
X127329203Y-109161426D01*
X127326053Y-109140191D01*
X127325000Y-109118750D01*
X127325000Y-108681250D01*
X127326053Y-108659809D01*
X127329203Y-108638574D01*
X127334419Y-108617750D01*
X127341651Y-108597538D01*
X127350830Y-108578132D01*
X127361866Y-108559719D01*
X127374654Y-108542476D01*
X127389070Y-108526570D01*
X127404976Y-108512154D01*
X127422219Y-108499366D01*
X127440632Y-108488330D01*
X127460038Y-108479151D01*
X127480250Y-108471919D01*
X127501074Y-108466703D01*
X127522309Y-108463553D01*
X127543750Y-108462500D01*
X128056250Y-108462500D01*
X128077691Y-108463553D01*
G37*
G04 #@! TD.AperFunction*
G04 #@! TA.AperFunction,SMDPad,CuDef*
G36*
X126077691Y-110038553D02*
G01*
X126098926Y-110041703D01*
X126119750Y-110046919D01*
X126139962Y-110054151D01*
X126159368Y-110063330D01*
X126177781Y-110074366D01*
X126195024Y-110087154D01*
X126210930Y-110101570D01*
X126225346Y-110117476D01*
X126238134Y-110134719D01*
X126249170Y-110153132D01*
X126258349Y-110172538D01*
X126265581Y-110192750D01*
X126270797Y-110213574D01*
X126273947Y-110234809D01*
X126275000Y-110256250D01*
X126275000Y-110693750D01*
X126273947Y-110715191D01*
X126270797Y-110736426D01*
X126265581Y-110757250D01*
X126258349Y-110777462D01*
X126249170Y-110796868D01*
X126238134Y-110815281D01*
X126225346Y-110832524D01*
X126210930Y-110848430D01*
X126195024Y-110862846D01*
X126177781Y-110875634D01*
X126159368Y-110886670D01*
X126139962Y-110895849D01*
X126119750Y-110903081D01*
X126098926Y-110908297D01*
X126077691Y-110911447D01*
X126056250Y-110912500D01*
X125543750Y-110912500D01*
X125522309Y-110911447D01*
X125501074Y-110908297D01*
X125480250Y-110903081D01*
X125460038Y-110895849D01*
X125440632Y-110886670D01*
X125422219Y-110875634D01*
X125404976Y-110862846D01*
X125389070Y-110848430D01*
X125374654Y-110832524D01*
X125361866Y-110815281D01*
X125350830Y-110796868D01*
X125341651Y-110777462D01*
X125334419Y-110757250D01*
X125329203Y-110736426D01*
X125326053Y-110715191D01*
X125325000Y-110693750D01*
X125325000Y-110256250D01*
X125326053Y-110234809D01*
X125329203Y-110213574D01*
X125334419Y-110192750D01*
X125341651Y-110172538D01*
X125350830Y-110153132D01*
X125361866Y-110134719D01*
X125374654Y-110117476D01*
X125389070Y-110101570D01*
X125404976Y-110087154D01*
X125422219Y-110074366D01*
X125440632Y-110063330D01*
X125460038Y-110054151D01*
X125480250Y-110046919D01*
X125501074Y-110041703D01*
X125522309Y-110038553D01*
X125543750Y-110037500D01*
X126056250Y-110037500D01*
X126077691Y-110038553D01*
G37*
G04 #@! TD.AperFunction*
G04 #@! TA.AperFunction,SMDPad,CuDef*
G36*
X126077691Y-108463553D02*
G01*
X126098926Y-108466703D01*
X126119750Y-108471919D01*
X126139962Y-108479151D01*
X126159368Y-108488330D01*
X126177781Y-108499366D01*
X126195024Y-108512154D01*
X126210930Y-108526570D01*
X126225346Y-108542476D01*
X126238134Y-108559719D01*
X126249170Y-108578132D01*
X126258349Y-108597538D01*
X126265581Y-108617750D01*
X126270797Y-108638574D01*
X126273947Y-108659809D01*
X126275000Y-108681250D01*
X126275000Y-109118750D01*
X126273947Y-109140191D01*
X126270797Y-109161426D01*
X126265581Y-109182250D01*
X126258349Y-109202462D01*
X126249170Y-109221868D01*
X126238134Y-109240281D01*
X126225346Y-109257524D01*
X126210930Y-109273430D01*
X126195024Y-109287846D01*
X126177781Y-109300634D01*
X126159368Y-109311670D01*
X126139962Y-109320849D01*
X126119750Y-109328081D01*
X126098926Y-109333297D01*
X126077691Y-109336447D01*
X126056250Y-109337500D01*
X125543750Y-109337500D01*
X125522309Y-109336447D01*
X125501074Y-109333297D01*
X125480250Y-109328081D01*
X125460038Y-109320849D01*
X125440632Y-109311670D01*
X125422219Y-109300634D01*
X125404976Y-109287846D01*
X125389070Y-109273430D01*
X125374654Y-109257524D01*
X125361866Y-109240281D01*
X125350830Y-109221868D01*
X125341651Y-109202462D01*
X125334419Y-109182250D01*
X125329203Y-109161426D01*
X125326053Y-109140191D01*
X125325000Y-109118750D01*
X125325000Y-108681250D01*
X125326053Y-108659809D01*
X125329203Y-108638574D01*
X125334419Y-108617750D01*
X125341651Y-108597538D01*
X125350830Y-108578132D01*
X125361866Y-108559719D01*
X125374654Y-108542476D01*
X125389070Y-108526570D01*
X125404976Y-108512154D01*
X125422219Y-108499366D01*
X125440632Y-108488330D01*
X125460038Y-108479151D01*
X125480250Y-108471919D01*
X125501074Y-108466703D01*
X125522309Y-108463553D01*
X125543750Y-108462500D01*
X126056250Y-108462500D01*
X126077691Y-108463553D01*
G37*
G04 #@! TD.AperFunction*
G04 #@! TA.AperFunction,SMDPad,CuDef*
G36*
X124077691Y-110038553D02*
G01*
X124098926Y-110041703D01*
X124119750Y-110046919D01*
X124139962Y-110054151D01*
X124159368Y-110063330D01*
X124177781Y-110074366D01*
X124195024Y-110087154D01*
X124210930Y-110101570D01*
X124225346Y-110117476D01*
X124238134Y-110134719D01*
X124249170Y-110153132D01*
X124258349Y-110172538D01*
X124265581Y-110192750D01*
X124270797Y-110213574D01*
X124273947Y-110234809D01*
X124275000Y-110256250D01*
X124275000Y-110693750D01*
X124273947Y-110715191D01*
X124270797Y-110736426D01*
X124265581Y-110757250D01*
X124258349Y-110777462D01*
X124249170Y-110796868D01*
X124238134Y-110815281D01*
X124225346Y-110832524D01*
X124210930Y-110848430D01*
X124195024Y-110862846D01*
X124177781Y-110875634D01*
X124159368Y-110886670D01*
X124139962Y-110895849D01*
X124119750Y-110903081D01*
X124098926Y-110908297D01*
X124077691Y-110911447D01*
X124056250Y-110912500D01*
X123543750Y-110912500D01*
X123522309Y-110911447D01*
X123501074Y-110908297D01*
X123480250Y-110903081D01*
X123460038Y-110895849D01*
X123440632Y-110886670D01*
X123422219Y-110875634D01*
X123404976Y-110862846D01*
X123389070Y-110848430D01*
X123374654Y-110832524D01*
X123361866Y-110815281D01*
X123350830Y-110796868D01*
X123341651Y-110777462D01*
X123334419Y-110757250D01*
X123329203Y-110736426D01*
X123326053Y-110715191D01*
X123325000Y-110693750D01*
X123325000Y-110256250D01*
X123326053Y-110234809D01*
X123329203Y-110213574D01*
X123334419Y-110192750D01*
X123341651Y-110172538D01*
X123350830Y-110153132D01*
X123361866Y-110134719D01*
X123374654Y-110117476D01*
X123389070Y-110101570D01*
X123404976Y-110087154D01*
X123422219Y-110074366D01*
X123440632Y-110063330D01*
X123460038Y-110054151D01*
X123480250Y-110046919D01*
X123501074Y-110041703D01*
X123522309Y-110038553D01*
X123543750Y-110037500D01*
X124056250Y-110037500D01*
X124077691Y-110038553D01*
G37*
G04 #@! TD.AperFunction*
G04 #@! TA.AperFunction,SMDPad,CuDef*
G36*
X124077691Y-108463553D02*
G01*
X124098926Y-108466703D01*
X124119750Y-108471919D01*
X124139962Y-108479151D01*
X124159368Y-108488330D01*
X124177781Y-108499366D01*
X124195024Y-108512154D01*
X124210930Y-108526570D01*
X124225346Y-108542476D01*
X124238134Y-108559719D01*
X124249170Y-108578132D01*
X124258349Y-108597538D01*
X124265581Y-108617750D01*
X124270797Y-108638574D01*
X124273947Y-108659809D01*
X124275000Y-108681250D01*
X124275000Y-109118750D01*
X124273947Y-109140191D01*
X124270797Y-109161426D01*
X124265581Y-109182250D01*
X124258349Y-109202462D01*
X124249170Y-109221868D01*
X124238134Y-109240281D01*
X124225346Y-109257524D01*
X124210930Y-109273430D01*
X124195024Y-109287846D01*
X124177781Y-109300634D01*
X124159368Y-109311670D01*
X124139962Y-109320849D01*
X124119750Y-109328081D01*
X124098926Y-109333297D01*
X124077691Y-109336447D01*
X124056250Y-109337500D01*
X123543750Y-109337500D01*
X123522309Y-109336447D01*
X123501074Y-109333297D01*
X123480250Y-109328081D01*
X123460038Y-109320849D01*
X123440632Y-109311670D01*
X123422219Y-109300634D01*
X123404976Y-109287846D01*
X123389070Y-109273430D01*
X123374654Y-109257524D01*
X123361866Y-109240281D01*
X123350830Y-109221868D01*
X123341651Y-109202462D01*
X123334419Y-109182250D01*
X123329203Y-109161426D01*
X123326053Y-109140191D01*
X123325000Y-109118750D01*
X123325000Y-108681250D01*
X123326053Y-108659809D01*
X123329203Y-108638574D01*
X123334419Y-108617750D01*
X123341651Y-108597538D01*
X123350830Y-108578132D01*
X123361866Y-108559719D01*
X123374654Y-108542476D01*
X123389070Y-108526570D01*
X123404976Y-108512154D01*
X123422219Y-108499366D01*
X123440632Y-108488330D01*
X123460038Y-108479151D01*
X123480250Y-108471919D01*
X123501074Y-108466703D01*
X123522309Y-108463553D01*
X123543750Y-108462500D01*
X124056250Y-108462500D01*
X124077691Y-108463553D01*
G37*
G04 #@! TD.AperFunction*
D20*
X94300000Y-104400000D03*
X94300000Y-99400000D03*
D21*
X95300000Y-108000000D03*
X95300000Y-95800000D03*
D20*
X91800000Y-104400000D03*
X91800000Y-101900000D03*
D22*
X91800000Y-99400000D03*
G04 #@! TA.AperFunction,SMDPad,CuDef*
D10*
G36*
X106274504Y-115251204D02*
G01*
X106298773Y-115254804D01*
X106322571Y-115260765D01*
X106345671Y-115269030D01*
X106367849Y-115279520D01*
X106388893Y-115292133D01*
X106408598Y-115306747D01*
X106426777Y-115323223D01*
X106443253Y-115341402D01*
X106457867Y-115361107D01*
X106470480Y-115382151D01*
X106480970Y-115404329D01*
X106489235Y-115427429D01*
X106495196Y-115451227D01*
X106498796Y-115475496D01*
X106500000Y-115500000D01*
X106500000Y-116000000D01*
X106498796Y-116024504D01*
X106495196Y-116048773D01*
X106489235Y-116072571D01*
X106480970Y-116095671D01*
X106470480Y-116117849D01*
X106457867Y-116138893D01*
X106443253Y-116158598D01*
X106426777Y-116176777D01*
X106408598Y-116193253D01*
X106388893Y-116207867D01*
X106367849Y-116220480D01*
X106345671Y-116230970D01*
X106322571Y-116239235D01*
X106298773Y-116245196D01*
X106274504Y-116248796D01*
X106250000Y-116250000D01*
X103250000Y-116250000D01*
X103225496Y-116248796D01*
X103201227Y-116245196D01*
X103177429Y-116239235D01*
X103154329Y-116230970D01*
X103132151Y-116220480D01*
X103111107Y-116207867D01*
X103091402Y-116193253D01*
X103073223Y-116176777D01*
X103056747Y-116158598D01*
X103042133Y-116138893D01*
X103029520Y-116117849D01*
X103019030Y-116095671D01*
X103010765Y-116072571D01*
X103004804Y-116048773D01*
X103001204Y-116024504D01*
X103000000Y-116000000D01*
X103000000Y-115500000D01*
X103001204Y-115475496D01*
X103004804Y-115451227D01*
X103010765Y-115427429D01*
X103019030Y-115404329D01*
X103029520Y-115382151D01*
X103042133Y-115361107D01*
X103056747Y-115341402D01*
X103073223Y-115323223D01*
X103091402Y-115306747D01*
X103111107Y-115292133D01*
X103132151Y-115279520D01*
X103154329Y-115269030D01*
X103177429Y-115260765D01*
X103201227Y-115254804D01*
X103225496Y-115251204D01*
X103250000Y-115250000D01*
X106250000Y-115250000D01*
X106274504Y-115251204D01*
G37*
G04 #@! TD.AperFunction*
G04 #@! TA.AperFunction,SMDPad,CuDef*
G36*
X106274504Y-113251204D02*
G01*
X106298773Y-113254804D01*
X106322571Y-113260765D01*
X106345671Y-113269030D01*
X106367849Y-113279520D01*
X106388893Y-113292133D01*
X106408598Y-113306747D01*
X106426777Y-113323223D01*
X106443253Y-113341402D01*
X106457867Y-113361107D01*
X106470480Y-113382151D01*
X106480970Y-113404329D01*
X106489235Y-113427429D01*
X106495196Y-113451227D01*
X106498796Y-113475496D01*
X106500000Y-113500000D01*
X106500000Y-114000000D01*
X106498796Y-114024504D01*
X106495196Y-114048773D01*
X106489235Y-114072571D01*
X106480970Y-114095671D01*
X106470480Y-114117849D01*
X106457867Y-114138893D01*
X106443253Y-114158598D01*
X106426777Y-114176777D01*
X106408598Y-114193253D01*
X106388893Y-114207867D01*
X106367849Y-114220480D01*
X106345671Y-114230970D01*
X106322571Y-114239235D01*
X106298773Y-114245196D01*
X106274504Y-114248796D01*
X106250000Y-114250000D01*
X103250000Y-114250000D01*
X103225496Y-114248796D01*
X103201227Y-114245196D01*
X103177429Y-114239235D01*
X103154329Y-114230970D01*
X103132151Y-114220480D01*
X103111107Y-114207867D01*
X103091402Y-114193253D01*
X103073223Y-114176777D01*
X103056747Y-114158598D01*
X103042133Y-114138893D01*
X103029520Y-114117849D01*
X103019030Y-114095671D01*
X103010765Y-114072571D01*
X103004804Y-114048773D01*
X103001204Y-114024504D01*
X103000000Y-114000000D01*
X103000000Y-113500000D01*
X103001204Y-113475496D01*
X103004804Y-113451227D01*
X103010765Y-113427429D01*
X103019030Y-113404329D01*
X103029520Y-113382151D01*
X103042133Y-113361107D01*
X103056747Y-113341402D01*
X103073223Y-113323223D01*
X103091402Y-113306747D01*
X103111107Y-113292133D01*
X103132151Y-113279520D01*
X103154329Y-113269030D01*
X103177429Y-113260765D01*
X103201227Y-113254804D01*
X103225496Y-113251204D01*
X103250000Y-113250000D01*
X106250000Y-113250000D01*
X106274504Y-113251204D01*
G37*
G04 #@! TD.AperFunction*
G04 #@! TA.AperFunction,SMDPad,CuDef*
G36*
X106274504Y-111251204D02*
G01*
X106298773Y-111254804D01*
X106322571Y-111260765D01*
X106345671Y-111269030D01*
X106367849Y-111279520D01*
X106388893Y-111292133D01*
X106408598Y-111306747D01*
X106426777Y-111323223D01*
X106443253Y-111341402D01*
X106457867Y-111361107D01*
X106470480Y-111382151D01*
X106480970Y-111404329D01*
X106489235Y-111427429D01*
X106495196Y-111451227D01*
X106498796Y-111475496D01*
X106500000Y-111500000D01*
X106500000Y-112000000D01*
X106498796Y-112024504D01*
X106495196Y-112048773D01*
X106489235Y-112072571D01*
X106480970Y-112095671D01*
X106470480Y-112117849D01*
X106457867Y-112138893D01*
X106443253Y-112158598D01*
X106426777Y-112176777D01*
X106408598Y-112193253D01*
X106388893Y-112207867D01*
X106367849Y-112220480D01*
X106345671Y-112230970D01*
X106322571Y-112239235D01*
X106298773Y-112245196D01*
X106274504Y-112248796D01*
X106250000Y-112250000D01*
X103250000Y-112250000D01*
X103225496Y-112248796D01*
X103201227Y-112245196D01*
X103177429Y-112239235D01*
X103154329Y-112230970D01*
X103132151Y-112220480D01*
X103111107Y-112207867D01*
X103091402Y-112193253D01*
X103073223Y-112176777D01*
X103056747Y-112158598D01*
X103042133Y-112138893D01*
X103029520Y-112117849D01*
X103019030Y-112095671D01*
X103010765Y-112072571D01*
X103004804Y-112048773D01*
X103001204Y-112024504D01*
X103000000Y-112000000D01*
X103000000Y-111500000D01*
X103001204Y-111475496D01*
X103004804Y-111451227D01*
X103010765Y-111427429D01*
X103019030Y-111404329D01*
X103029520Y-111382151D01*
X103042133Y-111361107D01*
X103056747Y-111341402D01*
X103073223Y-111323223D01*
X103091402Y-111306747D01*
X103111107Y-111292133D01*
X103132151Y-111279520D01*
X103154329Y-111269030D01*
X103177429Y-111260765D01*
X103201227Y-111254804D01*
X103225496Y-111251204D01*
X103250000Y-111250000D01*
X106250000Y-111250000D01*
X106274504Y-111251204D01*
G37*
G04 #@! TD.AperFunction*
G04 #@! TA.AperFunction,SMDPad,CuDef*
G36*
X106274504Y-109251204D02*
G01*
X106298773Y-109254804D01*
X106322571Y-109260765D01*
X106345671Y-109269030D01*
X106367849Y-109279520D01*
X106388893Y-109292133D01*
X106408598Y-109306747D01*
X106426777Y-109323223D01*
X106443253Y-109341402D01*
X106457867Y-109361107D01*
X106470480Y-109382151D01*
X106480970Y-109404329D01*
X106489235Y-109427429D01*
X106495196Y-109451227D01*
X106498796Y-109475496D01*
X106500000Y-109500000D01*
X106500000Y-110000000D01*
X106498796Y-110024504D01*
X106495196Y-110048773D01*
X106489235Y-110072571D01*
X106480970Y-110095671D01*
X106470480Y-110117849D01*
X106457867Y-110138893D01*
X106443253Y-110158598D01*
X106426777Y-110176777D01*
X106408598Y-110193253D01*
X106388893Y-110207867D01*
X106367849Y-110220480D01*
X106345671Y-110230970D01*
X106322571Y-110239235D01*
X106298773Y-110245196D01*
X106274504Y-110248796D01*
X106250000Y-110250000D01*
X103250000Y-110250000D01*
X103225496Y-110248796D01*
X103201227Y-110245196D01*
X103177429Y-110239235D01*
X103154329Y-110230970D01*
X103132151Y-110220480D01*
X103111107Y-110207867D01*
X103091402Y-110193253D01*
X103073223Y-110176777D01*
X103056747Y-110158598D01*
X103042133Y-110138893D01*
X103029520Y-110117849D01*
X103019030Y-110095671D01*
X103010765Y-110072571D01*
X103004804Y-110048773D01*
X103001204Y-110024504D01*
X103000000Y-110000000D01*
X103000000Y-109500000D01*
X103001204Y-109475496D01*
X103004804Y-109451227D01*
X103010765Y-109427429D01*
X103019030Y-109404329D01*
X103029520Y-109382151D01*
X103042133Y-109361107D01*
X103056747Y-109341402D01*
X103073223Y-109323223D01*
X103091402Y-109306747D01*
X103111107Y-109292133D01*
X103132151Y-109279520D01*
X103154329Y-109269030D01*
X103177429Y-109260765D01*
X103201227Y-109254804D01*
X103225496Y-109251204D01*
X103250000Y-109250000D01*
X106250000Y-109250000D01*
X106274504Y-109251204D01*
G37*
G04 #@! TD.AperFunction*
G04 #@! TA.AperFunction,SMDPad,CuDef*
G36*
X106274504Y-107251204D02*
G01*
X106298773Y-107254804D01*
X106322571Y-107260765D01*
X106345671Y-107269030D01*
X106367849Y-107279520D01*
X106388893Y-107292133D01*
X106408598Y-107306747D01*
X106426777Y-107323223D01*
X106443253Y-107341402D01*
X106457867Y-107361107D01*
X106470480Y-107382151D01*
X106480970Y-107404329D01*
X106489235Y-107427429D01*
X106495196Y-107451227D01*
X106498796Y-107475496D01*
X106500000Y-107500000D01*
X106500000Y-108000000D01*
X106498796Y-108024504D01*
X106495196Y-108048773D01*
X106489235Y-108072571D01*
X106480970Y-108095671D01*
X106470480Y-108117849D01*
X106457867Y-108138893D01*
X106443253Y-108158598D01*
X106426777Y-108176777D01*
X106408598Y-108193253D01*
X106388893Y-108207867D01*
X106367849Y-108220480D01*
X106345671Y-108230970D01*
X106322571Y-108239235D01*
X106298773Y-108245196D01*
X106274504Y-108248796D01*
X106250000Y-108250000D01*
X103250000Y-108250000D01*
X103225496Y-108248796D01*
X103201227Y-108245196D01*
X103177429Y-108239235D01*
X103154329Y-108230970D01*
X103132151Y-108220480D01*
X103111107Y-108207867D01*
X103091402Y-108193253D01*
X103073223Y-108176777D01*
X103056747Y-108158598D01*
X103042133Y-108138893D01*
X103029520Y-108117849D01*
X103019030Y-108095671D01*
X103010765Y-108072571D01*
X103004804Y-108048773D01*
X103001204Y-108024504D01*
X103000000Y-108000000D01*
X103000000Y-107500000D01*
X103001204Y-107475496D01*
X103004804Y-107451227D01*
X103010765Y-107427429D01*
X103019030Y-107404329D01*
X103029520Y-107382151D01*
X103042133Y-107361107D01*
X103056747Y-107341402D01*
X103073223Y-107323223D01*
X103091402Y-107306747D01*
X103111107Y-107292133D01*
X103132151Y-107279520D01*
X103154329Y-107269030D01*
X103177429Y-107260765D01*
X103201227Y-107254804D01*
X103225496Y-107251204D01*
X103250000Y-107250000D01*
X106250000Y-107250000D01*
X106274504Y-107251204D01*
G37*
G04 #@! TD.AperFunction*
G04 #@! TA.AperFunction,SMDPad,CuDef*
G36*
X100474504Y-117351204D02*
G01*
X100498773Y-117354804D01*
X100522571Y-117360765D01*
X100545671Y-117369030D01*
X100567849Y-117379520D01*
X100588893Y-117392133D01*
X100608598Y-117406747D01*
X100626777Y-117423223D01*
X100643253Y-117441402D01*
X100657867Y-117461107D01*
X100670480Y-117482151D01*
X100680970Y-117504329D01*
X100689235Y-117527429D01*
X100695196Y-117551227D01*
X100698796Y-117575496D01*
X100700000Y-117600000D01*
X100700000Y-118600000D01*
X100698796Y-118624504D01*
X100695196Y-118648773D01*
X100689235Y-118672571D01*
X100680970Y-118695671D01*
X100670480Y-118717849D01*
X100657867Y-118738893D01*
X100643253Y-118758598D01*
X100626777Y-118776777D01*
X100608598Y-118793253D01*
X100588893Y-118807867D01*
X100567849Y-118820480D01*
X100545671Y-118830970D01*
X100522571Y-118839235D01*
X100498773Y-118845196D01*
X100474504Y-118848796D01*
X100450000Y-118850000D01*
X97550000Y-118850000D01*
X97525496Y-118848796D01*
X97501227Y-118845196D01*
X97477429Y-118839235D01*
X97454329Y-118830970D01*
X97432151Y-118820480D01*
X97411107Y-118807867D01*
X97391402Y-118793253D01*
X97373223Y-118776777D01*
X97356747Y-118758598D01*
X97342133Y-118738893D01*
X97329520Y-118717849D01*
X97319030Y-118695671D01*
X97310765Y-118672571D01*
X97304804Y-118648773D01*
X97301204Y-118624504D01*
X97300000Y-118600000D01*
X97300000Y-117600000D01*
X97301204Y-117575496D01*
X97304804Y-117551227D01*
X97310765Y-117527429D01*
X97319030Y-117504329D01*
X97329520Y-117482151D01*
X97342133Y-117461107D01*
X97356747Y-117441402D01*
X97373223Y-117423223D01*
X97391402Y-117406747D01*
X97411107Y-117392133D01*
X97432151Y-117379520D01*
X97454329Y-117369030D01*
X97477429Y-117360765D01*
X97501227Y-117354804D01*
X97525496Y-117351204D01*
X97550000Y-117350000D01*
X100450000Y-117350000D01*
X100474504Y-117351204D01*
G37*
G04 #@! TD.AperFunction*
G04 #@! TA.AperFunction,SMDPad,CuDef*
G36*
X100474504Y-104651204D02*
G01*
X100498773Y-104654804D01*
X100522571Y-104660765D01*
X100545671Y-104669030D01*
X100567849Y-104679520D01*
X100588893Y-104692133D01*
X100608598Y-104706747D01*
X100626777Y-104723223D01*
X100643253Y-104741402D01*
X100657867Y-104761107D01*
X100670480Y-104782151D01*
X100680970Y-104804329D01*
X100689235Y-104827429D01*
X100695196Y-104851227D01*
X100698796Y-104875496D01*
X100700000Y-104900000D01*
X100700000Y-105900000D01*
X100698796Y-105924504D01*
X100695196Y-105948773D01*
X100689235Y-105972571D01*
X100680970Y-105995671D01*
X100670480Y-106017849D01*
X100657867Y-106038893D01*
X100643253Y-106058598D01*
X100626777Y-106076777D01*
X100608598Y-106093253D01*
X100588893Y-106107867D01*
X100567849Y-106120480D01*
X100545671Y-106130970D01*
X100522571Y-106139235D01*
X100498773Y-106145196D01*
X100474504Y-106148796D01*
X100450000Y-106150000D01*
X97550000Y-106150000D01*
X97525496Y-106148796D01*
X97501227Y-106145196D01*
X97477429Y-106139235D01*
X97454329Y-106130970D01*
X97432151Y-106120480D01*
X97411107Y-106107867D01*
X97391402Y-106093253D01*
X97373223Y-106076777D01*
X97356747Y-106058598D01*
X97342133Y-106038893D01*
X97329520Y-106017849D01*
X97319030Y-105995671D01*
X97310765Y-105972571D01*
X97304804Y-105948773D01*
X97301204Y-105924504D01*
X97300000Y-105900000D01*
X97300000Y-104900000D01*
X97301204Y-104875496D01*
X97304804Y-104851227D01*
X97310765Y-104827429D01*
X97319030Y-104804329D01*
X97329520Y-104782151D01*
X97342133Y-104761107D01*
X97356747Y-104741402D01*
X97373223Y-104723223D01*
X97391402Y-104706747D01*
X97411107Y-104692133D01*
X97432151Y-104679520D01*
X97454329Y-104669030D01*
X97477429Y-104660765D01*
X97501227Y-104654804D01*
X97525496Y-104651204D01*
X97550000Y-104650000D01*
X100450000Y-104650000D01*
X100474504Y-104651204D01*
G37*
G04 #@! TD.AperFunction*
G04 #@! TA.AperFunction,SMDPad,CuDef*
G36*
X110377691Y-118763553D02*
G01*
X110398926Y-118766703D01*
X110419750Y-118771919D01*
X110439962Y-118779151D01*
X110459368Y-118788330D01*
X110477781Y-118799366D01*
X110495024Y-118812154D01*
X110510930Y-118826570D01*
X110525346Y-118842476D01*
X110538134Y-118859719D01*
X110549170Y-118878132D01*
X110558349Y-118897538D01*
X110565581Y-118917750D01*
X110570797Y-118938574D01*
X110573947Y-118959809D01*
X110575000Y-118981250D01*
X110575000Y-119418750D01*
X110573947Y-119440191D01*
X110570797Y-119461426D01*
X110565581Y-119482250D01*
X110558349Y-119502462D01*
X110549170Y-119521868D01*
X110538134Y-119540281D01*
X110525346Y-119557524D01*
X110510930Y-119573430D01*
X110495024Y-119587846D01*
X110477781Y-119600634D01*
X110459368Y-119611670D01*
X110439962Y-119620849D01*
X110419750Y-119628081D01*
X110398926Y-119633297D01*
X110377691Y-119636447D01*
X110356250Y-119637500D01*
X109843750Y-119637500D01*
X109822309Y-119636447D01*
X109801074Y-119633297D01*
X109780250Y-119628081D01*
X109760038Y-119620849D01*
X109740632Y-119611670D01*
X109722219Y-119600634D01*
X109704976Y-119587846D01*
X109689070Y-119573430D01*
X109674654Y-119557524D01*
X109661866Y-119540281D01*
X109650830Y-119521868D01*
X109641651Y-119502462D01*
X109634419Y-119482250D01*
X109629203Y-119461426D01*
X109626053Y-119440191D01*
X109625000Y-119418750D01*
X109625000Y-118981250D01*
X109626053Y-118959809D01*
X109629203Y-118938574D01*
X109634419Y-118917750D01*
X109641651Y-118897538D01*
X109650830Y-118878132D01*
X109661866Y-118859719D01*
X109674654Y-118842476D01*
X109689070Y-118826570D01*
X109704976Y-118812154D01*
X109722219Y-118799366D01*
X109740632Y-118788330D01*
X109760038Y-118779151D01*
X109780250Y-118771919D01*
X109801074Y-118766703D01*
X109822309Y-118763553D01*
X109843750Y-118762500D01*
X110356250Y-118762500D01*
X110377691Y-118763553D01*
G37*
G04 #@! TD.AperFunction*
G04 #@! TA.AperFunction,SMDPad,CuDef*
G36*
X110377691Y-120338553D02*
G01*
X110398926Y-120341703D01*
X110419750Y-120346919D01*
X110439962Y-120354151D01*
X110459368Y-120363330D01*
X110477781Y-120374366D01*
X110495024Y-120387154D01*
X110510930Y-120401570D01*
X110525346Y-120417476D01*
X110538134Y-120434719D01*
X110549170Y-120453132D01*
X110558349Y-120472538D01*
X110565581Y-120492750D01*
X110570797Y-120513574D01*
X110573947Y-120534809D01*
X110575000Y-120556250D01*
X110575000Y-120993750D01*
X110573947Y-121015191D01*
X110570797Y-121036426D01*
X110565581Y-121057250D01*
X110558349Y-121077462D01*
X110549170Y-121096868D01*
X110538134Y-121115281D01*
X110525346Y-121132524D01*
X110510930Y-121148430D01*
X110495024Y-121162846D01*
X110477781Y-121175634D01*
X110459368Y-121186670D01*
X110439962Y-121195849D01*
X110419750Y-121203081D01*
X110398926Y-121208297D01*
X110377691Y-121211447D01*
X110356250Y-121212500D01*
X109843750Y-121212500D01*
X109822309Y-121211447D01*
X109801074Y-121208297D01*
X109780250Y-121203081D01*
X109760038Y-121195849D01*
X109740632Y-121186670D01*
X109722219Y-121175634D01*
X109704976Y-121162846D01*
X109689070Y-121148430D01*
X109674654Y-121132524D01*
X109661866Y-121115281D01*
X109650830Y-121096868D01*
X109641651Y-121077462D01*
X109634419Y-121057250D01*
X109629203Y-121036426D01*
X109626053Y-121015191D01*
X109625000Y-120993750D01*
X109625000Y-120556250D01*
X109626053Y-120534809D01*
X109629203Y-120513574D01*
X109634419Y-120492750D01*
X109641651Y-120472538D01*
X109650830Y-120453132D01*
X109661866Y-120434719D01*
X109674654Y-120417476D01*
X109689070Y-120401570D01*
X109704976Y-120387154D01*
X109722219Y-120374366D01*
X109740632Y-120363330D01*
X109760038Y-120354151D01*
X109780250Y-120346919D01*
X109801074Y-120341703D01*
X109822309Y-120338553D01*
X109843750Y-120337500D01*
X110356250Y-120337500D01*
X110377691Y-120338553D01*
G37*
G04 #@! TD.AperFunction*
G04 #@! TA.AperFunction,SMDPad,CuDef*
G36*
X112177691Y-120338553D02*
G01*
X112198926Y-120341703D01*
X112219750Y-120346919D01*
X112239962Y-120354151D01*
X112259368Y-120363330D01*
X112277781Y-120374366D01*
X112295024Y-120387154D01*
X112310930Y-120401570D01*
X112325346Y-120417476D01*
X112338134Y-120434719D01*
X112349170Y-120453132D01*
X112358349Y-120472538D01*
X112365581Y-120492750D01*
X112370797Y-120513574D01*
X112373947Y-120534809D01*
X112375000Y-120556250D01*
X112375000Y-120993750D01*
X112373947Y-121015191D01*
X112370797Y-121036426D01*
X112365581Y-121057250D01*
X112358349Y-121077462D01*
X112349170Y-121096868D01*
X112338134Y-121115281D01*
X112325346Y-121132524D01*
X112310930Y-121148430D01*
X112295024Y-121162846D01*
X112277781Y-121175634D01*
X112259368Y-121186670D01*
X112239962Y-121195849D01*
X112219750Y-121203081D01*
X112198926Y-121208297D01*
X112177691Y-121211447D01*
X112156250Y-121212500D01*
X111643750Y-121212500D01*
X111622309Y-121211447D01*
X111601074Y-121208297D01*
X111580250Y-121203081D01*
X111560038Y-121195849D01*
X111540632Y-121186670D01*
X111522219Y-121175634D01*
X111504976Y-121162846D01*
X111489070Y-121148430D01*
X111474654Y-121132524D01*
X111461866Y-121115281D01*
X111450830Y-121096868D01*
X111441651Y-121077462D01*
X111434419Y-121057250D01*
X111429203Y-121036426D01*
X111426053Y-121015191D01*
X111425000Y-120993750D01*
X111425000Y-120556250D01*
X111426053Y-120534809D01*
X111429203Y-120513574D01*
X111434419Y-120492750D01*
X111441651Y-120472538D01*
X111450830Y-120453132D01*
X111461866Y-120434719D01*
X111474654Y-120417476D01*
X111489070Y-120401570D01*
X111504976Y-120387154D01*
X111522219Y-120374366D01*
X111540632Y-120363330D01*
X111560038Y-120354151D01*
X111580250Y-120346919D01*
X111601074Y-120341703D01*
X111622309Y-120338553D01*
X111643750Y-120337500D01*
X112156250Y-120337500D01*
X112177691Y-120338553D01*
G37*
G04 #@! TD.AperFunction*
G04 #@! TA.AperFunction,SMDPad,CuDef*
G36*
X112177691Y-118763553D02*
G01*
X112198926Y-118766703D01*
X112219750Y-118771919D01*
X112239962Y-118779151D01*
X112259368Y-118788330D01*
X112277781Y-118799366D01*
X112295024Y-118812154D01*
X112310930Y-118826570D01*
X112325346Y-118842476D01*
X112338134Y-118859719D01*
X112349170Y-118878132D01*
X112358349Y-118897538D01*
X112365581Y-118917750D01*
X112370797Y-118938574D01*
X112373947Y-118959809D01*
X112375000Y-118981250D01*
X112375000Y-119418750D01*
X112373947Y-119440191D01*
X112370797Y-119461426D01*
X112365581Y-119482250D01*
X112358349Y-119502462D01*
X112349170Y-119521868D01*
X112338134Y-119540281D01*
X112325346Y-119557524D01*
X112310930Y-119573430D01*
X112295024Y-119587846D01*
X112277781Y-119600634D01*
X112259368Y-119611670D01*
X112239962Y-119620849D01*
X112219750Y-119628081D01*
X112198926Y-119633297D01*
X112177691Y-119636447D01*
X112156250Y-119637500D01*
X111643750Y-119637500D01*
X111622309Y-119636447D01*
X111601074Y-119633297D01*
X111580250Y-119628081D01*
X111560038Y-119620849D01*
X111540632Y-119611670D01*
X111522219Y-119600634D01*
X111504976Y-119587846D01*
X111489070Y-119573430D01*
X111474654Y-119557524D01*
X111461866Y-119540281D01*
X111450830Y-119521868D01*
X111441651Y-119502462D01*
X111434419Y-119482250D01*
X111429203Y-119461426D01*
X111426053Y-119440191D01*
X111425000Y-119418750D01*
X111425000Y-118981250D01*
X111426053Y-118959809D01*
X111429203Y-118938574D01*
X111434419Y-118917750D01*
X111441651Y-118897538D01*
X111450830Y-118878132D01*
X111461866Y-118859719D01*
X111474654Y-118842476D01*
X111489070Y-118826570D01*
X111504976Y-118812154D01*
X111522219Y-118799366D01*
X111540632Y-118788330D01*
X111560038Y-118779151D01*
X111580250Y-118771919D01*
X111601074Y-118766703D01*
X111622309Y-118763553D01*
X111643750Y-118762500D01*
X112156250Y-118762500D01*
X112177691Y-118763553D01*
G37*
G04 #@! TD.AperFunction*
D12*
X103125000Y-128000000D03*
X96875000Y-128000000D03*
X103125000Y-126000000D03*
X96875000Y-126000000D03*
X103125000Y-124000000D03*
X96875000Y-124000000D03*
X103125000Y-122000000D03*
X96875000Y-122000000D03*
D23*
X94200000Y-112800000D03*
X94200000Y-117800000D03*
D24*
X91500000Y-111800000D03*
X91500000Y-118800000D03*
D25*
X154200000Y-93500000D03*
X99200000Y-128100000D03*
X99200000Y-128700000D03*
X122500000Y-109700000D03*
X96800000Y-113400000D03*
X148200000Y-114000000D03*
X140700000Y-110300000D03*
X145900000Y-110200000D03*
X141100000Y-114000000D03*
X140700000Y-117600000D03*
X138900000Y-127100000D03*
X139800000Y-127100000D03*
X155000000Y-126300000D03*
X154200000Y-94100000D03*
X154200000Y-105900000D03*
X154200000Y-106500000D03*
X136299992Y-123700000D03*
X139300000Y-113900000D03*
X139200000Y-110200000D03*
X136700000Y-115100000D03*
X144300000Y-110100000D03*
X142900000Y-106700000D03*
X143400000Y-100700000D03*
X136100000Y-99200000D03*
X132600000Y-98500000D03*
X139000000Y-98400000D03*
X95000000Y-124000000D03*
X107300000Y-111200000D03*
X104100000Y-119700000D03*
X131500000Y-125900000D03*
X130900000Y-125900000D03*
X133100000Y-126000000D03*
X116800000Y-127300000D03*
X113200000Y-127300000D03*
X105300000Y-128200000D03*
X124600000Y-128200000D03*
X114900000Y-103700000D03*
X107000000Y-94300000D03*
X104500000Y-92300000D03*
X104100000Y-103100000D03*
X106700000Y-97200000D03*
X100800000Y-108000000D03*
X129200000Y-127800000D03*
X121900000Y-123000000D03*
X121700000Y-120100000D03*
X129100000Y-121000000D03*
X121100000Y-106100000D03*
X121100000Y-106700000D03*
X127800000Y-106700000D03*
X128300000Y-106300000D03*
X123700000Y-113400000D03*
X103900000Y-116800000D03*
X108900000Y-120600000D03*
X108900000Y-121200000D03*
X112300000Y-110700000D03*
X112300000Y-111300000D03*
X108800000Y-113550000D03*
X107150000Y-105400000D03*
X107200000Y-110150000D03*
X107800000Y-107899976D03*
X113900000Y-97850000D03*
X130550000Y-120600000D03*
X123200000Y-120050000D03*
X129100000Y-118600000D03*
X129700000Y-113349998D03*
X124600000Y-106800000D03*
X124600000Y-105990000D03*
X135950000Y-103400000D03*
X104800000Y-125000000D03*
X133875000Y-122250000D03*
X118900000Y-117100000D03*
X140900000Y-127200000D03*
X141500000Y-127200000D03*
X154200000Y-100100000D03*
X154199986Y-99500000D03*
X95400000Y-114000000D03*
X101100000Y-128600000D03*
X100500000Y-128600000D03*
X149600000Y-110200000D03*
X149000000Y-110200000D03*
X149400000Y-126800000D03*
X151000000Y-114300000D03*
X137200000Y-123900000D03*
X137800000Y-97700000D03*
X95000000Y-122000000D03*
X96800000Y-119800000D03*
X129800000Y-121700000D03*
X129800000Y-122300000D03*
X107000000Y-122350000D03*
X107600000Y-122350000D03*
X100300000Y-111200000D03*
X100900000Y-113300000D03*
X102600000Y-116400000D03*
X120800000Y-108000000D03*
X136000000Y-104800000D03*
X137900000Y-106875000D03*
X110150000Y-97100000D03*
X99400000Y-99000000D03*
X99300000Y-93400000D03*
X99000000Y-101325000D03*
X102500000Y-119000000D03*
X127400000Y-121100000D03*
X120300000Y-111900000D03*
X127400000Y-118600000D03*
X128300000Y-118600000D03*
X101900000Y-120600000D03*
X102500000Y-120600000D03*
X131900000Y-120600000D03*
X110050000Y-118300000D03*
X111350000Y-118350000D03*
X114000000Y-109700000D03*
X114600000Y-109700000D03*
X113950000Y-99200000D03*
X124200000Y-120050000D03*
X113900008Y-120350000D03*
X100800000Y-106625000D03*
X113597251Y-104583503D03*
X117000000Y-119000000D03*
X118700000Y-101600000D03*
X115299702Y-106527731D03*
X114400000Y-104499992D03*
X114400000Y-106500012D03*
X106400003Y-103950000D03*
X115600000Y-113750000D03*
X105600000Y-103950000D03*
X115600000Y-114950000D03*
X110300000Y-107150000D03*
X115600000Y-112550000D03*
X120800000Y-120850000D03*
X122783058Y-111633058D03*
X122746808Y-112496808D03*
X121949999Y-121000000D03*
X141000000Y-116600000D03*
X141300000Y-112900000D03*
X141000000Y-109200000D03*
X146200000Y-109100000D03*
X119631329Y-117569279D03*
X133400000Y-115950000D03*
X151700000Y-116700000D03*
X151200000Y-128700000D03*
X144500000Y-128700000D03*
X144500000Y-128000000D03*
X151200000Y-128000000D03*
X102100000Y-108800000D03*
X102000000Y-110300000D03*
X116000000Y-117600000D03*
X129750000Y-114500000D03*
X129050000Y-111350000D03*
X118867852Y-116116032D03*
X135900000Y-114400000D03*
X132600000Y-113300000D03*
X115950000Y-116650000D03*
X127600000Y-111400000D03*
X136300000Y-110000000D03*
X132600000Y-109700000D03*
X115650000Y-111250000D03*
X112600002Y-112800000D03*
X111500000Y-113550002D03*
X115600000Y-110000000D03*
X118741942Y-109191942D03*
X114950000Y-123662490D03*
X117600000Y-117350000D03*
X118600000Y-107400000D03*
X101000000Y-100000000D03*
X100900000Y-95900000D03*
X100900000Y-95100000D03*
X100900000Y-114900000D03*
X128250000Y-114300000D03*
X132250000Y-116050000D03*
X127550000Y-117500000D03*
X126200000Y-117500000D03*
X125300000Y-117500000D03*
X123824704Y-117475000D03*
X129900000Y-117500000D03*
X122760838Y-117485606D03*
D26*
X121800000Y-102800000D02*
X121800000Y-108900000D01*
X121800000Y-108900000D02*
X121800000Y-109000000D01*
X121800000Y-109000000D02*
X122500000Y-109700000D01*
X148850000Y-113150000D02*
X148700000Y-113000000D01*
X151950000Y-113150000D02*
X148850000Y-113150000D01*
X148200000Y-113500000D02*
X148700000Y-113000000D01*
X148200000Y-114000000D02*
X148200000Y-113500000D01*
X153425000Y-126300000D02*
X153125000Y-126000000D01*
X155000000Y-126300000D02*
X153425000Y-126300000D01*
X153125000Y-126000000D02*
X154700001Y-125999999D01*
X155000000Y-126300000D02*
X155000000Y-125700000D01*
X154600000Y-126000000D02*
X154700001Y-125999999D01*
X154700001Y-125999999D02*
X155000000Y-125700000D01*
X153425000Y-125700000D02*
X153125000Y-126000000D01*
X155000000Y-125700000D02*
X153425000Y-125700000D01*
X96875000Y-124000000D02*
X95000000Y-124000000D01*
X103125000Y-124000000D02*
X102000000Y-124000000D01*
X104750000Y-94250000D02*
X106950000Y-94250000D01*
X106950000Y-94250000D02*
X107000000Y-94300000D01*
D27*
X104750000Y-107750000D02*
X101050000Y-107750000D01*
X101050000Y-107750000D02*
X100800000Y-108000000D01*
D26*
X121840000Y-124075000D02*
X121840000Y-123060000D01*
X121840000Y-123060000D02*
X121900000Y-123000000D01*
X121665000Y-118050000D02*
X121665000Y-120065000D01*
X121665000Y-120065000D02*
X121700000Y-120100000D01*
X129800000Y-123514998D02*
X129800000Y-124200000D01*
X128800001Y-122514999D02*
X129800000Y-123514998D01*
X128800001Y-121299999D02*
X128800001Y-122514999D01*
X129100000Y-121000000D02*
X128800001Y-121299999D01*
X125165000Y-113375000D02*
X123725000Y-113375000D01*
X123725000Y-113375000D02*
X123700000Y-113400000D01*
X131109998Y-113349998D02*
X130124264Y-113349998D01*
X130124264Y-113349998D02*
X129700000Y-113349998D01*
X131135000Y-113375000D02*
X131109998Y-113349998D01*
D28*
X124600000Y-106800000D02*
X124600000Y-105990000D01*
D26*
X104000000Y-124000000D02*
X103125000Y-124000000D01*
X104800000Y-125000000D02*
X104000000Y-124000000D01*
X133160000Y-123063613D02*
X133160000Y-123850000D01*
X133875000Y-122250000D02*
X133160000Y-123063613D01*
X148725000Y-111150000D02*
X148700000Y-111125000D01*
X151950000Y-111150000D02*
X148725000Y-111150000D01*
X148700000Y-111125000D02*
X148700000Y-111100000D01*
X148700000Y-111100000D02*
X149600000Y-110200000D01*
X148700000Y-111125000D02*
X148700000Y-110500000D01*
X148700000Y-110500000D02*
X149000000Y-110200000D01*
X149000000Y-110200000D02*
X149600000Y-110200000D01*
X96875000Y-122000000D02*
X95000000Y-122000000D01*
X119800000Y-108475000D02*
X120225000Y-108900000D01*
X119800000Y-102800000D02*
X119800000Y-108475000D01*
X120225000Y-108900000D02*
X120225000Y-108575000D01*
X120225000Y-108575000D02*
X120800000Y-108000000D01*
X103250000Y-115750000D02*
X102600000Y-116400000D01*
X104750000Y-115750000D02*
X103250000Y-115750000D01*
X127400000Y-124000000D02*
X127600000Y-124200000D01*
X127400000Y-121100000D02*
X127400000Y-124000000D01*
X119600000Y-112725000D02*
X119600000Y-112600000D01*
X119600000Y-112600000D02*
X120300000Y-111900000D01*
X103125000Y-122000000D02*
X103125000Y-121825000D01*
X103125000Y-121825000D02*
X101900000Y-120600000D01*
X101900000Y-120600000D02*
X102500000Y-120600000D01*
X102500000Y-120600000D02*
X103300000Y-121400000D01*
D28*
X110100000Y-119200000D02*
X110100000Y-118350000D01*
X110100000Y-118350000D02*
X110050000Y-118300000D01*
X111900000Y-119200000D02*
X111900000Y-118900000D01*
X111900000Y-118900000D02*
X111350000Y-118350000D01*
X113297252Y-104883502D02*
X113597251Y-104583503D01*
X113297252Y-106322266D02*
X113297252Y-104883502D01*
X116800000Y-118800000D02*
X116800000Y-109563590D01*
X117000000Y-119000000D02*
X116800000Y-118800000D01*
X116800000Y-109563590D02*
X114386392Y-107149982D01*
X114386392Y-107149982D02*
X114124967Y-107149981D01*
X114124967Y-107149981D02*
X113297252Y-106322266D01*
X118700000Y-101600000D02*
X118236810Y-101600000D01*
X115299702Y-104537108D02*
X115299702Y-106103467D01*
X115299702Y-106103467D02*
X115299702Y-106527731D01*
X118236810Y-101600000D02*
X115299702Y-104537108D01*
X114400000Y-104499992D02*
X114400000Y-106500012D01*
X112500000Y-108250000D02*
X113300000Y-109050000D01*
X106400003Y-105600003D02*
X107574999Y-106774999D01*
X106400003Y-103950000D02*
X106400003Y-105600003D01*
X108524999Y-106774999D02*
X110000000Y-108250000D01*
X110000000Y-108250000D02*
X112500000Y-108250000D01*
X107574999Y-106774999D02*
X108524999Y-106774999D01*
X115175736Y-113750000D02*
X113300000Y-111874264D01*
X113300000Y-111874264D02*
X113300000Y-109050000D01*
X115600000Y-113750000D02*
X115175736Y-113750000D01*
X105600000Y-105436410D02*
X105600000Y-103950000D01*
X107438565Y-107274975D02*
X105600000Y-105436410D01*
X108174975Y-107274975D02*
X107438565Y-107274975D01*
X110500000Y-109600000D02*
X108174975Y-107274975D01*
X110500000Y-110750000D02*
X110500000Y-109600000D01*
X113150000Y-112500000D02*
X113150000Y-112360674D01*
X115600000Y-114950000D02*
X113150000Y-112500000D01*
X113150000Y-112360674D02*
X112714327Y-111925001D01*
X112714327Y-111925001D02*
X111675001Y-111925001D01*
X111675001Y-111925001D02*
X110500000Y-110750000D01*
X116275001Y-111874999D02*
X115600000Y-112550000D01*
X110300000Y-107050000D02*
X110849991Y-107599991D01*
X110300000Y-107150000D02*
X110300000Y-107050000D01*
X110849991Y-107599991D02*
X114199991Y-107599991D01*
X116275001Y-109675001D02*
X116275001Y-111874999D01*
X114199991Y-107599991D02*
X116275001Y-109675001D01*
X144500000Y-120100000D02*
X141000000Y-116600000D01*
X144500000Y-123250000D02*
X144500000Y-120100000D01*
X146875000Y-124000000D02*
X145250000Y-124000000D01*
X145250000Y-124000000D02*
X144500000Y-123250000D01*
X145250000Y-116850000D02*
X141300000Y-112900000D01*
X145250000Y-121250000D02*
X145250000Y-116850000D01*
X146875000Y-122000000D02*
X146000000Y-122000000D01*
X146000000Y-122000000D02*
X145250000Y-121250000D01*
X146849990Y-115049990D02*
X141000000Y-109200000D01*
X146849990Y-119349990D02*
X146849990Y-115049990D01*
X153125000Y-124000000D02*
X151500000Y-124000000D01*
X151500000Y-124000000D02*
X146849990Y-119349990D01*
X147300000Y-110200000D02*
X146200000Y-109100000D01*
X147300000Y-117800000D02*
X147300000Y-110200000D01*
X153125000Y-122000000D02*
X151500000Y-122000000D01*
X151500000Y-122000000D02*
X147300000Y-117800000D01*
X132674999Y-116675001D02*
X133400000Y-115950000D01*
X119631329Y-117569279D02*
X120525607Y-116675001D01*
X120525607Y-116675001D02*
X132674999Y-116675001D01*
D27*
X155000000Y-110450000D02*
X155000000Y-113400000D01*
X156800000Y-126700000D02*
X156800000Y-119100000D01*
X156800000Y-119100000D02*
X154400000Y-116700000D01*
X153125000Y-128000000D02*
X155500000Y-128000000D01*
X155500000Y-128000000D02*
X156800000Y-126700000D01*
X154400000Y-116700000D02*
X153300000Y-116700000D01*
X153300000Y-116700000D02*
X151700000Y-116700000D01*
X153300000Y-115100000D02*
X154400000Y-114000000D01*
X153300000Y-116700000D02*
X153300000Y-115100000D01*
X155000000Y-113400000D02*
X154400000Y-114000000D01*
X153125000Y-128000000D02*
X151900000Y-128000000D01*
X151900000Y-128000000D02*
X151200000Y-128700000D01*
X151200000Y-128000000D02*
X153125000Y-128000000D01*
X151200000Y-128700000D02*
X156000000Y-128700000D01*
X156000000Y-128700000D02*
X157500000Y-127200000D01*
X157500000Y-127200000D02*
X157500000Y-119000000D01*
X154400000Y-115900000D02*
X154400000Y-114000000D01*
X157500000Y-119000000D02*
X154400000Y-115900000D01*
X153800000Y-114600000D02*
X153800000Y-116200000D01*
X153800000Y-114600000D02*
X151700000Y-116700000D01*
X154400000Y-114000000D02*
X153800000Y-114600000D01*
X155200001Y-105100001D02*
X154400000Y-104300000D01*
X155200001Y-110249999D02*
X155200001Y-105100001D01*
X155000000Y-110450000D02*
X155200001Y-110249999D01*
X154300000Y-104400000D02*
X154400000Y-104300000D01*
X152937500Y-104400000D02*
X154300000Y-104400000D01*
D28*
X103550000Y-110250000D02*
X104250000Y-110250000D01*
X104250000Y-110250000D02*
X104750000Y-109750000D01*
X102100000Y-108800000D02*
X103550000Y-110250000D01*
X103450000Y-111750000D02*
X104750000Y-111750000D01*
X102000000Y-110300000D02*
X103450000Y-111750000D01*
X111900000Y-121212500D02*
X111900000Y-120775000D01*
X104200000Y-128000000D02*
X109750000Y-122450000D01*
X103125000Y-128000000D02*
X104200000Y-128000000D01*
X109750000Y-122450000D02*
X111300000Y-122450000D01*
X111900000Y-121850000D02*
X111900000Y-120775000D01*
X111300000Y-122450000D02*
X111900000Y-121850000D01*
X115725006Y-117600000D02*
X116000000Y-117600000D01*
X111900000Y-120775000D02*
X112550006Y-120775000D01*
X112550006Y-120775000D02*
X115725006Y-117600000D01*
X129800000Y-110475000D02*
X129800000Y-110600000D01*
X129800000Y-110600000D02*
X129050000Y-111350000D01*
X128133968Y-116116032D02*
X129750000Y-114500000D01*
X118867852Y-116116032D02*
X128133968Y-116116032D01*
X146000000Y-128000000D02*
X146875000Y-128000000D01*
X135900000Y-114400000D02*
X135900000Y-117900000D01*
X135900000Y-117900000D02*
X146000000Y-128000000D01*
X132600000Y-112875736D02*
X132600000Y-113300000D01*
X125800000Y-110912500D02*
X127087500Y-112200000D01*
X125800000Y-110475000D02*
X125800000Y-110912500D01*
X132600000Y-112500000D02*
X132600000Y-112875736D01*
X127087500Y-112200000D02*
X132300000Y-112200000D01*
X132300000Y-112200000D02*
X132600000Y-112500000D01*
X105312500Y-126000000D02*
X110100000Y-121212500D01*
X110100000Y-121212500D02*
X110100000Y-120775000D01*
X103125000Y-126000000D02*
X105312500Y-126000000D01*
X115800000Y-116650000D02*
X115950000Y-116650000D01*
X112437510Y-120012490D02*
X115800000Y-116650000D01*
X110100000Y-120775000D02*
X110100000Y-120337500D01*
X110425010Y-120012490D02*
X112437510Y-120012490D01*
X110100000Y-120337500D02*
X110425010Y-120012490D01*
X127800000Y-110475000D02*
X127800000Y-111200000D01*
X127800000Y-111200000D02*
X127600000Y-111400000D01*
X140074999Y-120824999D02*
X140074999Y-113774999D01*
X140074999Y-113774999D02*
X136300000Y-110000000D01*
X146875000Y-126000000D02*
X145250000Y-126000000D01*
X145250000Y-126000000D02*
X140074999Y-120824999D01*
X124137500Y-109700000D02*
X132600000Y-109700000D01*
X123800000Y-110475000D02*
X123800000Y-110037500D01*
X123800000Y-110037500D02*
X124137500Y-109700000D01*
X111025736Y-112800000D02*
X112600002Y-112800000D01*
X106400736Y-117425000D02*
X111025736Y-112800000D01*
X98500000Y-126000000D02*
X99400000Y-125100000D01*
X96875000Y-126000000D02*
X98500000Y-126000000D01*
X99400000Y-125100000D02*
X99400000Y-121174998D01*
X99400000Y-121174998D02*
X103149997Y-117425001D01*
X103149997Y-117425001D02*
X106400736Y-117425000D01*
X111200001Y-113850001D02*
X111500000Y-113550002D01*
X107174991Y-117875011D02*
X111200001Y-113850001D01*
X104999987Y-117875011D02*
X107174991Y-117875011D01*
X103249997Y-119625001D02*
X104999987Y-117875011D01*
X98000000Y-128000000D02*
X100000000Y-126000000D01*
X96875000Y-128000000D02*
X98000000Y-128000000D01*
X100000000Y-126000000D02*
X100000000Y-121574998D01*
X100000000Y-121574998D02*
X101949997Y-119625001D01*
X101949997Y-119625001D02*
X103249997Y-119625001D01*
X118225001Y-118700001D02*
X118225001Y-109708883D01*
X118225001Y-109708883D02*
X118741942Y-109191942D01*
X114950000Y-123662490D02*
X114950000Y-121975002D01*
X114950000Y-121975002D02*
X118225001Y-118700001D01*
X117600000Y-117350000D02*
X117600000Y-109450000D01*
X117600000Y-109450000D02*
X118600000Y-108450000D01*
X118600000Y-108450000D02*
X118600000Y-107400000D01*
X104750000Y-100250000D02*
X101250000Y-100250000D01*
X101250000Y-100250000D02*
X101000000Y-100000000D01*
X103250000Y-98250000D02*
X104750000Y-98250000D01*
X100900000Y-95900000D02*
X103250000Y-98250000D01*
X103350000Y-96250000D02*
X104750000Y-96250000D01*
X100900000Y-95100000D02*
X102200000Y-95100000D01*
X102200000Y-95100000D02*
X103350000Y-96250000D01*
X102050000Y-113750000D02*
X104750000Y-113750000D01*
X100900000Y-114900000D02*
X102050000Y-113750000D01*
X129800000Y-102800000D02*
X129800000Y-108900000D01*
X127800000Y-108900000D02*
X127325000Y-108900000D01*
X127174999Y-108749999D02*
X127174999Y-106225001D01*
X127325000Y-108900000D02*
X127174999Y-108749999D01*
X127800000Y-105600000D02*
X127800000Y-102800000D01*
X127174999Y-106225001D02*
X127800000Y-105600000D01*
X125800000Y-108462500D02*
X125800000Y-102800000D01*
X125800000Y-108900000D02*
X125800000Y-108462500D01*
X123800000Y-108800000D02*
X123800000Y-102800000D01*
D26*
X121615000Y-114300000D02*
X121665000Y-114350000D01*
X119600000Y-114300000D02*
X121615000Y-114300000D01*
D28*
X122515000Y-115100000D02*
X127450000Y-115100000D01*
X127450000Y-115100000D02*
X128250000Y-114300000D01*
X121665000Y-114350000D02*
X121765000Y-114350000D01*
X121765000Y-114350000D02*
X122515000Y-115100000D01*
X128000000Y-117950000D02*
X127550000Y-117500000D01*
X130900000Y-121875002D02*
X129725001Y-120700003D01*
X129725001Y-118299999D02*
X129375002Y-117950000D01*
X130900000Y-124200000D02*
X130900000Y-121875002D01*
X129725001Y-120700003D02*
X129725001Y-118299999D01*
X129375002Y-117950000D02*
X128000000Y-117950000D01*
X126774999Y-118074999D02*
X126200000Y-117500000D01*
X128700000Y-123228184D02*
X128224991Y-122753175D01*
X128224991Y-120349993D02*
X126774999Y-118900001D01*
X128700000Y-124200000D02*
X128700000Y-123228184D01*
X128224991Y-122753175D02*
X128224991Y-120349993D01*
X126774999Y-118900001D02*
X126774999Y-118074999D01*
X126500000Y-124200000D02*
X126500000Y-123400000D01*
X125599999Y-117799999D02*
X125300000Y-117500000D01*
X126300000Y-118500000D02*
X125599999Y-117799999D01*
X126300000Y-123200000D02*
X126300000Y-118500000D01*
X126500000Y-123400000D02*
X126300000Y-123200000D01*
X125400000Y-119115743D02*
X125400000Y-124200000D01*
X123824704Y-117475000D02*
X125400000Y-119115743D01*
X131950000Y-124200000D02*
X131950000Y-121475002D01*
X130199999Y-117799999D02*
X129900000Y-117500000D01*
X131175001Y-118775001D02*
X130199999Y-117799999D01*
X131175001Y-120800003D02*
X131175001Y-118775001D01*
X131850000Y-121475002D02*
X131175001Y-120800003D01*
X131950000Y-121475002D02*
X131850000Y-121475002D01*
X124300000Y-124075000D02*
X122574999Y-122349999D01*
X124300000Y-124200000D02*
X124300000Y-124075000D01*
X122574999Y-122349999D02*
X122574999Y-119749999D01*
X122574999Y-119749999D02*
X122760838Y-119564160D01*
X122760838Y-119564160D02*
X122760838Y-117485606D01*
D27*
X150150000Y-109150000D02*
X151950000Y-109150000D01*
X149500000Y-108500000D02*
X150150000Y-109150000D01*
X149500000Y-106300000D02*
X149500000Y-108500000D01*
X151100000Y-104300000D02*
X151100000Y-104700000D01*
X151100000Y-104700000D02*
X149500000Y-106300000D01*
M02*
