G04 #@! TF.GenerationSoftware,KiCad,Pcbnew,(5.1.5)-3*
G04 #@! TF.CreationDate,2020-08-05T22:49:10+02:00*
G04 #@! TF.ProjectId,Controller,436f6e74-726f-46c6-9c65-722e6b696361,rev?*
G04 #@! TF.SameCoordinates,Original*
G04 #@! TF.FileFunction,Soldermask,Top*
G04 #@! TF.FilePolarity,Negative*
%FSLAX46Y46*%
G04 Gerber Fmt 4.6, Leading zero omitted, Abs format (unit mm)*
G04 Created by KiCad (PCBNEW (5.1.5)-3) date 2020-08-05 22:49:10*
%MOMM*%
%LPD*%
G04 APERTURE LIST*
%ADD10C,0.100000*%
G04 APERTURE END LIST*
D10*
G36*
X159329828Y-127802718D02*
G01*
X159357872Y-127811226D01*
X159383718Y-127825041D01*
X159406370Y-127843630D01*
X159424959Y-127866282D01*
X159438774Y-127892128D01*
X159447282Y-127920172D01*
X159451000Y-127957927D01*
X159451000Y-129242073D01*
X159447282Y-129279828D01*
X159438774Y-129307872D01*
X159424959Y-129333718D01*
X159406370Y-129356370D01*
X159383718Y-129374959D01*
X159357872Y-129388774D01*
X159329828Y-129397282D01*
X159292073Y-129401000D01*
X156107927Y-129401000D01*
X156070172Y-129397282D01*
X156042128Y-129388774D01*
X156016282Y-129374959D01*
X155993630Y-129356370D01*
X155975041Y-129333718D01*
X155961226Y-129307872D01*
X155952718Y-129279828D01*
X155949000Y-129242073D01*
X155949000Y-127957927D01*
X155952718Y-127920172D01*
X155961226Y-127892128D01*
X155975041Y-127866282D01*
X155993630Y-127843630D01*
X156016282Y-127825041D01*
X156042128Y-127811226D01*
X156070172Y-127802718D01*
X156107927Y-127799000D01*
X159292073Y-127799000D01*
X159329828Y-127802718D01*
G37*
G36*
X128704539Y-127965822D02*
G01*
X128738481Y-127976118D01*
X128769754Y-127992834D01*
X128797168Y-128015332D01*
X128819666Y-128042746D01*
X128836382Y-128074019D01*
X128846678Y-128107961D01*
X128851000Y-128151844D01*
X128851000Y-128848156D01*
X128846678Y-128892039D01*
X128836382Y-128925981D01*
X128819666Y-128957254D01*
X128797168Y-128984668D01*
X128769754Y-129007166D01*
X128738481Y-129023882D01*
X128704539Y-129034178D01*
X128660656Y-129038500D01*
X127539344Y-129038500D01*
X127495461Y-129034178D01*
X127461519Y-129023882D01*
X127430246Y-129007166D01*
X127402832Y-128984668D01*
X127380334Y-128957254D01*
X127363618Y-128925981D01*
X127353322Y-128892039D01*
X127349000Y-128848156D01*
X127349000Y-128151844D01*
X127353322Y-128107961D01*
X127363618Y-128074019D01*
X127380334Y-128042746D01*
X127402832Y-128015332D01*
X127430246Y-127992834D01*
X127461519Y-127976118D01*
X127495461Y-127965822D01*
X127539344Y-127961500D01*
X128660656Y-127961500D01*
X128704539Y-127965822D01*
G37*
G36*
X104851000Y-128951000D02*
G01*
X103199000Y-128951000D01*
X103199000Y-127549000D01*
X104851000Y-127549000D01*
X104851000Y-128951000D01*
G37*
G36*
X112801000Y-128951000D02*
G01*
X111149000Y-128951000D01*
X111149000Y-127549000D01*
X112801000Y-127549000D01*
X112801000Y-128951000D01*
G37*
G36*
X126801000Y-128951000D02*
G01*
X125149000Y-128951000D01*
X125149000Y-127549000D01*
X126801000Y-127549000D01*
X126801000Y-128951000D01*
G37*
G36*
X118851000Y-128951000D02*
G01*
X117199000Y-128951000D01*
X117199000Y-127549000D01*
X118851000Y-127549000D01*
X118851000Y-128951000D01*
G37*
G36*
X137437164Y-127877841D02*
G01*
X137466412Y-127886714D01*
X137493365Y-127901121D01*
X137516990Y-127920510D01*
X137536379Y-127944135D01*
X137550786Y-127971088D01*
X137559659Y-128000336D01*
X137563500Y-128039342D01*
X137563500Y-128760658D01*
X137559659Y-128799664D01*
X137550786Y-128828912D01*
X137536379Y-128855865D01*
X137516990Y-128879490D01*
X137493365Y-128898879D01*
X137466412Y-128913286D01*
X137437164Y-128922159D01*
X137398158Y-128926000D01*
X136751842Y-128926000D01*
X136712836Y-128922159D01*
X136683588Y-128913286D01*
X136656635Y-128898879D01*
X136633010Y-128879490D01*
X136613621Y-128855865D01*
X136599214Y-128828912D01*
X136590341Y-128799664D01*
X136586500Y-128760658D01*
X136586500Y-128039342D01*
X136590341Y-128000336D01*
X136599214Y-127971088D01*
X136613621Y-127944135D01*
X136633010Y-127920510D01*
X136656635Y-127901121D01*
X136683588Y-127886714D01*
X136712836Y-127877841D01*
X136751842Y-127874000D01*
X137398158Y-127874000D01*
X137437164Y-127877841D01*
G37*
G36*
X135862164Y-127877841D02*
G01*
X135891412Y-127886714D01*
X135918365Y-127901121D01*
X135941990Y-127920510D01*
X135961379Y-127944135D01*
X135975786Y-127971088D01*
X135984659Y-128000336D01*
X135988500Y-128039342D01*
X135988500Y-128760658D01*
X135984659Y-128799664D01*
X135975786Y-128828912D01*
X135961379Y-128855865D01*
X135941990Y-128879490D01*
X135918365Y-128898879D01*
X135891412Y-128913286D01*
X135862164Y-128922159D01*
X135823158Y-128926000D01*
X135176842Y-128926000D01*
X135137836Y-128922159D01*
X135108588Y-128913286D01*
X135081635Y-128898879D01*
X135058010Y-128879490D01*
X135038621Y-128855865D01*
X135024214Y-128828912D01*
X135015341Y-128799664D01*
X135011500Y-128760658D01*
X135011500Y-128039342D01*
X135015341Y-128000336D01*
X135024214Y-127971088D01*
X135038621Y-127944135D01*
X135058010Y-127920510D01*
X135081635Y-127901121D01*
X135108588Y-127886714D01*
X135137836Y-127877841D01*
X135176842Y-127874000D01*
X135823158Y-127874000D01*
X135862164Y-127877841D01*
G37*
G36*
X142492703Y-127528009D02*
G01*
X142523571Y-127537372D01*
X142552022Y-127552580D01*
X142576957Y-127573043D01*
X142597420Y-127597978D01*
X142612628Y-127626429D01*
X142621991Y-127657297D01*
X142626000Y-127697995D01*
X142626000Y-128702005D01*
X142621991Y-128742703D01*
X142612628Y-128773571D01*
X142597420Y-128802022D01*
X142576957Y-128826957D01*
X142552022Y-128847420D01*
X142523571Y-128862628D01*
X142492703Y-128871991D01*
X142452005Y-128876000D01*
X140947995Y-128876000D01*
X140907297Y-128871991D01*
X140876429Y-128862628D01*
X140847978Y-128847420D01*
X140823043Y-128826957D01*
X140802580Y-128802022D01*
X140787372Y-128773571D01*
X140778009Y-128742703D01*
X140774000Y-128702005D01*
X140774000Y-127697995D01*
X140778009Y-127657297D01*
X140787372Y-127626429D01*
X140802580Y-127597978D01*
X140823043Y-127573043D01*
X140847978Y-127552580D01*
X140876429Y-127537372D01*
X140907297Y-127528009D01*
X140947995Y-127524000D01*
X142452005Y-127524000D01*
X142492703Y-127528009D01*
G37*
G36*
X140192703Y-127528009D02*
G01*
X140223571Y-127537372D01*
X140252022Y-127552580D01*
X140276957Y-127573043D01*
X140297420Y-127597978D01*
X140312628Y-127626429D01*
X140321991Y-127657297D01*
X140326000Y-127697995D01*
X140326000Y-128702005D01*
X140321991Y-128742703D01*
X140312628Y-128773571D01*
X140297420Y-128802022D01*
X140276957Y-128826957D01*
X140252022Y-128847420D01*
X140223571Y-128862628D01*
X140192703Y-128871991D01*
X140152005Y-128876000D01*
X138647995Y-128876000D01*
X138607297Y-128871991D01*
X138576429Y-128862628D01*
X138547978Y-128847420D01*
X138523043Y-128826957D01*
X138502580Y-128802022D01*
X138487372Y-128773571D01*
X138478009Y-128742703D01*
X138474000Y-128702005D01*
X138474000Y-127697995D01*
X138478009Y-127657297D01*
X138487372Y-127626429D01*
X138502580Y-127597978D01*
X138523043Y-127573043D01*
X138547978Y-127552580D01*
X138576429Y-127537372D01*
X138607297Y-127528009D01*
X138647995Y-127524000D01*
X140152005Y-127524000D01*
X140192703Y-127528009D01*
G37*
G36*
X149037164Y-127777841D02*
G01*
X149066412Y-127786714D01*
X149093365Y-127801121D01*
X149116990Y-127820510D01*
X149136379Y-127844135D01*
X149150786Y-127871088D01*
X149159659Y-127900336D01*
X149163500Y-127939342D01*
X149163500Y-128660658D01*
X149159659Y-128699664D01*
X149150786Y-128728912D01*
X149136379Y-128755865D01*
X149116990Y-128779490D01*
X149093365Y-128798879D01*
X149066412Y-128813286D01*
X149037164Y-128822159D01*
X148998158Y-128826000D01*
X148351842Y-128826000D01*
X148312836Y-128822159D01*
X148283588Y-128813286D01*
X148256635Y-128798879D01*
X148233010Y-128779490D01*
X148213621Y-128755865D01*
X148199214Y-128728912D01*
X148190341Y-128699664D01*
X148186500Y-128660658D01*
X148186500Y-127939342D01*
X148190341Y-127900336D01*
X148199214Y-127871088D01*
X148213621Y-127844135D01*
X148233010Y-127820510D01*
X148256635Y-127801121D01*
X148283588Y-127786714D01*
X148312836Y-127777841D01*
X148351842Y-127774000D01*
X148998158Y-127774000D01*
X149037164Y-127777841D01*
G37*
G36*
X147462164Y-127777841D02*
G01*
X147491412Y-127786714D01*
X147518365Y-127801121D01*
X147541990Y-127820510D01*
X147561379Y-127844135D01*
X147575786Y-127871088D01*
X147584659Y-127900336D01*
X147588500Y-127939342D01*
X147588500Y-128660658D01*
X147584659Y-128699664D01*
X147575786Y-128728912D01*
X147561379Y-128755865D01*
X147541990Y-128779490D01*
X147518365Y-128798879D01*
X147491412Y-128813286D01*
X147462164Y-128822159D01*
X147423158Y-128826000D01*
X146776842Y-128826000D01*
X146737836Y-128822159D01*
X146708588Y-128813286D01*
X146681635Y-128798879D01*
X146658010Y-128779490D01*
X146638621Y-128755865D01*
X146624214Y-128728912D01*
X146615341Y-128699664D01*
X146611500Y-128660658D01*
X146611500Y-127939342D01*
X146615341Y-127900336D01*
X146624214Y-127871088D01*
X146638621Y-127844135D01*
X146658010Y-127820510D01*
X146681635Y-127801121D01*
X146708588Y-127786714D01*
X146737836Y-127777841D01*
X146776842Y-127774000D01*
X147423158Y-127774000D01*
X147462164Y-127777841D01*
G37*
G36*
X145887164Y-127777841D02*
G01*
X145916412Y-127786714D01*
X145943365Y-127801121D01*
X145966990Y-127820510D01*
X145986379Y-127844135D01*
X146000786Y-127871088D01*
X146009659Y-127900336D01*
X146013500Y-127939342D01*
X146013500Y-128660658D01*
X146009659Y-128699664D01*
X146000786Y-128728912D01*
X145986379Y-128755865D01*
X145966990Y-128779490D01*
X145943365Y-128798879D01*
X145916412Y-128813286D01*
X145887164Y-128822159D01*
X145848158Y-128826000D01*
X145201842Y-128826000D01*
X145162836Y-128822159D01*
X145133588Y-128813286D01*
X145106635Y-128798879D01*
X145083010Y-128779490D01*
X145063621Y-128755865D01*
X145049214Y-128728912D01*
X145040341Y-128699664D01*
X145036500Y-128660658D01*
X145036500Y-127939342D01*
X145040341Y-127900336D01*
X145049214Y-127871088D01*
X145063621Y-127844135D01*
X145083010Y-127820510D01*
X145106635Y-127801121D01*
X145133588Y-127786714D01*
X145162836Y-127777841D01*
X145201842Y-127774000D01*
X145848158Y-127774000D01*
X145887164Y-127777841D01*
G37*
G36*
X94029828Y-127102718D02*
G01*
X94057872Y-127111226D01*
X94083718Y-127125041D01*
X94106370Y-127143630D01*
X94124959Y-127166282D01*
X94138774Y-127192128D01*
X94147282Y-127220172D01*
X94151000Y-127257927D01*
X94151000Y-128542073D01*
X94147282Y-128579828D01*
X94138774Y-128607872D01*
X94124959Y-128633718D01*
X94106370Y-128656370D01*
X94083718Y-128674959D01*
X94057872Y-128688774D01*
X94029828Y-128697282D01*
X93992073Y-128701000D01*
X90807927Y-128701000D01*
X90770172Y-128697282D01*
X90742128Y-128688774D01*
X90716282Y-128674959D01*
X90693630Y-128656370D01*
X90675041Y-128633718D01*
X90661226Y-128607872D01*
X90652718Y-128579828D01*
X90649000Y-128542073D01*
X90649000Y-127257927D01*
X90652718Y-127220172D01*
X90661226Y-127192128D01*
X90675041Y-127166282D01*
X90693630Y-127143630D01*
X90716282Y-127125041D01*
X90742128Y-127111226D01*
X90770172Y-127102718D01*
X90807927Y-127099000D01*
X93992073Y-127099000D01*
X94029828Y-127102718D01*
G37*
G36*
X102367039Y-126553322D02*
G01*
X102400981Y-126563618D01*
X102432254Y-126580334D01*
X102459668Y-126602832D01*
X102482166Y-126630246D01*
X102498882Y-126661519D01*
X102509178Y-126695461D01*
X102513500Y-126739344D01*
X102513500Y-127860656D01*
X102509178Y-127904539D01*
X102498882Y-127938481D01*
X102482166Y-127969754D01*
X102459668Y-127997168D01*
X102432254Y-128019666D01*
X102400981Y-128036382D01*
X102367039Y-128046678D01*
X102323156Y-128051000D01*
X101626844Y-128051000D01*
X101582961Y-128046678D01*
X101549019Y-128036382D01*
X101517746Y-128019666D01*
X101490332Y-127997168D01*
X101467834Y-127969754D01*
X101451118Y-127938481D01*
X101440822Y-127904539D01*
X101436500Y-127860656D01*
X101436500Y-126739344D01*
X101440822Y-126695461D01*
X101451118Y-126661519D01*
X101467834Y-126630246D01*
X101490332Y-126602832D01*
X101517746Y-126580334D01*
X101549019Y-126563618D01*
X101582961Y-126553322D01*
X101626844Y-126549000D01*
X102323156Y-126549000D01*
X102367039Y-126553322D01*
G37*
G36*
X100492039Y-126553322D02*
G01*
X100525981Y-126563618D01*
X100557254Y-126580334D01*
X100584668Y-126602832D01*
X100607166Y-126630246D01*
X100623882Y-126661519D01*
X100634178Y-126695461D01*
X100638500Y-126739344D01*
X100638500Y-127860656D01*
X100634178Y-127904539D01*
X100623882Y-127938481D01*
X100607166Y-127969754D01*
X100584668Y-127997168D01*
X100557254Y-128019666D01*
X100525981Y-128036382D01*
X100492039Y-128046678D01*
X100448156Y-128051000D01*
X99751844Y-128051000D01*
X99707961Y-128046678D01*
X99674019Y-128036382D01*
X99642746Y-128019666D01*
X99615332Y-127997168D01*
X99592834Y-127969754D01*
X99576118Y-127938481D01*
X99565822Y-127904539D01*
X99561500Y-127860656D01*
X99561500Y-126739344D01*
X99565822Y-126695461D01*
X99576118Y-126661519D01*
X99592834Y-126630246D01*
X99615332Y-126602832D01*
X99642746Y-126580334D01*
X99674019Y-126563618D01*
X99707961Y-126553322D01*
X99751844Y-126549000D01*
X100448156Y-126549000D01*
X100492039Y-126553322D01*
G37*
G36*
X137462164Y-126277841D02*
G01*
X137491412Y-126286714D01*
X137518365Y-126301121D01*
X137541990Y-126320510D01*
X137561379Y-126344135D01*
X137575786Y-126371088D01*
X137584659Y-126400336D01*
X137588500Y-126439342D01*
X137588500Y-127160658D01*
X137584659Y-127199664D01*
X137575786Y-127228912D01*
X137561379Y-127255865D01*
X137541990Y-127279490D01*
X137518365Y-127298879D01*
X137491412Y-127313286D01*
X137462164Y-127322159D01*
X137423158Y-127326000D01*
X136776842Y-127326000D01*
X136737836Y-127322159D01*
X136708588Y-127313286D01*
X136681635Y-127298879D01*
X136658010Y-127279490D01*
X136638621Y-127255865D01*
X136624214Y-127228912D01*
X136615341Y-127199664D01*
X136611500Y-127160658D01*
X136611500Y-126439342D01*
X136615341Y-126400336D01*
X136624214Y-126371088D01*
X136638621Y-126344135D01*
X136658010Y-126320510D01*
X136681635Y-126301121D01*
X136708588Y-126286714D01*
X136737836Y-126277841D01*
X136776842Y-126274000D01*
X137423158Y-126274000D01*
X137462164Y-126277841D01*
G37*
G36*
X134362164Y-126277841D02*
G01*
X134391412Y-126286714D01*
X134418365Y-126301121D01*
X134441990Y-126320510D01*
X134461379Y-126344135D01*
X134475786Y-126371088D01*
X134484659Y-126400336D01*
X134488500Y-126439342D01*
X134488500Y-127160658D01*
X134484659Y-127199664D01*
X134475786Y-127228912D01*
X134461379Y-127255865D01*
X134441990Y-127279490D01*
X134418365Y-127298879D01*
X134391412Y-127313286D01*
X134362164Y-127322159D01*
X134323158Y-127326000D01*
X133676842Y-127326000D01*
X133637836Y-127322159D01*
X133608588Y-127313286D01*
X133581635Y-127298879D01*
X133558010Y-127279490D01*
X133538621Y-127255865D01*
X133524214Y-127228912D01*
X133515341Y-127199664D01*
X133511500Y-127160658D01*
X133511500Y-126439342D01*
X133515341Y-126400336D01*
X133524214Y-126371088D01*
X133538621Y-126344135D01*
X133558010Y-126320510D01*
X133581635Y-126301121D01*
X133608588Y-126286714D01*
X133637836Y-126277841D01*
X133676842Y-126274000D01*
X134323158Y-126274000D01*
X134362164Y-126277841D01*
G37*
G36*
X135887164Y-126277841D02*
G01*
X135916412Y-126286714D01*
X135943365Y-126301121D01*
X135966990Y-126320510D01*
X135986379Y-126344135D01*
X136000786Y-126371088D01*
X136009659Y-126400336D01*
X136013500Y-126439342D01*
X136013500Y-127160658D01*
X136009659Y-127199664D01*
X136000786Y-127228912D01*
X135986379Y-127255865D01*
X135966990Y-127279490D01*
X135943365Y-127298879D01*
X135916412Y-127313286D01*
X135887164Y-127322159D01*
X135848158Y-127326000D01*
X135201842Y-127326000D01*
X135162836Y-127322159D01*
X135133588Y-127313286D01*
X135106635Y-127298879D01*
X135083010Y-127279490D01*
X135063621Y-127255865D01*
X135049214Y-127228912D01*
X135040341Y-127199664D01*
X135036500Y-127160658D01*
X135036500Y-126439342D01*
X135040341Y-126400336D01*
X135049214Y-126371088D01*
X135063621Y-126344135D01*
X135083010Y-126320510D01*
X135106635Y-126301121D01*
X135133588Y-126286714D01*
X135162836Y-126277841D01*
X135201842Y-126274000D01*
X135848158Y-126274000D01*
X135887164Y-126277841D01*
G37*
G36*
X132787164Y-126277841D02*
G01*
X132816412Y-126286714D01*
X132843365Y-126301121D01*
X132866990Y-126320510D01*
X132886379Y-126344135D01*
X132900786Y-126371088D01*
X132909659Y-126400336D01*
X132913500Y-126439342D01*
X132913500Y-127160658D01*
X132909659Y-127199664D01*
X132900786Y-127228912D01*
X132886379Y-127255865D01*
X132866990Y-127279490D01*
X132843365Y-127298879D01*
X132816412Y-127313286D01*
X132787164Y-127322159D01*
X132748158Y-127326000D01*
X132101842Y-127326000D01*
X132062836Y-127322159D01*
X132033588Y-127313286D01*
X132006635Y-127298879D01*
X131983010Y-127279490D01*
X131963621Y-127255865D01*
X131949214Y-127228912D01*
X131940341Y-127199664D01*
X131936500Y-127160658D01*
X131936500Y-126439342D01*
X131940341Y-126400336D01*
X131949214Y-126371088D01*
X131963621Y-126344135D01*
X131983010Y-126320510D01*
X132006635Y-126301121D01*
X132033588Y-126286714D01*
X132062836Y-126277841D01*
X132101842Y-126274000D01*
X132748158Y-126274000D01*
X132787164Y-126277841D01*
G37*
G36*
X128704539Y-126090822D02*
G01*
X128738481Y-126101118D01*
X128769754Y-126117834D01*
X128797168Y-126140332D01*
X128819666Y-126167746D01*
X128836382Y-126199019D01*
X128846678Y-126232961D01*
X128851000Y-126276844D01*
X128851000Y-126973156D01*
X128846678Y-127017039D01*
X128836382Y-127050981D01*
X128819666Y-127082254D01*
X128797168Y-127109668D01*
X128769754Y-127132166D01*
X128738481Y-127148882D01*
X128704539Y-127159178D01*
X128660656Y-127163500D01*
X127539344Y-127163500D01*
X127495461Y-127159178D01*
X127461519Y-127148882D01*
X127430246Y-127132166D01*
X127402832Y-127109668D01*
X127380334Y-127082254D01*
X127363618Y-127050981D01*
X127353322Y-127017039D01*
X127349000Y-126973156D01*
X127349000Y-126276844D01*
X127353322Y-126232961D01*
X127363618Y-126199019D01*
X127380334Y-126167746D01*
X127402832Y-126140332D01*
X127430246Y-126117834D01*
X127461519Y-126101118D01*
X127495461Y-126090822D01*
X127539344Y-126086500D01*
X128660656Y-126086500D01*
X128704539Y-126090822D01*
G37*
G36*
X122317395Y-125185546D02*
G01*
X122402391Y-125220753D01*
X122490467Y-125257235D01*
X122646227Y-125361310D01*
X122778690Y-125493773D01*
X122882765Y-125649533D01*
X122909506Y-125714092D01*
X122954454Y-125822605D01*
X122991000Y-126006333D01*
X122991000Y-126193667D01*
X122954454Y-126377395D01*
X122944951Y-126400336D01*
X122882765Y-126550467D01*
X122778690Y-126706227D01*
X122646227Y-126838690D01*
X122490467Y-126942765D01*
X122432308Y-126966855D01*
X122317395Y-127014454D01*
X122133667Y-127051000D01*
X121946333Y-127051000D01*
X121762605Y-127014454D01*
X121647692Y-126966855D01*
X121589533Y-126942765D01*
X121433773Y-126838690D01*
X121301310Y-126706227D01*
X121197235Y-126550467D01*
X121135049Y-126400336D01*
X121125546Y-126377395D01*
X121089000Y-126193667D01*
X121089000Y-126006333D01*
X121125546Y-125822605D01*
X121170494Y-125714092D01*
X121197235Y-125649533D01*
X121301310Y-125493773D01*
X121433773Y-125361310D01*
X121589533Y-125257235D01*
X121677609Y-125220753D01*
X121762605Y-125185546D01*
X121946333Y-125149000D01*
X122133667Y-125149000D01*
X122317395Y-125185546D01*
G37*
G36*
X120341548Y-125152439D02*
G01*
X120366855Y-125160116D01*
X120390188Y-125172587D01*
X120410633Y-125189367D01*
X120427413Y-125209812D01*
X120439884Y-125233145D01*
X120447561Y-125258452D01*
X120451000Y-125293368D01*
X120451000Y-126906632D01*
X120447561Y-126941548D01*
X120439884Y-126966855D01*
X120427413Y-126990188D01*
X120410633Y-127010633D01*
X120390188Y-127027413D01*
X120366855Y-127039884D01*
X120341548Y-127047561D01*
X120306632Y-127051000D01*
X118693368Y-127051000D01*
X118658452Y-127047561D01*
X118633145Y-127039884D01*
X118609812Y-127027413D01*
X118589367Y-127010633D01*
X118572587Y-126990188D01*
X118560116Y-126966855D01*
X118552439Y-126941548D01*
X118549000Y-126906632D01*
X118549000Y-125293368D01*
X118552439Y-125258452D01*
X118560116Y-125233145D01*
X118572587Y-125209812D01*
X118589367Y-125189367D01*
X118609812Y-125172587D01*
X118633145Y-125160116D01*
X118658452Y-125152439D01*
X118693368Y-125149000D01*
X120306632Y-125149000D01*
X120341548Y-125152439D01*
G37*
G36*
X124857395Y-125185546D02*
G01*
X124942391Y-125220753D01*
X125030467Y-125257235D01*
X125186227Y-125361310D01*
X125318690Y-125493773D01*
X125422765Y-125649533D01*
X125449506Y-125714092D01*
X125494454Y-125822605D01*
X125531000Y-126006333D01*
X125531000Y-126193667D01*
X125494454Y-126377395D01*
X125484951Y-126400336D01*
X125422765Y-126550467D01*
X125318690Y-126706227D01*
X125186227Y-126838690D01*
X125030467Y-126942765D01*
X124972308Y-126966855D01*
X124857395Y-127014454D01*
X124673667Y-127051000D01*
X124486333Y-127051000D01*
X124302605Y-127014454D01*
X124187692Y-126966855D01*
X124129533Y-126942765D01*
X123973773Y-126838690D01*
X123841310Y-126706227D01*
X123737235Y-126550467D01*
X123675049Y-126400336D01*
X123665546Y-126377395D01*
X123629000Y-126193667D01*
X123629000Y-126006333D01*
X123665546Y-125822605D01*
X123710494Y-125714092D01*
X123737235Y-125649533D01*
X123841310Y-125493773D01*
X123973773Y-125361310D01*
X124129533Y-125257235D01*
X124217609Y-125220753D01*
X124302605Y-125185546D01*
X124486333Y-125149000D01*
X124673667Y-125149000D01*
X124857395Y-125185546D01*
G37*
G36*
X153599512Y-125703443D02*
G01*
X153634618Y-125714092D01*
X153666978Y-125731388D01*
X153695337Y-125754663D01*
X153718612Y-125783022D01*
X153735908Y-125815382D01*
X153746557Y-125850488D01*
X153751000Y-125895594D01*
X153751000Y-126604406D01*
X153746557Y-126649512D01*
X153735908Y-126684618D01*
X153718612Y-126716978D01*
X153695337Y-126745337D01*
X153666978Y-126768612D01*
X153634618Y-126785908D01*
X153599512Y-126796557D01*
X153554406Y-126801000D01*
X150345594Y-126801000D01*
X150300488Y-126796557D01*
X150265382Y-126785908D01*
X150233022Y-126768612D01*
X150204663Y-126745337D01*
X150181388Y-126716978D01*
X150164092Y-126684618D01*
X150153443Y-126649512D01*
X150149000Y-126604406D01*
X150149000Y-125895594D01*
X150153443Y-125850488D01*
X150164092Y-125815382D01*
X150181388Y-125783022D01*
X150204663Y-125754663D01*
X150233022Y-125731388D01*
X150265382Y-125714092D01*
X150300488Y-125703443D01*
X150345594Y-125699000D01*
X153554406Y-125699000D01*
X153599512Y-125703443D01*
G37*
G36*
X102251000Y-126101000D02*
G01*
X100949000Y-126101000D01*
X100949000Y-125099000D01*
X102251000Y-125099000D01*
X102251000Y-126101000D01*
G37*
G36*
X99799512Y-125003443D02*
G01*
X99834618Y-125014092D01*
X99866978Y-125031388D01*
X99895337Y-125054663D01*
X99918612Y-125083022D01*
X99935908Y-125115382D01*
X99946557Y-125150488D01*
X99951000Y-125195594D01*
X99951000Y-125904406D01*
X99946557Y-125949512D01*
X99935908Y-125984618D01*
X99918612Y-126016978D01*
X99895337Y-126045337D01*
X99866978Y-126068612D01*
X99834618Y-126085908D01*
X99799512Y-126096557D01*
X99754406Y-126101000D01*
X96545594Y-126101000D01*
X96500488Y-126096557D01*
X96465382Y-126085908D01*
X96433022Y-126068612D01*
X96404663Y-126045337D01*
X96381388Y-126016978D01*
X96364092Y-125984618D01*
X96353443Y-125949512D01*
X96349000Y-125904406D01*
X96349000Y-125195594D01*
X96353443Y-125150488D01*
X96364092Y-125115382D01*
X96381388Y-125083022D01*
X96404663Y-125054663D01*
X96433022Y-125031388D01*
X96465382Y-125014092D01*
X96500488Y-125003443D01*
X96545594Y-124999000D01*
X99754406Y-124999000D01*
X99799512Y-125003443D01*
G37*
G36*
X142492703Y-124728009D02*
G01*
X142523571Y-124737372D01*
X142552022Y-124752580D01*
X142576957Y-124773043D01*
X142597420Y-124797978D01*
X142612628Y-124826429D01*
X142621991Y-124857297D01*
X142626000Y-124897995D01*
X142626000Y-125902005D01*
X142621991Y-125942703D01*
X142612628Y-125973571D01*
X142597420Y-126002022D01*
X142576957Y-126026957D01*
X142552022Y-126047420D01*
X142523571Y-126062628D01*
X142492703Y-126071991D01*
X142452005Y-126076000D01*
X140947995Y-126076000D01*
X140907297Y-126071991D01*
X140876429Y-126062628D01*
X140847978Y-126047420D01*
X140823043Y-126026957D01*
X140802580Y-126002022D01*
X140787372Y-125973571D01*
X140778009Y-125942703D01*
X140774000Y-125902005D01*
X140774000Y-124897995D01*
X140778009Y-124857297D01*
X140787372Y-124826429D01*
X140802580Y-124797978D01*
X140823043Y-124773043D01*
X140847978Y-124752580D01*
X140876429Y-124737372D01*
X140907297Y-124728009D01*
X140947995Y-124724000D01*
X142452005Y-124724000D01*
X142492703Y-124728009D01*
G37*
G36*
X140192703Y-124728009D02*
G01*
X140223571Y-124737372D01*
X140252022Y-124752580D01*
X140276957Y-124773043D01*
X140297420Y-124797978D01*
X140312628Y-124826429D01*
X140321991Y-124857297D01*
X140326000Y-124897995D01*
X140326000Y-125902005D01*
X140321991Y-125942703D01*
X140312628Y-125973571D01*
X140297420Y-126002022D01*
X140276957Y-126026957D01*
X140252022Y-126047420D01*
X140223571Y-126062628D01*
X140192703Y-126071991D01*
X140152005Y-126076000D01*
X138647995Y-126076000D01*
X138607297Y-126071991D01*
X138576429Y-126062628D01*
X138547978Y-126047420D01*
X138523043Y-126026957D01*
X138502580Y-126002022D01*
X138487372Y-125973571D01*
X138478009Y-125942703D01*
X138474000Y-125902005D01*
X138474000Y-124897995D01*
X138478009Y-124857297D01*
X138487372Y-124826429D01*
X138502580Y-124797978D01*
X138523043Y-124773043D01*
X138547978Y-124752580D01*
X138576429Y-124737372D01*
X138607297Y-124728009D01*
X138647995Y-124724000D01*
X140152005Y-124724000D01*
X140192703Y-124728009D01*
G37*
G36*
X114887164Y-124977841D02*
G01*
X114916412Y-124986714D01*
X114943365Y-125001121D01*
X114966990Y-125020510D01*
X114986379Y-125044135D01*
X115000786Y-125071088D01*
X115009659Y-125100336D01*
X115013500Y-125139342D01*
X115013500Y-125860658D01*
X115009659Y-125899664D01*
X115000786Y-125928912D01*
X114986379Y-125955865D01*
X114966990Y-125979490D01*
X114943365Y-125998879D01*
X114916412Y-126013286D01*
X114887164Y-126022159D01*
X114848158Y-126026000D01*
X114201842Y-126026000D01*
X114162836Y-126022159D01*
X114133588Y-126013286D01*
X114106635Y-125998879D01*
X114083010Y-125979490D01*
X114063621Y-125955865D01*
X114049214Y-125928912D01*
X114040341Y-125899664D01*
X114036500Y-125860658D01*
X114036500Y-125139342D01*
X114040341Y-125100336D01*
X114049214Y-125071088D01*
X114063621Y-125044135D01*
X114083010Y-125020510D01*
X114106635Y-125001121D01*
X114133588Y-124986714D01*
X114162836Y-124977841D01*
X114201842Y-124974000D01*
X114848158Y-124974000D01*
X114887164Y-124977841D01*
G37*
G36*
X116462164Y-124977841D02*
G01*
X116491412Y-124986714D01*
X116518365Y-125001121D01*
X116541990Y-125020510D01*
X116561379Y-125044135D01*
X116575786Y-125071088D01*
X116584659Y-125100336D01*
X116588500Y-125139342D01*
X116588500Y-125860658D01*
X116584659Y-125899664D01*
X116575786Y-125928912D01*
X116561379Y-125955865D01*
X116541990Y-125979490D01*
X116518365Y-125998879D01*
X116491412Y-126013286D01*
X116462164Y-126022159D01*
X116423158Y-126026000D01*
X115776842Y-126026000D01*
X115737836Y-126022159D01*
X115708588Y-126013286D01*
X115681635Y-125998879D01*
X115658010Y-125979490D01*
X115638621Y-125955865D01*
X115624214Y-125928912D01*
X115615341Y-125899664D01*
X115611500Y-125860658D01*
X115611500Y-125139342D01*
X115615341Y-125100336D01*
X115624214Y-125071088D01*
X115638621Y-125044135D01*
X115658010Y-125020510D01*
X115681635Y-125001121D01*
X115708588Y-124986714D01*
X115737836Y-124977841D01*
X115776842Y-124974000D01*
X116423158Y-124974000D01*
X116462164Y-124977841D01*
G37*
G36*
X129699664Y-124615341D02*
G01*
X129728912Y-124624214D01*
X129755865Y-124638621D01*
X129779490Y-124658010D01*
X129798879Y-124681635D01*
X129813286Y-124708588D01*
X129822159Y-124737836D01*
X129826000Y-124776842D01*
X129826000Y-125423158D01*
X129822159Y-125462164D01*
X129813286Y-125491412D01*
X129798879Y-125518365D01*
X129779490Y-125541990D01*
X129755865Y-125561379D01*
X129728912Y-125575786D01*
X129699664Y-125584659D01*
X129660658Y-125588500D01*
X128939342Y-125588500D01*
X128900336Y-125584659D01*
X128871088Y-125575786D01*
X128844135Y-125561379D01*
X128820510Y-125541990D01*
X128801121Y-125518365D01*
X128786714Y-125491412D01*
X128777841Y-125462164D01*
X128774000Y-125423158D01*
X128774000Y-124776842D01*
X128777841Y-124737836D01*
X128786714Y-124708588D01*
X128801121Y-124681635D01*
X128820510Y-124658010D01*
X128844135Y-124638621D01*
X128871088Y-124624214D01*
X128900336Y-124615341D01*
X128939342Y-124611500D01*
X129660658Y-124611500D01*
X129699664Y-124615341D01*
G37*
G36*
X137226000Y-125481000D02*
G01*
X136474000Y-125481000D01*
X136474000Y-124319000D01*
X137226000Y-124319000D01*
X137226000Y-125481000D01*
G37*
G36*
X135326000Y-125481000D02*
G01*
X134574000Y-125481000D01*
X134574000Y-124319000D01*
X135326000Y-124319000D01*
X135326000Y-125481000D01*
G37*
G36*
X131992703Y-124128009D02*
G01*
X132023571Y-124137372D01*
X132052022Y-124152580D01*
X132076957Y-124173043D01*
X132097420Y-124197978D01*
X132112628Y-124226429D01*
X132121991Y-124257297D01*
X132126000Y-124297995D01*
X132126000Y-125302005D01*
X132121991Y-125342703D01*
X132112628Y-125373571D01*
X132097420Y-125402022D01*
X132076957Y-125426957D01*
X132052022Y-125447420D01*
X132023571Y-125462628D01*
X131992703Y-125471991D01*
X131952005Y-125476000D01*
X130447995Y-125476000D01*
X130407297Y-125471991D01*
X130376429Y-125462628D01*
X130347978Y-125447420D01*
X130323043Y-125426957D01*
X130302580Y-125402022D01*
X130287372Y-125373571D01*
X130278009Y-125342703D01*
X130274000Y-125302005D01*
X130274000Y-124297995D01*
X130278009Y-124257297D01*
X130287372Y-124226429D01*
X130302580Y-124197978D01*
X130323043Y-124173043D01*
X130347978Y-124152580D01*
X130376429Y-124137372D01*
X130407297Y-124128009D01*
X130447995Y-124124000D01*
X131952005Y-124124000D01*
X131992703Y-124128009D01*
G37*
G36*
X133599664Y-124215341D02*
G01*
X133628912Y-124224214D01*
X133655865Y-124238621D01*
X133679490Y-124258010D01*
X133698879Y-124281635D01*
X133713286Y-124308588D01*
X133722159Y-124337836D01*
X133726000Y-124376842D01*
X133726000Y-125023158D01*
X133722159Y-125062164D01*
X133713286Y-125091412D01*
X133698879Y-125118365D01*
X133679490Y-125141990D01*
X133655865Y-125161379D01*
X133628912Y-125175786D01*
X133599664Y-125184659D01*
X133560658Y-125188500D01*
X132839342Y-125188500D01*
X132800336Y-125184659D01*
X132771088Y-125175786D01*
X132744135Y-125161379D01*
X132720510Y-125141990D01*
X132701121Y-125118365D01*
X132686714Y-125091412D01*
X132677841Y-125062164D01*
X132674000Y-125023158D01*
X132674000Y-124376842D01*
X132677841Y-124337836D01*
X132686714Y-124308588D01*
X132701121Y-124281635D01*
X132720510Y-124258010D01*
X132744135Y-124238621D01*
X132771088Y-124224214D01*
X132800336Y-124215341D01*
X132839342Y-124211500D01*
X133560658Y-124211500D01*
X133599664Y-124215341D01*
G37*
G36*
X153599512Y-123703443D02*
G01*
X153634618Y-123714092D01*
X153666978Y-123731388D01*
X153695337Y-123754663D01*
X153718612Y-123783022D01*
X153735908Y-123815382D01*
X153746557Y-123850488D01*
X153751000Y-123895594D01*
X153751000Y-124604406D01*
X153746557Y-124649512D01*
X153735908Y-124684618D01*
X153718612Y-124716978D01*
X153695337Y-124745337D01*
X153666978Y-124768612D01*
X153634618Y-124785908D01*
X153599512Y-124796557D01*
X153554406Y-124801000D01*
X150345594Y-124801000D01*
X150300488Y-124796557D01*
X150265382Y-124785908D01*
X150233022Y-124768612D01*
X150204663Y-124745337D01*
X150181388Y-124716978D01*
X150164092Y-124684618D01*
X150153443Y-124649512D01*
X150149000Y-124604406D01*
X150149000Y-123895594D01*
X150153443Y-123850488D01*
X150164092Y-123815382D01*
X150181388Y-123783022D01*
X150204663Y-123754663D01*
X150233022Y-123731388D01*
X150265382Y-123714092D01*
X150300488Y-123703443D01*
X150345594Y-123699000D01*
X153554406Y-123699000D01*
X153599512Y-123703443D01*
G37*
G36*
X102204539Y-123640822D02*
G01*
X102238481Y-123651118D01*
X102269754Y-123667834D01*
X102297168Y-123690332D01*
X102319666Y-123717746D01*
X102336382Y-123749019D01*
X102346678Y-123782961D01*
X102351000Y-123826844D01*
X102351000Y-124523156D01*
X102346678Y-124567039D01*
X102336382Y-124600981D01*
X102319666Y-124632254D01*
X102297168Y-124659668D01*
X102269754Y-124682166D01*
X102238481Y-124698882D01*
X102204539Y-124709178D01*
X102160656Y-124713500D01*
X101039344Y-124713500D01*
X100995461Y-124709178D01*
X100961519Y-124698882D01*
X100930246Y-124682166D01*
X100902832Y-124659668D01*
X100880334Y-124632254D01*
X100863618Y-124600981D01*
X100853322Y-124567039D01*
X100849000Y-124523156D01*
X100849000Y-123826844D01*
X100853322Y-123782961D01*
X100863618Y-123749019D01*
X100880334Y-123717746D01*
X100902832Y-123690332D01*
X100930246Y-123667834D01*
X100961519Y-123651118D01*
X100995461Y-123640822D01*
X101039344Y-123636500D01*
X102160656Y-123636500D01*
X102204539Y-123640822D01*
G37*
G36*
X128199664Y-123715341D02*
G01*
X128228912Y-123724214D01*
X128255865Y-123738621D01*
X128279490Y-123758010D01*
X128298879Y-123781635D01*
X128313286Y-123808588D01*
X128322159Y-123837836D01*
X128326000Y-123876842D01*
X128326000Y-124523158D01*
X128322159Y-124562164D01*
X128313286Y-124591412D01*
X128298879Y-124618365D01*
X128279490Y-124641990D01*
X128255865Y-124661379D01*
X128228912Y-124675786D01*
X128199664Y-124684659D01*
X128160658Y-124688500D01*
X127439342Y-124688500D01*
X127400336Y-124684659D01*
X127371088Y-124675786D01*
X127344135Y-124661379D01*
X127320510Y-124641990D01*
X127301121Y-124618365D01*
X127286714Y-124591412D01*
X127277841Y-124562164D01*
X127274000Y-124523158D01*
X127274000Y-123876842D01*
X127277841Y-123837836D01*
X127286714Y-123808588D01*
X127301121Y-123781635D01*
X127320510Y-123758010D01*
X127344135Y-123738621D01*
X127371088Y-123724214D01*
X127400336Y-123715341D01*
X127439342Y-123711500D01*
X128160658Y-123711500D01*
X128199664Y-123715341D01*
G37*
G36*
X112801000Y-124451000D02*
G01*
X111149000Y-124451000D01*
X111149000Y-123049000D01*
X112801000Y-123049000D01*
X112801000Y-124451000D01*
G37*
G36*
X118851000Y-124451000D02*
G01*
X117199000Y-124451000D01*
X117199000Y-123049000D01*
X118851000Y-123049000D01*
X118851000Y-124451000D01*
G37*
G36*
X126801000Y-124451000D02*
G01*
X125149000Y-124451000D01*
X125149000Y-123049000D01*
X126801000Y-123049000D01*
X126801000Y-124451000D01*
G37*
G36*
X104851000Y-124451000D02*
G01*
X103199000Y-124451000D01*
X103199000Y-123049000D01*
X104851000Y-123049000D01*
X104851000Y-124451000D01*
G37*
G36*
X116399664Y-123315341D02*
G01*
X116428912Y-123324214D01*
X116455865Y-123338621D01*
X116479490Y-123358010D01*
X116498879Y-123381635D01*
X116513286Y-123408588D01*
X116522159Y-123437836D01*
X116526000Y-123476842D01*
X116526000Y-124123157D01*
X116522159Y-124162164D01*
X116513286Y-124191412D01*
X116498879Y-124218365D01*
X116479490Y-124241990D01*
X116455865Y-124261379D01*
X116428912Y-124275786D01*
X116399664Y-124284659D01*
X116360658Y-124288500D01*
X115639342Y-124288500D01*
X115600336Y-124284659D01*
X115571088Y-124275786D01*
X115544135Y-124261379D01*
X115520510Y-124241990D01*
X115501121Y-124218365D01*
X115486714Y-124191412D01*
X115477841Y-124162164D01*
X115474000Y-124123157D01*
X115474000Y-123476842D01*
X115477841Y-123437836D01*
X115486714Y-123408588D01*
X115501121Y-123381635D01*
X115520510Y-123358010D01*
X115544135Y-123338621D01*
X115571088Y-123324214D01*
X115600336Y-123315341D01*
X115639342Y-123311500D01*
X116360658Y-123311500D01*
X116399664Y-123315341D01*
G37*
G36*
X114299664Y-123290341D02*
G01*
X114328912Y-123299214D01*
X114355865Y-123313621D01*
X114379490Y-123333010D01*
X114398879Y-123356635D01*
X114413286Y-123383588D01*
X114422159Y-123412836D01*
X114426000Y-123451842D01*
X114426000Y-124098158D01*
X114422159Y-124137164D01*
X114413286Y-124166412D01*
X114398879Y-124193365D01*
X114379490Y-124216990D01*
X114355865Y-124236379D01*
X114328912Y-124250786D01*
X114299664Y-124259659D01*
X114260658Y-124263500D01*
X113539342Y-124263500D01*
X113500336Y-124259659D01*
X113471088Y-124250786D01*
X113444135Y-124236379D01*
X113420510Y-124216990D01*
X113401121Y-124193365D01*
X113386714Y-124166412D01*
X113377841Y-124137164D01*
X113374000Y-124098158D01*
X113374000Y-123451842D01*
X113377841Y-123412836D01*
X113386714Y-123383588D01*
X113401121Y-123356635D01*
X113420510Y-123333010D01*
X113444135Y-123313621D01*
X113471088Y-123299214D01*
X113500336Y-123290341D01*
X113539342Y-123286500D01*
X114260658Y-123286500D01*
X114299664Y-123290341D01*
G37*
G36*
X147642703Y-122378009D02*
G01*
X147673571Y-122387372D01*
X147702022Y-122402580D01*
X147726957Y-122423043D01*
X147747420Y-122447978D01*
X147762628Y-122476429D01*
X147771991Y-122507297D01*
X147776000Y-122547995D01*
X147776000Y-124052005D01*
X147771991Y-124092703D01*
X147762628Y-124123571D01*
X147747420Y-124152022D01*
X147726957Y-124176957D01*
X147702022Y-124197420D01*
X147673571Y-124212628D01*
X147642703Y-124221991D01*
X147602005Y-124226000D01*
X146597995Y-124226000D01*
X146557297Y-124221991D01*
X146526429Y-124212628D01*
X146497978Y-124197420D01*
X146473043Y-124176957D01*
X146452580Y-124152022D01*
X146437372Y-124123571D01*
X146428009Y-124092703D01*
X146424000Y-124052005D01*
X146424000Y-122547995D01*
X146428009Y-122507297D01*
X146437372Y-122476429D01*
X146452580Y-122447978D01*
X146473043Y-122423043D01*
X146497978Y-122402580D01*
X146526429Y-122387372D01*
X146557297Y-122378009D01*
X146597995Y-122374000D01*
X147602005Y-122374000D01*
X147642703Y-122378009D01*
G37*
G36*
X144842703Y-122378009D02*
G01*
X144873571Y-122387372D01*
X144902022Y-122402580D01*
X144926957Y-122423043D01*
X144947420Y-122447978D01*
X144962628Y-122476429D01*
X144971991Y-122507297D01*
X144976000Y-122547995D01*
X144976000Y-124052005D01*
X144971991Y-124092703D01*
X144962628Y-124123571D01*
X144947420Y-124152022D01*
X144926957Y-124176957D01*
X144902022Y-124197420D01*
X144873571Y-124212628D01*
X144842703Y-124221991D01*
X144802005Y-124226000D01*
X143797995Y-124226000D01*
X143757297Y-124221991D01*
X143726429Y-124212628D01*
X143697978Y-124197420D01*
X143673043Y-124176957D01*
X143652580Y-124152022D01*
X143637372Y-124123571D01*
X143628009Y-124092703D01*
X143624000Y-124052005D01*
X143624000Y-122547995D01*
X143628009Y-122507297D01*
X143637372Y-122476429D01*
X143652580Y-122447978D01*
X143673043Y-122423043D01*
X143697978Y-122402580D01*
X143726429Y-122387372D01*
X143757297Y-122378009D01*
X143797995Y-122374000D01*
X144802005Y-122374000D01*
X144842703Y-122378009D01*
G37*
G36*
X140051000Y-124101000D02*
G01*
X138749000Y-124101000D01*
X138749000Y-123099000D01*
X140051000Y-123099000D01*
X140051000Y-124101000D01*
G37*
G36*
X99799512Y-123003443D02*
G01*
X99834618Y-123014092D01*
X99866978Y-123031388D01*
X99895337Y-123054663D01*
X99918612Y-123083022D01*
X99935908Y-123115382D01*
X99946557Y-123150488D01*
X99951000Y-123195594D01*
X99951000Y-123904406D01*
X99946557Y-123949512D01*
X99935908Y-123984618D01*
X99918612Y-124016978D01*
X99895337Y-124045337D01*
X99866978Y-124068612D01*
X99834618Y-124085908D01*
X99799512Y-124096557D01*
X99754406Y-124101000D01*
X96545594Y-124101000D01*
X96500488Y-124096557D01*
X96465382Y-124085908D01*
X96433022Y-124068612D01*
X96404663Y-124045337D01*
X96381388Y-124016978D01*
X96364092Y-123984618D01*
X96353443Y-123949512D01*
X96349000Y-123904406D01*
X96349000Y-123195594D01*
X96353443Y-123150488D01*
X96364092Y-123115382D01*
X96381388Y-123083022D01*
X96404663Y-123054663D01*
X96433022Y-123031388D01*
X96465382Y-123014092D01*
X96500488Y-123003443D01*
X96545594Y-122999000D01*
X99754406Y-122999000D01*
X99799512Y-123003443D01*
G37*
G36*
X129699664Y-123040341D02*
G01*
X129728912Y-123049214D01*
X129755865Y-123063621D01*
X129779490Y-123083010D01*
X129798879Y-123106635D01*
X129813286Y-123133588D01*
X129822159Y-123162836D01*
X129826000Y-123201842D01*
X129826000Y-123848158D01*
X129822159Y-123887164D01*
X129813286Y-123916412D01*
X129798879Y-123943365D01*
X129779490Y-123966990D01*
X129755865Y-123986379D01*
X129728912Y-124000786D01*
X129699664Y-124009659D01*
X129660658Y-124013500D01*
X128939342Y-124013500D01*
X128900336Y-124009659D01*
X128871088Y-124000786D01*
X128844135Y-123986379D01*
X128820510Y-123966990D01*
X128801121Y-123943365D01*
X128786714Y-123916412D01*
X128777841Y-123887164D01*
X128774000Y-123848158D01*
X128774000Y-123201842D01*
X128777841Y-123162836D01*
X128786714Y-123133588D01*
X128801121Y-123106635D01*
X128820510Y-123083010D01*
X128844135Y-123063621D01*
X128871088Y-123049214D01*
X128900336Y-123040341D01*
X128939342Y-123036500D01*
X129660658Y-123036500D01*
X129699664Y-123040341D01*
G37*
G36*
X133599664Y-122640341D02*
G01*
X133628912Y-122649214D01*
X133655865Y-122663621D01*
X133679490Y-122683010D01*
X133698879Y-122706635D01*
X133713286Y-122733588D01*
X133722159Y-122762836D01*
X133726000Y-122801842D01*
X133726000Y-123448158D01*
X133722159Y-123487164D01*
X133713286Y-123516412D01*
X133698879Y-123543365D01*
X133679490Y-123566990D01*
X133655865Y-123586379D01*
X133628912Y-123600786D01*
X133599664Y-123609659D01*
X133560658Y-123613500D01*
X132839342Y-123613500D01*
X132800336Y-123609659D01*
X132771088Y-123600786D01*
X132744135Y-123586379D01*
X132720510Y-123566990D01*
X132701121Y-123543365D01*
X132686714Y-123516412D01*
X132677841Y-123487164D01*
X132674000Y-123448158D01*
X132674000Y-122801842D01*
X132677841Y-122762836D01*
X132686714Y-122733588D01*
X132701121Y-122706635D01*
X132720510Y-122683010D01*
X132744135Y-122663621D01*
X132771088Y-122649214D01*
X132800336Y-122640341D01*
X132839342Y-122636500D01*
X133560658Y-122636500D01*
X133599664Y-122640341D01*
G37*
G36*
X137226000Y-123281000D02*
G01*
X134574000Y-123281000D01*
X134574000Y-122119000D01*
X137226000Y-122119000D01*
X137226000Y-123281000D01*
G37*
G36*
X128199664Y-122140341D02*
G01*
X128228912Y-122149214D01*
X128255865Y-122163621D01*
X128279490Y-122183010D01*
X128298879Y-122206635D01*
X128313286Y-122233588D01*
X128322159Y-122262836D01*
X128326000Y-122301842D01*
X128326000Y-122948158D01*
X128322159Y-122987164D01*
X128313286Y-123016412D01*
X128298879Y-123043365D01*
X128279490Y-123066990D01*
X128255865Y-123086379D01*
X128228912Y-123100786D01*
X128199664Y-123109659D01*
X128160658Y-123113500D01*
X127439342Y-123113500D01*
X127400336Y-123109659D01*
X127371088Y-123100786D01*
X127344135Y-123086379D01*
X127320510Y-123066990D01*
X127301121Y-123043365D01*
X127286714Y-123016412D01*
X127277841Y-122987164D01*
X127274000Y-122948158D01*
X127274000Y-122301842D01*
X127277841Y-122262836D01*
X127286714Y-122233588D01*
X127301121Y-122206635D01*
X127320510Y-122183010D01*
X127344135Y-122163621D01*
X127371088Y-122149214D01*
X127400336Y-122140341D01*
X127439342Y-122136500D01*
X128160658Y-122136500D01*
X128199664Y-122140341D01*
G37*
G36*
X102204539Y-121765822D02*
G01*
X102238479Y-121776118D01*
X102242629Y-121778336D01*
X102274324Y-121791464D01*
X102282045Y-121793000D01*
X102290722Y-121807477D01*
X102319666Y-121842746D01*
X102336382Y-121874019D01*
X102346678Y-121907961D01*
X102351000Y-121951844D01*
X102351000Y-122648156D01*
X102346678Y-122692039D01*
X102336382Y-122725981D01*
X102319666Y-122757254D01*
X102290722Y-122792523D01*
X102280733Y-122807472D01*
X102258155Y-122814321D01*
X102242629Y-122821664D01*
X102238479Y-122823882D01*
X102204539Y-122834178D01*
X102160656Y-122838500D01*
X101039344Y-122838500D01*
X100995461Y-122834178D01*
X100961521Y-122823882D01*
X100957371Y-122821664D01*
X100925676Y-122808536D01*
X100917955Y-122807000D01*
X100909278Y-122792523D01*
X100880334Y-122757254D01*
X100863618Y-122725981D01*
X100853322Y-122692039D01*
X100849000Y-122648156D01*
X100849000Y-121951844D01*
X100853322Y-121907961D01*
X100863618Y-121874019D01*
X100880334Y-121842746D01*
X100909278Y-121807477D01*
X100919267Y-121792528D01*
X100941845Y-121785679D01*
X100957371Y-121778336D01*
X100961521Y-121776118D01*
X100995461Y-121765822D01*
X101039344Y-121761500D01*
X102160656Y-121761500D01*
X102204539Y-121765822D01*
G37*
G36*
X153599512Y-121703443D02*
G01*
X153634618Y-121714092D01*
X153666978Y-121731388D01*
X153695337Y-121754663D01*
X153718612Y-121783022D01*
X153735908Y-121815382D01*
X153746557Y-121850488D01*
X153751000Y-121895594D01*
X153751000Y-122604406D01*
X153746557Y-122649512D01*
X153735908Y-122684618D01*
X153718612Y-122716978D01*
X153695337Y-122745337D01*
X153666978Y-122768612D01*
X153634618Y-122785908D01*
X153599512Y-122796557D01*
X153554406Y-122801000D01*
X150345594Y-122801000D01*
X150300488Y-122796557D01*
X150265382Y-122785908D01*
X150233022Y-122768612D01*
X150204663Y-122745337D01*
X150181388Y-122716978D01*
X150164092Y-122684618D01*
X150153443Y-122649512D01*
X150149000Y-122604406D01*
X150149000Y-121895594D01*
X150153443Y-121850488D01*
X150164092Y-121815382D01*
X150181388Y-121783022D01*
X150204663Y-121754663D01*
X150233022Y-121731388D01*
X150265382Y-121714092D01*
X150300488Y-121703443D01*
X150345594Y-121699000D01*
X153554406Y-121699000D01*
X153599512Y-121703443D01*
G37*
G36*
X116399664Y-121740341D02*
G01*
X116428912Y-121749214D01*
X116455865Y-121763621D01*
X116479490Y-121783010D01*
X116498879Y-121806635D01*
X116513286Y-121833588D01*
X116522159Y-121862836D01*
X116526000Y-121901842D01*
X116526000Y-122548158D01*
X116522159Y-122587164D01*
X116513286Y-122616412D01*
X116498879Y-122643365D01*
X116479490Y-122666990D01*
X116455865Y-122686379D01*
X116428912Y-122700786D01*
X116399664Y-122709659D01*
X116360658Y-122713500D01*
X115639342Y-122713500D01*
X115600336Y-122709659D01*
X115571088Y-122700786D01*
X115544135Y-122686379D01*
X115520510Y-122666990D01*
X115501121Y-122643365D01*
X115486714Y-122616412D01*
X115477841Y-122587164D01*
X115474000Y-122548158D01*
X115474000Y-121901842D01*
X115477841Y-121862836D01*
X115486714Y-121833588D01*
X115501121Y-121806635D01*
X115520510Y-121783010D01*
X115544135Y-121763621D01*
X115571088Y-121749214D01*
X115600336Y-121740341D01*
X115639342Y-121736500D01*
X116360658Y-121736500D01*
X116399664Y-121740341D01*
G37*
G36*
X114299664Y-121715341D02*
G01*
X114328912Y-121724214D01*
X114355865Y-121738621D01*
X114379490Y-121758010D01*
X114398879Y-121781635D01*
X114413286Y-121808588D01*
X114422159Y-121837836D01*
X114426000Y-121876842D01*
X114426000Y-122523158D01*
X114422159Y-122562164D01*
X114413286Y-122591412D01*
X114398879Y-122618365D01*
X114379490Y-122641990D01*
X114355865Y-122661379D01*
X114328912Y-122675786D01*
X114299664Y-122684659D01*
X114260658Y-122688500D01*
X113539342Y-122688500D01*
X113500336Y-122684659D01*
X113471088Y-122675786D01*
X113444135Y-122661379D01*
X113420510Y-122641990D01*
X113401121Y-122618365D01*
X113386714Y-122591412D01*
X113377841Y-122562164D01*
X113374000Y-122523158D01*
X113374000Y-121876842D01*
X113377841Y-121837836D01*
X113386714Y-121808588D01*
X113401121Y-121781635D01*
X113420510Y-121758010D01*
X113444135Y-121738621D01*
X113471088Y-121724214D01*
X113500336Y-121715341D01*
X113539342Y-121711500D01*
X114260658Y-121711500D01*
X114299664Y-121715341D01*
G37*
G36*
X131992703Y-121328009D02*
G01*
X132023571Y-121337372D01*
X132052022Y-121352580D01*
X132076957Y-121373043D01*
X132097420Y-121397978D01*
X132112628Y-121426429D01*
X132121991Y-121457297D01*
X132126000Y-121497995D01*
X132126000Y-122502005D01*
X132121991Y-122542703D01*
X132112628Y-122573571D01*
X132097420Y-122602022D01*
X132076957Y-122626957D01*
X132052022Y-122647420D01*
X132023571Y-122662628D01*
X131992703Y-122671991D01*
X131952005Y-122676000D01*
X130447995Y-122676000D01*
X130407297Y-122671991D01*
X130376429Y-122662628D01*
X130347978Y-122647420D01*
X130323043Y-122626957D01*
X130302580Y-122602022D01*
X130287372Y-122573571D01*
X130278009Y-122542703D01*
X130274000Y-122502005D01*
X130274000Y-121497995D01*
X130278009Y-121457297D01*
X130287372Y-121426429D01*
X130302580Y-121397978D01*
X130323043Y-121373043D01*
X130347978Y-121352580D01*
X130376429Y-121337372D01*
X130407297Y-121328009D01*
X130447995Y-121324000D01*
X131952005Y-121324000D01*
X131992703Y-121328009D01*
G37*
G36*
X126014667Y-120353080D02*
G01*
X126046249Y-120362660D01*
X126075346Y-120378213D01*
X126100853Y-120399147D01*
X126121787Y-120424654D01*
X126137340Y-120453751D01*
X126146920Y-120485333D01*
X126151000Y-120526760D01*
X126151000Y-122073240D01*
X126146920Y-122114667D01*
X126137340Y-122146249D01*
X126121787Y-122175346D01*
X126100853Y-122200853D01*
X126075346Y-122221787D01*
X126046249Y-122237340D01*
X126014667Y-122246920D01*
X125973240Y-122251000D01*
X125026760Y-122251000D01*
X124985333Y-122246920D01*
X124953751Y-122237340D01*
X124924654Y-122221787D01*
X124899147Y-122200853D01*
X124878213Y-122175346D01*
X124862660Y-122146249D01*
X124853080Y-122114667D01*
X124849000Y-122073240D01*
X124849000Y-120526760D01*
X124853080Y-120485333D01*
X124862660Y-120453751D01*
X124878213Y-120424654D01*
X124899147Y-120399147D01*
X124924654Y-120378213D01*
X124953751Y-120362660D01*
X124985333Y-120353080D01*
X125026760Y-120349000D01*
X125973240Y-120349000D01*
X126014667Y-120353080D01*
G37*
G36*
X118414667Y-120353080D02*
G01*
X118446249Y-120362660D01*
X118475346Y-120378213D01*
X118500853Y-120399147D01*
X118521787Y-120424654D01*
X118537340Y-120453751D01*
X118546920Y-120485333D01*
X118551000Y-120526760D01*
X118551000Y-122073240D01*
X118546920Y-122114667D01*
X118537340Y-122146249D01*
X118521787Y-122175346D01*
X118500853Y-122200853D01*
X118475346Y-122221787D01*
X118446249Y-122237340D01*
X118414667Y-122246920D01*
X118373240Y-122251000D01*
X117426760Y-122251000D01*
X117385333Y-122246920D01*
X117353751Y-122237340D01*
X117324654Y-122221787D01*
X117299147Y-122200853D01*
X117278213Y-122175346D01*
X117262660Y-122146249D01*
X117253080Y-122114667D01*
X117249000Y-122073240D01*
X117249000Y-120526760D01*
X117253080Y-120485333D01*
X117262660Y-120453751D01*
X117278213Y-120424654D01*
X117299147Y-120399147D01*
X117324654Y-120378213D01*
X117353751Y-120362660D01*
X117385333Y-120353080D01*
X117426760Y-120349000D01*
X118373240Y-120349000D01*
X118414667Y-120353080D01*
G37*
G36*
X94029828Y-120402718D02*
G01*
X94057872Y-120411226D01*
X94083718Y-120425041D01*
X94106370Y-120443630D01*
X94124959Y-120466282D01*
X94138774Y-120492128D01*
X94147282Y-120520172D01*
X94151000Y-120557927D01*
X94151000Y-121842073D01*
X94147282Y-121879828D01*
X94138774Y-121907872D01*
X94124959Y-121933718D01*
X94106370Y-121956370D01*
X94083718Y-121974959D01*
X94057872Y-121988774D01*
X94029828Y-121997282D01*
X93992073Y-122001000D01*
X90807927Y-122001000D01*
X90770172Y-121997282D01*
X90742128Y-121988774D01*
X90716282Y-121974959D01*
X90693630Y-121956370D01*
X90675041Y-121933718D01*
X90661226Y-121907872D01*
X90652718Y-121879828D01*
X90649000Y-121842073D01*
X90649000Y-120557927D01*
X90652718Y-120520172D01*
X90661226Y-120492128D01*
X90675041Y-120466282D01*
X90693630Y-120443630D01*
X90716282Y-120425041D01*
X90742128Y-120411226D01*
X90770172Y-120402718D01*
X90807927Y-120399000D01*
X93992073Y-120399000D01*
X94029828Y-120402718D01*
G37*
G36*
X107742703Y-120078009D02*
G01*
X107773571Y-120087372D01*
X107802022Y-120102580D01*
X107826957Y-120123043D01*
X107847420Y-120147978D01*
X107862628Y-120176429D01*
X107871991Y-120207297D01*
X107876000Y-120247995D01*
X107876000Y-121752005D01*
X107871991Y-121792703D01*
X107862628Y-121823571D01*
X107847420Y-121852022D01*
X107826957Y-121876957D01*
X107802022Y-121897420D01*
X107773571Y-121912628D01*
X107742703Y-121921991D01*
X107702005Y-121926000D01*
X106697995Y-121926000D01*
X106657297Y-121921991D01*
X106626429Y-121912628D01*
X106597978Y-121897420D01*
X106573043Y-121876957D01*
X106552580Y-121852022D01*
X106537372Y-121823571D01*
X106528009Y-121792703D01*
X106524000Y-121752005D01*
X106524000Y-120247995D01*
X106528009Y-120207297D01*
X106537372Y-120176429D01*
X106552580Y-120147978D01*
X106573043Y-120123043D01*
X106597978Y-120102580D01*
X106626429Y-120087372D01*
X106657297Y-120078009D01*
X106697995Y-120074000D01*
X107702005Y-120074000D01*
X107742703Y-120078009D01*
G37*
G36*
X110542703Y-120078009D02*
G01*
X110573571Y-120087372D01*
X110602022Y-120102580D01*
X110626957Y-120123043D01*
X110647420Y-120147978D01*
X110662628Y-120176429D01*
X110671991Y-120207297D01*
X110676000Y-120247995D01*
X110676000Y-121752005D01*
X110671991Y-121792703D01*
X110662628Y-121823571D01*
X110647420Y-121852022D01*
X110626957Y-121876957D01*
X110602022Y-121897420D01*
X110573571Y-121912628D01*
X110542703Y-121921991D01*
X110502005Y-121926000D01*
X109497995Y-121926000D01*
X109457297Y-121921991D01*
X109426429Y-121912628D01*
X109397978Y-121897420D01*
X109373043Y-121876957D01*
X109352580Y-121852022D01*
X109337372Y-121823571D01*
X109328009Y-121792703D01*
X109324000Y-121752005D01*
X109324000Y-120247995D01*
X109328009Y-120207297D01*
X109337372Y-120176429D01*
X109352580Y-120147978D01*
X109373043Y-120123043D01*
X109397978Y-120102580D01*
X109426429Y-120087372D01*
X109457297Y-120078009D01*
X109497995Y-120074000D01*
X110502005Y-120074000D01*
X110542703Y-120078009D01*
G37*
G36*
X144842703Y-119878009D02*
G01*
X144873571Y-119887372D01*
X144902022Y-119902580D01*
X144926957Y-119923043D01*
X144947420Y-119947978D01*
X144962628Y-119976429D01*
X144971991Y-120007297D01*
X144976000Y-120047995D01*
X144976000Y-121552005D01*
X144971991Y-121592703D01*
X144962628Y-121623571D01*
X144947420Y-121652022D01*
X144926957Y-121676957D01*
X144902022Y-121697420D01*
X144873571Y-121712628D01*
X144842703Y-121721991D01*
X144802005Y-121726000D01*
X143797995Y-121726000D01*
X143757297Y-121721991D01*
X143726429Y-121712628D01*
X143697978Y-121697420D01*
X143673043Y-121676957D01*
X143652580Y-121652022D01*
X143637372Y-121623571D01*
X143628009Y-121592703D01*
X143624000Y-121552005D01*
X143624000Y-120047995D01*
X143628009Y-120007297D01*
X143637372Y-119976429D01*
X143652580Y-119947978D01*
X143673043Y-119923043D01*
X143697978Y-119902580D01*
X143726429Y-119887372D01*
X143757297Y-119878009D01*
X143797995Y-119874000D01*
X144802005Y-119874000D01*
X144842703Y-119878009D01*
G37*
G36*
X147642703Y-119878009D02*
G01*
X147673571Y-119887372D01*
X147702022Y-119902580D01*
X147726957Y-119923043D01*
X147747420Y-119947978D01*
X147762628Y-119976429D01*
X147771991Y-120007297D01*
X147776000Y-120047995D01*
X147776000Y-121552005D01*
X147771991Y-121592703D01*
X147762628Y-121623571D01*
X147747420Y-121652022D01*
X147726957Y-121676957D01*
X147702022Y-121697420D01*
X147673571Y-121712628D01*
X147642703Y-121721991D01*
X147602005Y-121726000D01*
X146597995Y-121726000D01*
X146557297Y-121721991D01*
X146526429Y-121712628D01*
X146497978Y-121697420D01*
X146473043Y-121676957D01*
X146452580Y-121652022D01*
X146437372Y-121623571D01*
X146428009Y-121592703D01*
X146424000Y-121552005D01*
X146424000Y-120047995D01*
X146428009Y-120007297D01*
X146437372Y-119976429D01*
X146452580Y-119947978D01*
X146473043Y-119923043D01*
X146497978Y-119902580D01*
X146526429Y-119887372D01*
X146557297Y-119878009D01*
X146597995Y-119874000D01*
X147602005Y-119874000D01*
X147642703Y-119878009D01*
G37*
G36*
X134651000Y-121401000D02*
G01*
X133349000Y-121401000D01*
X133349000Y-117599000D01*
X134651000Y-117599000D01*
X134651000Y-121401000D01*
G37*
G36*
X137451000Y-121401000D02*
G01*
X136149000Y-121401000D01*
X136149000Y-117599000D01*
X137451000Y-117599000D01*
X137451000Y-121401000D01*
G37*
G36*
X140051000Y-120801000D02*
G01*
X138749000Y-120801000D01*
X138749000Y-119799000D01*
X140051000Y-119799000D01*
X140051000Y-120801000D01*
G37*
G36*
X153599512Y-119703443D02*
G01*
X153634618Y-119714092D01*
X153666978Y-119731388D01*
X153695337Y-119754663D01*
X153718612Y-119783022D01*
X153735908Y-119815382D01*
X153746557Y-119850488D01*
X153751000Y-119895594D01*
X153751000Y-120604406D01*
X153746557Y-120649512D01*
X153735908Y-120684618D01*
X153718612Y-120716978D01*
X153695337Y-120745337D01*
X153666978Y-120768612D01*
X153634618Y-120785908D01*
X153599512Y-120796557D01*
X153554406Y-120801000D01*
X150345594Y-120801000D01*
X150300488Y-120796557D01*
X150265382Y-120785908D01*
X150233022Y-120768612D01*
X150204663Y-120745337D01*
X150181388Y-120716978D01*
X150164092Y-120684618D01*
X150153443Y-120649512D01*
X150149000Y-120604406D01*
X150149000Y-119895594D01*
X150153443Y-119850488D01*
X150164092Y-119815382D01*
X150181388Y-119783022D01*
X150204663Y-119754663D01*
X150233022Y-119731388D01*
X150265382Y-119714092D01*
X150300488Y-119703443D01*
X150345594Y-119699000D01*
X153554406Y-119699000D01*
X153599512Y-119703443D01*
G37*
G36*
X129667039Y-119053322D02*
G01*
X129700981Y-119063618D01*
X129732254Y-119080334D01*
X129759668Y-119102832D01*
X129782166Y-119130246D01*
X129798882Y-119161519D01*
X129809178Y-119195461D01*
X129813500Y-119239344D01*
X129813500Y-120360656D01*
X129809178Y-120404539D01*
X129798882Y-120438481D01*
X129782166Y-120469754D01*
X129759668Y-120497168D01*
X129732254Y-120519666D01*
X129700981Y-120536382D01*
X129667039Y-120546678D01*
X129623156Y-120551000D01*
X128926844Y-120551000D01*
X128882961Y-120546678D01*
X128849019Y-120536382D01*
X128817746Y-120519666D01*
X128790332Y-120497168D01*
X128767834Y-120469754D01*
X128751118Y-120438481D01*
X128740822Y-120404539D01*
X128736500Y-120360656D01*
X128736500Y-119239344D01*
X128740822Y-119195461D01*
X128751118Y-119161519D01*
X128767834Y-119130246D01*
X128790332Y-119102832D01*
X128817746Y-119080334D01*
X128849019Y-119063618D01*
X128882961Y-119053322D01*
X128926844Y-119049000D01*
X129623156Y-119049000D01*
X129667039Y-119053322D01*
G37*
G36*
X127792039Y-119053322D02*
G01*
X127825981Y-119063618D01*
X127857254Y-119080334D01*
X127884668Y-119102832D01*
X127907166Y-119130246D01*
X127923882Y-119161519D01*
X127934178Y-119195461D01*
X127938500Y-119239344D01*
X127938500Y-120360656D01*
X127934178Y-120404539D01*
X127923882Y-120438481D01*
X127907166Y-120469754D01*
X127884668Y-120497168D01*
X127857254Y-120519666D01*
X127825981Y-120536382D01*
X127792039Y-120546678D01*
X127748156Y-120551000D01*
X127051844Y-120551000D01*
X127007961Y-120546678D01*
X126974019Y-120536382D01*
X126942746Y-120519666D01*
X126915332Y-120497168D01*
X126892834Y-120469754D01*
X126876118Y-120438481D01*
X126865822Y-120404539D01*
X126861500Y-120360656D01*
X126861500Y-119239344D01*
X126865822Y-119195461D01*
X126876118Y-119161519D01*
X126892834Y-119130246D01*
X126915332Y-119102832D01*
X126942746Y-119080334D01*
X126974019Y-119063618D01*
X127007961Y-119053322D01*
X127051844Y-119049000D01*
X127748156Y-119049000D01*
X127792039Y-119053322D01*
G37*
G36*
X105499664Y-119215341D02*
G01*
X105528912Y-119224214D01*
X105555865Y-119238621D01*
X105579490Y-119258010D01*
X105598879Y-119281635D01*
X105613286Y-119308588D01*
X105622159Y-119337836D01*
X105626000Y-119376842D01*
X105626000Y-120023158D01*
X105622159Y-120062164D01*
X105613286Y-120091412D01*
X105598879Y-120118365D01*
X105579490Y-120141990D01*
X105555865Y-120161379D01*
X105528912Y-120175786D01*
X105499664Y-120184659D01*
X105460658Y-120188500D01*
X104739342Y-120188500D01*
X104700336Y-120184659D01*
X104671088Y-120175786D01*
X104644135Y-120161379D01*
X104620510Y-120141990D01*
X104601121Y-120118365D01*
X104586714Y-120091412D01*
X104577841Y-120062164D01*
X104574000Y-120023158D01*
X104574000Y-119376842D01*
X104577841Y-119337836D01*
X104586714Y-119308588D01*
X104601121Y-119281635D01*
X104620510Y-119258010D01*
X104644135Y-119238621D01*
X104671088Y-119224214D01*
X104700336Y-119215341D01*
X104739342Y-119211500D01*
X105460658Y-119211500D01*
X105499664Y-119215341D01*
G37*
G36*
X132699664Y-119190341D02*
G01*
X132728912Y-119199214D01*
X132755865Y-119213621D01*
X132779490Y-119233010D01*
X132798879Y-119256635D01*
X132813286Y-119283588D01*
X132822159Y-119312836D01*
X132826000Y-119351842D01*
X132826000Y-119998158D01*
X132822159Y-120037164D01*
X132813286Y-120066412D01*
X132798879Y-120093365D01*
X132779490Y-120116990D01*
X132755865Y-120136379D01*
X132728912Y-120150786D01*
X132699664Y-120159659D01*
X132660658Y-120163500D01*
X131939342Y-120163500D01*
X131900336Y-120159659D01*
X131871088Y-120150786D01*
X131844135Y-120136379D01*
X131820510Y-120116990D01*
X131801121Y-120093365D01*
X131786714Y-120066412D01*
X131777841Y-120037164D01*
X131774000Y-119998158D01*
X131774000Y-119351842D01*
X131777841Y-119312836D01*
X131786714Y-119283588D01*
X131801121Y-119256635D01*
X131820510Y-119233010D01*
X131844135Y-119213621D01*
X131871088Y-119199214D01*
X131900336Y-119190341D01*
X131939342Y-119186500D01*
X132660658Y-119186500D01*
X132699664Y-119190341D01*
G37*
G36*
X131199664Y-119190341D02*
G01*
X131228912Y-119199214D01*
X131255865Y-119213621D01*
X131279490Y-119233010D01*
X131298879Y-119256635D01*
X131313286Y-119283588D01*
X131322159Y-119312836D01*
X131326000Y-119351842D01*
X131326000Y-119998158D01*
X131322159Y-120037164D01*
X131313286Y-120066412D01*
X131298879Y-120093365D01*
X131279490Y-120116990D01*
X131255865Y-120136379D01*
X131228912Y-120150786D01*
X131199664Y-120159659D01*
X131160658Y-120163500D01*
X130439342Y-120163500D01*
X130400336Y-120159659D01*
X130371088Y-120150786D01*
X130344135Y-120136379D01*
X130320510Y-120116990D01*
X130301121Y-120093365D01*
X130286714Y-120066412D01*
X130277841Y-120037164D01*
X130274000Y-119998158D01*
X130274000Y-119351842D01*
X130277841Y-119312836D01*
X130286714Y-119283588D01*
X130301121Y-119256635D01*
X130320510Y-119233010D01*
X130344135Y-119213621D01*
X130371088Y-119199214D01*
X130400336Y-119190341D01*
X130439342Y-119186500D01*
X131160658Y-119186500D01*
X131199664Y-119190341D01*
G37*
G36*
X119479997Y-117951520D02*
G01*
X119496355Y-117956482D01*
X119511417Y-117964533D01*
X119524626Y-117975374D01*
X119535464Y-117988580D01*
X119545663Y-118007661D01*
X119564722Y-118036185D01*
X119588980Y-118060443D01*
X119617504Y-118079503D01*
X119649198Y-118092632D01*
X119682845Y-118099325D01*
X119717150Y-118099326D01*
X119750797Y-118092633D01*
X119782492Y-118079506D01*
X119811016Y-118060447D01*
X119835274Y-118036189D01*
X119854337Y-118007661D01*
X119864536Y-117988580D01*
X119875374Y-117975374D01*
X119888583Y-117964533D01*
X119903645Y-117956482D01*
X119920003Y-117951520D01*
X119945591Y-117949000D01*
X120454409Y-117949000D01*
X120479997Y-117951520D01*
X120496355Y-117956482D01*
X120511417Y-117964533D01*
X120524626Y-117975374D01*
X120535464Y-117988580D01*
X120545663Y-118007661D01*
X120564722Y-118036185D01*
X120588980Y-118060443D01*
X120617504Y-118079503D01*
X120649198Y-118092632D01*
X120682845Y-118099325D01*
X120717150Y-118099326D01*
X120750797Y-118092633D01*
X120782492Y-118079506D01*
X120811016Y-118060447D01*
X120835274Y-118036189D01*
X120854337Y-118007661D01*
X120864536Y-117988580D01*
X120875374Y-117975374D01*
X120888583Y-117964533D01*
X120903645Y-117956482D01*
X120920003Y-117951520D01*
X120945591Y-117949000D01*
X121454409Y-117949000D01*
X121479997Y-117951520D01*
X121496355Y-117956482D01*
X121511417Y-117964533D01*
X121524626Y-117975374D01*
X121535464Y-117988580D01*
X121545663Y-118007661D01*
X121564722Y-118036185D01*
X121588980Y-118060443D01*
X121617504Y-118079503D01*
X121649198Y-118092632D01*
X121682845Y-118099325D01*
X121717150Y-118099326D01*
X121750797Y-118092633D01*
X121782492Y-118079506D01*
X121811016Y-118060447D01*
X121835274Y-118036189D01*
X121854337Y-118007661D01*
X121864536Y-117988580D01*
X121875374Y-117975374D01*
X121888583Y-117964533D01*
X121903645Y-117956482D01*
X121920003Y-117951520D01*
X121945591Y-117949000D01*
X122454409Y-117949000D01*
X122479997Y-117951520D01*
X122496355Y-117956482D01*
X122511417Y-117964533D01*
X122524626Y-117975374D01*
X122535464Y-117988580D01*
X122545663Y-118007661D01*
X122564722Y-118036185D01*
X122588980Y-118060443D01*
X122617504Y-118079503D01*
X122649198Y-118092632D01*
X122682845Y-118099325D01*
X122717150Y-118099326D01*
X122750797Y-118092633D01*
X122782492Y-118079506D01*
X122811016Y-118060447D01*
X122835274Y-118036189D01*
X122854337Y-118007661D01*
X122864536Y-117988580D01*
X122875374Y-117975374D01*
X122888583Y-117964533D01*
X122903645Y-117956482D01*
X122920003Y-117951520D01*
X122945591Y-117949000D01*
X123454409Y-117949000D01*
X123479997Y-117951520D01*
X123496355Y-117956482D01*
X123511417Y-117964533D01*
X123524626Y-117975374D01*
X123535464Y-117988580D01*
X123545663Y-118007661D01*
X123564722Y-118036185D01*
X123588980Y-118060443D01*
X123617504Y-118079503D01*
X123649198Y-118092632D01*
X123682845Y-118099325D01*
X123717150Y-118099326D01*
X123750797Y-118092633D01*
X123782492Y-118079506D01*
X123811016Y-118060447D01*
X123835274Y-118036189D01*
X123854337Y-118007661D01*
X123864536Y-117988580D01*
X123875374Y-117975374D01*
X123888583Y-117964533D01*
X123903645Y-117956482D01*
X123920003Y-117951520D01*
X123945591Y-117949000D01*
X124454409Y-117949000D01*
X124479997Y-117951520D01*
X124496355Y-117956482D01*
X124511417Y-117964533D01*
X124524626Y-117975374D01*
X124535467Y-117988583D01*
X124543518Y-118003645D01*
X124548480Y-118020003D01*
X124551000Y-118045591D01*
X124551000Y-119504409D01*
X124548480Y-119529997D01*
X124543518Y-119546355D01*
X124535467Y-119561417D01*
X124524626Y-119574626D01*
X124511417Y-119585467D01*
X124496355Y-119593518D01*
X124479997Y-119598480D01*
X124454409Y-119601000D01*
X123945591Y-119601000D01*
X123920003Y-119598480D01*
X123903645Y-119593518D01*
X123888583Y-119585467D01*
X123875374Y-119574626D01*
X123864536Y-119561420D01*
X123854337Y-119542339D01*
X123835278Y-119513815D01*
X123811020Y-119489557D01*
X123782496Y-119470497D01*
X123750802Y-119457368D01*
X123717155Y-119450675D01*
X123682850Y-119450674D01*
X123649203Y-119457367D01*
X123617508Y-119470494D01*
X123588984Y-119489553D01*
X123564726Y-119513811D01*
X123545663Y-119542339D01*
X123535464Y-119561420D01*
X123524626Y-119574626D01*
X123511417Y-119585467D01*
X123496355Y-119593518D01*
X123479997Y-119598480D01*
X123454409Y-119601000D01*
X122945591Y-119601000D01*
X122920003Y-119598480D01*
X122903645Y-119593518D01*
X122888583Y-119585467D01*
X122875374Y-119574626D01*
X122864536Y-119561420D01*
X122854337Y-119542339D01*
X122835278Y-119513815D01*
X122811020Y-119489557D01*
X122782496Y-119470497D01*
X122750802Y-119457368D01*
X122717155Y-119450675D01*
X122682850Y-119450674D01*
X122649203Y-119457367D01*
X122617508Y-119470494D01*
X122588984Y-119489553D01*
X122564726Y-119513811D01*
X122545663Y-119542339D01*
X122535464Y-119561420D01*
X122524626Y-119574626D01*
X122511417Y-119585467D01*
X122496355Y-119593518D01*
X122479997Y-119598480D01*
X122454409Y-119601000D01*
X121945591Y-119601000D01*
X121920003Y-119598480D01*
X121903645Y-119593518D01*
X121888583Y-119585467D01*
X121875374Y-119574626D01*
X121864536Y-119561420D01*
X121854337Y-119542339D01*
X121835278Y-119513815D01*
X121811020Y-119489557D01*
X121782496Y-119470497D01*
X121750802Y-119457368D01*
X121717155Y-119450675D01*
X121682850Y-119450674D01*
X121649203Y-119457367D01*
X121617508Y-119470494D01*
X121588984Y-119489553D01*
X121564726Y-119513811D01*
X121545663Y-119542339D01*
X121535464Y-119561420D01*
X121524626Y-119574626D01*
X121511417Y-119585467D01*
X121496355Y-119593518D01*
X121479997Y-119598480D01*
X121454409Y-119601000D01*
X120945591Y-119601000D01*
X120920003Y-119598480D01*
X120903645Y-119593518D01*
X120888583Y-119585467D01*
X120875374Y-119574626D01*
X120864536Y-119561420D01*
X120854337Y-119542339D01*
X120835278Y-119513815D01*
X120811020Y-119489557D01*
X120782496Y-119470497D01*
X120750802Y-119457368D01*
X120717155Y-119450675D01*
X120682850Y-119450674D01*
X120649203Y-119457367D01*
X120617508Y-119470494D01*
X120588984Y-119489553D01*
X120564726Y-119513811D01*
X120545663Y-119542339D01*
X120535464Y-119561420D01*
X120524626Y-119574626D01*
X120511417Y-119585467D01*
X120496355Y-119593518D01*
X120479997Y-119598480D01*
X120454409Y-119601000D01*
X119945591Y-119601000D01*
X119920003Y-119598480D01*
X119903645Y-119593518D01*
X119888583Y-119585467D01*
X119875374Y-119574626D01*
X119864536Y-119561420D01*
X119854337Y-119542339D01*
X119835278Y-119513815D01*
X119811020Y-119489557D01*
X119782496Y-119470497D01*
X119750802Y-119457368D01*
X119717155Y-119450675D01*
X119682850Y-119450674D01*
X119649203Y-119457367D01*
X119617508Y-119470494D01*
X119588984Y-119489553D01*
X119564726Y-119513811D01*
X119545663Y-119542339D01*
X119535464Y-119561420D01*
X119524626Y-119574626D01*
X119511417Y-119585467D01*
X119496355Y-119593518D01*
X119479997Y-119598480D01*
X119454409Y-119601000D01*
X118945591Y-119601000D01*
X118920003Y-119598480D01*
X118903645Y-119593518D01*
X118888583Y-119585467D01*
X118875374Y-119574626D01*
X118864533Y-119561417D01*
X118856482Y-119546355D01*
X118851520Y-119529997D01*
X118849000Y-119504409D01*
X118849000Y-118045591D01*
X118851520Y-118020003D01*
X118856482Y-118003645D01*
X118864533Y-117988583D01*
X118875374Y-117975374D01*
X118888583Y-117964533D01*
X118903645Y-117956482D01*
X118920003Y-117951520D01*
X118945591Y-117949000D01*
X119454409Y-117949000D01*
X119479997Y-117951520D01*
G37*
G36*
X97999664Y-118515341D02*
G01*
X98028912Y-118524214D01*
X98055865Y-118538621D01*
X98079490Y-118558010D01*
X98098879Y-118581635D01*
X98113286Y-118608588D01*
X98122159Y-118637836D01*
X98126000Y-118676842D01*
X98126000Y-119323158D01*
X98122159Y-119362164D01*
X98113286Y-119391412D01*
X98098879Y-119418365D01*
X98079490Y-119441990D01*
X98055865Y-119461379D01*
X98028912Y-119475786D01*
X97999664Y-119484659D01*
X97960658Y-119488500D01*
X97239342Y-119488500D01*
X97200336Y-119484659D01*
X97171088Y-119475786D01*
X97144135Y-119461379D01*
X97120510Y-119441990D01*
X97101121Y-119418365D01*
X97086714Y-119391412D01*
X97077841Y-119362164D01*
X97074000Y-119323158D01*
X97074000Y-118676842D01*
X97077841Y-118637836D01*
X97086714Y-118608588D01*
X97101121Y-118581635D01*
X97120510Y-118558010D01*
X97144135Y-118538621D01*
X97171088Y-118524214D01*
X97200336Y-118515341D01*
X97239342Y-118511500D01*
X97960658Y-118511500D01*
X97999664Y-118515341D01*
G37*
G36*
X92501000Y-118759428D02*
G01*
X92501843Y-118776581D01*
X92504150Y-118800000D01*
X92501843Y-118823419D01*
X92501000Y-118840572D01*
X92501000Y-118926465D01*
X92499104Y-118928775D01*
X92477147Y-118975199D01*
X92467090Y-119008352D01*
X92454355Y-119050332D01*
X92431707Y-119092703D01*
X92393906Y-119163425D01*
X92312553Y-119262553D01*
X92213425Y-119343906D01*
X92179266Y-119362164D01*
X92100332Y-119404355D01*
X92100329Y-119404356D01*
X91977619Y-119441580D01*
X91881978Y-119451000D01*
X91118022Y-119451000D01*
X91022381Y-119441580D01*
X90899671Y-119404356D01*
X90899668Y-119404355D01*
X90820734Y-119362164D01*
X90786575Y-119343906D01*
X90687447Y-119262553D01*
X90606094Y-119163425D01*
X90568293Y-119092703D01*
X90545645Y-119050332D01*
X90532910Y-119008352D01*
X90522853Y-118975199D01*
X90509725Y-118943504D01*
X90499000Y-118927454D01*
X90499000Y-118840572D01*
X90498157Y-118823419D01*
X90495850Y-118800000D01*
X90498157Y-118776581D01*
X90499000Y-118759428D01*
X90499000Y-117549000D01*
X92501000Y-117549000D01*
X92501000Y-118759428D01*
G37*
G36*
X144842703Y-117378009D02*
G01*
X144873571Y-117387372D01*
X144902022Y-117402580D01*
X144926957Y-117423043D01*
X144947420Y-117447978D01*
X144962628Y-117476429D01*
X144971991Y-117507297D01*
X144976000Y-117547995D01*
X144976000Y-119052005D01*
X144971991Y-119092703D01*
X144962628Y-119123571D01*
X144947420Y-119152022D01*
X144926957Y-119176957D01*
X144902022Y-119197420D01*
X144873571Y-119212628D01*
X144842703Y-119221991D01*
X144802005Y-119226000D01*
X143797995Y-119226000D01*
X143757297Y-119221991D01*
X143726429Y-119212628D01*
X143697978Y-119197420D01*
X143673043Y-119176957D01*
X143652580Y-119152022D01*
X143637372Y-119123571D01*
X143628009Y-119092703D01*
X143624000Y-119052005D01*
X143624000Y-117547995D01*
X143628009Y-117507297D01*
X143637372Y-117476429D01*
X143652580Y-117447978D01*
X143673043Y-117423043D01*
X143697978Y-117402580D01*
X143726429Y-117387372D01*
X143757297Y-117378009D01*
X143797995Y-117374000D01*
X144802005Y-117374000D01*
X144842703Y-117378009D01*
G37*
G36*
X147642703Y-117378009D02*
G01*
X147673571Y-117387372D01*
X147702022Y-117402580D01*
X147726957Y-117423043D01*
X147747420Y-117447978D01*
X147762628Y-117476429D01*
X147771991Y-117507297D01*
X147776000Y-117547995D01*
X147776000Y-119052005D01*
X147771991Y-119092703D01*
X147762628Y-119123571D01*
X147747420Y-119152022D01*
X147726957Y-119176957D01*
X147702022Y-119197420D01*
X147673571Y-119212628D01*
X147642703Y-119221991D01*
X147602005Y-119226000D01*
X146597995Y-119226000D01*
X146557297Y-119221991D01*
X146526429Y-119212628D01*
X146497978Y-119197420D01*
X146473043Y-119176957D01*
X146452580Y-119152022D01*
X146437372Y-119123571D01*
X146428009Y-119092703D01*
X146424000Y-119052005D01*
X146424000Y-117547995D01*
X146428009Y-117507297D01*
X146437372Y-117476429D01*
X146452580Y-117447978D01*
X146473043Y-117423043D01*
X146497978Y-117402580D01*
X146526429Y-117387372D01*
X146557297Y-117378009D01*
X146597995Y-117374000D01*
X147602005Y-117374000D01*
X147642703Y-117378009D01*
G37*
G36*
X108351000Y-119101000D02*
G01*
X106249000Y-119101000D01*
X106249000Y-117499000D01*
X108351000Y-117499000D01*
X108351000Y-119101000D01*
G37*
G36*
X140401000Y-118901000D02*
G01*
X139399000Y-118901000D01*
X139399000Y-117999000D01*
X140401000Y-117999000D01*
X140401000Y-118901000D01*
G37*
G36*
X153599512Y-117703443D02*
G01*
X153634618Y-117714092D01*
X153666978Y-117731388D01*
X153695337Y-117754663D01*
X153718612Y-117783022D01*
X153735908Y-117815382D01*
X153746557Y-117850488D01*
X153751000Y-117895594D01*
X153751000Y-118604406D01*
X153746557Y-118649512D01*
X153735908Y-118684618D01*
X153718612Y-118716978D01*
X153695337Y-118745337D01*
X153666978Y-118768612D01*
X153634618Y-118785908D01*
X153599512Y-118796557D01*
X153554406Y-118801000D01*
X150345594Y-118801000D01*
X150300488Y-118796557D01*
X150265382Y-118785908D01*
X150233022Y-118768612D01*
X150204663Y-118745337D01*
X150181388Y-118716978D01*
X150164092Y-118684618D01*
X150153443Y-118649512D01*
X150149000Y-118604406D01*
X150149000Y-117895594D01*
X150153443Y-117850488D01*
X150164092Y-117815382D01*
X150181388Y-117783022D01*
X150204663Y-117754663D01*
X150233022Y-117731388D01*
X150265382Y-117714092D01*
X150300488Y-117703443D01*
X150345594Y-117699000D01*
X153554406Y-117699000D01*
X153599512Y-117703443D01*
G37*
G36*
X103837164Y-117677841D02*
G01*
X103866412Y-117686714D01*
X103893365Y-117701121D01*
X103916990Y-117720510D01*
X103936379Y-117744135D01*
X103950786Y-117771088D01*
X103959659Y-117800336D01*
X103963500Y-117839342D01*
X103963500Y-118560658D01*
X103959659Y-118599664D01*
X103950786Y-118628912D01*
X103936379Y-118655865D01*
X103916990Y-118679490D01*
X103893365Y-118698879D01*
X103866412Y-118713286D01*
X103837164Y-118722159D01*
X103798158Y-118726000D01*
X103151842Y-118726000D01*
X103112836Y-118722159D01*
X103083588Y-118713286D01*
X103056635Y-118698879D01*
X103033010Y-118679490D01*
X103013621Y-118655865D01*
X102999214Y-118628912D01*
X102990341Y-118599664D01*
X102986500Y-118560658D01*
X102986500Y-117839342D01*
X102990341Y-117800336D01*
X102999214Y-117771088D01*
X103013621Y-117744135D01*
X103033010Y-117720510D01*
X103056635Y-117701121D01*
X103083588Y-117686714D01*
X103112836Y-117677841D01*
X103151842Y-117674000D01*
X103798158Y-117674000D01*
X103837164Y-117677841D01*
G37*
G36*
X102262164Y-117677841D02*
G01*
X102291412Y-117686714D01*
X102318365Y-117701121D01*
X102341990Y-117720510D01*
X102361379Y-117744135D01*
X102375786Y-117771088D01*
X102384659Y-117800336D01*
X102388500Y-117839342D01*
X102388500Y-118560658D01*
X102384659Y-118599664D01*
X102375786Y-118628912D01*
X102361379Y-118655865D01*
X102341990Y-118679490D01*
X102318365Y-118698879D01*
X102291412Y-118713286D01*
X102262164Y-118722159D01*
X102223158Y-118726000D01*
X101576842Y-118726000D01*
X101537836Y-118722159D01*
X101508588Y-118713286D01*
X101481635Y-118698879D01*
X101458010Y-118679490D01*
X101438621Y-118655865D01*
X101424214Y-118628912D01*
X101415341Y-118599664D01*
X101411500Y-118560658D01*
X101411500Y-117839342D01*
X101415341Y-117800336D01*
X101424214Y-117771088D01*
X101438621Y-117744135D01*
X101458010Y-117720510D01*
X101481635Y-117701121D01*
X101508588Y-117686714D01*
X101537836Y-117677841D01*
X101576842Y-117674000D01*
X102223158Y-117674000D01*
X102262164Y-117677841D01*
G37*
G36*
X105499664Y-117640341D02*
G01*
X105528912Y-117649214D01*
X105555865Y-117663621D01*
X105579490Y-117683010D01*
X105598879Y-117706635D01*
X105613286Y-117733588D01*
X105622159Y-117762836D01*
X105626000Y-117801842D01*
X105626000Y-118448158D01*
X105622159Y-118487164D01*
X105613286Y-118516412D01*
X105598879Y-118543365D01*
X105579490Y-118566990D01*
X105555865Y-118586379D01*
X105528912Y-118600786D01*
X105499664Y-118609659D01*
X105460658Y-118613500D01*
X104739342Y-118613500D01*
X104700336Y-118609659D01*
X104671088Y-118600786D01*
X104644135Y-118586379D01*
X104620510Y-118566990D01*
X104601121Y-118543365D01*
X104586714Y-118516412D01*
X104577841Y-118487164D01*
X104574000Y-118448158D01*
X104574000Y-117801842D01*
X104577841Y-117762836D01*
X104586714Y-117733588D01*
X104601121Y-117706635D01*
X104620510Y-117683010D01*
X104644135Y-117663621D01*
X104671088Y-117649214D01*
X104700336Y-117640341D01*
X104739342Y-117636500D01*
X105460658Y-117636500D01*
X105499664Y-117640341D01*
G37*
G36*
X131199664Y-117615341D02*
G01*
X131228912Y-117624214D01*
X131255865Y-117638621D01*
X131279490Y-117658010D01*
X131298879Y-117681635D01*
X131313286Y-117708588D01*
X131322159Y-117737836D01*
X131326000Y-117776842D01*
X131326000Y-118423158D01*
X131322159Y-118462164D01*
X131313286Y-118491412D01*
X131298879Y-118518365D01*
X131279490Y-118541990D01*
X131255865Y-118561379D01*
X131228912Y-118575786D01*
X131199664Y-118584659D01*
X131160658Y-118588500D01*
X130439342Y-118588500D01*
X130400336Y-118584659D01*
X130371088Y-118575786D01*
X130344135Y-118561379D01*
X130320510Y-118541990D01*
X130301121Y-118518365D01*
X130286714Y-118491412D01*
X130277841Y-118462164D01*
X130274000Y-118423158D01*
X130274000Y-117776842D01*
X130277841Y-117737836D01*
X130286714Y-117708588D01*
X130301121Y-117681635D01*
X130320510Y-117658010D01*
X130344135Y-117638621D01*
X130371088Y-117624214D01*
X130400336Y-117615341D01*
X130439342Y-117611500D01*
X131160658Y-117611500D01*
X131199664Y-117615341D01*
G37*
G36*
X132699664Y-117615341D02*
G01*
X132728912Y-117624214D01*
X132755865Y-117638621D01*
X132779490Y-117658010D01*
X132798879Y-117681635D01*
X132813286Y-117708588D01*
X132822159Y-117737836D01*
X132826000Y-117776842D01*
X132826000Y-118423158D01*
X132822159Y-118462164D01*
X132813286Y-118491412D01*
X132798879Y-118518365D01*
X132779490Y-118541990D01*
X132755865Y-118561379D01*
X132728912Y-118575786D01*
X132699664Y-118584659D01*
X132660658Y-118588500D01*
X131939342Y-118588500D01*
X131900336Y-118584659D01*
X131871088Y-118575786D01*
X131844135Y-118561379D01*
X131820510Y-118541990D01*
X131801121Y-118518365D01*
X131786714Y-118491412D01*
X131777841Y-118462164D01*
X131774000Y-118423158D01*
X131774000Y-117776842D01*
X131777841Y-117737836D01*
X131786714Y-117708588D01*
X131801121Y-117681635D01*
X131820510Y-117658010D01*
X131844135Y-117638621D01*
X131871088Y-117624214D01*
X131900336Y-117615341D01*
X131939342Y-117611500D01*
X132660658Y-117611500D01*
X132699664Y-117615341D01*
G37*
G36*
X94351390Y-112038910D02*
G01*
X94426351Y-112053821D01*
X94567574Y-112112317D01*
X94694671Y-112197241D01*
X94802759Y-112305329D01*
X94887683Y-112432426D01*
X94946179Y-112573649D01*
X94951961Y-112602718D01*
X94976000Y-112723569D01*
X94976000Y-112876431D01*
X94963486Y-112939342D01*
X94946179Y-113026351D01*
X94887683Y-113167574D01*
X94802759Y-113294671D01*
X94694671Y-113402759D01*
X94656151Y-113428497D01*
X94629635Y-113450258D01*
X94607872Y-113476777D01*
X94591700Y-113507032D01*
X94581742Y-113539861D01*
X94578379Y-113574001D01*
X94581742Y-113608142D01*
X94591700Y-113640970D01*
X94607872Y-113671225D01*
X94629635Y-113697744D01*
X94656154Y-113719507D01*
X94686409Y-113735679D01*
X94719238Y-113745637D01*
X94753378Y-113749000D01*
X94926000Y-113749000D01*
X94926000Y-116851000D01*
X94753378Y-116851000D01*
X94719237Y-116854363D01*
X94686409Y-116864321D01*
X94656154Y-116880493D01*
X94629635Y-116902256D01*
X94607872Y-116928775D01*
X94591700Y-116959030D01*
X94581742Y-116991858D01*
X94578379Y-117025999D01*
X94581742Y-117060140D01*
X94591700Y-117092968D01*
X94607872Y-117123223D01*
X94629635Y-117149742D01*
X94656151Y-117171503D01*
X94694671Y-117197241D01*
X94802759Y-117305329D01*
X94887683Y-117432426D01*
X94946179Y-117573649D01*
X94953708Y-117611500D01*
X94976000Y-117723569D01*
X94976000Y-117876431D01*
X94967184Y-117920753D01*
X94946179Y-118026351D01*
X94887683Y-118167574D01*
X94802759Y-118294671D01*
X94694671Y-118402759D01*
X94567574Y-118487683D01*
X94426351Y-118546179D01*
X94353559Y-118560658D01*
X94276431Y-118576000D01*
X94123569Y-118576000D01*
X94046441Y-118560658D01*
X93973649Y-118546179D01*
X93832426Y-118487683D01*
X93705329Y-118402759D01*
X93597241Y-118294671D01*
X93512317Y-118167574D01*
X93453821Y-118026351D01*
X93432816Y-117920753D01*
X93424000Y-117876431D01*
X93424000Y-117723569D01*
X93446292Y-117611500D01*
X93453821Y-117573649D01*
X93512317Y-117432426D01*
X93597241Y-117305329D01*
X93705329Y-117197241D01*
X93743849Y-117171503D01*
X93770365Y-117149742D01*
X93792128Y-117123223D01*
X93808300Y-117092968D01*
X93818258Y-117060139D01*
X93821621Y-117025999D01*
X93818258Y-116991858D01*
X93808300Y-116959030D01*
X93792128Y-116928775D01*
X93770365Y-116902256D01*
X93743846Y-116880493D01*
X93713591Y-116864321D01*
X93680762Y-116854363D01*
X93646622Y-116851000D01*
X93474000Y-116851000D01*
X93474000Y-113749000D01*
X93646622Y-113749000D01*
X93680763Y-113745637D01*
X93713591Y-113735679D01*
X93743846Y-113719507D01*
X93770365Y-113697744D01*
X93792128Y-113671225D01*
X93808300Y-113640970D01*
X93818258Y-113608142D01*
X93821621Y-113574001D01*
X93818258Y-113539860D01*
X93808300Y-113507032D01*
X93792128Y-113476777D01*
X93770365Y-113450258D01*
X93743849Y-113428497D01*
X93705329Y-113402759D01*
X93597241Y-113294671D01*
X93512317Y-113167574D01*
X93453821Y-113026351D01*
X93436514Y-112939342D01*
X93424000Y-112876431D01*
X93424000Y-112723569D01*
X93448039Y-112602718D01*
X93453821Y-112573649D01*
X93512317Y-112432426D01*
X93597241Y-112305329D01*
X93705329Y-112197241D01*
X93832426Y-112112317D01*
X93973649Y-112053821D01*
X94048610Y-112038910D01*
X94123569Y-112024000D01*
X94276431Y-112024000D01*
X94351390Y-112038910D01*
G37*
G36*
X142401000Y-117951000D02*
G01*
X141399000Y-117951000D01*
X141399000Y-117049000D01*
X142401000Y-117049000D01*
X142401000Y-117951000D01*
G37*
G36*
X114651000Y-117951000D02*
G01*
X112549000Y-117951000D01*
X112549000Y-114049000D01*
X114651000Y-114049000D01*
X114651000Y-117951000D01*
G37*
G36*
X97999664Y-116940341D02*
G01*
X98028912Y-116949214D01*
X98055865Y-116963621D01*
X98079490Y-116983010D01*
X98098879Y-117006635D01*
X98113286Y-117033588D01*
X98122159Y-117062836D01*
X98126000Y-117101842D01*
X98126000Y-117748158D01*
X98122159Y-117787164D01*
X98113286Y-117816412D01*
X98098879Y-117843365D01*
X98079490Y-117866990D01*
X98055865Y-117886379D01*
X98028912Y-117900786D01*
X97999664Y-117909659D01*
X97960658Y-117913500D01*
X97239342Y-117913500D01*
X97200336Y-117909659D01*
X97171088Y-117900786D01*
X97144135Y-117886379D01*
X97120510Y-117866990D01*
X97101121Y-117843365D01*
X97086714Y-117816412D01*
X97077841Y-117787164D01*
X97074000Y-117748158D01*
X97074000Y-117101842D01*
X97077841Y-117062836D01*
X97086714Y-117033588D01*
X97101121Y-117006635D01*
X97120510Y-116983010D01*
X97144135Y-116963621D01*
X97171088Y-116949214D01*
X97200336Y-116940341D01*
X97239342Y-116936500D01*
X97960658Y-116936500D01*
X97999664Y-116940341D01*
G37*
G36*
X150399664Y-116190341D02*
G01*
X150428912Y-116199214D01*
X150455865Y-116213621D01*
X150479490Y-116233010D01*
X150498879Y-116256635D01*
X150513286Y-116283588D01*
X150522159Y-116312836D01*
X150526000Y-116351842D01*
X150526000Y-116998158D01*
X150522159Y-117037164D01*
X150513286Y-117066412D01*
X150498879Y-117093365D01*
X150479490Y-117116990D01*
X150455865Y-117136379D01*
X150428912Y-117150786D01*
X150399664Y-117159659D01*
X150360658Y-117163500D01*
X149639342Y-117163500D01*
X149600336Y-117159659D01*
X149571088Y-117150786D01*
X149544135Y-117136379D01*
X149520510Y-117116990D01*
X149501121Y-117093365D01*
X149486714Y-117066412D01*
X149477841Y-117037164D01*
X149474000Y-116998158D01*
X149474000Y-116351842D01*
X149477841Y-116312836D01*
X149486714Y-116283588D01*
X149501121Y-116256635D01*
X149520510Y-116233010D01*
X149544135Y-116213621D01*
X149571088Y-116199214D01*
X149600336Y-116190341D01*
X149639342Y-116186500D01*
X150360658Y-116186500D01*
X150399664Y-116190341D01*
G37*
G36*
X92501000Y-117101000D02*
G01*
X90499000Y-117101000D01*
X90499000Y-115499000D01*
X92501000Y-115499000D01*
X92501000Y-117101000D01*
G37*
G36*
X131816000Y-117051000D02*
G01*
X119384000Y-117051000D01*
X119384000Y-114949000D01*
X131816000Y-114949000D01*
X131816000Y-117051000D01*
G37*
G36*
X140401000Y-117001000D02*
G01*
X139399000Y-117001000D01*
X139399000Y-116099000D01*
X140401000Y-116099000D01*
X140401000Y-117001000D01*
G37*
G36*
X105399664Y-115915341D02*
G01*
X105428912Y-115924214D01*
X105455865Y-115938621D01*
X105479490Y-115958010D01*
X105498879Y-115981635D01*
X105513286Y-116008588D01*
X105522159Y-116037836D01*
X105526000Y-116076842D01*
X105526000Y-116723158D01*
X105522159Y-116762164D01*
X105513286Y-116791412D01*
X105498879Y-116818365D01*
X105479490Y-116841990D01*
X105455865Y-116861379D01*
X105428912Y-116875786D01*
X105399664Y-116884659D01*
X105360658Y-116888500D01*
X104639342Y-116888500D01*
X104600336Y-116884659D01*
X104571088Y-116875786D01*
X104544135Y-116861379D01*
X104520510Y-116841990D01*
X104501121Y-116818365D01*
X104486714Y-116791412D01*
X104477841Y-116762164D01*
X104474000Y-116723158D01*
X104474000Y-116076842D01*
X104477841Y-116037836D01*
X104486714Y-116008588D01*
X104501121Y-115981635D01*
X104520510Y-115958010D01*
X104544135Y-115938621D01*
X104571088Y-115924214D01*
X104600336Y-115915341D01*
X104639342Y-115911500D01*
X105360658Y-115911500D01*
X105399664Y-115915341D01*
G37*
G36*
X108351000Y-116801000D02*
G01*
X106249000Y-116801000D01*
X106249000Y-115199000D01*
X108351000Y-115199000D01*
X108351000Y-116801000D01*
G37*
G36*
X146092703Y-115428009D02*
G01*
X146123571Y-115437372D01*
X146152022Y-115452580D01*
X146176957Y-115473043D01*
X146197420Y-115497978D01*
X146212628Y-115526429D01*
X146221991Y-115557297D01*
X146226000Y-115597995D01*
X146226000Y-116602005D01*
X146221991Y-116642703D01*
X146212628Y-116673571D01*
X146197420Y-116702022D01*
X146176957Y-116726957D01*
X146152022Y-116747420D01*
X146123571Y-116762628D01*
X146092703Y-116771991D01*
X146052005Y-116776000D01*
X144547995Y-116776000D01*
X144507297Y-116771991D01*
X144476429Y-116762628D01*
X144447978Y-116747420D01*
X144423043Y-116726957D01*
X144402580Y-116702022D01*
X144387372Y-116673571D01*
X144378009Y-116642703D01*
X144374000Y-116602005D01*
X144374000Y-115597995D01*
X144378009Y-115557297D01*
X144387372Y-115526429D01*
X144402580Y-115497978D01*
X144423043Y-115473043D01*
X144447978Y-115452580D01*
X144476429Y-115437372D01*
X144507297Y-115428009D01*
X144547995Y-115424000D01*
X146052005Y-115424000D01*
X146092703Y-115428009D01*
G37*
G36*
X159329828Y-115102718D02*
G01*
X159357872Y-115111226D01*
X159383718Y-115125041D01*
X159406370Y-115143630D01*
X159424959Y-115166282D01*
X159438774Y-115192128D01*
X159447282Y-115220172D01*
X159451000Y-115257927D01*
X159451000Y-116542073D01*
X159447282Y-116579828D01*
X159438774Y-116607872D01*
X159424959Y-116633718D01*
X159406370Y-116656370D01*
X159383718Y-116674959D01*
X159357872Y-116688774D01*
X159329828Y-116697282D01*
X159292073Y-116701000D01*
X156107927Y-116701000D01*
X156070172Y-116697282D01*
X156042128Y-116688774D01*
X156016282Y-116674959D01*
X155993630Y-116656370D01*
X155975041Y-116633718D01*
X155961226Y-116607872D01*
X155952718Y-116579828D01*
X155949000Y-116542073D01*
X155949000Y-115257927D01*
X155952718Y-115220172D01*
X155961226Y-115192128D01*
X155975041Y-115166282D01*
X155993630Y-115143630D01*
X156016282Y-115125041D01*
X156042128Y-115111226D01*
X156070172Y-115102718D01*
X156107927Y-115099000D01*
X159292073Y-115099000D01*
X159329828Y-115102718D01*
G37*
G36*
X137187164Y-115577841D02*
G01*
X137216412Y-115586714D01*
X137243365Y-115601121D01*
X137266990Y-115620510D01*
X137286379Y-115644135D01*
X137300786Y-115671088D01*
X137309659Y-115700336D01*
X137313500Y-115739342D01*
X137313500Y-116460658D01*
X137309659Y-116499664D01*
X137300786Y-116528912D01*
X137286379Y-116555865D01*
X137266990Y-116579490D01*
X137243365Y-116598879D01*
X137216412Y-116613286D01*
X137187164Y-116622159D01*
X137148158Y-116626000D01*
X136501842Y-116626000D01*
X136462836Y-116622159D01*
X136433588Y-116613286D01*
X136406635Y-116598879D01*
X136383010Y-116579490D01*
X136363621Y-116555865D01*
X136349214Y-116528912D01*
X136340341Y-116499664D01*
X136336500Y-116460658D01*
X136336500Y-115739342D01*
X136340341Y-115700336D01*
X136349214Y-115671088D01*
X136363621Y-115644135D01*
X136383010Y-115620510D01*
X136406635Y-115601121D01*
X136433588Y-115586714D01*
X136462836Y-115577841D01*
X136501842Y-115574000D01*
X137148158Y-115574000D01*
X137187164Y-115577841D01*
G37*
G36*
X138762164Y-115577841D02*
G01*
X138791412Y-115586714D01*
X138818365Y-115601121D01*
X138841990Y-115620510D01*
X138861379Y-115644135D01*
X138875786Y-115671088D01*
X138884659Y-115700336D01*
X138888500Y-115739342D01*
X138888500Y-116460658D01*
X138884659Y-116499664D01*
X138875786Y-116528912D01*
X138861379Y-116555865D01*
X138841990Y-116579490D01*
X138818365Y-116598879D01*
X138791412Y-116613286D01*
X138762164Y-116622159D01*
X138723158Y-116626000D01*
X138076842Y-116626000D01*
X138037836Y-116622159D01*
X138008588Y-116613286D01*
X137981635Y-116598879D01*
X137958010Y-116579490D01*
X137938621Y-116555865D01*
X137924214Y-116528912D01*
X137915341Y-116499664D01*
X137911500Y-116460658D01*
X137911500Y-115739342D01*
X137915341Y-115700336D01*
X137924214Y-115671088D01*
X137938621Y-115644135D01*
X137958010Y-115620510D01*
X137981635Y-115601121D01*
X138008588Y-115586714D01*
X138037836Y-115577841D01*
X138076842Y-115574000D01*
X138723158Y-115574000D01*
X138762164Y-115577841D01*
G37*
G36*
X97999664Y-115215341D02*
G01*
X98028912Y-115224214D01*
X98055865Y-115238621D01*
X98079490Y-115258010D01*
X98098879Y-115281635D01*
X98113286Y-115308588D01*
X98122159Y-115337836D01*
X98126000Y-115376842D01*
X98126000Y-116023158D01*
X98122159Y-116062164D01*
X98113286Y-116091412D01*
X98098879Y-116118365D01*
X98079490Y-116141990D01*
X98055865Y-116161379D01*
X98028912Y-116175786D01*
X97999664Y-116184659D01*
X97960658Y-116188500D01*
X97239342Y-116188500D01*
X97200336Y-116184659D01*
X97171088Y-116175786D01*
X97144135Y-116161379D01*
X97120510Y-116141990D01*
X97101121Y-116118365D01*
X97086714Y-116091412D01*
X97077841Y-116062164D01*
X97074000Y-116023158D01*
X97074000Y-115376842D01*
X97077841Y-115337836D01*
X97086714Y-115308588D01*
X97101121Y-115281635D01*
X97120510Y-115258010D01*
X97144135Y-115238621D01*
X97171088Y-115224214D01*
X97200336Y-115215341D01*
X97239342Y-115211500D01*
X97960658Y-115211500D01*
X97999664Y-115215341D01*
G37*
G36*
X150399664Y-114615341D02*
G01*
X150428912Y-114624214D01*
X150455865Y-114638621D01*
X150479490Y-114658010D01*
X150498879Y-114681635D01*
X150513286Y-114708588D01*
X150522159Y-114737836D01*
X150526000Y-114776842D01*
X150526000Y-115423157D01*
X150522159Y-115462164D01*
X150513286Y-115491412D01*
X150498879Y-115518365D01*
X150479490Y-115541990D01*
X150455865Y-115561379D01*
X150428912Y-115575786D01*
X150399664Y-115584659D01*
X150360658Y-115588500D01*
X149639342Y-115588500D01*
X149600336Y-115584659D01*
X149571088Y-115575786D01*
X149544135Y-115561379D01*
X149520510Y-115541990D01*
X149501121Y-115518365D01*
X149486714Y-115491412D01*
X149477841Y-115462164D01*
X149474000Y-115423157D01*
X149474000Y-114776842D01*
X149477841Y-114737836D01*
X149486714Y-114708588D01*
X149501121Y-114681635D01*
X149520510Y-114658010D01*
X149544135Y-114638621D01*
X149571088Y-114624214D01*
X149600336Y-114615341D01*
X149639342Y-114611500D01*
X150360658Y-114611500D01*
X150399664Y-114615341D01*
G37*
G36*
X135151000Y-115501000D02*
G01*
X133049000Y-115501000D01*
X133049000Y-97989000D01*
X135151000Y-97989000D01*
X135151000Y-115501000D01*
G37*
G36*
X118151000Y-115501000D02*
G01*
X116049000Y-115501000D01*
X116049000Y-97989000D01*
X118151000Y-97989000D01*
X118151000Y-115501000D01*
G37*
G36*
X102237164Y-114377841D02*
G01*
X102266412Y-114386714D01*
X102293365Y-114401121D01*
X102316990Y-114420510D01*
X102336379Y-114444135D01*
X102350786Y-114471088D01*
X102359659Y-114500336D01*
X102363500Y-114539342D01*
X102363500Y-115260658D01*
X102359659Y-115299664D01*
X102350786Y-115328912D01*
X102336379Y-115355865D01*
X102316990Y-115379490D01*
X102293365Y-115398879D01*
X102266412Y-115413286D01*
X102237164Y-115422159D01*
X102198158Y-115426000D01*
X101551842Y-115426000D01*
X101512836Y-115422159D01*
X101483588Y-115413286D01*
X101456635Y-115398879D01*
X101433010Y-115379490D01*
X101413621Y-115355865D01*
X101399214Y-115328912D01*
X101390341Y-115299664D01*
X101386500Y-115260658D01*
X101386500Y-114539342D01*
X101390341Y-114500336D01*
X101399214Y-114471088D01*
X101413621Y-114444135D01*
X101433010Y-114420510D01*
X101456635Y-114401121D01*
X101483588Y-114386714D01*
X101512836Y-114377841D01*
X101551842Y-114374000D01*
X102198158Y-114374000D01*
X102237164Y-114377841D01*
G37*
G36*
X103812164Y-114377841D02*
G01*
X103841412Y-114386714D01*
X103868365Y-114401121D01*
X103891990Y-114420510D01*
X103911379Y-114444135D01*
X103925786Y-114471088D01*
X103934659Y-114500336D01*
X103938500Y-114539342D01*
X103938500Y-115260658D01*
X103934659Y-115299664D01*
X103925786Y-115328912D01*
X103911379Y-115355865D01*
X103891990Y-115379490D01*
X103868365Y-115398879D01*
X103841412Y-115413286D01*
X103812164Y-115422159D01*
X103773158Y-115426000D01*
X103126842Y-115426000D01*
X103087836Y-115422159D01*
X103058588Y-115413286D01*
X103031635Y-115398879D01*
X103008010Y-115379490D01*
X102988621Y-115355865D01*
X102974214Y-115328912D01*
X102965341Y-115299664D01*
X102961500Y-115260658D01*
X102961500Y-114539342D01*
X102965341Y-114500336D01*
X102974214Y-114471088D01*
X102988621Y-114444135D01*
X103008010Y-114420510D01*
X103031635Y-114401121D01*
X103058588Y-114386714D01*
X103087836Y-114377841D01*
X103126842Y-114374000D01*
X103773158Y-114374000D01*
X103812164Y-114377841D01*
G37*
G36*
X105399664Y-114340341D02*
G01*
X105428912Y-114349214D01*
X105455865Y-114363621D01*
X105479490Y-114383010D01*
X105498879Y-114406635D01*
X105513286Y-114433588D01*
X105522159Y-114462836D01*
X105526000Y-114501842D01*
X105526000Y-115148158D01*
X105522159Y-115187164D01*
X105513286Y-115216412D01*
X105498879Y-115243365D01*
X105479490Y-115266990D01*
X105455865Y-115286379D01*
X105428912Y-115300786D01*
X105399664Y-115309659D01*
X105360658Y-115313500D01*
X104639342Y-115313500D01*
X104600336Y-115309659D01*
X104571088Y-115300786D01*
X104544135Y-115286379D01*
X104520510Y-115266990D01*
X104501121Y-115243365D01*
X104486714Y-115216412D01*
X104477841Y-115187164D01*
X104474000Y-115148158D01*
X104474000Y-114501842D01*
X104477841Y-114462836D01*
X104486714Y-114433588D01*
X104501121Y-114406635D01*
X104520510Y-114383010D01*
X104544135Y-114363621D01*
X104571088Y-114349214D01*
X104600336Y-114340341D01*
X104639342Y-114336500D01*
X105360658Y-114336500D01*
X105399664Y-114340341D01*
G37*
G36*
X140701000Y-115201000D02*
G01*
X139699000Y-115201000D01*
X139699000Y-114299000D01*
X140701000Y-114299000D01*
X140701000Y-115201000D01*
G37*
G36*
X92501000Y-115101000D02*
G01*
X90499000Y-115101000D01*
X90499000Y-113499000D01*
X92501000Y-113499000D01*
X92501000Y-115101000D01*
G37*
G36*
X138899664Y-114090341D02*
G01*
X138928912Y-114099214D01*
X138955865Y-114113621D01*
X138979490Y-114133010D01*
X138998879Y-114156635D01*
X139013286Y-114183588D01*
X139022159Y-114212836D01*
X139026000Y-114251842D01*
X139026000Y-114898158D01*
X139022159Y-114937164D01*
X139013286Y-114966412D01*
X138998879Y-114993365D01*
X138979490Y-115016990D01*
X138955865Y-115036379D01*
X138928912Y-115050786D01*
X138899664Y-115059659D01*
X138860658Y-115063500D01*
X138139342Y-115063500D01*
X138100336Y-115059659D01*
X138071088Y-115050786D01*
X138044135Y-115036379D01*
X138020510Y-115016990D01*
X138001121Y-114993365D01*
X137986714Y-114966412D01*
X137977841Y-114937164D01*
X137974000Y-114898158D01*
X137974000Y-114251842D01*
X137977841Y-114212836D01*
X137986714Y-114183588D01*
X138001121Y-114156635D01*
X138020510Y-114133010D01*
X138044135Y-114113621D01*
X138071088Y-114099214D01*
X138100336Y-114090341D01*
X138139342Y-114086500D01*
X138860658Y-114086500D01*
X138899664Y-114090341D01*
G37*
G36*
X97999664Y-113640341D02*
G01*
X98028912Y-113649214D01*
X98055865Y-113663621D01*
X98079490Y-113683010D01*
X98098879Y-113706635D01*
X98113286Y-113733588D01*
X98122159Y-113762836D01*
X98126000Y-113801842D01*
X98126000Y-114448158D01*
X98122159Y-114487164D01*
X98113286Y-114516412D01*
X98098879Y-114543365D01*
X98079490Y-114566990D01*
X98055865Y-114586379D01*
X98028912Y-114600786D01*
X97999664Y-114609659D01*
X97960658Y-114613500D01*
X97239342Y-114613500D01*
X97200336Y-114609659D01*
X97171088Y-114600786D01*
X97144135Y-114586379D01*
X97120510Y-114566990D01*
X97101121Y-114543365D01*
X97086714Y-114516412D01*
X97077841Y-114487164D01*
X97074000Y-114448158D01*
X97074000Y-113801842D01*
X97077841Y-113762836D01*
X97086714Y-113733588D01*
X97101121Y-113706635D01*
X97120510Y-113683010D01*
X97144135Y-113663621D01*
X97171088Y-113649214D01*
X97200336Y-113640341D01*
X97239342Y-113636500D01*
X97960658Y-113636500D01*
X97999664Y-113640341D01*
G37*
G36*
X108351000Y-114501000D02*
G01*
X106249000Y-114501000D01*
X106249000Y-112899000D01*
X108351000Y-112899000D01*
X108351000Y-114501000D01*
G37*
G36*
X142701000Y-114251000D02*
G01*
X141699000Y-114251000D01*
X141699000Y-113349000D01*
X142701000Y-113349000D01*
X142701000Y-114251000D01*
G37*
G36*
X159329828Y-112602718D02*
G01*
X159357872Y-112611226D01*
X159383718Y-112625041D01*
X159406370Y-112643630D01*
X159424959Y-112666282D01*
X159438774Y-112692128D01*
X159447282Y-112720172D01*
X159451000Y-112757927D01*
X159451000Y-114042073D01*
X159447282Y-114079828D01*
X159438774Y-114107872D01*
X159424959Y-114133718D01*
X159406370Y-114156370D01*
X159383718Y-114174959D01*
X159357872Y-114188774D01*
X159329828Y-114197282D01*
X159292073Y-114201000D01*
X156107927Y-114201000D01*
X156070172Y-114197282D01*
X156042128Y-114188774D01*
X156016282Y-114174959D01*
X155993630Y-114156370D01*
X155975041Y-114133718D01*
X155961226Y-114107872D01*
X155952718Y-114079828D01*
X155949000Y-114042073D01*
X155949000Y-112757927D01*
X155952718Y-112720172D01*
X155961226Y-112692128D01*
X155975041Y-112666282D01*
X155993630Y-112643630D01*
X156016282Y-112625041D01*
X156042128Y-112611226D01*
X156070172Y-112602718D01*
X156107927Y-112599000D01*
X159292073Y-112599000D01*
X159329828Y-112602718D01*
G37*
G36*
X150399664Y-113040341D02*
G01*
X150428912Y-113049214D01*
X150455865Y-113063621D01*
X150479490Y-113083010D01*
X150498879Y-113106635D01*
X150513286Y-113133588D01*
X150522159Y-113162836D01*
X150526000Y-113201842D01*
X150526000Y-113848158D01*
X150522159Y-113887164D01*
X150513286Y-113916412D01*
X150498879Y-113943365D01*
X150479490Y-113966990D01*
X150455865Y-113986379D01*
X150428912Y-114000786D01*
X150399664Y-114009659D01*
X150360658Y-114013500D01*
X149639342Y-114013500D01*
X149600336Y-114009659D01*
X149571088Y-114000786D01*
X149544135Y-113986379D01*
X149520510Y-113966990D01*
X149501121Y-113943365D01*
X149486714Y-113916412D01*
X149477841Y-113887164D01*
X149474000Y-113848158D01*
X149474000Y-113201842D01*
X149477841Y-113162836D01*
X149486714Y-113133588D01*
X149501121Y-113106635D01*
X149520510Y-113083010D01*
X149544135Y-113063621D01*
X149571088Y-113049214D01*
X149600336Y-113040341D01*
X149639342Y-113036500D01*
X150360658Y-113036500D01*
X150399664Y-113040341D01*
G37*
G36*
X146092703Y-112628009D02*
G01*
X146123571Y-112637372D01*
X146152022Y-112652580D01*
X146176957Y-112673043D01*
X146197420Y-112697978D01*
X146212628Y-112726429D01*
X146221991Y-112757297D01*
X146226000Y-112797995D01*
X146226000Y-113802005D01*
X146221991Y-113842703D01*
X146212628Y-113873571D01*
X146197420Y-113902022D01*
X146176957Y-113926957D01*
X146152022Y-113947420D01*
X146123571Y-113962628D01*
X146092703Y-113971991D01*
X146052005Y-113976000D01*
X144547995Y-113976000D01*
X144507297Y-113971991D01*
X144476429Y-113962628D01*
X144447978Y-113947420D01*
X144423043Y-113926957D01*
X144402580Y-113902022D01*
X144387372Y-113873571D01*
X144378009Y-113842703D01*
X144374000Y-113802005D01*
X144374000Y-112797995D01*
X144378009Y-112757297D01*
X144387372Y-112726429D01*
X144402580Y-112697978D01*
X144423043Y-112673043D01*
X144447978Y-112652580D01*
X144476429Y-112637372D01*
X144507297Y-112628009D01*
X144547995Y-112624000D01*
X146052005Y-112624000D01*
X146092703Y-112628009D01*
G37*
G36*
X103812164Y-112777841D02*
G01*
X103841412Y-112786714D01*
X103868365Y-112801121D01*
X103891990Y-112820510D01*
X103911379Y-112844135D01*
X103925786Y-112871088D01*
X103934659Y-112900336D01*
X103938500Y-112939342D01*
X103938500Y-113660658D01*
X103934659Y-113699664D01*
X103925786Y-113728912D01*
X103911379Y-113755865D01*
X103891990Y-113779490D01*
X103868365Y-113798879D01*
X103841412Y-113813286D01*
X103812164Y-113822159D01*
X103773158Y-113826000D01*
X103126842Y-113826000D01*
X103087836Y-113822159D01*
X103058588Y-113813286D01*
X103031635Y-113798879D01*
X103008010Y-113779490D01*
X102988621Y-113755865D01*
X102974214Y-113728912D01*
X102965341Y-113699664D01*
X102961500Y-113660658D01*
X102961500Y-112939342D01*
X102965341Y-112900336D01*
X102974214Y-112871088D01*
X102988621Y-112844135D01*
X103008010Y-112820510D01*
X103031635Y-112801121D01*
X103058588Y-112786714D01*
X103087836Y-112777841D01*
X103126842Y-112774000D01*
X103773158Y-112774000D01*
X103812164Y-112777841D01*
G37*
G36*
X102237164Y-112777841D02*
G01*
X102266412Y-112786714D01*
X102293365Y-112801121D01*
X102316990Y-112820510D01*
X102336379Y-112844135D01*
X102350786Y-112871088D01*
X102359659Y-112900336D01*
X102363500Y-112939342D01*
X102363500Y-113660658D01*
X102359659Y-113699664D01*
X102350786Y-113728912D01*
X102336379Y-113755865D01*
X102316990Y-113779490D01*
X102293365Y-113798879D01*
X102266412Y-113813286D01*
X102237164Y-113822159D01*
X102198158Y-113826000D01*
X101551842Y-113826000D01*
X101512836Y-113822159D01*
X101483588Y-113813286D01*
X101456635Y-113798879D01*
X101433010Y-113779490D01*
X101413621Y-113755865D01*
X101399214Y-113728912D01*
X101390341Y-113699664D01*
X101386500Y-113660658D01*
X101386500Y-112939342D01*
X101390341Y-112900336D01*
X101399214Y-112871088D01*
X101413621Y-112844135D01*
X101433010Y-112820510D01*
X101456635Y-112801121D01*
X101483588Y-112786714D01*
X101512836Y-112777841D01*
X101551842Y-112774000D01*
X102198158Y-112774000D01*
X102237164Y-112777841D01*
G37*
G36*
X138899664Y-112515341D02*
G01*
X138928912Y-112524214D01*
X138955865Y-112538621D01*
X138979490Y-112558010D01*
X138998879Y-112581635D01*
X139013286Y-112608588D01*
X139022159Y-112637836D01*
X139026000Y-112676842D01*
X139026000Y-113323158D01*
X139022159Y-113362164D01*
X139013286Y-113391412D01*
X138998879Y-113418365D01*
X138979490Y-113441990D01*
X138955865Y-113461379D01*
X138928912Y-113475786D01*
X138899664Y-113484659D01*
X138860658Y-113488500D01*
X138139342Y-113488500D01*
X138100336Y-113484659D01*
X138071088Y-113475786D01*
X138044135Y-113461379D01*
X138020510Y-113441990D01*
X138001121Y-113418365D01*
X137986714Y-113391412D01*
X137977841Y-113362164D01*
X137974000Y-113323158D01*
X137974000Y-112676842D01*
X137977841Y-112637836D01*
X137986714Y-112608588D01*
X138001121Y-112581635D01*
X138020510Y-112558010D01*
X138044135Y-112538621D01*
X138071088Y-112524214D01*
X138100336Y-112515341D01*
X138139342Y-112511500D01*
X138860658Y-112511500D01*
X138899664Y-112515341D01*
G37*
G36*
X140701000Y-113301000D02*
G01*
X139699000Y-113301000D01*
X139699000Y-112399000D01*
X140701000Y-112399000D01*
X140701000Y-113301000D01*
G37*
G36*
X91977619Y-111158420D02*
G01*
X92088188Y-111191961D01*
X92100332Y-111195645D01*
X92150267Y-111222336D01*
X92213425Y-111256094D01*
X92213427Y-111256095D01*
X92213426Y-111256095D01*
X92312553Y-111337447D01*
X92393905Y-111436574D01*
X92454355Y-111549668D01*
X92454356Y-111549671D01*
X92477147Y-111624801D01*
X92490275Y-111656496D01*
X92501000Y-111672546D01*
X92501000Y-111759428D01*
X92501843Y-111776581D01*
X92504150Y-111800000D01*
X92501843Y-111823419D01*
X92501000Y-111840572D01*
X92501000Y-113051000D01*
X90499000Y-113051000D01*
X90499000Y-111840572D01*
X90498157Y-111823419D01*
X90495850Y-111800000D01*
X90498157Y-111776581D01*
X90499000Y-111759428D01*
X90499000Y-111673535D01*
X90500896Y-111671225D01*
X90522853Y-111624801D01*
X90545644Y-111549671D01*
X90545645Y-111549668D01*
X90606095Y-111436574D01*
X90687447Y-111337447D01*
X90786574Y-111256095D01*
X90786573Y-111256095D01*
X90786575Y-111256094D01*
X90849733Y-111222336D01*
X90899668Y-111195645D01*
X90911812Y-111191961D01*
X91022381Y-111158420D01*
X91118022Y-111149000D01*
X91881978Y-111149000D01*
X91977619Y-111158420D01*
G37*
G36*
X111692703Y-110128009D02*
G01*
X111723571Y-110137372D01*
X111752022Y-110152580D01*
X111776957Y-110173043D01*
X111797420Y-110197978D01*
X111812628Y-110226429D01*
X111821991Y-110257297D01*
X111826000Y-110297995D01*
X111826000Y-111802005D01*
X111821991Y-111842703D01*
X111812628Y-111873571D01*
X111797420Y-111902022D01*
X111776957Y-111926957D01*
X111752022Y-111947420D01*
X111723571Y-111962628D01*
X111692703Y-111971991D01*
X111652005Y-111976000D01*
X110647995Y-111976000D01*
X110607297Y-111971991D01*
X110576429Y-111962628D01*
X110547978Y-111947420D01*
X110523043Y-111926957D01*
X110502580Y-111902022D01*
X110487372Y-111873571D01*
X110478009Y-111842703D01*
X110474000Y-111802005D01*
X110474000Y-110297995D01*
X110478009Y-110257297D01*
X110487372Y-110226429D01*
X110502580Y-110197978D01*
X110523043Y-110173043D01*
X110547978Y-110152580D01*
X110576429Y-110137372D01*
X110607297Y-110128009D01*
X110647995Y-110124000D01*
X111652005Y-110124000D01*
X111692703Y-110128009D01*
G37*
G36*
X114492703Y-110128009D02*
G01*
X114523571Y-110137372D01*
X114552022Y-110152580D01*
X114576957Y-110173043D01*
X114597420Y-110197978D01*
X114612628Y-110226429D01*
X114621991Y-110257297D01*
X114626000Y-110297995D01*
X114626000Y-111802005D01*
X114621991Y-111842703D01*
X114612628Y-111873571D01*
X114597420Y-111902022D01*
X114576957Y-111926957D01*
X114552022Y-111947420D01*
X114523571Y-111962628D01*
X114492703Y-111971991D01*
X114452005Y-111976000D01*
X113447995Y-111976000D01*
X113407297Y-111971991D01*
X113376429Y-111962628D01*
X113347978Y-111947420D01*
X113323043Y-111926957D01*
X113302580Y-111902022D01*
X113287372Y-111873571D01*
X113278009Y-111842703D01*
X113274000Y-111802005D01*
X113274000Y-110297995D01*
X113278009Y-110257297D01*
X113287372Y-110226429D01*
X113302580Y-110197978D01*
X113323043Y-110173043D01*
X113347978Y-110152580D01*
X113376429Y-110137372D01*
X113407297Y-110128009D01*
X113447995Y-110124000D01*
X114452005Y-110124000D01*
X114492703Y-110128009D01*
G37*
G36*
X105087164Y-110677841D02*
G01*
X105116412Y-110686714D01*
X105143365Y-110701121D01*
X105166990Y-110720510D01*
X105186379Y-110744135D01*
X105200786Y-110771088D01*
X105209659Y-110800336D01*
X105213500Y-110839342D01*
X105213500Y-111560658D01*
X105209659Y-111599664D01*
X105200786Y-111628912D01*
X105186379Y-111655865D01*
X105166990Y-111679490D01*
X105143365Y-111698879D01*
X105116412Y-111713286D01*
X105087164Y-111722159D01*
X105048158Y-111726000D01*
X104401842Y-111726000D01*
X104362836Y-111722159D01*
X104333588Y-111713286D01*
X104306635Y-111698879D01*
X104283010Y-111679490D01*
X104263621Y-111655865D01*
X104249214Y-111628912D01*
X104240341Y-111599664D01*
X104236500Y-111560658D01*
X104236500Y-110839342D01*
X104240341Y-110800336D01*
X104249214Y-110771088D01*
X104263621Y-110744135D01*
X104283010Y-110720510D01*
X104306635Y-110701121D01*
X104333588Y-110686714D01*
X104362836Y-110677841D01*
X104401842Y-110674000D01*
X105048158Y-110674000D01*
X105087164Y-110677841D01*
G37*
G36*
X106662164Y-110677841D02*
G01*
X106691412Y-110686714D01*
X106718365Y-110701121D01*
X106741990Y-110720510D01*
X106761379Y-110744135D01*
X106775786Y-110771088D01*
X106784659Y-110800336D01*
X106788500Y-110839342D01*
X106788500Y-111560658D01*
X106784659Y-111599664D01*
X106775786Y-111628912D01*
X106761379Y-111655865D01*
X106741990Y-111679490D01*
X106718365Y-111698879D01*
X106691412Y-111713286D01*
X106662164Y-111722159D01*
X106623158Y-111726000D01*
X105976842Y-111726000D01*
X105937836Y-111722159D01*
X105908588Y-111713286D01*
X105881635Y-111698879D01*
X105858010Y-111679490D01*
X105838621Y-111655865D01*
X105824214Y-111628912D01*
X105815341Y-111599664D01*
X105811500Y-111560658D01*
X105811500Y-110839342D01*
X105815341Y-110800336D01*
X105824214Y-110771088D01*
X105838621Y-110744135D01*
X105858010Y-110720510D01*
X105881635Y-110701121D01*
X105908588Y-110686714D01*
X105937836Y-110677841D01*
X105976842Y-110674000D01*
X106623158Y-110674000D01*
X106662164Y-110677841D01*
G37*
G36*
X103212164Y-110677841D02*
G01*
X103241412Y-110686714D01*
X103268365Y-110701121D01*
X103291990Y-110720510D01*
X103311379Y-110744135D01*
X103325786Y-110771088D01*
X103334659Y-110800336D01*
X103338500Y-110839342D01*
X103338500Y-111560658D01*
X103334659Y-111599664D01*
X103325786Y-111628912D01*
X103311379Y-111655865D01*
X103291990Y-111679490D01*
X103268365Y-111698879D01*
X103241412Y-111713286D01*
X103212164Y-111722159D01*
X103173158Y-111726000D01*
X102526842Y-111726000D01*
X102487836Y-111722159D01*
X102458588Y-111713286D01*
X102431635Y-111698879D01*
X102408010Y-111679490D01*
X102388621Y-111655865D01*
X102374214Y-111628912D01*
X102365341Y-111599664D01*
X102361500Y-111560658D01*
X102361500Y-110839342D01*
X102365341Y-110800336D01*
X102374214Y-110771088D01*
X102388621Y-110744135D01*
X102408010Y-110720510D01*
X102431635Y-110701121D01*
X102458588Y-110686714D01*
X102487836Y-110677841D01*
X102526842Y-110674000D01*
X103173158Y-110674000D01*
X103212164Y-110677841D01*
G37*
G36*
X101637164Y-110677841D02*
G01*
X101666412Y-110686714D01*
X101693365Y-110701121D01*
X101716990Y-110720510D01*
X101736379Y-110744135D01*
X101750786Y-110771088D01*
X101759659Y-110800336D01*
X101763500Y-110839342D01*
X101763500Y-111560658D01*
X101759659Y-111599664D01*
X101750786Y-111628912D01*
X101736379Y-111655865D01*
X101716990Y-111679490D01*
X101693365Y-111698879D01*
X101666412Y-111713286D01*
X101637164Y-111722159D01*
X101598158Y-111726000D01*
X100951842Y-111726000D01*
X100912836Y-111722159D01*
X100883588Y-111713286D01*
X100856635Y-111698879D01*
X100833010Y-111679490D01*
X100813621Y-111655865D01*
X100799214Y-111628912D01*
X100790341Y-111599664D01*
X100786500Y-111560658D01*
X100786500Y-110839342D01*
X100790341Y-110800336D01*
X100799214Y-110771088D01*
X100813621Y-110744135D01*
X100833010Y-110720510D01*
X100856635Y-110701121D01*
X100883588Y-110686714D01*
X100912836Y-110677841D01*
X100951842Y-110674000D01*
X101598158Y-110674000D01*
X101637164Y-110677841D01*
G37*
G36*
X153599512Y-110503443D02*
G01*
X153634618Y-110514092D01*
X153666978Y-110531388D01*
X153695337Y-110554663D01*
X153718612Y-110583022D01*
X153735908Y-110615382D01*
X153746557Y-110650488D01*
X153751000Y-110695594D01*
X153751000Y-111404406D01*
X153746557Y-111449512D01*
X153735908Y-111484618D01*
X153718612Y-111516978D01*
X153695337Y-111545337D01*
X153666978Y-111568612D01*
X153634618Y-111585908D01*
X153599512Y-111596557D01*
X153554406Y-111601000D01*
X150345594Y-111601000D01*
X150300488Y-111596557D01*
X150265382Y-111585908D01*
X150233022Y-111568612D01*
X150204663Y-111545337D01*
X150181388Y-111516978D01*
X150164092Y-111484618D01*
X150153443Y-111449512D01*
X150149000Y-111404406D01*
X150149000Y-110695594D01*
X150153443Y-110650488D01*
X150164092Y-110615382D01*
X150181388Y-110583022D01*
X150204663Y-110554663D01*
X150233022Y-110531388D01*
X150265382Y-110514092D01*
X150300488Y-110503443D01*
X150345594Y-110499000D01*
X153554406Y-110499000D01*
X153599512Y-110503443D01*
G37*
G36*
X140401000Y-111601000D02*
G01*
X139399000Y-111601000D01*
X139399000Y-110699000D01*
X140401000Y-110699000D01*
X140401000Y-111601000D01*
G37*
G36*
X145601000Y-111501000D02*
G01*
X144599000Y-111501000D01*
X144599000Y-110599000D01*
X145601000Y-110599000D01*
X145601000Y-111501000D01*
G37*
G36*
X138699664Y-110390341D02*
G01*
X138728912Y-110399214D01*
X138755865Y-110413621D01*
X138779490Y-110433010D01*
X138798879Y-110456635D01*
X138813286Y-110483588D01*
X138822159Y-110512836D01*
X138826000Y-110551842D01*
X138826000Y-111198158D01*
X138822159Y-111237164D01*
X138813286Y-111266412D01*
X138798879Y-111293365D01*
X138779490Y-111316990D01*
X138755865Y-111336379D01*
X138728912Y-111350786D01*
X138699664Y-111359659D01*
X138660658Y-111363500D01*
X137939342Y-111363500D01*
X137900336Y-111359659D01*
X137871088Y-111350786D01*
X137844135Y-111336379D01*
X137820510Y-111316990D01*
X137801121Y-111293365D01*
X137786714Y-111266412D01*
X137777841Y-111237164D01*
X137774000Y-111198158D01*
X137774000Y-110551842D01*
X137777841Y-110512836D01*
X137786714Y-110483588D01*
X137801121Y-110456635D01*
X137820510Y-110433010D01*
X137844135Y-110413621D01*
X137871088Y-110399214D01*
X137900336Y-110390341D01*
X137939342Y-110386500D01*
X138660658Y-110386500D01*
X138699664Y-110390341D01*
G37*
G36*
X143899664Y-110290341D02*
G01*
X143928912Y-110299214D01*
X143955865Y-110313621D01*
X143979490Y-110333010D01*
X143998879Y-110356635D01*
X144013286Y-110383588D01*
X144022159Y-110412836D01*
X144026000Y-110451842D01*
X144026000Y-111098158D01*
X144022159Y-111137164D01*
X144013286Y-111166412D01*
X143998879Y-111193365D01*
X143979490Y-111216990D01*
X143955865Y-111236379D01*
X143928912Y-111250786D01*
X143899664Y-111259659D01*
X143860658Y-111263500D01*
X143139342Y-111263500D01*
X143100336Y-111259659D01*
X143071088Y-111250786D01*
X143044135Y-111236379D01*
X143020510Y-111216990D01*
X143001121Y-111193365D01*
X142986714Y-111166412D01*
X142977841Y-111137164D01*
X142974000Y-111098158D01*
X142974000Y-110451842D01*
X142977841Y-110412836D01*
X142986714Y-110383588D01*
X143001121Y-110356635D01*
X143020510Y-110333010D01*
X143044135Y-110313621D01*
X143071088Y-110299214D01*
X143100336Y-110290341D01*
X143139342Y-110286500D01*
X143860658Y-110286500D01*
X143899664Y-110290341D01*
G37*
G36*
X142401000Y-110651000D02*
G01*
X141399000Y-110651000D01*
X141399000Y-109749000D01*
X142401000Y-109749000D01*
X142401000Y-110651000D01*
G37*
G36*
X147601000Y-110551000D02*
G01*
X146599000Y-110551000D01*
X146599000Y-109649000D01*
X147601000Y-109649000D01*
X147601000Y-110551000D01*
G37*
G36*
X103212164Y-109077841D02*
G01*
X103241412Y-109086714D01*
X103268365Y-109101121D01*
X103291990Y-109120510D01*
X103311379Y-109144135D01*
X103325786Y-109171088D01*
X103334659Y-109200336D01*
X103338500Y-109239342D01*
X103338500Y-109960658D01*
X103334659Y-109999664D01*
X103325786Y-110028912D01*
X103311379Y-110055865D01*
X103291990Y-110079490D01*
X103268365Y-110098879D01*
X103241412Y-110113286D01*
X103212164Y-110122159D01*
X103173158Y-110126000D01*
X102526842Y-110126000D01*
X102487836Y-110122159D01*
X102458588Y-110113286D01*
X102431635Y-110098879D01*
X102408010Y-110079490D01*
X102388621Y-110055865D01*
X102374214Y-110028912D01*
X102365341Y-109999664D01*
X102361500Y-109960658D01*
X102361500Y-109239342D01*
X102365341Y-109200336D01*
X102374214Y-109171088D01*
X102388621Y-109144135D01*
X102408010Y-109120510D01*
X102431635Y-109101121D01*
X102458588Y-109086714D01*
X102487836Y-109077841D01*
X102526842Y-109074000D01*
X103173158Y-109074000D01*
X103212164Y-109077841D01*
G37*
G36*
X106662164Y-109077841D02*
G01*
X106691412Y-109086714D01*
X106718365Y-109101121D01*
X106741990Y-109120510D01*
X106761379Y-109144135D01*
X106775786Y-109171088D01*
X106784659Y-109200336D01*
X106788500Y-109239342D01*
X106788500Y-109960658D01*
X106784659Y-109999664D01*
X106775786Y-110028912D01*
X106761379Y-110055865D01*
X106741990Y-110079490D01*
X106718365Y-110098879D01*
X106691412Y-110113286D01*
X106662164Y-110122159D01*
X106623158Y-110126000D01*
X105976842Y-110126000D01*
X105937836Y-110122159D01*
X105908588Y-110113286D01*
X105881635Y-110098879D01*
X105858010Y-110079490D01*
X105838621Y-110055865D01*
X105824214Y-110028912D01*
X105815341Y-109999664D01*
X105811500Y-109960658D01*
X105811500Y-109239342D01*
X105815341Y-109200336D01*
X105824214Y-109171088D01*
X105838621Y-109144135D01*
X105858010Y-109120510D01*
X105881635Y-109101121D01*
X105908588Y-109086714D01*
X105937836Y-109077841D01*
X105976842Y-109074000D01*
X106623158Y-109074000D01*
X106662164Y-109077841D01*
G37*
G36*
X105087164Y-109077841D02*
G01*
X105116412Y-109086714D01*
X105143365Y-109101121D01*
X105166990Y-109120510D01*
X105186379Y-109144135D01*
X105200786Y-109171088D01*
X105209659Y-109200336D01*
X105213500Y-109239342D01*
X105213500Y-109960658D01*
X105209659Y-109999664D01*
X105200786Y-110028912D01*
X105186379Y-110055865D01*
X105166990Y-110079490D01*
X105143365Y-110098879D01*
X105116412Y-110113286D01*
X105087164Y-110122159D01*
X105048158Y-110126000D01*
X104401842Y-110126000D01*
X104362836Y-110122159D01*
X104333588Y-110113286D01*
X104306635Y-110098879D01*
X104283010Y-110079490D01*
X104263621Y-110055865D01*
X104249214Y-110028912D01*
X104240341Y-109999664D01*
X104236500Y-109960658D01*
X104236500Y-109239342D01*
X104240341Y-109200336D01*
X104249214Y-109171088D01*
X104263621Y-109144135D01*
X104283010Y-109120510D01*
X104306635Y-109101121D01*
X104333588Y-109086714D01*
X104362836Y-109077841D01*
X104401842Y-109074000D01*
X105048158Y-109074000D01*
X105087164Y-109077841D01*
G37*
G36*
X101637164Y-109077841D02*
G01*
X101666412Y-109086714D01*
X101693365Y-109101121D01*
X101716990Y-109120510D01*
X101736379Y-109144135D01*
X101750786Y-109171088D01*
X101759659Y-109200336D01*
X101763500Y-109239342D01*
X101763500Y-109960658D01*
X101759659Y-109999664D01*
X101750786Y-110028912D01*
X101736379Y-110055865D01*
X101716990Y-110079490D01*
X101693365Y-110098879D01*
X101666412Y-110113286D01*
X101637164Y-110122159D01*
X101598158Y-110126000D01*
X100951842Y-110126000D01*
X100912836Y-110122159D01*
X100883588Y-110113286D01*
X100856635Y-110098879D01*
X100833010Y-110079490D01*
X100813621Y-110055865D01*
X100799214Y-110028912D01*
X100790341Y-109999664D01*
X100786500Y-109960658D01*
X100786500Y-109239342D01*
X100790341Y-109200336D01*
X100799214Y-109171088D01*
X100813621Y-109144135D01*
X100833010Y-109120510D01*
X100856635Y-109101121D01*
X100883588Y-109086714D01*
X100912836Y-109077841D01*
X100951842Y-109074000D01*
X101598158Y-109074000D01*
X101637164Y-109077841D01*
G37*
G36*
X138699664Y-108815341D02*
G01*
X138728912Y-108824214D01*
X138755865Y-108838621D01*
X138779490Y-108858010D01*
X138798879Y-108881635D01*
X138813286Y-108908588D01*
X138822159Y-108937836D01*
X138826000Y-108976842D01*
X138826000Y-109623158D01*
X138822159Y-109662164D01*
X138813286Y-109691412D01*
X138798879Y-109718365D01*
X138779490Y-109741990D01*
X138755865Y-109761379D01*
X138728912Y-109775786D01*
X138699664Y-109784659D01*
X138660658Y-109788500D01*
X137939342Y-109788500D01*
X137900336Y-109784659D01*
X137871088Y-109775786D01*
X137844135Y-109761379D01*
X137820510Y-109741990D01*
X137801121Y-109718365D01*
X137786714Y-109691412D01*
X137777841Y-109662164D01*
X137774000Y-109623158D01*
X137774000Y-108976842D01*
X137777841Y-108937836D01*
X137786714Y-108908588D01*
X137801121Y-108881635D01*
X137820510Y-108858010D01*
X137844135Y-108838621D01*
X137871088Y-108824214D01*
X137900336Y-108815341D01*
X137939342Y-108811500D01*
X138660658Y-108811500D01*
X138699664Y-108815341D01*
G37*
G36*
X140401000Y-109701000D02*
G01*
X139399000Y-109701000D01*
X139399000Y-108799000D01*
X140401000Y-108799000D01*
X140401000Y-109701000D01*
G37*
G36*
X143899664Y-108715341D02*
G01*
X143928912Y-108724214D01*
X143955865Y-108738621D01*
X143979490Y-108758010D01*
X143998879Y-108781635D01*
X144013286Y-108808588D01*
X144022159Y-108837836D01*
X144026000Y-108876842D01*
X144026000Y-109523158D01*
X144022159Y-109562164D01*
X144013286Y-109591412D01*
X143998879Y-109618365D01*
X143979490Y-109641990D01*
X143955865Y-109661379D01*
X143928912Y-109675786D01*
X143899664Y-109684659D01*
X143860658Y-109688500D01*
X143139342Y-109688500D01*
X143100336Y-109684659D01*
X143071088Y-109675786D01*
X143044135Y-109661379D01*
X143020510Y-109641990D01*
X143001121Y-109618365D01*
X142986714Y-109591412D01*
X142977841Y-109562164D01*
X142974000Y-109523158D01*
X142974000Y-108876842D01*
X142977841Y-108837836D01*
X142986714Y-108808588D01*
X143001121Y-108781635D01*
X143020510Y-108758010D01*
X143044135Y-108738621D01*
X143071088Y-108724214D01*
X143100336Y-108715341D01*
X143139342Y-108711500D01*
X143860658Y-108711500D01*
X143899664Y-108715341D01*
G37*
G36*
X145601000Y-109601000D02*
G01*
X144599000Y-109601000D01*
X144599000Y-108699000D01*
X145601000Y-108699000D01*
X145601000Y-109601000D01*
G37*
G36*
X153599512Y-108503443D02*
G01*
X153634618Y-108514092D01*
X153666978Y-108531388D01*
X153695337Y-108554663D01*
X153718612Y-108583022D01*
X153735908Y-108615382D01*
X153746557Y-108650488D01*
X153751000Y-108695594D01*
X153751000Y-109404406D01*
X153746557Y-109449512D01*
X153735908Y-109484618D01*
X153718612Y-109516978D01*
X153695337Y-109545337D01*
X153666978Y-109568612D01*
X153634618Y-109585908D01*
X153599512Y-109596557D01*
X153554406Y-109601000D01*
X150345594Y-109601000D01*
X150300488Y-109596557D01*
X150265382Y-109585908D01*
X150233022Y-109568612D01*
X150204663Y-109545337D01*
X150181388Y-109516978D01*
X150164092Y-109484618D01*
X150153443Y-109449512D01*
X150149000Y-109404406D01*
X150149000Y-108695594D01*
X150153443Y-108650488D01*
X150164092Y-108615382D01*
X150181388Y-108583022D01*
X150204663Y-108554663D01*
X150233022Y-108531388D01*
X150265382Y-108514092D01*
X150300488Y-108503443D01*
X150345594Y-108499000D01*
X153554406Y-108499000D01*
X153599512Y-108503443D01*
G37*
G36*
X149199664Y-108415341D02*
G01*
X149228912Y-108424214D01*
X149255865Y-108438621D01*
X149279490Y-108458010D01*
X149298879Y-108481635D01*
X149313286Y-108508588D01*
X149322159Y-108537836D01*
X149326000Y-108576842D01*
X149326000Y-109223158D01*
X149322159Y-109262164D01*
X149313286Y-109291412D01*
X149298879Y-109318365D01*
X149279490Y-109341990D01*
X149255865Y-109361379D01*
X149228912Y-109375786D01*
X149199664Y-109384659D01*
X149160658Y-109388500D01*
X148439342Y-109388500D01*
X148400336Y-109384659D01*
X148371088Y-109375786D01*
X148344135Y-109361379D01*
X148320510Y-109341990D01*
X148301121Y-109318365D01*
X148286714Y-109291412D01*
X148277841Y-109262164D01*
X148274000Y-109223158D01*
X148274000Y-108576842D01*
X148277841Y-108537836D01*
X148286714Y-108508588D01*
X148301121Y-108481635D01*
X148320510Y-108458010D01*
X148344135Y-108438621D01*
X148371088Y-108424214D01*
X148400336Y-108415341D01*
X148439342Y-108411500D01*
X149160658Y-108411500D01*
X149199664Y-108415341D01*
G37*
G36*
X96951000Y-109051000D02*
G01*
X93649000Y-109051000D01*
X93649000Y-106949000D01*
X96951000Y-106949000D01*
X96951000Y-109051000D01*
G37*
G36*
X127151000Y-108541000D02*
G01*
X122049000Y-108541000D01*
X122049000Y-103439000D01*
X127151000Y-103439000D01*
X127151000Y-108541000D01*
G37*
G36*
X105687164Y-106777841D02*
G01*
X105716412Y-106786714D01*
X105743365Y-106801121D01*
X105766990Y-106820510D01*
X105786379Y-106844135D01*
X105800786Y-106871088D01*
X105809659Y-106900336D01*
X105813500Y-106939342D01*
X105813500Y-107660658D01*
X105809659Y-107699664D01*
X105800786Y-107728912D01*
X105786379Y-107755865D01*
X105766990Y-107779490D01*
X105743365Y-107798879D01*
X105716412Y-107813286D01*
X105687164Y-107822159D01*
X105648158Y-107826000D01*
X105001842Y-107826000D01*
X104962836Y-107822159D01*
X104933588Y-107813286D01*
X104906635Y-107798879D01*
X104883010Y-107779490D01*
X104863621Y-107755865D01*
X104849214Y-107728912D01*
X104840341Y-107699664D01*
X104836500Y-107660658D01*
X104836500Y-106939342D01*
X104840341Y-106900336D01*
X104849214Y-106871088D01*
X104863621Y-106844135D01*
X104883010Y-106820510D01*
X104906635Y-106801121D01*
X104933588Y-106786714D01*
X104962836Y-106777841D01*
X105001842Y-106774000D01*
X105648158Y-106774000D01*
X105687164Y-106777841D01*
G37*
G36*
X103862164Y-106777841D02*
G01*
X103891412Y-106786714D01*
X103918365Y-106801121D01*
X103941990Y-106820510D01*
X103961379Y-106844135D01*
X103975786Y-106871088D01*
X103984659Y-106900336D01*
X103988500Y-106939342D01*
X103988500Y-107660658D01*
X103984659Y-107699664D01*
X103975786Y-107728912D01*
X103961379Y-107755865D01*
X103941990Y-107779490D01*
X103918365Y-107798879D01*
X103891412Y-107813286D01*
X103862164Y-107822159D01*
X103823158Y-107826000D01*
X103176842Y-107826000D01*
X103137836Y-107822159D01*
X103108588Y-107813286D01*
X103081635Y-107798879D01*
X103058010Y-107779490D01*
X103038621Y-107755865D01*
X103024214Y-107728912D01*
X103015341Y-107699664D01*
X103011500Y-107660658D01*
X103011500Y-106939342D01*
X103015341Y-106900336D01*
X103024214Y-106871088D01*
X103038621Y-106844135D01*
X103058010Y-106820510D01*
X103081635Y-106801121D01*
X103108588Y-106786714D01*
X103137836Y-106777841D01*
X103176842Y-106774000D01*
X103823158Y-106774000D01*
X103862164Y-106777841D01*
G37*
G36*
X102287164Y-106777841D02*
G01*
X102316412Y-106786714D01*
X102343365Y-106801121D01*
X102366990Y-106820510D01*
X102386379Y-106844135D01*
X102400786Y-106871088D01*
X102409659Y-106900336D01*
X102413500Y-106939342D01*
X102413500Y-107660658D01*
X102409659Y-107699664D01*
X102400786Y-107728912D01*
X102386379Y-107755865D01*
X102366990Y-107779490D01*
X102343365Y-107798879D01*
X102316412Y-107813286D01*
X102287164Y-107822159D01*
X102248158Y-107826000D01*
X101601842Y-107826000D01*
X101562836Y-107822159D01*
X101533588Y-107813286D01*
X101506635Y-107798879D01*
X101483010Y-107779490D01*
X101463621Y-107755865D01*
X101449214Y-107728912D01*
X101440341Y-107699664D01*
X101436500Y-107660658D01*
X101436500Y-106939342D01*
X101440341Y-106900336D01*
X101449214Y-106871088D01*
X101463621Y-106844135D01*
X101483010Y-106820510D01*
X101506635Y-106801121D01*
X101533588Y-106786714D01*
X101562836Y-106777841D01*
X101601842Y-106774000D01*
X102248158Y-106774000D01*
X102287164Y-106777841D01*
G37*
G36*
X107262164Y-106777841D02*
G01*
X107291412Y-106786714D01*
X107318365Y-106801121D01*
X107341990Y-106820510D01*
X107361379Y-106844135D01*
X107375786Y-106871088D01*
X107384659Y-106900336D01*
X107388500Y-106939342D01*
X107388500Y-107660658D01*
X107384659Y-107699664D01*
X107375786Y-107728912D01*
X107361379Y-107755865D01*
X107341990Y-107779490D01*
X107318365Y-107798879D01*
X107291412Y-107813286D01*
X107262164Y-107822159D01*
X107223158Y-107826000D01*
X106576842Y-107826000D01*
X106537836Y-107822159D01*
X106508588Y-107813286D01*
X106481635Y-107798879D01*
X106458010Y-107779490D01*
X106438621Y-107755865D01*
X106424214Y-107728912D01*
X106415341Y-107699664D01*
X106411500Y-107660658D01*
X106411500Y-106939342D01*
X106415341Y-106900336D01*
X106424214Y-106871088D01*
X106438621Y-106844135D01*
X106458010Y-106820510D01*
X106481635Y-106801121D01*
X106508588Y-106786714D01*
X106537836Y-106777841D01*
X106576842Y-106774000D01*
X107223158Y-106774000D01*
X107262164Y-106777841D01*
G37*
G36*
X149199664Y-106840341D02*
G01*
X149228912Y-106849214D01*
X149255865Y-106863621D01*
X149279490Y-106883010D01*
X149298879Y-106906635D01*
X149313286Y-106933588D01*
X149322159Y-106962836D01*
X149326000Y-107001842D01*
X149326000Y-107648158D01*
X149322159Y-107687164D01*
X149313286Y-107716412D01*
X149298879Y-107743365D01*
X149279490Y-107766990D01*
X149255865Y-107786379D01*
X149228912Y-107800786D01*
X149199664Y-107809659D01*
X149160658Y-107813500D01*
X148439342Y-107813500D01*
X148400336Y-107809659D01*
X148371088Y-107800786D01*
X148344135Y-107786379D01*
X148320510Y-107766990D01*
X148301121Y-107743365D01*
X148286714Y-107716412D01*
X148277841Y-107687164D01*
X148274000Y-107648158D01*
X148274000Y-107001842D01*
X148277841Y-106962836D01*
X148286714Y-106933588D01*
X148301121Y-106906635D01*
X148320510Y-106883010D01*
X148344135Y-106863621D01*
X148371088Y-106849214D01*
X148400336Y-106840341D01*
X148439342Y-106836500D01*
X149160658Y-106836500D01*
X149199664Y-106840341D01*
G37*
G36*
X153599512Y-106503443D02*
G01*
X153634618Y-106514092D01*
X153666978Y-106531388D01*
X153695337Y-106554663D01*
X153718612Y-106583022D01*
X153735908Y-106615382D01*
X153746557Y-106650488D01*
X153751000Y-106695594D01*
X153751000Y-107404406D01*
X153746557Y-107449512D01*
X153735908Y-107484618D01*
X153718612Y-107516978D01*
X153695337Y-107545337D01*
X153666978Y-107568612D01*
X153634618Y-107585908D01*
X153599512Y-107596557D01*
X153554406Y-107601000D01*
X150345594Y-107601000D01*
X150300488Y-107596557D01*
X150265382Y-107585908D01*
X150233022Y-107568612D01*
X150204663Y-107545337D01*
X150181388Y-107516978D01*
X150164092Y-107484618D01*
X150153443Y-107449512D01*
X150149000Y-107404406D01*
X150149000Y-106695594D01*
X150153443Y-106650488D01*
X150164092Y-106615382D01*
X150181388Y-106583022D01*
X150204663Y-106554663D01*
X150233022Y-106531388D01*
X150265382Y-106514092D01*
X150300488Y-106503443D01*
X150345594Y-106499000D01*
X153554406Y-106499000D01*
X153599512Y-106503443D01*
G37*
G36*
X143176000Y-106301000D02*
G01*
X138074000Y-106301000D01*
X138074000Y-104699000D01*
X143176000Y-104699000D01*
X143176000Y-106301000D01*
G37*
G36*
X103162164Y-105177841D02*
G01*
X103191412Y-105186714D01*
X103218365Y-105201121D01*
X103241990Y-105220510D01*
X103261379Y-105244135D01*
X103275786Y-105271088D01*
X103284659Y-105300336D01*
X103288500Y-105339342D01*
X103288500Y-106060658D01*
X103284659Y-106099664D01*
X103275786Y-106128912D01*
X103261379Y-106155865D01*
X103241990Y-106179490D01*
X103218365Y-106198879D01*
X103191412Y-106213286D01*
X103162164Y-106222159D01*
X103123158Y-106226000D01*
X102476842Y-106226000D01*
X102437836Y-106222159D01*
X102408588Y-106213286D01*
X102381635Y-106198879D01*
X102358010Y-106179490D01*
X102338621Y-106155865D01*
X102324214Y-106128912D01*
X102315341Y-106099664D01*
X102311500Y-106060658D01*
X102311500Y-105339342D01*
X102315341Y-105300336D01*
X102324214Y-105271088D01*
X102338621Y-105244135D01*
X102358010Y-105220510D01*
X102381635Y-105201121D01*
X102408588Y-105186714D01*
X102437836Y-105177841D01*
X102476842Y-105174000D01*
X103123158Y-105174000D01*
X103162164Y-105177841D01*
G37*
G36*
X104987164Y-105177841D02*
G01*
X105016412Y-105186714D01*
X105043365Y-105201121D01*
X105066990Y-105220510D01*
X105086379Y-105244135D01*
X105100786Y-105271088D01*
X105109659Y-105300336D01*
X105113500Y-105339342D01*
X105113500Y-106060658D01*
X105109659Y-106099664D01*
X105100786Y-106128912D01*
X105086379Y-106155865D01*
X105066990Y-106179490D01*
X105043365Y-106198879D01*
X105016412Y-106213286D01*
X104987164Y-106222159D01*
X104948158Y-106226000D01*
X104301842Y-106226000D01*
X104262836Y-106222159D01*
X104233588Y-106213286D01*
X104206635Y-106198879D01*
X104183010Y-106179490D01*
X104163621Y-106155865D01*
X104149214Y-106128912D01*
X104140341Y-106099664D01*
X104136500Y-106060658D01*
X104136500Y-105339342D01*
X104140341Y-105300336D01*
X104149214Y-105271088D01*
X104163621Y-105244135D01*
X104183010Y-105220510D01*
X104206635Y-105201121D01*
X104233588Y-105186714D01*
X104262836Y-105177841D01*
X104301842Y-105174000D01*
X104948158Y-105174000D01*
X104987164Y-105177841D01*
G37*
G36*
X106562164Y-105177841D02*
G01*
X106591412Y-105186714D01*
X106618365Y-105201121D01*
X106641990Y-105220510D01*
X106661379Y-105244135D01*
X106675786Y-105271088D01*
X106684659Y-105300336D01*
X106688500Y-105339342D01*
X106688500Y-106060658D01*
X106684659Y-106099664D01*
X106675786Y-106128912D01*
X106661379Y-106155865D01*
X106641990Y-106179490D01*
X106618365Y-106198879D01*
X106591412Y-106213286D01*
X106562164Y-106222159D01*
X106523158Y-106226000D01*
X105876842Y-106226000D01*
X105837836Y-106222159D01*
X105808588Y-106213286D01*
X105781635Y-106198879D01*
X105758010Y-106179490D01*
X105738621Y-106155865D01*
X105724214Y-106128912D01*
X105715341Y-106099664D01*
X105711500Y-106060658D01*
X105711500Y-105339342D01*
X105715341Y-105300336D01*
X105724214Y-105271088D01*
X105738621Y-105244135D01*
X105758010Y-105220510D01*
X105781635Y-105201121D01*
X105808588Y-105186714D01*
X105837836Y-105177841D01*
X105876842Y-105174000D01*
X106523158Y-105174000D01*
X106562164Y-105177841D01*
G37*
G36*
X101587164Y-105177841D02*
G01*
X101616412Y-105186714D01*
X101643365Y-105201121D01*
X101666990Y-105220510D01*
X101686379Y-105244135D01*
X101700786Y-105271088D01*
X101709659Y-105300336D01*
X101713500Y-105339342D01*
X101713500Y-106060658D01*
X101709659Y-106099664D01*
X101700786Y-106128912D01*
X101686379Y-106155865D01*
X101666990Y-106179490D01*
X101643365Y-106198879D01*
X101616412Y-106213286D01*
X101587164Y-106222159D01*
X101548158Y-106226000D01*
X100901842Y-106226000D01*
X100862836Y-106222159D01*
X100833588Y-106213286D01*
X100806635Y-106198879D01*
X100783010Y-106179490D01*
X100763621Y-106155865D01*
X100749214Y-106128912D01*
X100740341Y-106099664D01*
X100736500Y-106060658D01*
X100736500Y-105339342D01*
X100740341Y-105300336D01*
X100749214Y-105271088D01*
X100763621Y-105244135D01*
X100783010Y-105220510D01*
X100806635Y-105201121D01*
X100833588Y-105186714D01*
X100862836Y-105177841D01*
X100901842Y-105174000D01*
X101548158Y-105174000D01*
X101587164Y-105177841D01*
G37*
G36*
X137299664Y-105015341D02*
G01*
X137328912Y-105024214D01*
X137355865Y-105038621D01*
X137379490Y-105058010D01*
X137398879Y-105081635D01*
X137413286Y-105108588D01*
X137422159Y-105137836D01*
X137426000Y-105176842D01*
X137426000Y-105823158D01*
X137422159Y-105862164D01*
X137413286Y-105891412D01*
X137398879Y-105918365D01*
X137379490Y-105941990D01*
X137355865Y-105961379D01*
X137328912Y-105975786D01*
X137299664Y-105984659D01*
X137260658Y-105988500D01*
X136539342Y-105988500D01*
X136500336Y-105984659D01*
X136471088Y-105975786D01*
X136444135Y-105961379D01*
X136420510Y-105941990D01*
X136401121Y-105918365D01*
X136386714Y-105891412D01*
X136377841Y-105862164D01*
X136374000Y-105823158D01*
X136374000Y-105176842D01*
X136377841Y-105137836D01*
X136386714Y-105108588D01*
X136401121Y-105081635D01*
X136420510Y-105058010D01*
X136444135Y-105038621D01*
X136471088Y-105024214D01*
X136500336Y-105015341D01*
X136539342Y-105011500D01*
X137260658Y-105011500D01*
X137299664Y-105015341D01*
G37*
G36*
X159329828Y-103902718D02*
G01*
X159357872Y-103911226D01*
X159383718Y-103925041D01*
X159406370Y-103943630D01*
X159424959Y-103966282D01*
X159438774Y-103992128D01*
X159447282Y-104020172D01*
X159451000Y-104057927D01*
X159451000Y-105342073D01*
X159447282Y-105379828D01*
X159438774Y-105407872D01*
X159424959Y-105433718D01*
X159406370Y-105456370D01*
X159383718Y-105474959D01*
X159357872Y-105488774D01*
X159329828Y-105497282D01*
X159292073Y-105501000D01*
X156107927Y-105501000D01*
X156070172Y-105497282D01*
X156042128Y-105488774D01*
X156016282Y-105474959D01*
X155993630Y-105456370D01*
X155975041Y-105433718D01*
X155961226Y-105407872D01*
X155952718Y-105379828D01*
X155949000Y-105342073D01*
X155949000Y-104057927D01*
X155952718Y-104020172D01*
X155961226Y-103992128D01*
X155975041Y-103966282D01*
X155993630Y-103943630D01*
X156016282Y-103925041D01*
X156042128Y-103911226D01*
X156070172Y-103902718D01*
X156107927Y-103899000D01*
X159292073Y-103899000D01*
X159329828Y-103902718D01*
G37*
G36*
X94606564Y-103389389D02*
G01*
X94785776Y-103463621D01*
X94797835Y-103468616D01*
X94883904Y-103526125D01*
X94969975Y-103583636D01*
X95116364Y-103730025D01*
X95231385Y-103902167D01*
X95310611Y-104093436D01*
X95351000Y-104296484D01*
X95351000Y-104503516D01*
X95310611Y-104706564D01*
X95231385Y-104897833D01*
X95116364Y-105069975D01*
X94969975Y-105216364D01*
X94926311Y-105245539D01*
X94797835Y-105331384D01*
X94797834Y-105331385D01*
X94797833Y-105331385D01*
X94606564Y-105410611D01*
X94403516Y-105451000D01*
X94196484Y-105451000D01*
X93993436Y-105410611D01*
X93802167Y-105331385D01*
X93802166Y-105331385D01*
X93802165Y-105331384D01*
X93673689Y-105245539D01*
X93630025Y-105216364D01*
X93483636Y-105069975D01*
X93368615Y-104897833D01*
X93289389Y-104706564D01*
X93249000Y-104503516D01*
X93249000Y-104296484D01*
X93289389Y-104093436D01*
X93368615Y-103902167D01*
X93483636Y-103730025D01*
X93630025Y-103583636D01*
X93716096Y-103526125D01*
X93802165Y-103468616D01*
X93814224Y-103463621D01*
X93993436Y-103389389D01*
X94196484Y-103349000D01*
X94403516Y-103349000D01*
X94606564Y-103389389D01*
G37*
G36*
X92106564Y-103389389D02*
G01*
X92285776Y-103463621D01*
X92297835Y-103468616D01*
X92383904Y-103526125D01*
X92469975Y-103583636D01*
X92616364Y-103730025D01*
X92731385Y-103902167D01*
X92810611Y-104093436D01*
X92851000Y-104296484D01*
X92851000Y-104503516D01*
X92810611Y-104706564D01*
X92731385Y-104897833D01*
X92616364Y-105069975D01*
X92469975Y-105216364D01*
X92426311Y-105245539D01*
X92297835Y-105331384D01*
X92297834Y-105331385D01*
X92297833Y-105331385D01*
X92106564Y-105410611D01*
X91903516Y-105451000D01*
X91696484Y-105451000D01*
X91493436Y-105410611D01*
X91302167Y-105331385D01*
X91302166Y-105331385D01*
X91302165Y-105331384D01*
X91173689Y-105245539D01*
X91130025Y-105216364D01*
X90983636Y-105069975D01*
X90868615Y-104897833D01*
X90789389Y-104706564D01*
X90749000Y-104503516D01*
X90749000Y-104296484D01*
X90789389Y-104093436D01*
X90868615Y-103902167D01*
X90983636Y-103730025D01*
X91130025Y-103583636D01*
X91216096Y-103526125D01*
X91302165Y-103468616D01*
X91314224Y-103463621D01*
X91493436Y-103389389D01*
X91696484Y-103349000D01*
X91903516Y-103349000D01*
X92106564Y-103389389D01*
G37*
G36*
X147481577Y-101412446D02*
G01*
X147501260Y-101420599D01*
X147782042Y-101536903D01*
X147822462Y-101563911D01*
X148052449Y-101717583D01*
X148282417Y-101947551D01*
X148328755Y-102016901D01*
X148463097Y-102217958D01*
X148543818Y-102412836D01*
X148587554Y-102518423D01*
X148651000Y-102837389D01*
X148651000Y-103162611D01*
X148587554Y-103481577D01*
X148566010Y-103533588D01*
X148463097Y-103782042D01*
X148461348Y-103784659D01*
X148282417Y-104052449D01*
X148052449Y-104282417D01*
X147925876Y-104366990D01*
X147782042Y-104463097D01*
X147549645Y-104559359D01*
X147481577Y-104587554D01*
X147162611Y-104651000D01*
X146837389Y-104651000D01*
X146518423Y-104587554D01*
X146450355Y-104559359D01*
X146217958Y-104463097D01*
X146074124Y-104366990D01*
X145947551Y-104282417D01*
X145717583Y-104052449D01*
X145538652Y-103784659D01*
X145536903Y-103782042D01*
X145433990Y-103533588D01*
X145412446Y-103481577D01*
X145349000Y-103162611D01*
X145349000Y-102837389D01*
X145412446Y-102518423D01*
X145456182Y-102412836D01*
X145536903Y-102217958D01*
X145671245Y-102016901D01*
X145717583Y-101947551D01*
X145947551Y-101717583D01*
X146177538Y-101563911D01*
X146217958Y-101536903D01*
X146498740Y-101420599D01*
X146518423Y-101412446D01*
X146837389Y-101349000D01*
X147162611Y-101349000D01*
X147481577Y-101412446D01*
G37*
G36*
X110481577Y-101412446D02*
G01*
X110501260Y-101420599D01*
X110782042Y-101536903D01*
X110822462Y-101563911D01*
X111052449Y-101717583D01*
X111282417Y-101947551D01*
X111328755Y-102016901D01*
X111463097Y-102217958D01*
X111543818Y-102412836D01*
X111587554Y-102518423D01*
X111651000Y-102837389D01*
X111651000Y-103162611D01*
X111587554Y-103481577D01*
X111566010Y-103533588D01*
X111463097Y-103782042D01*
X111461348Y-103784659D01*
X111282417Y-104052449D01*
X111052449Y-104282417D01*
X110925876Y-104366990D01*
X110782042Y-104463097D01*
X110549645Y-104559359D01*
X110481577Y-104587554D01*
X110162611Y-104651000D01*
X109837389Y-104651000D01*
X109518423Y-104587554D01*
X109450355Y-104559359D01*
X109217958Y-104463097D01*
X109074124Y-104366990D01*
X108947551Y-104282417D01*
X108717583Y-104052449D01*
X108538652Y-103784659D01*
X108536903Y-103782042D01*
X108433990Y-103533588D01*
X108412446Y-103481577D01*
X108349000Y-103162611D01*
X108349000Y-102837389D01*
X108412446Y-102518423D01*
X108456182Y-102412836D01*
X108536903Y-102217958D01*
X108671245Y-102016901D01*
X108717583Y-101947551D01*
X108947551Y-101717583D01*
X109177538Y-101563911D01*
X109217958Y-101536903D01*
X109498740Y-101420599D01*
X109518423Y-101412446D01*
X109837389Y-101349000D01*
X110162611Y-101349000D01*
X110481577Y-101412446D01*
G37*
G36*
X137299664Y-103440341D02*
G01*
X137328912Y-103449214D01*
X137355865Y-103463621D01*
X137379490Y-103483010D01*
X137398879Y-103506635D01*
X137413286Y-103533588D01*
X137422159Y-103562836D01*
X137426000Y-103601842D01*
X137426000Y-104248158D01*
X137422159Y-104287164D01*
X137413286Y-104316412D01*
X137398879Y-104343365D01*
X137379490Y-104366990D01*
X137355865Y-104386379D01*
X137328912Y-104400786D01*
X137299664Y-104409659D01*
X137260658Y-104413500D01*
X136539342Y-104413500D01*
X136500336Y-104409659D01*
X136471088Y-104400786D01*
X136444135Y-104386379D01*
X136420510Y-104366990D01*
X136401121Y-104343365D01*
X136386714Y-104316412D01*
X136377841Y-104287164D01*
X136374000Y-104248158D01*
X136374000Y-103601842D01*
X136377841Y-103562836D01*
X136386714Y-103533588D01*
X136401121Y-103506635D01*
X136420510Y-103483010D01*
X136444135Y-103463621D01*
X136471088Y-103449214D01*
X136500336Y-103440341D01*
X136539342Y-103436500D01*
X137260658Y-103436500D01*
X137299664Y-103440341D01*
G37*
G36*
X139299664Y-102815341D02*
G01*
X139328912Y-102824214D01*
X139355865Y-102838621D01*
X139379490Y-102858010D01*
X139398879Y-102881635D01*
X139413286Y-102908588D01*
X139422159Y-102937836D01*
X139426000Y-102976842D01*
X139426000Y-103623158D01*
X139422159Y-103662164D01*
X139413286Y-103691412D01*
X139398879Y-103718365D01*
X139379490Y-103741990D01*
X139355865Y-103761379D01*
X139328912Y-103775786D01*
X139299664Y-103784659D01*
X139260658Y-103788500D01*
X138539342Y-103788500D01*
X138500336Y-103784659D01*
X138471088Y-103775786D01*
X138444135Y-103761379D01*
X138420510Y-103741990D01*
X138401121Y-103718365D01*
X138386714Y-103691412D01*
X138377841Y-103662164D01*
X138374000Y-103623158D01*
X138374000Y-102976842D01*
X138377841Y-102937836D01*
X138386714Y-102908588D01*
X138401121Y-102881635D01*
X138420510Y-102858010D01*
X138444135Y-102838621D01*
X138471088Y-102824214D01*
X138500336Y-102815341D01*
X138539342Y-102811500D01*
X139260658Y-102811500D01*
X139299664Y-102815341D01*
G37*
G36*
X142799664Y-102815341D02*
G01*
X142828912Y-102824214D01*
X142855865Y-102838621D01*
X142879490Y-102858010D01*
X142898879Y-102881635D01*
X142913286Y-102908588D01*
X142922159Y-102937836D01*
X142926000Y-102976842D01*
X142926000Y-103623158D01*
X142922159Y-103662164D01*
X142913286Y-103691412D01*
X142898879Y-103718365D01*
X142879490Y-103741990D01*
X142855865Y-103761379D01*
X142828912Y-103775786D01*
X142799664Y-103784659D01*
X142760658Y-103788500D01*
X142039342Y-103788500D01*
X142000336Y-103784659D01*
X141971088Y-103775786D01*
X141944135Y-103761379D01*
X141920510Y-103741990D01*
X141901121Y-103718365D01*
X141886714Y-103691412D01*
X141877841Y-103662164D01*
X141874000Y-103623158D01*
X141874000Y-102976842D01*
X141877841Y-102937836D01*
X141886714Y-102908588D01*
X141901121Y-102881635D01*
X141920510Y-102858010D01*
X141944135Y-102838621D01*
X141971088Y-102824214D01*
X142000336Y-102815341D01*
X142039342Y-102811500D01*
X142760658Y-102811500D01*
X142799664Y-102815341D01*
G37*
G36*
X141099664Y-102802841D02*
G01*
X141128912Y-102811714D01*
X141155865Y-102826121D01*
X141179490Y-102845510D01*
X141198879Y-102869135D01*
X141213286Y-102896088D01*
X141222159Y-102925336D01*
X141226000Y-102964342D01*
X141226000Y-103610658D01*
X141222159Y-103649664D01*
X141213286Y-103678912D01*
X141198879Y-103705865D01*
X141179490Y-103729490D01*
X141155865Y-103748879D01*
X141128912Y-103763286D01*
X141099664Y-103772159D01*
X141060658Y-103776000D01*
X140339342Y-103776000D01*
X140300336Y-103772159D01*
X140271088Y-103763286D01*
X140244135Y-103748879D01*
X140220510Y-103729490D01*
X140201121Y-103705865D01*
X140186714Y-103678912D01*
X140177841Y-103649664D01*
X140174000Y-103610658D01*
X140174000Y-102964342D01*
X140177841Y-102925336D01*
X140186714Y-102896088D01*
X140201121Y-102869135D01*
X140220510Y-102845510D01*
X140244135Y-102826121D01*
X140271088Y-102811714D01*
X140300336Y-102802841D01*
X140339342Y-102799000D01*
X141060658Y-102799000D01*
X141099664Y-102802841D01*
G37*
G36*
X115299664Y-102290341D02*
G01*
X115328912Y-102299214D01*
X115355865Y-102313621D01*
X115379490Y-102333010D01*
X115398879Y-102356635D01*
X115413286Y-102383588D01*
X115422159Y-102412836D01*
X115426000Y-102451842D01*
X115426000Y-103098158D01*
X115422159Y-103137164D01*
X115413286Y-103166412D01*
X115398879Y-103193365D01*
X115379490Y-103216990D01*
X115355865Y-103236379D01*
X115328912Y-103250786D01*
X115299664Y-103259659D01*
X115260658Y-103263500D01*
X114539342Y-103263500D01*
X114500336Y-103259659D01*
X114471088Y-103250786D01*
X114444135Y-103236379D01*
X114420510Y-103216990D01*
X114401121Y-103193365D01*
X114386714Y-103166412D01*
X114377841Y-103137164D01*
X114374000Y-103098158D01*
X114374000Y-102451842D01*
X114377841Y-102412836D01*
X114386714Y-102383588D01*
X114401121Y-102356635D01*
X114420510Y-102333010D01*
X114444135Y-102313621D01*
X114471088Y-102299214D01*
X114500336Y-102290341D01*
X114539342Y-102286500D01*
X115260658Y-102286500D01*
X115299664Y-102290341D01*
G37*
G36*
X92106564Y-100889389D02*
G01*
X92297833Y-100968615D01*
X92297835Y-100968616D01*
X92383904Y-101026125D01*
X92469975Y-101083636D01*
X92616364Y-101230025D01*
X92630460Y-101251121D01*
X92698345Y-101352718D01*
X92731385Y-101402167D01*
X92810611Y-101593436D01*
X92851000Y-101796484D01*
X92851000Y-102003516D01*
X92810611Y-102206564D01*
X92747868Y-102358039D01*
X92731384Y-102397835D01*
X92695298Y-102451842D01*
X92616364Y-102569975D01*
X92469975Y-102716364D01*
X92410857Y-102755865D01*
X92297835Y-102831384D01*
X92297834Y-102831385D01*
X92297833Y-102831385D01*
X92106564Y-102910611D01*
X91903516Y-102951000D01*
X91696484Y-102951000D01*
X91493436Y-102910611D01*
X91302167Y-102831385D01*
X91302166Y-102831385D01*
X91302165Y-102831384D01*
X91189143Y-102755865D01*
X91130025Y-102716364D01*
X90983636Y-102569975D01*
X90904702Y-102451842D01*
X90868616Y-102397835D01*
X90852132Y-102358039D01*
X90789389Y-102206564D01*
X90749000Y-102003516D01*
X90749000Y-101796484D01*
X90789389Y-101593436D01*
X90868615Y-101402167D01*
X90901656Y-101352718D01*
X90969540Y-101251121D01*
X90983636Y-101230025D01*
X91130025Y-101083636D01*
X91216096Y-101026125D01*
X91302165Y-100968616D01*
X91302167Y-100968615D01*
X91493436Y-100889389D01*
X91696484Y-100849000D01*
X91903516Y-100849000D01*
X92106564Y-100889389D01*
G37*
G36*
X159329828Y-101352718D02*
G01*
X159357872Y-101361226D01*
X159383718Y-101375041D01*
X159406370Y-101393630D01*
X159424959Y-101416282D01*
X159438774Y-101442128D01*
X159447282Y-101470172D01*
X159451000Y-101507927D01*
X159451000Y-102792073D01*
X159447282Y-102829828D01*
X159438774Y-102857872D01*
X159424959Y-102883718D01*
X159406370Y-102906370D01*
X159383718Y-102924959D01*
X159357872Y-102938774D01*
X159329828Y-102947282D01*
X159292073Y-102951000D01*
X156107927Y-102951000D01*
X156070172Y-102947282D01*
X156042128Y-102938774D01*
X156016282Y-102924959D01*
X155993630Y-102906370D01*
X155975041Y-102883718D01*
X155961226Y-102857872D01*
X155952718Y-102829828D01*
X155949000Y-102792073D01*
X155949000Y-101507927D01*
X155952718Y-101470172D01*
X155961226Y-101442128D01*
X155975041Y-101416282D01*
X155993630Y-101393630D01*
X156016282Y-101375041D01*
X156042128Y-101361226D01*
X156070172Y-101352718D01*
X156107927Y-101349000D01*
X159292073Y-101349000D01*
X159329828Y-101352718D01*
G37*
G36*
X102162164Y-101777841D02*
G01*
X102191412Y-101786714D01*
X102218365Y-101801121D01*
X102241990Y-101820510D01*
X102261379Y-101844135D01*
X102275786Y-101871088D01*
X102284659Y-101900336D01*
X102288500Y-101939342D01*
X102288500Y-102660658D01*
X102284659Y-102699664D01*
X102275786Y-102728912D01*
X102261379Y-102755865D01*
X102241990Y-102779490D01*
X102218365Y-102798879D01*
X102191412Y-102813286D01*
X102162164Y-102822159D01*
X102123158Y-102826000D01*
X101476842Y-102826000D01*
X101437836Y-102822159D01*
X101408588Y-102813286D01*
X101381635Y-102798879D01*
X101358010Y-102779490D01*
X101338621Y-102755865D01*
X101324214Y-102728912D01*
X101315341Y-102699664D01*
X101311500Y-102660658D01*
X101311500Y-101939342D01*
X101315341Y-101900336D01*
X101324214Y-101871088D01*
X101338621Y-101844135D01*
X101358010Y-101820510D01*
X101381635Y-101801121D01*
X101408588Y-101786714D01*
X101437836Y-101777841D01*
X101476842Y-101774000D01*
X102123158Y-101774000D01*
X102162164Y-101777841D01*
G37*
G36*
X100587164Y-101777841D02*
G01*
X100616412Y-101786714D01*
X100643365Y-101801121D01*
X100666990Y-101820510D01*
X100686379Y-101844135D01*
X100700786Y-101871088D01*
X100709659Y-101900336D01*
X100713500Y-101939342D01*
X100713500Y-102660658D01*
X100709659Y-102699664D01*
X100700786Y-102728912D01*
X100686379Y-102755865D01*
X100666990Y-102779490D01*
X100643365Y-102798879D01*
X100616412Y-102813286D01*
X100587164Y-102822159D01*
X100548158Y-102826000D01*
X99901842Y-102826000D01*
X99862836Y-102822159D01*
X99833588Y-102813286D01*
X99806635Y-102798879D01*
X99783010Y-102779490D01*
X99763621Y-102755865D01*
X99749214Y-102728912D01*
X99740341Y-102699664D01*
X99736500Y-102660658D01*
X99736500Y-101939342D01*
X99740341Y-101900336D01*
X99749214Y-101871088D01*
X99763621Y-101844135D01*
X99783010Y-101820510D01*
X99806635Y-101801121D01*
X99833588Y-101786714D01*
X99862836Y-101777841D01*
X99901842Y-101774000D01*
X100548158Y-101774000D01*
X100587164Y-101777841D01*
G37*
G36*
X103799664Y-101815341D02*
G01*
X103828912Y-101824214D01*
X103855865Y-101838621D01*
X103879490Y-101858010D01*
X103898879Y-101881635D01*
X103913286Y-101908588D01*
X103922159Y-101937836D01*
X103926000Y-101976842D01*
X103926000Y-102623158D01*
X103922159Y-102662164D01*
X103913286Y-102691412D01*
X103898879Y-102718365D01*
X103879490Y-102741990D01*
X103855865Y-102761379D01*
X103828912Y-102775786D01*
X103799664Y-102784659D01*
X103760658Y-102788500D01*
X103039342Y-102788500D01*
X103000336Y-102784659D01*
X102971088Y-102775786D01*
X102944135Y-102761379D01*
X102920510Y-102741990D01*
X102901121Y-102718365D01*
X102886714Y-102691412D01*
X102877841Y-102662164D01*
X102874000Y-102623158D01*
X102874000Y-101976842D01*
X102877841Y-101937836D01*
X102886714Y-101908588D01*
X102901121Y-101881635D01*
X102920510Y-101858010D01*
X102944135Y-101838621D01*
X102971088Y-101824214D01*
X103000336Y-101815341D01*
X103039342Y-101811500D01*
X103760658Y-101811500D01*
X103799664Y-101815341D01*
G37*
G36*
X142799664Y-101240341D02*
G01*
X142828912Y-101249214D01*
X142855865Y-101263621D01*
X142879490Y-101283010D01*
X142898879Y-101306635D01*
X142913286Y-101333588D01*
X142922159Y-101362836D01*
X142926000Y-101401842D01*
X142926000Y-102048158D01*
X142922159Y-102087164D01*
X142913286Y-102116412D01*
X142898879Y-102143365D01*
X142879490Y-102166990D01*
X142855865Y-102186379D01*
X142828912Y-102200786D01*
X142799664Y-102209659D01*
X142760658Y-102213500D01*
X142039342Y-102213500D01*
X142000336Y-102209659D01*
X141971088Y-102200786D01*
X141944135Y-102186379D01*
X141920510Y-102166990D01*
X141901121Y-102143365D01*
X141886714Y-102116412D01*
X141877841Y-102087164D01*
X141874000Y-102048158D01*
X141874000Y-101401842D01*
X141877841Y-101362836D01*
X141886714Y-101333588D01*
X141901121Y-101306635D01*
X141920510Y-101283010D01*
X141944135Y-101263621D01*
X141971088Y-101249214D01*
X142000336Y-101240341D01*
X142039342Y-101236500D01*
X142760658Y-101236500D01*
X142799664Y-101240341D01*
G37*
G36*
X139299664Y-101240341D02*
G01*
X139328912Y-101249214D01*
X139355865Y-101263621D01*
X139379490Y-101283010D01*
X139398879Y-101306635D01*
X139413286Y-101333588D01*
X139422159Y-101362836D01*
X139426000Y-101401842D01*
X139426000Y-102048158D01*
X139422159Y-102087164D01*
X139413286Y-102116412D01*
X139398879Y-102143365D01*
X139379490Y-102166990D01*
X139355865Y-102186379D01*
X139328912Y-102200786D01*
X139299664Y-102209659D01*
X139260658Y-102213500D01*
X138539342Y-102213500D01*
X138500336Y-102209659D01*
X138471088Y-102200786D01*
X138444135Y-102186379D01*
X138420510Y-102166990D01*
X138401121Y-102143365D01*
X138386714Y-102116412D01*
X138377841Y-102087164D01*
X138374000Y-102048158D01*
X138374000Y-101401842D01*
X138377841Y-101362836D01*
X138386714Y-101333588D01*
X138401121Y-101306635D01*
X138420510Y-101283010D01*
X138444135Y-101263621D01*
X138471088Y-101249214D01*
X138500336Y-101240341D01*
X138539342Y-101236500D01*
X139260658Y-101236500D01*
X139299664Y-101240341D01*
G37*
G36*
X141099664Y-101227841D02*
G01*
X141128912Y-101236714D01*
X141155865Y-101251121D01*
X141179490Y-101270510D01*
X141198879Y-101294135D01*
X141213286Y-101321088D01*
X141222159Y-101350336D01*
X141226000Y-101389342D01*
X141226000Y-102035658D01*
X141222159Y-102074664D01*
X141213286Y-102103912D01*
X141198879Y-102130865D01*
X141179490Y-102154490D01*
X141155865Y-102173879D01*
X141128912Y-102188286D01*
X141099664Y-102197159D01*
X141060658Y-102201000D01*
X140339342Y-102201000D01*
X140300336Y-102197159D01*
X140271088Y-102188286D01*
X140244135Y-102173879D01*
X140220510Y-102154490D01*
X140201121Y-102130865D01*
X140186714Y-102103912D01*
X140177841Y-102074664D01*
X140174000Y-102035658D01*
X140174000Y-101389342D01*
X140177841Y-101350336D01*
X140186714Y-101321088D01*
X140201121Y-101294135D01*
X140220510Y-101270510D01*
X140244135Y-101251121D01*
X140271088Y-101236714D01*
X140300336Y-101227841D01*
X140339342Y-101224000D01*
X141060658Y-101224000D01*
X141099664Y-101227841D01*
G37*
G36*
X115299664Y-100715341D02*
G01*
X115328912Y-100724214D01*
X115355865Y-100738621D01*
X115379490Y-100758010D01*
X115398879Y-100781635D01*
X115413286Y-100808588D01*
X115422159Y-100837836D01*
X115426000Y-100876842D01*
X115426000Y-101523158D01*
X115422159Y-101562164D01*
X115413286Y-101591412D01*
X115398879Y-101618365D01*
X115379490Y-101641990D01*
X115355865Y-101661379D01*
X115328912Y-101675786D01*
X115299664Y-101684659D01*
X115260658Y-101688500D01*
X114539342Y-101688500D01*
X114500336Y-101684659D01*
X114471088Y-101675786D01*
X114444135Y-101661379D01*
X114420510Y-101641990D01*
X114401121Y-101618365D01*
X114386714Y-101591412D01*
X114377841Y-101562164D01*
X114374000Y-101523158D01*
X114374000Y-100876842D01*
X114377841Y-100837836D01*
X114386714Y-100808588D01*
X114401121Y-100781635D01*
X114420510Y-100758010D01*
X114444135Y-100738621D01*
X114471088Y-100724214D01*
X114500336Y-100715341D01*
X114539342Y-100711500D01*
X115260658Y-100711500D01*
X115299664Y-100715341D01*
G37*
G36*
X100587164Y-100177841D02*
G01*
X100616412Y-100186714D01*
X100643365Y-100201121D01*
X100666990Y-100220510D01*
X100686379Y-100244135D01*
X100700786Y-100271088D01*
X100709659Y-100300336D01*
X100713500Y-100339342D01*
X100713500Y-101060658D01*
X100709659Y-101099664D01*
X100700786Y-101128912D01*
X100686379Y-101155865D01*
X100666990Y-101179490D01*
X100643365Y-101198879D01*
X100616412Y-101213286D01*
X100587164Y-101222159D01*
X100548158Y-101226000D01*
X99901842Y-101226000D01*
X99862836Y-101222159D01*
X99833588Y-101213286D01*
X99806635Y-101198879D01*
X99783010Y-101179490D01*
X99763621Y-101155865D01*
X99749214Y-101128912D01*
X99740341Y-101099664D01*
X99736500Y-101060658D01*
X99736500Y-100339342D01*
X99740341Y-100300336D01*
X99749214Y-100271088D01*
X99763621Y-100244135D01*
X99783010Y-100220510D01*
X99806635Y-100201121D01*
X99833588Y-100186714D01*
X99862836Y-100177841D01*
X99901842Y-100174000D01*
X100548158Y-100174000D01*
X100587164Y-100177841D01*
G37*
G36*
X102162164Y-100177841D02*
G01*
X102191412Y-100186714D01*
X102218365Y-100201121D01*
X102241990Y-100220510D01*
X102261379Y-100244135D01*
X102275786Y-100271088D01*
X102284659Y-100300336D01*
X102288500Y-100339342D01*
X102288500Y-101060658D01*
X102284659Y-101099664D01*
X102275786Y-101128912D01*
X102261379Y-101155865D01*
X102241990Y-101179490D01*
X102218365Y-101198879D01*
X102191412Y-101213286D01*
X102162164Y-101222159D01*
X102123158Y-101226000D01*
X101476842Y-101226000D01*
X101437836Y-101222159D01*
X101408588Y-101213286D01*
X101381635Y-101198879D01*
X101358010Y-101179490D01*
X101338621Y-101155865D01*
X101324214Y-101128912D01*
X101315341Y-101099664D01*
X101311500Y-101060658D01*
X101311500Y-100339342D01*
X101315341Y-100300336D01*
X101324214Y-100271088D01*
X101338621Y-100244135D01*
X101358010Y-100220510D01*
X101381635Y-100201121D01*
X101408588Y-100186714D01*
X101437836Y-100177841D01*
X101476842Y-100174000D01*
X102123158Y-100174000D01*
X102162164Y-100177841D01*
G37*
G36*
X103799664Y-100240341D02*
G01*
X103828912Y-100249214D01*
X103855865Y-100263621D01*
X103879490Y-100283010D01*
X103898879Y-100306635D01*
X103913286Y-100333588D01*
X103922159Y-100362836D01*
X103926000Y-100401842D01*
X103926000Y-101048158D01*
X103922159Y-101087164D01*
X103913286Y-101116412D01*
X103898879Y-101143365D01*
X103879490Y-101166990D01*
X103855865Y-101186379D01*
X103828912Y-101200786D01*
X103799664Y-101209659D01*
X103760658Y-101213500D01*
X103039342Y-101213500D01*
X103000336Y-101209659D01*
X102971088Y-101200786D01*
X102944135Y-101186379D01*
X102920510Y-101166990D01*
X102901121Y-101143365D01*
X102886714Y-101116412D01*
X102877841Y-101087164D01*
X102874000Y-101048158D01*
X102874000Y-100401842D01*
X102877841Y-100362836D01*
X102886714Y-100333588D01*
X102901121Y-100306635D01*
X102920510Y-100283010D01*
X102944135Y-100263621D01*
X102971088Y-100249214D01*
X103000336Y-100240341D01*
X103039342Y-100236500D01*
X103760658Y-100236500D01*
X103799664Y-100240341D01*
G37*
G36*
X94606564Y-98389389D02*
G01*
X94797833Y-98468615D01*
X94797835Y-98468616D01*
X94845981Y-98500786D01*
X94969975Y-98583636D01*
X95116364Y-98730025D01*
X95231385Y-98902167D01*
X95310611Y-99093436D01*
X95351000Y-99296484D01*
X95351000Y-99503516D01*
X95310611Y-99706564D01*
X95233842Y-99891901D01*
X95231384Y-99897835D01*
X95188401Y-99962164D01*
X95116364Y-100069975D01*
X94969975Y-100216364D01*
X94895072Y-100266412D01*
X94797835Y-100331384D01*
X94797834Y-100331385D01*
X94797833Y-100331385D01*
X94606564Y-100410611D01*
X94403516Y-100451000D01*
X94196484Y-100451000D01*
X93993436Y-100410611D01*
X93802167Y-100331385D01*
X93802166Y-100331385D01*
X93802165Y-100331384D01*
X93704928Y-100266412D01*
X93630025Y-100216364D01*
X93483636Y-100069975D01*
X93411599Y-99962164D01*
X93368616Y-99897835D01*
X93366158Y-99891901D01*
X93289389Y-99706564D01*
X93249000Y-99503516D01*
X93249000Y-99296484D01*
X93289389Y-99093436D01*
X93368615Y-98902167D01*
X93483636Y-98730025D01*
X93630025Y-98583636D01*
X93754019Y-98500786D01*
X93802165Y-98468616D01*
X93802167Y-98468615D01*
X93993436Y-98389389D01*
X94196484Y-98349000D01*
X94403516Y-98349000D01*
X94606564Y-98389389D01*
G37*
G36*
X92851000Y-100451000D02*
G01*
X90749000Y-100451000D01*
X90749000Y-98349000D01*
X92851000Y-98349000D01*
X92851000Y-100451000D01*
G37*
G36*
X143176000Y-100401000D02*
G01*
X138074000Y-100401000D01*
X138074000Y-98799000D01*
X143176000Y-98799000D01*
X143176000Y-100401000D01*
G37*
G36*
X137299664Y-99390341D02*
G01*
X137328912Y-99399214D01*
X137355865Y-99413621D01*
X137379490Y-99433010D01*
X137398879Y-99456635D01*
X137413286Y-99483588D01*
X137422159Y-99512836D01*
X137426000Y-99551842D01*
X137426000Y-100198158D01*
X137422159Y-100237164D01*
X137413286Y-100266412D01*
X137398879Y-100293365D01*
X137379490Y-100316990D01*
X137355865Y-100336379D01*
X137328912Y-100350786D01*
X137299664Y-100359659D01*
X137260658Y-100363500D01*
X136539342Y-100363500D01*
X136500336Y-100359659D01*
X136471088Y-100350786D01*
X136444135Y-100336379D01*
X136420510Y-100316990D01*
X136401121Y-100293365D01*
X136386714Y-100266412D01*
X136377841Y-100237164D01*
X136374000Y-100198158D01*
X136374000Y-99551842D01*
X136377841Y-99512836D01*
X136386714Y-99483588D01*
X136401121Y-99456635D01*
X136420510Y-99433010D01*
X136444135Y-99413621D01*
X136471088Y-99399214D01*
X136500336Y-99390341D01*
X136539342Y-99386500D01*
X137260658Y-99386500D01*
X137299664Y-99390341D01*
G37*
G36*
X153599512Y-99253443D02*
G01*
X153634618Y-99264092D01*
X153666978Y-99281388D01*
X153695337Y-99304663D01*
X153718612Y-99333022D01*
X153735908Y-99365382D01*
X153746557Y-99400488D01*
X153751000Y-99445594D01*
X153751000Y-100154406D01*
X153746557Y-100199512D01*
X153735908Y-100234618D01*
X153718612Y-100266978D01*
X153695337Y-100295337D01*
X153666978Y-100318612D01*
X153634618Y-100335908D01*
X153599512Y-100346557D01*
X153554406Y-100351000D01*
X150345594Y-100351000D01*
X150300488Y-100346557D01*
X150265382Y-100335908D01*
X150233022Y-100318612D01*
X150204663Y-100295337D01*
X150181388Y-100266978D01*
X150164092Y-100234618D01*
X150153443Y-100199512D01*
X150149000Y-100154406D01*
X150149000Y-99445594D01*
X150153443Y-99400488D01*
X150164092Y-99365382D01*
X150181388Y-99333022D01*
X150204663Y-99304663D01*
X150233022Y-99281388D01*
X150265382Y-99264092D01*
X150300488Y-99253443D01*
X150345594Y-99249000D01*
X153554406Y-99249000D01*
X153599512Y-99253443D01*
G37*
G36*
X115299664Y-99115341D02*
G01*
X115328912Y-99124214D01*
X115355865Y-99138621D01*
X115379490Y-99158010D01*
X115398879Y-99181635D01*
X115413286Y-99208588D01*
X115422159Y-99237836D01*
X115426000Y-99276842D01*
X115426000Y-99923158D01*
X115422159Y-99962164D01*
X115413286Y-99991412D01*
X115398879Y-100018365D01*
X115379490Y-100041990D01*
X115355865Y-100061379D01*
X115328912Y-100075786D01*
X115299664Y-100084659D01*
X115260658Y-100088500D01*
X114539342Y-100088500D01*
X114500336Y-100084659D01*
X114471088Y-100075786D01*
X114444135Y-100061379D01*
X114420510Y-100041990D01*
X114401121Y-100018365D01*
X114386714Y-99991412D01*
X114377841Y-99962164D01*
X114374000Y-99923158D01*
X114374000Y-99276842D01*
X114377841Y-99237836D01*
X114386714Y-99208588D01*
X114401121Y-99181635D01*
X114420510Y-99158010D01*
X114444135Y-99138621D01*
X114471088Y-99124214D01*
X114500336Y-99115341D01*
X114539342Y-99111500D01*
X115260658Y-99111500D01*
X115299664Y-99115341D01*
G37*
G36*
X100587164Y-97777841D02*
G01*
X100616412Y-97786714D01*
X100643365Y-97801121D01*
X100666990Y-97820510D01*
X100686379Y-97844135D01*
X100700786Y-97871088D01*
X100709659Y-97900336D01*
X100713500Y-97939342D01*
X100713500Y-98660658D01*
X100709659Y-98699664D01*
X100700786Y-98728912D01*
X100686379Y-98755865D01*
X100666990Y-98779490D01*
X100643365Y-98798879D01*
X100616412Y-98813286D01*
X100587164Y-98822159D01*
X100548158Y-98826000D01*
X99901842Y-98826000D01*
X99862836Y-98822159D01*
X99833588Y-98813286D01*
X99806635Y-98798879D01*
X99783010Y-98779490D01*
X99763621Y-98755865D01*
X99749214Y-98728912D01*
X99740341Y-98699664D01*
X99736500Y-98660658D01*
X99736500Y-97939342D01*
X99740341Y-97900336D01*
X99749214Y-97871088D01*
X99763621Y-97844135D01*
X99783010Y-97820510D01*
X99806635Y-97801121D01*
X99833588Y-97786714D01*
X99862836Y-97777841D01*
X99901842Y-97774000D01*
X100548158Y-97774000D01*
X100587164Y-97777841D01*
G37*
G36*
X102162164Y-97777841D02*
G01*
X102191412Y-97786714D01*
X102218365Y-97801121D01*
X102241990Y-97820510D01*
X102261379Y-97844135D01*
X102275786Y-97871088D01*
X102284659Y-97900336D01*
X102288500Y-97939342D01*
X102288500Y-98660658D01*
X102284659Y-98699664D01*
X102275786Y-98728912D01*
X102261379Y-98755865D01*
X102241990Y-98779490D01*
X102218365Y-98798879D01*
X102191412Y-98813286D01*
X102162164Y-98822159D01*
X102123158Y-98826000D01*
X101476842Y-98826000D01*
X101437836Y-98822159D01*
X101408588Y-98813286D01*
X101381635Y-98798879D01*
X101358010Y-98779490D01*
X101338621Y-98755865D01*
X101324214Y-98728912D01*
X101315341Y-98699664D01*
X101311500Y-98660658D01*
X101311500Y-97939342D01*
X101315341Y-97900336D01*
X101324214Y-97871088D01*
X101338621Y-97844135D01*
X101358010Y-97820510D01*
X101381635Y-97801121D01*
X101408588Y-97786714D01*
X101437836Y-97777841D01*
X101476842Y-97774000D01*
X102123158Y-97774000D01*
X102162164Y-97777841D01*
G37*
G36*
X137299664Y-97815341D02*
G01*
X137328912Y-97824214D01*
X137355865Y-97838621D01*
X137379490Y-97858010D01*
X137398879Y-97881635D01*
X137413286Y-97908588D01*
X137422159Y-97937836D01*
X137426000Y-97976842D01*
X137426000Y-98623158D01*
X137422159Y-98662164D01*
X137413286Y-98691412D01*
X137398879Y-98718365D01*
X137379490Y-98741990D01*
X137355865Y-98761379D01*
X137328912Y-98775786D01*
X137299664Y-98784659D01*
X137260658Y-98788500D01*
X136539342Y-98788500D01*
X136500336Y-98784659D01*
X136471088Y-98775786D01*
X136444135Y-98761379D01*
X136420510Y-98741990D01*
X136401121Y-98718365D01*
X136386714Y-98691412D01*
X136377841Y-98662164D01*
X136374000Y-98623158D01*
X136374000Y-97976842D01*
X136377841Y-97937836D01*
X136386714Y-97908588D01*
X136401121Y-97881635D01*
X136420510Y-97858010D01*
X136444135Y-97838621D01*
X136471088Y-97824214D01*
X136500336Y-97815341D01*
X136539342Y-97811500D01*
X137260658Y-97811500D01*
X137299664Y-97815341D01*
G37*
G36*
X115299664Y-97540341D02*
G01*
X115328912Y-97549214D01*
X115355865Y-97563621D01*
X115379490Y-97583010D01*
X115398879Y-97606635D01*
X115413286Y-97633588D01*
X115422159Y-97662836D01*
X115426000Y-97701842D01*
X115426000Y-98348158D01*
X115422159Y-98387164D01*
X115413286Y-98416412D01*
X115398879Y-98443365D01*
X115379490Y-98466990D01*
X115355865Y-98486379D01*
X115328912Y-98500786D01*
X115299664Y-98509659D01*
X115260658Y-98513500D01*
X114539342Y-98513500D01*
X114500336Y-98509659D01*
X114471088Y-98500786D01*
X114444135Y-98486379D01*
X114420510Y-98466990D01*
X114401121Y-98443365D01*
X114386714Y-98416412D01*
X114377841Y-98387164D01*
X114374000Y-98348158D01*
X114374000Y-97701842D01*
X114377841Y-97662836D01*
X114386714Y-97633588D01*
X114401121Y-97606635D01*
X114420510Y-97583010D01*
X114444135Y-97563621D01*
X114471088Y-97549214D01*
X114500336Y-97540341D01*
X114539342Y-97536500D01*
X115260658Y-97536500D01*
X115299664Y-97540341D01*
G37*
G36*
X112812164Y-97377841D02*
G01*
X112841412Y-97386714D01*
X112868365Y-97401121D01*
X112891990Y-97420510D01*
X112911379Y-97444135D01*
X112925786Y-97471088D01*
X112934659Y-97500336D01*
X112938500Y-97539342D01*
X112938500Y-98260658D01*
X112934659Y-98299664D01*
X112925786Y-98328912D01*
X112911379Y-98355865D01*
X112891990Y-98379490D01*
X112868365Y-98398879D01*
X112841412Y-98413286D01*
X112812164Y-98422159D01*
X112773158Y-98426000D01*
X112126842Y-98426000D01*
X112087836Y-98422159D01*
X112058588Y-98413286D01*
X112031635Y-98398879D01*
X112008010Y-98379490D01*
X111988621Y-98355865D01*
X111974214Y-98328912D01*
X111965341Y-98299664D01*
X111961500Y-98260658D01*
X111961500Y-97539342D01*
X111965341Y-97500336D01*
X111974214Y-97471088D01*
X111988621Y-97444135D01*
X112008010Y-97420510D01*
X112031635Y-97401121D01*
X112058588Y-97386714D01*
X112087836Y-97377841D01*
X112126842Y-97374000D01*
X112773158Y-97374000D01*
X112812164Y-97377841D01*
G37*
G36*
X111237164Y-97377841D02*
G01*
X111266412Y-97386714D01*
X111293365Y-97401121D01*
X111316990Y-97420510D01*
X111336379Y-97444135D01*
X111350786Y-97471088D01*
X111359659Y-97500336D01*
X111363500Y-97539342D01*
X111363500Y-98260658D01*
X111359659Y-98299664D01*
X111350786Y-98328912D01*
X111336379Y-98355865D01*
X111316990Y-98379490D01*
X111293365Y-98398879D01*
X111266412Y-98413286D01*
X111237164Y-98422159D01*
X111198158Y-98426000D01*
X110551842Y-98426000D01*
X110512836Y-98422159D01*
X110483588Y-98413286D01*
X110456635Y-98398879D01*
X110433010Y-98379490D01*
X110413621Y-98355865D01*
X110399214Y-98328912D01*
X110390341Y-98299664D01*
X110386500Y-98260658D01*
X110386500Y-97539342D01*
X110390341Y-97500336D01*
X110399214Y-97471088D01*
X110413621Y-97444135D01*
X110433010Y-97420510D01*
X110456635Y-97401121D01*
X110483588Y-97386714D01*
X110512836Y-97377841D01*
X110551842Y-97374000D01*
X111198158Y-97374000D01*
X111237164Y-97377841D01*
G37*
G36*
X153599512Y-97253443D02*
G01*
X153634618Y-97264092D01*
X153666978Y-97281388D01*
X153695337Y-97304663D01*
X153718612Y-97333022D01*
X153735908Y-97365382D01*
X153746557Y-97400488D01*
X153751000Y-97445594D01*
X153751000Y-98154406D01*
X153746557Y-98199512D01*
X153735908Y-98234618D01*
X153718612Y-98266978D01*
X153695337Y-98295337D01*
X153666978Y-98318612D01*
X153634618Y-98335908D01*
X153599512Y-98346557D01*
X153554406Y-98351000D01*
X150345594Y-98351000D01*
X150300488Y-98346557D01*
X150265382Y-98335908D01*
X150233022Y-98318612D01*
X150204663Y-98295337D01*
X150181388Y-98266978D01*
X150164092Y-98234618D01*
X150153443Y-98199512D01*
X150149000Y-98154406D01*
X150149000Y-97445594D01*
X150153443Y-97400488D01*
X150164092Y-97365382D01*
X150181388Y-97333022D01*
X150204663Y-97304663D01*
X150233022Y-97281388D01*
X150265382Y-97264092D01*
X150300488Y-97253443D01*
X150345594Y-97249000D01*
X153554406Y-97249000D01*
X153599512Y-97253443D01*
G37*
G36*
X147762164Y-97277841D02*
G01*
X147791412Y-97286714D01*
X147818365Y-97301121D01*
X147841990Y-97320510D01*
X147861379Y-97344135D01*
X147875786Y-97371088D01*
X147884659Y-97400336D01*
X147888500Y-97439342D01*
X147888500Y-98160658D01*
X147884659Y-98199664D01*
X147875786Y-98228912D01*
X147861379Y-98255865D01*
X147841990Y-98279490D01*
X147818365Y-98298879D01*
X147791412Y-98313286D01*
X147762164Y-98322159D01*
X147723158Y-98326000D01*
X147076842Y-98326000D01*
X147037836Y-98322159D01*
X147008588Y-98313286D01*
X146981635Y-98298879D01*
X146958010Y-98279490D01*
X146938621Y-98255865D01*
X146924214Y-98228912D01*
X146915341Y-98199664D01*
X146911500Y-98160658D01*
X146911500Y-97439342D01*
X146915341Y-97400336D01*
X146924214Y-97371088D01*
X146938621Y-97344135D01*
X146958010Y-97320510D01*
X146981635Y-97301121D01*
X147008588Y-97286714D01*
X147037836Y-97277841D01*
X147076842Y-97274000D01*
X147723158Y-97274000D01*
X147762164Y-97277841D01*
G37*
G36*
X149337164Y-97277841D02*
G01*
X149366412Y-97286714D01*
X149393365Y-97301121D01*
X149416990Y-97320510D01*
X149436379Y-97344135D01*
X149450786Y-97371088D01*
X149459659Y-97400336D01*
X149463500Y-97439342D01*
X149463500Y-98160658D01*
X149459659Y-98199664D01*
X149450786Y-98228912D01*
X149436379Y-98255865D01*
X149416990Y-98279490D01*
X149393365Y-98298879D01*
X149366412Y-98313286D01*
X149337164Y-98322159D01*
X149298158Y-98326000D01*
X148651842Y-98326000D01*
X148612836Y-98322159D01*
X148583588Y-98313286D01*
X148556635Y-98298879D01*
X148533010Y-98279490D01*
X148513621Y-98255865D01*
X148499214Y-98228912D01*
X148490341Y-98199664D01*
X148486500Y-98160658D01*
X148486500Y-97439342D01*
X148490341Y-97400336D01*
X148499214Y-97371088D01*
X148513621Y-97344135D01*
X148533010Y-97320510D01*
X148556635Y-97301121D01*
X148583588Y-97286714D01*
X148612836Y-97277841D01*
X148651842Y-97274000D01*
X149298158Y-97274000D01*
X149337164Y-97277841D01*
G37*
G36*
X102162164Y-96177841D02*
G01*
X102191412Y-96186714D01*
X102218365Y-96201121D01*
X102241990Y-96220510D01*
X102261379Y-96244135D01*
X102275786Y-96271088D01*
X102284659Y-96300336D01*
X102288500Y-96339342D01*
X102288500Y-97060658D01*
X102284659Y-97099664D01*
X102275786Y-97128912D01*
X102261379Y-97155865D01*
X102241990Y-97179490D01*
X102218365Y-97198879D01*
X102191412Y-97213286D01*
X102162164Y-97222159D01*
X102123158Y-97226000D01*
X101476842Y-97226000D01*
X101437836Y-97222159D01*
X101408588Y-97213286D01*
X101381635Y-97198879D01*
X101358010Y-97179490D01*
X101338621Y-97155865D01*
X101324214Y-97128912D01*
X101315341Y-97099664D01*
X101311500Y-97060658D01*
X101311500Y-96339342D01*
X101315341Y-96300336D01*
X101324214Y-96271088D01*
X101338621Y-96244135D01*
X101358010Y-96220510D01*
X101381635Y-96201121D01*
X101408588Y-96186714D01*
X101437836Y-96177841D01*
X101476842Y-96174000D01*
X102123158Y-96174000D01*
X102162164Y-96177841D01*
G37*
G36*
X100587164Y-96177841D02*
G01*
X100616412Y-96186714D01*
X100643365Y-96201121D01*
X100666990Y-96220510D01*
X100686379Y-96244135D01*
X100700786Y-96271088D01*
X100709659Y-96300336D01*
X100713500Y-96339342D01*
X100713500Y-97060658D01*
X100709659Y-97099664D01*
X100700786Y-97128912D01*
X100686379Y-97155865D01*
X100666990Y-97179490D01*
X100643365Y-97198879D01*
X100616412Y-97213286D01*
X100587164Y-97222159D01*
X100548158Y-97226000D01*
X99901842Y-97226000D01*
X99862836Y-97222159D01*
X99833588Y-97213286D01*
X99806635Y-97198879D01*
X99783010Y-97179490D01*
X99763621Y-97155865D01*
X99749214Y-97128912D01*
X99740341Y-97099664D01*
X99736500Y-97060658D01*
X99736500Y-96339342D01*
X99740341Y-96300336D01*
X99749214Y-96271088D01*
X99763621Y-96244135D01*
X99783010Y-96220510D01*
X99806635Y-96201121D01*
X99833588Y-96186714D01*
X99862836Y-96177841D01*
X99901842Y-96174000D01*
X100548158Y-96174000D01*
X100587164Y-96177841D01*
G37*
G36*
X103687164Y-96177841D02*
G01*
X103716412Y-96186714D01*
X103743365Y-96201121D01*
X103766990Y-96220510D01*
X103786379Y-96244135D01*
X103800786Y-96271088D01*
X103809659Y-96300336D01*
X103813500Y-96339342D01*
X103813500Y-97060658D01*
X103809659Y-97099664D01*
X103800786Y-97128912D01*
X103786379Y-97155865D01*
X103766990Y-97179490D01*
X103743365Y-97198879D01*
X103716412Y-97213286D01*
X103687164Y-97222159D01*
X103648158Y-97226000D01*
X103001842Y-97226000D01*
X102962836Y-97222159D01*
X102933588Y-97213286D01*
X102906635Y-97198879D01*
X102883010Y-97179490D01*
X102863621Y-97155865D01*
X102849214Y-97128912D01*
X102840341Y-97099664D01*
X102836500Y-97060658D01*
X102836500Y-96339342D01*
X102840341Y-96300336D01*
X102849214Y-96271088D01*
X102863621Y-96244135D01*
X102883010Y-96220510D01*
X102906635Y-96201121D01*
X102933588Y-96186714D01*
X102962836Y-96177841D01*
X103001842Y-96174000D01*
X103648158Y-96174000D01*
X103687164Y-96177841D01*
G37*
G36*
X105262164Y-96177841D02*
G01*
X105291412Y-96186714D01*
X105318365Y-96201121D01*
X105341990Y-96220510D01*
X105361379Y-96244135D01*
X105375786Y-96271088D01*
X105384659Y-96300336D01*
X105388500Y-96339342D01*
X105388500Y-97060658D01*
X105384659Y-97099664D01*
X105375786Y-97128912D01*
X105361379Y-97155865D01*
X105341990Y-97179490D01*
X105318365Y-97198879D01*
X105291412Y-97213286D01*
X105262164Y-97222159D01*
X105223158Y-97226000D01*
X104576842Y-97226000D01*
X104537836Y-97222159D01*
X104508588Y-97213286D01*
X104481635Y-97198879D01*
X104458010Y-97179490D01*
X104438621Y-97155865D01*
X104424214Y-97128912D01*
X104415341Y-97099664D01*
X104411500Y-97060658D01*
X104411500Y-96339342D01*
X104415341Y-96300336D01*
X104424214Y-96271088D01*
X104438621Y-96244135D01*
X104458010Y-96220510D01*
X104481635Y-96201121D01*
X104508588Y-96186714D01*
X104537836Y-96177841D01*
X104576842Y-96174000D01*
X105223158Y-96174000D01*
X105262164Y-96177841D01*
G37*
G36*
X96951000Y-96851000D02*
G01*
X93649000Y-96851000D01*
X93649000Y-94749000D01*
X96951000Y-94749000D01*
X96951000Y-96851000D01*
G37*
G36*
X153599512Y-95253443D02*
G01*
X153634618Y-95264092D01*
X153666978Y-95281388D01*
X153695337Y-95304663D01*
X153718612Y-95333022D01*
X153735908Y-95365382D01*
X153746557Y-95400488D01*
X153751000Y-95445594D01*
X153751000Y-96154406D01*
X153746557Y-96199512D01*
X153735908Y-96234618D01*
X153718612Y-96266978D01*
X153695337Y-96295337D01*
X153666978Y-96318612D01*
X153634618Y-96335908D01*
X153599512Y-96346557D01*
X153554406Y-96351000D01*
X150345594Y-96351000D01*
X150300488Y-96346557D01*
X150265382Y-96335908D01*
X150233022Y-96318612D01*
X150204663Y-96295337D01*
X150181388Y-96266978D01*
X150164092Y-96234618D01*
X150153443Y-96199512D01*
X150149000Y-96154406D01*
X150149000Y-95445594D01*
X150153443Y-95400488D01*
X150164092Y-95365382D01*
X150181388Y-95333022D01*
X150204663Y-95304663D01*
X150233022Y-95281388D01*
X150265382Y-95264092D01*
X150300488Y-95253443D01*
X150345594Y-95249000D01*
X153554406Y-95249000D01*
X153599512Y-95253443D01*
G37*
G36*
X147787164Y-95277841D02*
G01*
X147816412Y-95286714D01*
X147843365Y-95301121D01*
X147866990Y-95320510D01*
X147886379Y-95344135D01*
X147900786Y-95371088D01*
X147909659Y-95400336D01*
X147913500Y-95439342D01*
X147913500Y-96160658D01*
X147909659Y-96199664D01*
X147900786Y-96228912D01*
X147886379Y-96255865D01*
X147866990Y-96279490D01*
X147843365Y-96298879D01*
X147816412Y-96313286D01*
X147787164Y-96322159D01*
X147748158Y-96326000D01*
X147101842Y-96326000D01*
X147062836Y-96322159D01*
X147033588Y-96313286D01*
X147006635Y-96298879D01*
X146983010Y-96279490D01*
X146963621Y-96255865D01*
X146949214Y-96228912D01*
X146940341Y-96199664D01*
X146936500Y-96160658D01*
X146936500Y-95439342D01*
X146940341Y-95400336D01*
X146949214Y-95371088D01*
X146963621Y-95344135D01*
X146983010Y-95320510D01*
X147006635Y-95301121D01*
X147033588Y-95286714D01*
X147062836Y-95277841D01*
X147101842Y-95274000D01*
X147748158Y-95274000D01*
X147787164Y-95277841D01*
G37*
G36*
X149362164Y-95277841D02*
G01*
X149391412Y-95286714D01*
X149418365Y-95301121D01*
X149441990Y-95320510D01*
X149461379Y-95344135D01*
X149475786Y-95371088D01*
X149484659Y-95400336D01*
X149488500Y-95439342D01*
X149488500Y-96160658D01*
X149484659Y-96199664D01*
X149475786Y-96228912D01*
X149461379Y-96255865D01*
X149441990Y-96279490D01*
X149418365Y-96298879D01*
X149391412Y-96313286D01*
X149362164Y-96322159D01*
X149323158Y-96326000D01*
X148676842Y-96326000D01*
X148637836Y-96322159D01*
X148608588Y-96313286D01*
X148581635Y-96298879D01*
X148558010Y-96279490D01*
X148538621Y-96255865D01*
X148524214Y-96228912D01*
X148515341Y-96199664D01*
X148511500Y-96160658D01*
X148511500Y-95439342D01*
X148515341Y-95400336D01*
X148524214Y-95371088D01*
X148538621Y-95344135D01*
X148558010Y-95320510D01*
X148581635Y-95301121D01*
X148608588Y-95286714D01*
X148637836Y-95277841D01*
X148676842Y-95274000D01*
X149323158Y-95274000D01*
X149362164Y-95277841D01*
G37*
G36*
X102162164Y-93777841D02*
G01*
X102191412Y-93786714D01*
X102218365Y-93801121D01*
X102241990Y-93820510D01*
X102261379Y-93844135D01*
X102275786Y-93871088D01*
X102284659Y-93900336D01*
X102288500Y-93939342D01*
X102288500Y-94660658D01*
X102284659Y-94699664D01*
X102275786Y-94728912D01*
X102261379Y-94755865D01*
X102241990Y-94779490D01*
X102218365Y-94798879D01*
X102191412Y-94813286D01*
X102162164Y-94822159D01*
X102123158Y-94826000D01*
X101476842Y-94826000D01*
X101437836Y-94822159D01*
X101408588Y-94813286D01*
X101381635Y-94798879D01*
X101358010Y-94779490D01*
X101338621Y-94755865D01*
X101324214Y-94728912D01*
X101315341Y-94699664D01*
X101311500Y-94660658D01*
X101311500Y-93939342D01*
X101315341Y-93900336D01*
X101324214Y-93871088D01*
X101338621Y-93844135D01*
X101358010Y-93820510D01*
X101381635Y-93801121D01*
X101408588Y-93786714D01*
X101437836Y-93777841D01*
X101476842Y-93774000D01*
X102123158Y-93774000D01*
X102162164Y-93777841D01*
G37*
G36*
X100587164Y-93777841D02*
G01*
X100616412Y-93786714D01*
X100643365Y-93801121D01*
X100666990Y-93820510D01*
X100686379Y-93844135D01*
X100700786Y-93871088D01*
X100709659Y-93900336D01*
X100713500Y-93939342D01*
X100713500Y-94660658D01*
X100709659Y-94699664D01*
X100700786Y-94728912D01*
X100686379Y-94755865D01*
X100666990Y-94779490D01*
X100643365Y-94798879D01*
X100616412Y-94813286D01*
X100587164Y-94822159D01*
X100548158Y-94826000D01*
X99901842Y-94826000D01*
X99862836Y-94822159D01*
X99833588Y-94813286D01*
X99806635Y-94798879D01*
X99783010Y-94779490D01*
X99763621Y-94755865D01*
X99749214Y-94728912D01*
X99740341Y-94699664D01*
X99736500Y-94660658D01*
X99736500Y-93939342D01*
X99740341Y-93900336D01*
X99749214Y-93871088D01*
X99763621Y-93844135D01*
X99783010Y-93820510D01*
X99806635Y-93801121D01*
X99833588Y-93786714D01*
X99862836Y-93777841D01*
X99901842Y-93774000D01*
X100548158Y-93774000D01*
X100587164Y-93777841D01*
G37*
G36*
X103899664Y-93790341D02*
G01*
X103928912Y-93799214D01*
X103955865Y-93813621D01*
X103979490Y-93833010D01*
X103998879Y-93856635D01*
X104013286Y-93883588D01*
X104022159Y-93912836D01*
X104026000Y-93951842D01*
X104026000Y-94598158D01*
X104022159Y-94637164D01*
X104013286Y-94666412D01*
X103998879Y-94693365D01*
X103979490Y-94716990D01*
X103955865Y-94736379D01*
X103928912Y-94750786D01*
X103899664Y-94759659D01*
X103860658Y-94763500D01*
X103139342Y-94763500D01*
X103100336Y-94759659D01*
X103071088Y-94750786D01*
X103044135Y-94736379D01*
X103020510Y-94716990D01*
X103001121Y-94693365D01*
X102986714Y-94666412D01*
X102977841Y-94637164D01*
X102974000Y-94598158D01*
X102974000Y-93951842D01*
X102977841Y-93912836D01*
X102986714Y-93883588D01*
X103001121Y-93856635D01*
X103020510Y-93833010D01*
X103044135Y-93813621D01*
X103071088Y-93799214D01*
X103100336Y-93790341D01*
X103139342Y-93786500D01*
X103860658Y-93786500D01*
X103899664Y-93790341D01*
G37*
G36*
X153599512Y-93253443D02*
G01*
X153634618Y-93264092D01*
X153666978Y-93281388D01*
X153695337Y-93304663D01*
X153718612Y-93333022D01*
X153735908Y-93365382D01*
X153746557Y-93400488D01*
X153751000Y-93445594D01*
X153751000Y-94154406D01*
X153746557Y-94199512D01*
X153735908Y-94234618D01*
X153718612Y-94266978D01*
X153695337Y-94295337D01*
X153666978Y-94318612D01*
X153634618Y-94335908D01*
X153599512Y-94346557D01*
X153554406Y-94351000D01*
X150345594Y-94351000D01*
X150300488Y-94346557D01*
X150265382Y-94335908D01*
X150233022Y-94318612D01*
X150204663Y-94295337D01*
X150181388Y-94266978D01*
X150164092Y-94234618D01*
X150153443Y-94199512D01*
X150149000Y-94154406D01*
X150149000Y-93445594D01*
X150153443Y-93400488D01*
X150164092Y-93365382D01*
X150181388Y-93333022D01*
X150204663Y-93304663D01*
X150233022Y-93281388D01*
X150265382Y-93264092D01*
X150300488Y-93253443D01*
X150345594Y-93249000D01*
X153554406Y-93249000D01*
X153599512Y-93253443D01*
G37*
G36*
X102162164Y-92177841D02*
G01*
X102191412Y-92186714D01*
X102218365Y-92201121D01*
X102241990Y-92220510D01*
X102261379Y-92244135D01*
X102275786Y-92271088D01*
X102284659Y-92300336D01*
X102288500Y-92339342D01*
X102288500Y-93060658D01*
X102284659Y-93099664D01*
X102275786Y-93128912D01*
X102261379Y-93155865D01*
X102241990Y-93179490D01*
X102218365Y-93198879D01*
X102191412Y-93213286D01*
X102162164Y-93222159D01*
X102123158Y-93226000D01*
X101476842Y-93226000D01*
X101437836Y-93222159D01*
X101408588Y-93213286D01*
X101381635Y-93198879D01*
X101358010Y-93179490D01*
X101338621Y-93155865D01*
X101324214Y-93128912D01*
X101315341Y-93099664D01*
X101311500Y-93060658D01*
X101311500Y-92339342D01*
X101315341Y-92300336D01*
X101324214Y-92271088D01*
X101338621Y-92244135D01*
X101358010Y-92220510D01*
X101381635Y-92201121D01*
X101408588Y-92186714D01*
X101437836Y-92177841D01*
X101476842Y-92174000D01*
X102123158Y-92174000D01*
X102162164Y-92177841D01*
G37*
G36*
X100587164Y-92177841D02*
G01*
X100616412Y-92186714D01*
X100643365Y-92201121D01*
X100666990Y-92220510D01*
X100686379Y-92244135D01*
X100700786Y-92271088D01*
X100709659Y-92300336D01*
X100713500Y-92339342D01*
X100713500Y-93060658D01*
X100709659Y-93099664D01*
X100700786Y-93128912D01*
X100686379Y-93155865D01*
X100666990Y-93179490D01*
X100643365Y-93198879D01*
X100616412Y-93213286D01*
X100587164Y-93222159D01*
X100548158Y-93226000D01*
X99901842Y-93226000D01*
X99862836Y-93222159D01*
X99833588Y-93213286D01*
X99806635Y-93198879D01*
X99783010Y-93179490D01*
X99763621Y-93155865D01*
X99749214Y-93128912D01*
X99740341Y-93099664D01*
X99736500Y-93060658D01*
X99736500Y-92339342D01*
X99740341Y-92300336D01*
X99749214Y-92271088D01*
X99763621Y-92244135D01*
X99783010Y-92220510D01*
X99806635Y-92201121D01*
X99833588Y-92186714D01*
X99862836Y-92177841D01*
X99901842Y-92174000D01*
X100548158Y-92174000D01*
X100587164Y-92177841D01*
G37*
G36*
X103899664Y-92215341D02*
G01*
X103928912Y-92224214D01*
X103955865Y-92238621D01*
X103979490Y-92258010D01*
X103998879Y-92281635D01*
X104013286Y-92308588D01*
X104022159Y-92337836D01*
X104026000Y-92376842D01*
X104026000Y-93023158D01*
X104022159Y-93062164D01*
X104013286Y-93091412D01*
X103998879Y-93118365D01*
X103979490Y-93141990D01*
X103955865Y-93161379D01*
X103928912Y-93175786D01*
X103899664Y-93184659D01*
X103860658Y-93188500D01*
X103139342Y-93188500D01*
X103100336Y-93184659D01*
X103071088Y-93175786D01*
X103044135Y-93161379D01*
X103020510Y-93141990D01*
X103001121Y-93118365D01*
X102986714Y-93091412D01*
X102977841Y-93062164D01*
X102974000Y-93023158D01*
X102974000Y-92376842D01*
X102977841Y-92337836D01*
X102986714Y-92308588D01*
X103001121Y-92281635D01*
X103020510Y-92258010D01*
X103044135Y-92238621D01*
X103071088Y-92224214D01*
X103100336Y-92215341D01*
X103139342Y-92211500D01*
X103860658Y-92211500D01*
X103899664Y-92215341D01*
G37*
G36*
X159329828Y-90652718D02*
G01*
X159357872Y-90661226D01*
X159383718Y-90675041D01*
X159406370Y-90693630D01*
X159424959Y-90716282D01*
X159438774Y-90742128D01*
X159447282Y-90770172D01*
X159451000Y-90807927D01*
X159451000Y-92092073D01*
X159447282Y-92129828D01*
X159438774Y-92157872D01*
X159424959Y-92183718D01*
X159406370Y-92206370D01*
X159383718Y-92224959D01*
X159357872Y-92238774D01*
X159329828Y-92247282D01*
X159292073Y-92251000D01*
X156107927Y-92251000D01*
X156070172Y-92247282D01*
X156042128Y-92238774D01*
X156016282Y-92224959D01*
X155993630Y-92206370D01*
X155975041Y-92183718D01*
X155961226Y-92157872D01*
X155952718Y-92129828D01*
X155949000Y-92092073D01*
X155949000Y-90807927D01*
X155952718Y-90770172D01*
X155961226Y-90742128D01*
X155975041Y-90716282D01*
X155993630Y-90693630D01*
X156016282Y-90675041D01*
X156042128Y-90661226D01*
X156070172Y-90652718D01*
X156107927Y-90649000D01*
X159292073Y-90649000D01*
X159329828Y-90652718D01*
G37*
M02*
