M48
; DRILL file {KiCad (5.1.5)-3} date 05.08.2020 22:49:22
; FORMAT={-:-/ absolute / metric / decimal}
; #@! TF.CreationDate,2020-08-05T22:49:22+02:00
; #@! TF.GenerationSoftware,Kicad,Pcbnew,(5.1.5)-3
FMAT,2
METRIC
T1C0.300
T2C0.600
T3C0.850
T4C0.900
T5C1.000
T6C1.500
T7C3.200
%
G90
G05
T1
X95.0Y-122.0
X95.0Y-124.0
X95.4Y-114.0
X96.8Y-113.4
X96.8Y-119.8
X99.0Y-101.325
X99.2Y-128.1
X99.2Y-128.7
X99.3Y-93.4
X99.4Y-99.0
X100.3Y-111.2
X100.5Y-128.6
X100.8Y-106.625
X100.8Y-108.0
X100.9Y-95.1
X100.9Y-95.9
X100.9Y-113.3
X100.9Y-114.9
X101.0Y-100.0
X101.1Y-128.6
X101.9Y-120.6
X102.0Y-110.3
X102.1Y-108.8
X102.5Y-119.0
X102.5Y-120.6
X102.6Y-116.4
X103.9Y-116.8
X104.1Y-103.1
X104.1Y-119.7
X104.5Y-92.3
X104.8Y-125.0
X105.3Y-128.2
X105.6Y-103.95
X106.4Y-103.95
X106.7Y-97.2
X107.0Y-94.3
X107.0Y-122.35
X107.15Y-105.4
X107.2Y-110.15
X107.3Y-111.2
X107.6Y-122.35
X107.8Y-107.9
X108.8Y-113.55
X108.9Y-120.6
X108.9Y-121.2
X110.05Y-118.3
X110.15Y-97.1
X110.3Y-107.15
X111.35Y-118.35
X111.5Y-113.55
X112.3Y-110.7
X112.3Y-111.3
X112.6Y-112.8
X113.2Y-127.3
X113.597Y-104.584
X113.9Y-97.85
X113.9Y-120.35
X113.95Y-99.2
X114.0Y-109.7
X114.4Y-104.5
X114.4Y-106.5
X114.6Y-109.7
X114.9Y-103.7
X114.95Y-123.662
X115.3Y-106.528
X115.6Y-110.0
X115.6Y-112.55
X115.6Y-113.75
X115.6Y-114.95
X115.65Y-111.25
X115.95Y-116.65
X116.0Y-117.6
X116.8Y-127.3
X117.0Y-119.0
X117.6Y-117.35
X118.6Y-107.4
X118.7Y-101.6
X118.742Y-109.192
X118.868Y-116.116
X118.9Y-117.1
X119.631Y-117.569
X120.3Y-111.9
X120.8Y-108.0
X120.8Y-120.85
X121.1Y-106.1
X121.1Y-106.7
X121.7Y-120.1
X121.9Y-123.0
X121.95Y-121.0
X122.5Y-109.7
X122.747Y-112.497
X122.761Y-117.486
X122.783Y-111.633
X123.2Y-120.05
X123.7Y-113.4
X123.825Y-117.475
X124.2Y-120.05
X124.6Y-105.99
X124.6Y-106.8
X124.6Y-128.2
X125.3Y-117.5
X126.2Y-117.5
X127.4Y-118.6
X127.4Y-121.1
X127.55Y-117.5
X127.6Y-111.4
X127.8Y-106.7
X128.25Y-114.3
X128.3Y-106.3
X128.3Y-118.6
X129.05Y-111.35
X129.1Y-118.6
X129.1Y-121.0
X129.2Y-127.8
X129.7Y-113.35
X129.75Y-114.5
X129.8Y-121.7
X129.8Y-122.3
X129.9Y-117.5
X130.55Y-120.6
X130.9Y-125.9
X131.5Y-125.9
X131.9Y-120.6
X132.25Y-116.05
X132.6Y-98.5
X132.6Y-109.7
X132.6Y-113.3
X133.1Y-126.0
X133.4Y-115.95
X133.875Y-122.25
X135.9Y-114.4
X135.95Y-103.4
X136.0Y-104.8
X136.1Y-99.2
X136.3Y-123.7
X136.3Y-110.0
X136.7Y-115.1
X137.2Y-123.9
X137.8Y-97.7
X137.9Y-106.875
X138.9Y-127.1
X139.0Y-98.4
X139.2Y-110.2
X139.3Y-113.9
X139.8Y-127.1
X140.7Y-110.3
X140.7Y-117.6
X140.9Y-127.2
X141.0Y-109.2
X141.0Y-116.6
X141.1Y-114.0
X141.3Y-112.9
X141.5Y-127.2
X142.9Y-106.7
X143.4Y-100.7
X144.3Y-110.1
X144.5Y-128.0
X144.5Y-128.7
X145.9Y-110.2
X146.2Y-109.1
X148.2Y-114.0
X149.0Y-110.2
X149.4Y-126.8
X149.6Y-110.2
X151.0Y-114.3
X151.2Y-128.0
X151.2Y-128.7
X151.7Y-116.7
X154.2Y-99.5
X154.2Y-93.5
X154.2Y-94.1
X154.2Y-100.1
X154.2Y-105.9
X154.2Y-106.5
X155.0Y-126.3
T3
X94.2Y-112.8
X94.2Y-117.8
T4
X119.5Y-126.1
X122.04Y-126.1
X124.58Y-126.1
T5
X91.8Y-99.4
X91.8Y-101.9
X91.8Y-104.4
X94.3Y-99.4
X94.3Y-104.4
T7
X110.0Y-103.0
X147.0Y-103.0
T2
G00X91.15Y-111.8
M15
G01X91.85Y-111.8
M16
G05
G00X91.85Y-118.8
M15
G01X91.15Y-118.8
M16
G05
T6
G00X94.65Y-95.8
M15
G01X95.95Y-95.8
M16
G05
G00X94.65Y-108.0
M15
G01X95.95Y-108.0
M16
G05
T0
M30
