G04 #@! TF.GenerationSoftware,KiCad,Pcbnew,(5.1.5)-3*
G04 #@! TF.CreationDate,2020-08-05T22:49:10+02:00*
G04 #@! TF.ProjectId,Controller,436f6e74-726f-46c6-9c65-722e6b696361,rev?*
G04 #@! TF.SameCoordinates,Original*
G04 #@! TF.FileFunction,Legend,Bot*
G04 #@! TF.FilePolarity,Positive*
%FSLAX46Y46*%
G04 Gerber Fmt 4.6, Leading zero omitted, Abs format (unit mm)*
G04 Created by KiCad (PCBNEW (5.1.5)-3) date 2020-08-05 22:49:10*
%MOMM*%
%LPD*%
G04 APERTURE LIST*
%ADD10C,0.120000*%
%ADD11C,0.110000*%
G04 APERTURE END LIST*
D10*
X151741422Y-103690000D02*
X152258578Y-103690000D01*
X151741422Y-105110000D02*
X152258578Y-105110000D01*
X155000000Y-103300000D02*
X151100000Y-103300000D01*
X155000000Y-105300000D02*
X151100000Y-105300000D01*
X155000000Y-103300000D02*
X155000000Y-105300000D01*
X152060000Y-128760000D02*
X154440000Y-128760000D01*
X147940000Y-121240000D02*
X147940000Y-120940000D01*
X147940000Y-123240000D02*
X147940000Y-122760000D01*
X147940000Y-125240000D02*
X147940000Y-124760000D01*
X147940000Y-127240000D02*
X147940000Y-126760000D01*
X147940000Y-129060000D02*
X147940000Y-128760000D01*
X147940000Y-120940000D02*
X152060000Y-120940000D01*
X152060000Y-121240000D02*
X152060000Y-120940000D01*
X152060000Y-123240000D02*
X152060000Y-122760000D01*
X152060000Y-125240000D02*
X152060000Y-124760000D01*
X152060000Y-127240000D02*
X152060000Y-126760000D01*
X152060000Y-129060000D02*
X152060000Y-128760000D01*
X147940000Y-129060000D02*
X152060000Y-129060000D01*
X116715000Y-103290000D02*
X116715000Y-102440000D01*
X116715000Y-102440000D02*
X119040000Y-102440000D01*
X119040000Y-102440000D02*
X119040000Y-100050000D01*
X132885000Y-103290000D02*
X132885000Y-102440000D01*
X132885000Y-102440000D02*
X130560000Y-102440000D01*
X116715000Y-106810000D02*
X116715000Y-107660000D01*
X116715000Y-107660000D02*
X132885000Y-107660000D01*
X132885000Y-107660000D02*
X132885000Y-106810000D01*
X120110000Y-113675279D02*
X120110000Y-113349721D01*
X119090000Y-113675279D02*
X119090000Y-113349721D01*
X122815000Y-124570000D02*
X123675000Y-124570000D01*
X133515000Y-112930000D02*
X133515000Y-122750000D01*
X132285000Y-112930000D02*
X133515000Y-112930000D01*
X126315000Y-112930000D02*
X129985000Y-112930000D01*
X121335000Y-112930000D02*
X124015000Y-112930000D01*
X121335000Y-113650000D02*
X121335000Y-112930000D01*
X121335000Y-117350000D02*
X121335000Y-115050000D01*
X121335000Y-123200000D02*
X121335000Y-118750000D01*
X97390000Y-101590000D02*
X97390000Y-92910000D01*
X103610000Y-92210000D02*
X103610000Y-93490000D01*
X105210000Y-92210000D02*
X103610000Y-92210000D01*
X105210000Y-91190000D02*
X105210000Y-92210000D01*
X100960000Y-91190000D02*
X105210000Y-91190000D01*
X103610000Y-101010000D02*
X106500000Y-101010000D01*
X103610000Y-102290000D02*
X103610000Y-101010000D01*
X105210000Y-102290000D02*
X103610000Y-102290000D01*
X105210000Y-103310000D02*
X105210000Y-102290000D01*
X100960000Y-103310000D02*
X105210000Y-103310000D01*
X120849721Y-109410000D02*
X121175279Y-109410000D01*
X120849721Y-108390000D02*
X121175279Y-108390000D01*
X147990000Y-111803922D02*
X147990000Y-112321078D01*
X149410000Y-111803922D02*
X149410000Y-112321078D01*
X155740000Y-106090000D02*
X151490000Y-106090000D01*
X151490000Y-106090000D02*
X151490000Y-107110000D01*
X151490000Y-107110000D02*
X153090000Y-107110000D01*
X153090000Y-107110000D02*
X153090000Y-108390000D01*
X153090000Y-108390000D02*
X150200000Y-108390000D01*
X155740000Y-116210000D02*
X151490000Y-116210000D01*
X151490000Y-116210000D02*
X151490000Y-115190000D01*
X151490000Y-115190000D02*
X153090000Y-115190000D01*
X153090000Y-115190000D02*
X153090000Y-113910000D01*
X159310000Y-107810000D02*
X159310000Y-114490000D01*
X130310000Y-109850279D02*
X130310000Y-109524721D01*
X129290000Y-109850279D02*
X129290000Y-109524721D01*
X128310000Y-109850279D02*
X128310000Y-109524721D01*
X127290000Y-109850279D02*
X127290000Y-109524721D01*
X126310000Y-109850279D02*
X126310000Y-109524721D01*
X125290000Y-109850279D02*
X125290000Y-109524721D01*
X124310000Y-109850279D02*
X124310000Y-109524721D01*
X123290000Y-109850279D02*
X123290000Y-109524721D01*
X100960000Y-118810000D02*
X105210000Y-118810000D01*
X105210000Y-118810000D02*
X105210000Y-117790000D01*
X105210000Y-117790000D02*
X103610000Y-117790000D01*
X103610000Y-117790000D02*
X103610000Y-116510000D01*
X103610000Y-116510000D02*
X106500000Y-116510000D01*
X100960000Y-104690000D02*
X105210000Y-104690000D01*
X105210000Y-104690000D02*
X105210000Y-105710000D01*
X105210000Y-105710000D02*
X103610000Y-105710000D01*
X103610000Y-105710000D02*
X103610000Y-106990000D01*
X97390000Y-117090000D02*
X97390000Y-106410000D01*
X109590000Y-120150279D02*
X109590000Y-119824721D01*
X110610000Y-120150279D02*
X110610000Y-119824721D01*
X112410000Y-120150279D02*
X112410000Y-119824721D01*
X111390000Y-120150279D02*
X111390000Y-119824721D01*
X97940000Y-121240000D02*
X95560000Y-121240000D01*
X102060000Y-128760000D02*
X102060000Y-129060000D01*
X102060000Y-126760000D02*
X102060000Y-127240000D01*
X102060000Y-124760000D02*
X102060000Y-125240000D01*
X102060000Y-122760000D02*
X102060000Y-123240000D01*
X102060000Y-120940000D02*
X102060000Y-121240000D01*
X102060000Y-129060000D02*
X97940000Y-129060000D01*
X97940000Y-128760000D02*
X97940000Y-129060000D01*
X97940000Y-126760000D02*
X97940000Y-127240000D01*
X97940000Y-124760000D02*
X97940000Y-125240000D01*
X97940000Y-122760000D02*
X97940000Y-123240000D01*
X97940000Y-120940000D02*
X97940000Y-121240000D01*
X102060000Y-120940000D02*
X97940000Y-120940000D01*
D11*
X154850000Y-102616666D02*
X155083333Y-102283333D01*
X155250000Y-102616666D02*
X155250000Y-101916666D01*
X154983333Y-101916666D01*
X154916666Y-101950000D01*
X154883333Y-101983333D01*
X154850000Y-102050000D01*
X154850000Y-102150000D01*
X154883333Y-102216666D01*
X154916666Y-102250000D01*
X154983333Y-102283333D01*
X155250000Y-102283333D01*
X154216666Y-101916666D02*
X154550000Y-101916666D01*
X154583333Y-102250000D01*
X154550000Y-102216666D01*
X154483333Y-102183333D01*
X154316666Y-102183333D01*
X154250000Y-102216666D01*
X154216666Y-102250000D01*
X154183333Y-102316666D01*
X154183333Y-102483333D01*
X154216666Y-102550000D01*
X154250000Y-102583333D01*
X154316666Y-102616666D01*
X154483333Y-102616666D01*
X154550000Y-102583333D01*
X154583333Y-102550000D01*
X153916666Y-101983333D02*
X153883333Y-101950000D01*
X153816666Y-101916666D01*
X153650000Y-101916666D01*
X153583333Y-101950000D01*
X153550000Y-101983333D01*
X153516666Y-102050000D01*
X153516666Y-102116666D01*
X153550000Y-102216666D01*
X153950000Y-102616666D01*
X153516666Y-102616666D01*
X153266666Y-102616666D02*
X153266666Y-101916666D01*
X153100000Y-101916666D01*
X153000000Y-101950000D01*
X152933333Y-102016666D01*
X152900000Y-102083333D01*
X152866666Y-102216666D01*
X152866666Y-102316666D01*
X152900000Y-102450000D01*
X152933333Y-102516666D01*
X153000000Y-102583333D01*
X153100000Y-102616666D01*
X153266666Y-102616666D01*
X152233333Y-101916666D02*
X152566666Y-101916666D01*
X152600000Y-102250000D01*
X152566666Y-102216666D01*
X152500000Y-102183333D01*
X152333333Y-102183333D01*
X152266666Y-102216666D01*
X152233333Y-102250000D01*
X152200000Y-102316666D01*
X152200000Y-102483333D01*
X152233333Y-102550000D01*
X152266666Y-102583333D01*
X152333333Y-102616666D01*
X152500000Y-102616666D01*
X152566666Y-102583333D01*
X152600000Y-102550000D01*
X150666666Y-119716666D02*
X150666666Y-120216666D01*
X150700000Y-120316666D01*
X150766666Y-120383333D01*
X150866666Y-120416666D01*
X150933333Y-120416666D01*
X149966666Y-120416666D02*
X150366666Y-120416666D01*
X150166666Y-120416666D02*
X150166666Y-119716666D01*
X150233333Y-119816666D01*
X150300000Y-119883333D01*
X150366666Y-119916666D01*
X149700000Y-119783333D02*
X149666666Y-119750000D01*
X149600000Y-119716666D01*
X149433333Y-119716666D01*
X149366666Y-119750000D01*
X149333333Y-119783333D01*
X149300000Y-119850000D01*
X149300000Y-119916666D01*
X149333333Y-120016666D01*
X149733333Y-120416666D01*
X149300000Y-120416666D01*
X117866666Y-101016666D02*
X117866666Y-101516666D01*
X117900000Y-101616666D01*
X117966666Y-101683333D01*
X118066666Y-101716666D01*
X118133333Y-101716666D01*
X117166666Y-101716666D02*
X117566666Y-101716666D01*
X117366666Y-101716666D02*
X117366666Y-101016666D01*
X117433333Y-101116666D01*
X117500000Y-101183333D01*
X117566666Y-101216666D01*
X116733333Y-101016666D02*
X116666666Y-101016666D01*
X116600000Y-101050000D01*
X116566666Y-101083333D01*
X116533333Y-101150000D01*
X116500000Y-101283333D01*
X116500000Y-101450000D01*
X116533333Y-101583333D01*
X116566666Y-101650000D01*
X116600000Y-101683333D01*
X116666666Y-101716666D01*
X116733333Y-101716666D01*
X116800000Y-101683333D01*
X116833333Y-101650000D01*
X116866666Y-101583333D01*
X116900000Y-101450000D01*
X116900000Y-101283333D01*
X116866666Y-101150000D01*
X116833333Y-101083333D01*
X116800000Y-101050000D01*
X116733333Y-101016666D01*
X120116666Y-115575000D02*
X119783333Y-115341666D01*
X120116666Y-115175000D02*
X119416666Y-115175000D01*
X119416666Y-115441666D01*
X119450000Y-115508333D01*
X119483333Y-115541666D01*
X119550000Y-115575000D01*
X119650000Y-115575000D01*
X119716666Y-115541666D01*
X119750000Y-115508333D01*
X119783333Y-115441666D01*
X119783333Y-115175000D01*
X119650000Y-116175000D02*
X120116666Y-116175000D01*
X119383333Y-116008333D02*
X119883333Y-115841666D01*
X119883333Y-116275000D01*
X119716666Y-116641666D02*
X119683333Y-116575000D01*
X119650000Y-116541666D01*
X119583333Y-116508333D01*
X119550000Y-116508333D01*
X119483333Y-116541666D01*
X119450000Y-116575000D01*
X119416666Y-116641666D01*
X119416666Y-116775000D01*
X119450000Y-116841666D01*
X119483333Y-116875000D01*
X119550000Y-116908333D01*
X119583333Y-116908333D01*
X119650000Y-116875000D01*
X119683333Y-116841666D01*
X119716666Y-116775000D01*
X119716666Y-116641666D01*
X119750000Y-116575000D01*
X119783333Y-116541666D01*
X119850000Y-116508333D01*
X119983333Y-116508333D01*
X120050000Y-116541666D01*
X120083333Y-116575000D01*
X120116666Y-116641666D01*
X120116666Y-116775000D01*
X120083333Y-116841666D01*
X120050000Y-116875000D01*
X119983333Y-116908333D01*
X119850000Y-116908333D01*
X119783333Y-116875000D01*
X119750000Y-116841666D01*
X119716666Y-116775000D01*
X120056666Y-120508333D02*
X120556666Y-120508333D01*
X120656666Y-120475000D01*
X120723333Y-120408333D01*
X120756666Y-120308333D01*
X120756666Y-120241666D01*
X120756666Y-121208333D02*
X120756666Y-120808333D01*
X120756666Y-121008333D02*
X120056666Y-121008333D01*
X120156666Y-120941666D01*
X120223333Y-120875000D01*
X120256666Y-120808333D01*
X120056666Y-121441666D02*
X120056666Y-121875000D01*
X120323333Y-121641666D01*
X120323333Y-121741666D01*
X120356666Y-121808333D01*
X120390000Y-121841666D01*
X120456666Y-121875000D01*
X120623333Y-121875000D01*
X120690000Y-121841666D01*
X120723333Y-121808333D01*
X120756666Y-121741666D01*
X120756666Y-121541666D01*
X120723333Y-121475000D01*
X120690000Y-121441666D01*
X106433333Y-91216666D02*
X106433333Y-91716666D01*
X106466666Y-91816666D01*
X106533333Y-91883333D01*
X106633333Y-91916666D01*
X106700000Y-91916666D01*
X106066666Y-91916666D02*
X105933333Y-91916666D01*
X105866666Y-91883333D01*
X105833333Y-91850000D01*
X105766666Y-91750000D01*
X105733333Y-91616666D01*
X105733333Y-91350000D01*
X105766666Y-91283333D01*
X105800000Y-91250000D01*
X105866666Y-91216666D01*
X106000000Y-91216666D01*
X106066666Y-91250000D01*
X106100000Y-91283333D01*
X106133333Y-91350000D01*
X106133333Y-91516666D01*
X106100000Y-91583333D01*
X106066666Y-91616666D01*
X106000000Y-91650000D01*
X105866666Y-91650000D01*
X105800000Y-91616666D01*
X105766666Y-91583333D01*
X105733333Y-91516666D01*
X121462500Y-110580000D02*
X121495833Y-110613333D01*
X121595833Y-110646666D01*
X121662500Y-110646666D01*
X121762500Y-110613333D01*
X121829166Y-110546666D01*
X121862500Y-110480000D01*
X121895833Y-110346666D01*
X121895833Y-110246666D01*
X121862500Y-110113333D01*
X121829166Y-110046666D01*
X121762500Y-109980000D01*
X121662500Y-109946666D01*
X121595833Y-109946666D01*
X121495833Y-109980000D01*
X121462500Y-110013333D01*
X120795833Y-110646666D02*
X121195833Y-110646666D01*
X120995833Y-110646666D02*
X120995833Y-109946666D01*
X121062500Y-110046666D01*
X121129166Y-110113333D01*
X121195833Y-110146666D01*
X120395833Y-110246666D02*
X120462500Y-110213333D01*
X120495833Y-110180000D01*
X120529166Y-110113333D01*
X120529166Y-110080000D01*
X120495833Y-110013333D01*
X120462500Y-109980000D01*
X120395833Y-109946666D01*
X120262500Y-109946666D01*
X120195833Y-109980000D01*
X120162500Y-110013333D01*
X120129166Y-110080000D01*
X120129166Y-110113333D01*
X120162500Y-110180000D01*
X120195833Y-110213333D01*
X120262500Y-110246666D01*
X120395833Y-110246666D01*
X120462500Y-110280000D01*
X120495833Y-110313333D01*
X120529166Y-110380000D01*
X120529166Y-110513333D01*
X120495833Y-110580000D01*
X120462500Y-110613333D01*
X120395833Y-110646666D01*
X120262500Y-110646666D01*
X120195833Y-110613333D01*
X120162500Y-110580000D01*
X120129166Y-110513333D01*
X120129166Y-110380000D01*
X120162500Y-110313333D01*
X120195833Y-110280000D01*
X120262500Y-110246666D01*
X148950000Y-110150000D02*
X148983333Y-110183333D01*
X149083333Y-110216666D01*
X149150000Y-110216666D01*
X149250000Y-110183333D01*
X149316666Y-110116666D01*
X149350000Y-110050000D01*
X149383333Y-109916666D01*
X149383333Y-109816666D01*
X149350000Y-109683333D01*
X149316666Y-109616666D01*
X149250000Y-109550000D01*
X149150000Y-109516666D01*
X149083333Y-109516666D01*
X148983333Y-109550000D01*
X148950000Y-109583333D01*
X148283333Y-110216666D02*
X148683333Y-110216666D01*
X148483333Y-110216666D02*
X148483333Y-109516666D01*
X148550000Y-109616666D01*
X148616666Y-109683333D01*
X148683333Y-109716666D01*
X148050000Y-109516666D02*
X147583333Y-109516666D01*
X147883333Y-110216666D01*
X150833333Y-106116666D02*
X150833333Y-106616666D01*
X150866666Y-106716666D01*
X150933333Y-106783333D01*
X151033333Y-106816666D01*
X151100000Y-106816666D01*
X150400000Y-106416666D02*
X150466666Y-106383333D01*
X150500000Y-106350000D01*
X150533333Y-106283333D01*
X150533333Y-106250000D01*
X150500000Y-106183333D01*
X150466666Y-106150000D01*
X150400000Y-106116666D01*
X150266666Y-106116666D01*
X150200000Y-106150000D01*
X150166666Y-106183333D01*
X150133333Y-106250000D01*
X150133333Y-106283333D01*
X150166666Y-106350000D01*
X150200000Y-106383333D01*
X150266666Y-106416666D01*
X150400000Y-106416666D01*
X150466666Y-106450000D01*
X150500000Y-106483333D01*
X150533333Y-106550000D01*
X150533333Y-106683333D01*
X150500000Y-106750000D01*
X150466666Y-106783333D01*
X150400000Y-106816666D01*
X150266666Y-106816666D01*
X150200000Y-106783333D01*
X150166666Y-106750000D01*
X150133333Y-106683333D01*
X150133333Y-106550000D01*
X150166666Y-106483333D01*
X150200000Y-106450000D01*
X150266666Y-106416666D01*
X130350000Y-112116666D02*
X130583333Y-111783333D01*
X130750000Y-112116666D02*
X130750000Y-111416666D01*
X130483333Y-111416666D01*
X130416666Y-111450000D01*
X130383333Y-111483333D01*
X130350000Y-111550000D01*
X130350000Y-111650000D01*
X130383333Y-111716666D01*
X130416666Y-111750000D01*
X130483333Y-111783333D01*
X130750000Y-111783333D01*
X129750000Y-111650000D02*
X129750000Y-112116666D01*
X129916666Y-111383333D02*
X130083333Y-111883333D01*
X129650000Y-111883333D01*
X129083333Y-111416666D02*
X129216666Y-111416666D01*
X129283333Y-111450000D01*
X129316666Y-111483333D01*
X129383333Y-111583333D01*
X129416666Y-111716666D01*
X129416666Y-111983333D01*
X129383333Y-112050000D01*
X129350000Y-112083333D01*
X129283333Y-112116666D01*
X129150000Y-112116666D01*
X129083333Y-112083333D01*
X129050000Y-112050000D01*
X129016666Y-111983333D01*
X129016666Y-111816666D01*
X129050000Y-111750000D01*
X129083333Y-111716666D01*
X129150000Y-111683333D01*
X129283333Y-111683333D01*
X129350000Y-111716666D01*
X129383333Y-111750000D01*
X129416666Y-111816666D01*
X128250000Y-112116666D02*
X128483333Y-111783333D01*
X128650000Y-112116666D02*
X128650000Y-111416666D01*
X128383333Y-111416666D01*
X128316666Y-111450000D01*
X128283333Y-111483333D01*
X128250000Y-111550000D01*
X128250000Y-111650000D01*
X128283333Y-111716666D01*
X128316666Y-111750000D01*
X128383333Y-111783333D01*
X128650000Y-111783333D01*
X127650000Y-111650000D02*
X127650000Y-112116666D01*
X127816666Y-111383333D02*
X127983333Y-111883333D01*
X127550000Y-111883333D01*
X126950000Y-111416666D02*
X127283333Y-111416666D01*
X127316666Y-111750000D01*
X127283333Y-111716666D01*
X127216666Y-111683333D01*
X127050000Y-111683333D01*
X126983333Y-111716666D01*
X126950000Y-111750000D01*
X126916666Y-111816666D01*
X126916666Y-111983333D01*
X126950000Y-112050000D01*
X126983333Y-112083333D01*
X127050000Y-112116666D01*
X127216666Y-112116666D01*
X127283333Y-112083333D01*
X127316666Y-112050000D01*
X126350000Y-107891666D02*
X126583333Y-107558333D01*
X126750000Y-107891666D02*
X126750000Y-107191666D01*
X126483333Y-107191666D01*
X126416666Y-107225000D01*
X126383333Y-107258333D01*
X126350000Y-107325000D01*
X126350000Y-107425000D01*
X126383333Y-107491666D01*
X126416666Y-107525000D01*
X126483333Y-107558333D01*
X126750000Y-107558333D01*
X125750000Y-107425000D02*
X125750000Y-107891666D01*
X125916666Y-107158333D02*
X126083333Y-107658333D01*
X125650000Y-107658333D01*
X125083333Y-107425000D02*
X125083333Y-107891666D01*
X125250000Y-107158333D02*
X125416666Y-107658333D01*
X124983333Y-107658333D01*
X124050000Y-112216666D02*
X124283333Y-111883333D01*
X124450000Y-112216666D02*
X124450000Y-111516666D01*
X124183333Y-111516666D01*
X124116666Y-111550000D01*
X124083333Y-111583333D01*
X124050000Y-111650000D01*
X124050000Y-111750000D01*
X124083333Y-111816666D01*
X124116666Y-111850000D01*
X124183333Y-111883333D01*
X124450000Y-111883333D01*
X123450000Y-111750000D02*
X123450000Y-112216666D01*
X123616666Y-111483333D02*
X123783333Y-111983333D01*
X123350000Y-111983333D01*
X123150000Y-111516666D02*
X122716666Y-111516666D01*
X122950000Y-111783333D01*
X122850000Y-111783333D01*
X122783333Y-111816666D01*
X122750000Y-111850000D01*
X122716666Y-111916666D01*
X122716666Y-112083333D01*
X122750000Y-112150000D01*
X122783333Y-112183333D01*
X122850000Y-112216666D01*
X123050000Y-112216666D01*
X123116666Y-112183333D01*
X123150000Y-112150000D01*
X106633333Y-104816666D02*
X106633333Y-105316666D01*
X106666666Y-105416666D01*
X106733333Y-105483333D01*
X106833333Y-105516666D01*
X106900000Y-105516666D01*
X106000000Y-104816666D02*
X106133333Y-104816666D01*
X106200000Y-104850000D01*
X106233333Y-104883333D01*
X106300000Y-104983333D01*
X106333333Y-105116666D01*
X106333333Y-105383333D01*
X106300000Y-105450000D01*
X106266666Y-105483333D01*
X106200000Y-105516666D01*
X106066666Y-105516666D01*
X106000000Y-105483333D01*
X105966666Y-105450000D01*
X105933333Y-105383333D01*
X105933333Y-105216666D01*
X105966666Y-105150000D01*
X106000000Y-105116666D01*
X106066666Y-105083333D01*
X106200000Y-105083333D01*
X106266666Y-105116666D01*
X106300000Y-105150000D01*
X106333333Y-105216666D01*
X110550000Y-118241666D02*
X110783333Y-117908333D01*
X110950000Y-118241666D02*
X110950000Y-117541666D01*
X110683333Y-117541666D01*
X110616666Y-117575000D01*
X110583333Y-117608333D01*
X110550000Y-117675000D01*
X110550000Y-117775000D01*
X110583333Y-117841666D01*
X110616666Y-117875000D01*
X110683333Y-117908333D01*
X110950000Y-117908333D01*
X110316666Y-117541666D02*
X109883333Y-117541666D01*
X110116666Y-117808333D01*
X110016666Y-117808333D01*
X109950000Y-117841666D01*
X109916666Y-117875000D01*
X109883333Y-117941666D01*
X109883333Y-118108333D01*
X109916666Y-118175000D01*
X109950000Y-118208333D01*
X110016666Y-118241666D01*
X110216666Y-118241666D01*
X110283333Y-118208333D01*
X110316666Y-118175000D01*
X109483333Y-117841666D02*
X109550000Y-117808333D01*
X109583333Y-117775000D01*
X109616666Y-117708333D01*
X109616666Y-117675000D01*
X109583333Y-117608333D01*
X109550000Y-117575000D01*
X109483333Y-117541666D01*
X109350000Y-117541666D01*
X109283333Y-117575000D01*
X109250000Y-117608333D01*
X109216666Y-117675000D01*
X109216666Y-117708333D01*
X109250000Y-117775000D01*
X109283333Y-117808333D01*
X109350000Y-117841666D01*
X109483333Y-117841666D01*
X109550000Y-117875000D01*
X109583333Y-117908333D01*
X109616666Y-117975000D01*
X109616666Y-118108333D01*
X109583333Y-118175000D01*
X109550000Y-118208333D01*
X109483333Y-118241666D01*
X109350000Y-118241666D01*
X109283333Y-118208333D01*
X109250000Y-118175000D01*
X109216666Y-118108333D01*
X109216666Y-117975000D01*
X109250000Y-117908333D01*
X109283333Y-117875000D01*
X109350000Y-117841666D01*
X112350000Y-122291666D02*
X112583333Y-121958333D01*
X112750000Y-122291666D02*
X112750000Y-121591666D01*
X112483333Y-121591666D01*
X112416666Y-121625000D01*
X112383333Y-121658333D01*
X112350000Y-121725000D01*
X112350000Y-121825000D01*
X112383333Y-121891666D01*
X112416666Y-121925000D01*
X112483333Y-121958333D01*
X112750000Y-121958333D01*
X112116666Y-121591666D02*
X111683333Y-121591666D01*
X111916666Y-121858333D01*
X111816666Y-121858333D01*
X111750000Y-121891666D01*
X111716666Y-121925000D01*
X111683333Y-121991666D01*
X111683333Y-122158333D01*
X111716666Y-122225000D01*
X111750000Y-122258333D01*
X111816666Y-122291666D01*
X112016666Y-122291666D01*
X112083333Y-122258333D01*
X112116666Y-122225000D01*
X111450000Y-121591666D02*
X110983333Y-121591666D01*
X111283333Y-122291666D01*
X100466666Y-119716666D02*
X100466666Y-120216666D01*
X100500000Y-120316666D01*
X100566666Y-120383333D01*
X100666666Y-120416666D01*
X100733333Y-120416666D01*
X99766666Y-120416666D02*
X100166666Y-120416666D01*
X99966666Y-120416666D02*
X99966666Y-119716666D01*
X100033333Y-119816666D01*
X100100000Y-119883333D01*
X100166666Y-119916666D01*
X99100000Y-120416666D02*
X99500000Y-120416666D01*
X99300000Y-120416666D02*
X99300000Y-119716666D01*
X99366666Y-119816666D01*
X99433333Y-119883333D01*
X99500000Y-119916666D01*
M02*
